<svg viewBox="0 0 412 453" fill="none" xmlns="http://www.w3.org/2000/svg">
<g fill="#006784" opacity="0.4">
<path d="M 27.9166 86.5699 L 33.0824 56.4879 C 33.0874 49.7944 40.2213 45.6756 46.0205 49.0181 L 74.6552 59.5853 C 80.5365 62.975 80.6341 71.475 74.8285 74.8268 L 41.0294 94.3408 C 35.2238 97.6926 27.9122 93.3595 27.9166 86.5699 Z M 1.247 58.4971 C -1.7991 62.4696 0.9565 69.6545 7.4043 74.5431 C 13.852 79.4317 21.5464 80.1738 24.5925 76.2013 C 27.6387 72.2288 24.8831 65.0439 18.4353 60.1554 C 11.9875 55.2668 4.2932 54.5246 1.247 58.4971 Z M 23.2376 33.1045 C 29.0991 38.6949 31.0274 46.1379 27.5472 49.729 C 24.0671 53.3201 16.494 51.7 10.6325 46.1096 C 4.771 40.5192 2.8428 33.0762 6.3229 29.4851 C 9.8045 25.8932 17.3776 27.5133 23.2376 33.1045 Z M 57.356 37.6845 C 58.3672 45.7119 63.2095 51.6901 68.1736 51.0398 C 73.137 50.388 76.3429 43.3526 75.3317 35.3252 C 74.3206 27.2978 69.4783 21.3195 64.5141 21.9699 C 59.5507 22.6217 56.3463 29.6563 57.356 37.6845 Z M 36.8495 11.8605 C 41.6996 10.6422 47.1814 16.0336 49.092 23.905 C 51.0027 31.7764 48.6206 39.1441 43.7692 40.3633 C 38.9191 41.5816 33.4374 36.1902 31.5267 28.3188 C 29.616 20.4474 31.9995 13.0789 36.8495 11.8605 Z"/>
<path d="M185.504 119.343L190.67 89.261C190.675 82.5675 197.809 78.4488 203.608 81.7912L232.243 92.3585C238.124 95.7481 238.222 104.248 232.416 107.6L198.617 127.114C192.812 130.466 185.5 126.133 185.504 119.343ZM158.835 91.2703C155.789 95.2428 158.544 102.428 164.992 107.316C171.44 112.205 179.134 112.947 182.18 108.974C185.227 105.002 182.471 97.8171 176.023 92.9285C169.575 88.0399 161.881 87.2978 158.835 91.2703ZM180.826 65.8776C186.687 71.468 188.615 78.911 185.135 82.5021C181.655 86.0932 174.082 84.4731 168.22 78.8827C162.359 73.2924 160.431 65.8493 163.911 62.2582C167.392 58.6663 174.965 60.2864 180.826 65.8776ZM214.944 70.4576C215.955 78.485 220.797 84.4633 225.762 83.8129C230.725 83.1611 233.931 76.1257 232.92 68.0983C231.908 60.0709 227.066 54.0927 222.102 54.743C217.139 55.3948 213.934 62.4294 214.944 70.4576ZM194.437 44.6337C199.288 43.4153 204.769 48.8068 206.68 56.6781C208.591 64.5495 206.209 71.9172 201.357 73.1364C196.507 74.3548 191.025 68.9633 189.115 61.0919C187.204 53.2206 189.587 45.852 194.437 44.6337Z" />
<path d="M105.211 243.881L110.376 213.799C110.381 207.105 117.515 202.987 123.314 206.329L151.949 216.896C157.83 220.286 157.928 228.786 152.122 232.138L118.323 251.652C112.518 255.004 105.206 250.67 105.211 243.881ZM78.541 215.808C75.4948 219.781 78.2504 226.965 84.6982 231.854C91.146 236.743 98.8404 237.485 101.886 233.512C104.933 229.54 102.177 222.355 95.7293 217.466C89.2815 212.578 81.5871 211.836 78.541 215.808ZM100.532 190.415C106.393 196.006 108.321 203.449 104.841 207.04C101.361 210.631 93.788 209.011 87.9265 203.42C82.065 197.83 80.1367 190.387 83.6169 186.796C87.0984 183.204 94.6715 184.824 100.532 190.415ZM134.65 194.995C135.661 203.023 140.503 209.001 145.468 208.351C150.431 207.699 153.637 200.663 152.626 192.636C151.614 184.609 146.772 178.63 141.808 179.281C136.845 179.933 133.64 186.967 134.65 194.995ZM114.143 169.171C118.994 167.953 124.475 173.345 126.386 181.216C128.297 189.087 125.915 196.455 121.063 197.674C116.213 198.893 110.731 193.501 108.821 185.63C106.91 177.758 109.293 170.39 114.143 169.171Z" />
<path d="M265.798 276.654L270.964 246.572C270.969 239.878 278.103 235.76 283.902 239.102L312.537 249.669C318.418 253.059 318.516 261.559 312.71 264.911L278.911 284.425C273.106 287.777 265.794 283.444 265.798 276.654ZM239.129 248.581C236.083 252.554 238.838 259.739 245.286 264.627C251.734 269.516 259.428 270.258 262.474 266.285C265.521 262.313 262.765 255.128 256.317 250.239C249.869 245.351 242.175 244.609 239.129 248.581ZM261.119 223.188C266.981 228.779 268.909 236.222 265.429 239.813C261.949 243.404 254.376 241.784 248.514 236.194C242.653 230.603 240.725 223.16 244.205 219.569C247.686 215.977 255.259 217.597 261.119 223.188ZM295.238 227.768C296.249 235.796 301.091 241.774 306.055 241.124C311.019 240.472 314.225 233.437 313.214 225.409C312.202 217.382 307.36 211.404 302.396 212.054C297.433 212.706 294.228 219.74 295.238 227.768ZM274.731 201.945C279.581 200.726 285.063 206.118 286.974 213.989C288.885 221.86 286.502 229.228 281.651 230.447C276.801 231.666 271.319 226.274 269.409 218.403C267.498 210.531 269.881 203.163 274.731 201.945Z" />
<path d="M185.504 401.192L190.67 371.11C190.675 364.416 197.809 360.297 203.608 363.64L232.243 374.207C238.124 377.597 238.222 386.097 232.416 389.449L198.617 408.963C192.812 412.314 185.5 407.981 185.504 401.192ZM158.835 373.119C155.789 377.091 158.544 384.276 164.992 389.165C171.44 394.054 179.134 394.796 182.18 390.823C185.227 386.851 182.471 379.666 176.023 374.777C169.575 369.889 161.881 369.146 158.835 373.119ZM180.826 347.726C186.687 353.317 188.615 360.76 185.135 364.351C181.655 367.942 174.082 366.322 168.22 360.731C162.359 355.141 160.431 347.698 163.911 344.107C167.392 340.515 174.965 342.135 180.826 347.726ZM214.944 352.306C215.955 360.334 220.797 366.312 225.762 365.662C230.725 365.01 233.931 357.974 232.92 349.947C231.908 341.92 227.066 335.941 222.102 336.592C217.139 337.243 213.934 344.278 214.944 352.306ZM194.437 326.482C199.288 325.264 204.769 330.655 206.68 338.527C208.591 346.398 206.209 353.766 201.357 354.985C196.507 356.203 191.025 350.812 189.115 342.941C187.204 335.069 189.587 327.701 194.437 326.482Z" />
<path d="M346.092 433.965L351.258 403.883C351.263 397.189 358.397 393.071 364.196 396.413L392.831 406.98C398.712 410.37 398.81 418.87 393.004 422.222L359.205 441.736C353.4 445.088 346.088 440.754 346.092 433.965ZM319.423 405.892C316.377 409.865 319.132 417.049 325.58 421.938C332.028 426.827 339.722 427.569 342.768 423.596C345.814 419.624 343.059 412.439 336.611 407.55C330.163 402.662 322.469 401.92 319.423 405.892ZM341.413 380.499C347.275 386.09 349.203 393.533 345.723 397.124C342.243 400.715 334.67 399.095 328.808 393.505C322.947 387.914 321.019 380.471 324.499 376.88C327.98 373.288 335.553 374.908 341.413 380.499ZM375.532 385.079C376.543 393.107 381.385 399.085 386.349 398.435C391.313 397.783 394.519 390.748 393.507 382.72C392.496 374.693 387.654 368.714 382.69 369.365C377.727 370.017 374.522 377.051 375.532 385.079ZM355.025 359.255C359.875 358.037 365.357 363.429 367.268 371.3C369.178 379.171 366.796 386.539 361.945 387.758C357.095 388.977 351.613 383.585 349.702 375.714C347.792 367.842 350.175 360.474 355.025 359.255Z" />
</g>
</svg>
