<svg version="1.2" xmlns="http://www.w3.org/2000/svg" viewBox="0 0 1551 440" width="1551" height="440">
	<title>HUBS_BIG</title>
	<style>
		.s0 { fill: #ffffff } 
	</style>
	<g>
		<path fill-rule="evenodd" class="s0" d="m167.9 249h-113.8v120.1h-54.1v-296.3h54.1v124.2h113.8v-124.2h54.1v296.3h-54.1z"/>
		<path class="s0" d="m395 273.3c0 24.7-20.1 44.8-44.8 44.8-24.6 0-44.7-20.1-44.7-44.8v-126.9h-51.2v126.9c0 53 43.1 96 95.9 96 52.9 0 95.9-43 95.9-96v-126.9h-51.1z"/>
		<path class="s0" d="m774.8 159.5c0-26 17.2-34.3 36.1-34.3 15.1 0 35.2 11.6 48.3 25.6l33.6-39.6c-16.8-22.7-50.8-38.4-78.7-38.4-55.7 0-95.8 32.6-95.8 86.7 0 100.3 122.5 68.5 122.5 124.6 0 17.4-16.8 32.6-36.1 32.6-30.3 0-40.1-14.8-54-30.5l-37.3 38.8c23.8 29.3 53.2 44.2 88.5 44.2 52.8 0 95.4-33.1 95.4-84.7 0-111.4-122.5-76.7-122.5-125z"/>
		<path class="s0" d="m1532.4 321.8c-30.3 0-38.9-13.1-38.9-33.2v-89h47.1v-45.1h-47.1v-59.5l-52 23.4v181.2c0 46.4 31.9 69.7 75.8 69.7 6.5 0 15.5-0.4 20.4-1.6l12.7-46.7c-5.7 0.4-12.2 0.8-18 0.8z"/>
		<path class="s0" d="m590.1 147.9c-25.4 0-43.1 7.4-60.2 24.2v-97.5h-51.4v180.7c0 67.7 48.9 114 103.8 114 61 0 114.4-47.1 114.4-110.7 0-62.7-49.3-110.7-106.6-110.7zm-0.3 169.7c-32.2 0-58.3-26.1-58.3-58.3 0-32.2 26.1-58.3 58.3-58.3 32.1 0 58.2 26.1 58.2 58.3 0 32.2-26.1 58.3-58.2 58.3z"/>
		<path class="s0" d="m1147.7 256c0-63.6-53.5-110.7-114.5-110.7-54.9 0-103.8 46.3-103.8 114v180.7h51.4v-97.5c17.1 16.8 34.8 24.2 60.2 24.2 57.4 0 106.7-48 106.7-110.7zm-48.7-0.7c0 32.2-26.1 58.3-58.3 58.3-32.2 0-58.2-26.1-58.2-58.3 0-32.2 26-58.3 58.2-58.3 32.2 0 58.3 26.1 58.3 58.3z"/>
		<path class="s0" d="m1313.6 142.8v-51.7c13.5-6.3 22.9-20 22.9-35.8v-1.2c0-21.8-17.8-39.7-39.6-39.7h-1.2c-21.9 0-39.7 17.9-39.7 39.7v1.2c0 15.8 9.4 29.5 22.9 35.8v51.7c-20.1 3.1-38.4 11.4-53.5 23.5l-141.6-110.3c0.9-3.6 1.6-7.3 1.6-11.1 0-24.8-20-44.9-44.7-44.9-24.7 0-44.8 20-44.8 44.7-0.1 24.8 19.9 44.9 44.7 44.9 8 0 15.5-2.3 22-6l139.3 108.5c-11.8 17.9-18.8 39.4-18.8 62.5 0 24.1 7.7 46.5 20.6 64.9l-42.4 42.4c-3.4-1-6.8-1.7-10.5-1.7-20.3 0-36.8 16.5-36.8 36.8 0 20.3 16.5 36.8 36.8 36.8 20.3 0 36.8-16.5 36.8-36.8 0-3.7-0.7-7.2-1.8-10.5l42-42c19 14.6 42.7 23.3 68.5 23.3 62.4 0 113.1-50.7 113.1-113.2 0-56.7-41.6-103.4-95.8-111.8zm-17.3 169.8c-32.1 0-58-26-58-58 0-32.1 25.9-58.1 58-58.1 32 0 58 26 58 58.1 0 32-26 58-58 58z"/>
	</g>
</svg>