<?xml version="1.0" encoding="UTF-8"?>
<svg xmlns="http://www.w3.org/2000/svg" width="1536" height="1024" viewBox="0 0 1536 1024" fill="none">
  <!-- Desktop browser window -->
  <rect x="268" y="80" width="680" height="520" rx="8" stroke="#333" stroke-width="2.5"/>

  <!-- Browser chrome -->
  <rect x="268" y="80" width="680" height="40" rx="8" stroke="#333" stroke-width="2.5" fill="none"/>
  <line x1="268" y1="120" x2="948" y2="120" stroke="#333" stroke-width="1.5"/>

  <!-- Browser dots -->
  <circle cx="296" cy="100" r="5" fill="#3a3a3a"/>
  <circle cx="316" cy="100" r="5" fill="#3a3a3a"/>
  <circle cx="336" cy="100" r="5" fill="#3a3a3a"/>

  <!-- URL bar -->
  <rect x="360" y="92" width="300" height="16" rx="8" stroke="#333" stroke-width="1.2" fill="none"/>

  <!-- Landing page content - Hero -->
  <rect x="318" y="145" width="580" height="8" rx="3" fill="#444"/>
  <rect x="368" y="165" width="480" height="6" rx="2" fill="#2e2e2e"/>
  <rect x="408" y="181" width="400" height="6" rx="2" fill="#2e2e2e"/>

  <!-- CTA button -->
  <rect x="508" y="205" width="200" height="30" rx="4" stroke="#444" stroke-width="1.5" fill="none"/>
  <rect x="558" y="215" width="100" height="8" rx="3" fill="#3a3a3a"/>

  <!-- Form section -->
  <rect x="318" y="260" width="260" height="25" rx="3" stroke="#333" stroke-width="1.2" fill="none"/>
  <rect x="318" y="295" width="260" height="25" rx="3" stroke="#333" stroke-width="1.2" fill="none"/>
  <rect x="318" y="330" width="260" height="25" rx="3" stroke="#333" stroke-width="1.2" fill="none"/>
  <rect x="318" y="365" width="260" height="28" rx="3" fill="#3a3a3a"/>

  <!-- Image placeholder -->
  <rect x="608" y="260" width="290" height="133" rx="4" stroke="#333" stroke-width="1.2" fill="none"/>
  <line x1="608" y1="260" x2="898" y2="393" stroke="#2a2a2a" stroke-width="1"/>
  <line x1="898" y1="260" x2="608" y2="393" stroke="#2a2a2a" stroke-width="1"/>

  <!-- Content blocks below -->
  <rect x="318" y="420" width="580" height="6" rx="2" fill="#2e2e2e"/>
  <rect x="318" y="436" width="540" height="6" rx="2" fill="#2e2e2e"/>
  <rect x="318" y="452" width="560" height="6" rx="2" fill="#2e2e2e"/>

  <!-- Three column features -->
  <rect x="318" y="480" width="180" height="90" rx="4" stroke="#2e2e2e" stroke-width="1.2" fill="none"/>
  <rect x="518" y="480" width="180" height="90" rx="4" stroke="#2e2e2e" stroke-width="1.2" fill="none"/>
  <rect x="718" y="480" width="180" height="90" rx="4" stroke="#2e2e2e" stroke-width="1.2" fill="none"/>

  <!-- Mobile phone -->
  <rect x="1000" y="180" width="260" height="480" rx="20" stroke="#333" stroke-width="2.5"/>

  <!-- Mobile notch -->
  <rect x="1090" y="195" width="80" height="8" rx="4" fill="#333"/>

  <!-- Mobile content -->
  <rect x="1030" y="230" width="200" height="8" rx="3" fill="#444"/>
  <rect x="1050" y="248" width="160" height="6" rx="2" fill="#2e2e2e"/>
  <rect x="1060" y="264" width="140" height="6" rx="2" fill="#2e2e2e"/>

  <!-- Mobile CTA -->
  <rect x="1060" y="290" width="140" height="24" rx="4" stroke="#444" stroke-width="1.5" fill="none"/>
  <rect x="1090" y="298" width="80" height="6" rx="2" fill="#3a3a3a"/>

  <!-- Mobile form -->
  <rect x="1030" y="335" width="200" height="20" rx="3" stroke="#333" stroke-width="1.2" fill="none"/>
  <rect x="1030" y="365" width="200" height="20" rx="3" stroke="#333" stroke-width="1.2" fill="none"/>
  <rect x="1030" y="395" width="200" height="20" rx="3" stroke="#333" stroke-width="1.2" fill="none"/>
  <rect x="1030" y="425" width="200" height="22" rx="3" fill="#3a3a3a"/>

  <!-- Mobile content lines -->
  <rect x="1030" y="470" width="200" height="5" rx="2" fill="#2e2e2e"/>
  <rect x="1030" y="483" width="180" height="5" rx="2" fill="#2e2e2e"/>
  <rect x="1030" y="496" width="190" height="5" rx="2" fill="#2e2e2e"/>

  <!-- Mobile cards -->
  <rect x="1030" y="520" width="200" height="50" rx="4" stroke="#2e2e2e" stroke-width="1.2" fill="none"/>
  <rect x="1030" y="580" width="200" height="50" rx="4" stroke="#2e2e2e" stroke-width="1.2" fill="none"/>

  <!-- Audit arrows / annotation marks -->
  <circle cx="960" cy="365" r="12" stroke="#444" stroke-width="1.5" fill="none"/>
  <line x1="960" y1="353" x2="960" y2="377" stroke="#444" stroke-width="1.5"/>
  <line x1="948" y1="365" x2="972" y2="365" stroke="#444" stroke-width="1.5"/>
</svg>
