<svg xmlns="http://www.w3.org/2000/svg" viewBox="0 0 400 400" fill="none" stroke="#ffffff" stroke-width="2.5" stroke-linecap="round" stroke-linejoin="round">
  <!-- Browser window frame -->
  <rect x="60" y="75" width="280" height="250" rx="10"/>

  <!-- Browser top bar line -->
  <line x1="60" y1="110" x2="340" y2="110"/>

  <!-- Browser dots -->
  <circle cx="83" cy="93" r="5.5"/>
  <circle cx="103" cy="93" r="5.5"/>
  <circle cx="123" cy="93" r="5.5"/>

  <!-- Nav/header bar -->
  <rect x="82" y="122" width="235" height="18" rx="3" opacity="0.4"/>

  <!-- Person avatar area (left side) -->
  <rect x="82" y="155" width="110" height="115" rx="4"/>
  <!-- Head -->
  <circle cx="137" cy="192" r="16"/>
  <!-- Body/shoulders -->
  <path d="M112,235 Q137,218 162,235"/>

  <!-- Image placeholder (right side) -->
  <rect x="205" y="155" width="115" height="115" rx="4"/>
  <!-- Mountain icon -->
  <polyline points="215,258 245,200 262,228 285,190 315,258"/>

  <!-- Bottom text lines -->
  <line x1="82" y1="290" x2="240" y2="290"/>
  <line x1="82" y1="306" x2="320" y2="306"/>
</svg>
