<svg xmlns="http://www.w3.org/2000/svg" viewBox="0 0 1536 1024" width="1536" height="1024" fill="none">
  <g stroke="#000000" stroke-linecap="round" stroke-linejoin="round">

    <!-- ============ BROWSER WINDOW FRAME ============ -->
    <!-- Top edge (left to right) -->
    <path d="M 268,128 C 380,125 520,131 660,127 C 800,124 1000,132 1140,128 C 1200,126 1250,129 1272,130" stroke-width="4.5"/>
    <!-- Right edge (top to bottom) -->
    <path d="M 1272,130 C 1275,135 1278,138 1280,148 C 1282,280 1278,440 1281,580 C 1283,700 1279,820 1280,886 C 1280,892 1277,897 1272,900" stroke-width="4.2"/>
    <!-- Bottom edge (right to left) -->
    <path d="M 1272,900 C 1150,903 1000,898 860,902 C 720,905 560,897 400,901 C 340,903 290,899 262,900" stroke-width="4.5"/>
    <!-- Left edge (bottom to top) -->
    <path d="M 262,900 C 258,896 255,892 254,884 C 256,740 252,580 255,430 C 257,310 253,210 254,148 C 255,140 258,134 268,128" stroke-width="4.0"/>

    <!-- Browser top bar divider line -->
    <path d="M 255,202 C 370,199 530,204 690,200 C 850,197 1050,205 1180,201 C 1230,200 1260,203 1280,202" stroke-width="3.5"/>

    <!-- ============ BROWSER CHROME DOTS ============ -->
    <!-- Dot 1 (close) -->
    <path d="M 305,162 C 308,153 317,150 323,154 C 329,158 331,167 327,173 C 323,179 314,180 308,176 C 302,171 301,165 305,162" stroke-width="3.8"/>
    <!-- Dot 2 (minimize) -->
    <path d="M 349,160 C 353,152 361,149 367,153 C 374,157 376,166 372,173 C 367,179 358,181 352,176 C 346,170 345,163 349,160" stroke-width="3.5"/>
    <!-- Dot 3 (maximize) -->
    <path d="M 393,163 C 396,154 405,151 411,155 C 418,159 420,168 416,174 C 411,180 402,182 396,177 C 390,172 389,166 393,163" stroke-width="3.8"/>

    <!-- ============ URL / ADDRESS BAR (pill shape) ============ -->
    <!-- Top of pill -->
    <path d="M 476,154 C 480,148 490,146 520,147 C 600,145 720,148 820,146 C 870,145 900,147 908,148 C 916,150 920,155 920,162" stroke-width="3.2"/>
    <!-- Right cap + bottom -->
    <path d="M 920,162 C 921,168 919,174 914,178 C 908,182 898,183 870,182 C 780,184 640,180 540,183 C 500,184 486,182 480,180 C 474,177 472,172 472,166" stroke-width="3.4"/>
    <!-- Left cap close -->
    <path d="M 472,166 C 471,160 474,155 476,154" stroke-width="3.2"/>

    <!-- ============ LEFT PANEL BORDER ============ -->
    <!-- Top -->
    <path d="M 302,244 C 380,241 480,247 560,243 C 620,240 680,245 712,244" stroke-width="3.8"/>
    <!-- Right -->
    <path d="M 712,244 C 716,248 718,254 718,262 C 720,380 716,500 719,620 C 721,700 717,740 718,776 C 718,782 716,786 712,788" stroke-width="3.5"/>
    <!-- Bottom -->
    <path d="M 712,788 C 640,791 540,786 460,790 C 400,793 350,787 306,789" stroke-width="3.8"/>
    <!-- Left -->
    <path d="M 306,789 C 302,785 300,780 300,774 C 298,660 302,520 299,400 C 297,320 301,270 300,258 C 300,250 303,246 302,244" stroke-width="4.0"/>

    <!-- ============ RIGHT PANEL BORDER ============ -->
    <!-- Top -->
    <path d="M 790,246 C 860,243 960,249 1060,245 C 1140,242 1190,247 1224,246" stroke-width="3.5"/>
    <!-- Right -->
    <path d="M 1224,246 C 1228,250 1230,256 1230,264 C 1232,380 1228,500 1231,620 C 1233,700 1229,740 1230,776 C 1230,782 1228,787 1224,790" stroke-width="3.8"/>
    <!-- Bottom -->
    <path d="M 1224,790 C 1140,793 1040,787 960,791 C 880,794 830,789 794,790" stroke-width="3.5"/>
    <!-- Left -->
    <path d="M 794,790 C 790,786 788,781 788,774 C 786,660 790,520 787,400 C 785,320 789,270 788,258 C 788,252 791,248 790,246" stroke-width="4.0"/>

    <!-- ============ LEFT PANEL: PERSON SILHOUETTE ============ -->
    <!-- Head (lopsided wobbly circle) -->
    <path d="M 510,350 C 528,338 548,340 558,348 C 572,360 576,380 572,400 C 568,420 556,436 540,442 C 524,448 506,444 494,432 C 480,418 474,396 478,376 C 482,360 494,348 510,350" stroke-width="4.5"/>

    <!-- Shoulders / torso curve -->
    <path d="M 420,580 C 424,548 438,522 458,506 C 476,492 498,484 522,482 C 546,480 568,488 586,502 C 606,518 618,544 622,578" stroke-width="4.3"/>

    <!-- Text line 1 (longest) -->
    <path d="M 452,646 C 480,643 510,648 540,644 C 560,642 580,646 600,644" stroke-width="3.8"/>
    <!-- Text line 2 (medium) -->
    <path d="M 472,690 C 496,687 520,692 544,689 C 560,687 572,691 582,690" stroke-width="3.5"/>
    <!-- Text line 3 (shortest) -->
    <path d="M 490,732 C 508,729 526,734 544,731 C 554,730 560,733 566,732" stroke-width="3.2"/>

    <!-- ============ RIGHT PANEL: MOUNTAIN LANDSCAPE ============ -->
    <!-- Left mountain (wobbly triangle-ish) -->
    <path d="M 898,638 C 912,600 928,556 946,510 C 958,478 970,448 980,418 C 984,408 988,398 994,392 C 998,396 1004,410 1012,430 C 1028,470 1048,530 1068,590 C 1078,616 1086,634 1092,642" stroke-width="4.3"/>

    <!-- Right mountain (taller, overlapping) -->
    <path d="M 1024,640 C 1038,600 1056,548 1076,490 C 1092,444 1108,398 1120,362 C 1126,346 1132,336 1138,332 C 1142,336 1148,348 1156,368 C 1172,410 1192,470 1210,536 C 1224,586 1236,622 1246,644" stroke-width="4.5"/>

    <!-- Sun (lopsided wobbly circle) -->
    <path d="M 940,282 C 952,268 970,264 984,270 C 998,276 1006,292 1004,310 C 1002,326 992,340 978,346 C 962,352 946,348 936,336 C 926,322 924,304 930,290 C 933,284 936,280 940,282" stroke-width="3.8"/>

    <!-- Ground line -->
    <path d="M 852,642 C 920,639 1000,644 1080,640 C 1140,637 1200,643 1254,641" stroke-width="3.5"/>

    <!-- Text line 1 (longest) -->
    <path d="M 984,718 C 1010,715 1040,720 1070,716 C 1090,714 1110,718 1132,716" stroke-width="3.8"/>
    <!-- Text line 2 (medium) -->
    <path d="M 1004,762 C 1026,759 1050,764 1074,760 C 1088,758 1098,762 1110,761" stroke-width="3.5"/>
    <!-- Text line 3 (shortest) -->
    <path d="M 1022,804 C 1038,801 1054,806 1070,803 C 1078,802 1084,805 1092,804" stroke-width="3.2"/>

  </g>
</svg>
