<?xml version="1.0" encoding="UTF-8"?>
<!-- Generator: visioncortex VTracer 0.6.12 -->
<svg version="1.1" xmlns="http://www.w3.org/2000/svg" width="1536" height="1024">
<path d="M0 0 C13.259 10.897 20.596 24.378 24.125 41.062 C25.485 57.377 23.777 76.693 13.562 90.312 C11.922 92.008 10.403 93.511 8.438 94.812 C7.777 94.812 7.118 94.812 6.438 94.812 C8.389 116.974 16.182 135.697 30.438 152.812 C31.112 153.663 31.786 154.514 32.48 155.391 C47.76 173.714 69.745 184.185 91.438 192.812 C92.444 193.216 93.451 193.619 94.488 194.035 C95.132 194.292 95.775 194.548 96.438 194.812 C96.414 194.256 96.414 194.256 96.297 191.438 C95.723 171.743 100.283 154.165 113.875 139.375 C115.695 137.481 117.556 135.648 119.438 133.812 C119.814 133.432 119.814 133.432 121.719 131.504 C127.287 126.168 133.343 122.778 140.438 119.812 C141.242 119.471 142.046 119.129 142.875 118.777 C156.145 114.205 173.74 115.171 186.438 120.812 C187.363 121.213 188.289 121.614 189.242 122.027 C205.31 129.879 216.263 144.315 222.438 160.812 C226.658 175.132 226.594 193.305 219.494 206.577 C209.478 224.309 195.547 234.28 175.98 239.785 C157.951 243.985 138.081 243.486 121.438 234.812 C121.273 236.091 121.107 237.37 120.938 238.688 C117.188 257.201 104.627 278.366 90.438 290.812 C89.778 290.812 89.117 290.812 88.438 290.812 C88.438 291.473 88.438 292.132 88.438 292.812 C89.592 293.122 90.747 293.431 91.938 293.75 C123.922 304.545 144.094 331.868 158.438 360.812 C158.951 360.241 159.464 359.67 159.992 359.082 C208.016 308.228 300.096 284.156 367.438 276.812 C369.104 276.788 370.771 276.781 372.438 276.812 C372.403 275.881 372.368 274.949 372.332 273.988 C371.889 253.137 378.869 237.599 392.812 222.188 C411.566 205.22 430.848 199.475 455.817 200.637 C461.029 200.986 465.594 201.869 470.438 203.812 C471.547 204.253 472.657 204.694 473.801 205.148 C491.793 213.211 503.05 227.736 510.465 245.703 C512.956 253.668 513.801 261.364 513.75 269.688 C513.747 270.17 513.747 270.17 513.733 272.615 C513.434 290.179 506.669 304.025 494.641 316.707 C477.039 333.368 454.438 336.539 431.187 335.944 C425.933 335.692 421.335 334.677 416.438 332.812 C415.293 332.399 414.148 331.985 412.969 331.559 C404.994 328.432 398.742 324.583 392.438 318.812 C391.815 318.281 391.192 317.75 390.551 317.203 C381.541 309.023 375.877 297.625 373.438 285.812 C373.344 282.937 373.344 282.937 373.438 280.812 C342.772 284.122 312.894 290.773 283.438 299.812 C282.268 300.171 281.098 300.529 279.893 300.898 C256.424 308.185 233.081 317.094 211.438 328.812 C211.074 329.007 211.074 329.007 209.234 329.991 C194.895 337.685 181.534 346.224 168.954 356.57 C167.637 357.649 166.301 358.704 164.961 359.754 C160.642 363.462 160.642 363.462 160.145 366.746 C160.338 369.199 160.838 371.424 161.438 373.812 C161.942 376.103 162.441 378.395 162.938 380.688 C163.2 381.902 163.463 383.116 163.734 384.367 C165.868 394.821 165.34 405.008 164.789 415.605 C164.746 416.492 164.702 417.378 164.657 418.291 C164.451 420.653 163.986 422.806 163.461 425.113 C163.438 428.812 163.438 428.812 164.592 430.438 C166.443 432.114 168.337 433.461 170.438 434.812 C170.799 435.045 170.799 435.045 172.63 436.224 C234.745 474.063 316.188 484.093 387.438 489.812 C387.494 489.522 387.494 489.522 387.783 488.052 C391.344 470.859 402.395 457.686 416.473 447.648 C433.628 436.517 453.386 432.089 473.562 436 C490.585 440.094 506.709 449.788 516.934 464.324 C523.724 475.559 529.647 487.514 530.438 500.812 C530.464 501.248 530.464 501.248 530.598 503.449 C531.096 519.692 526.755 534.963 515.938 547.312 C514.459 548.833 512.961 550.336 511.438 551.812 C511.167 552.087 511.167 552.087 509.801 553.477 C494.525 567.868 473.595 572.298 453.305 572.027 C433.924 571.419 416.36 562.794 403.078 548.887 C392.031 536.379 385.264 521.075 385.312 504.188 C385.31 503.288 385.307 502.388 385.305 501.461 C385.437 498.817 385.893 496.398 386.438 493.812 C385.215 493.766 383.992 493.719 382.733 493.671 C370.861 493.173 359.156 492.153 347.375 490.625 C346.95 490.571 346.95 490.571 344.797 490.296 C281.557 482.193 215.619 468.973 161.438 433.812 C161.37 434.117 161.37 434.117 161.027 435.656 C153.548 466.111 133.053 489.698 107.438 506.812 C113.226 530.453 129.603 550.746 147.438 566.812 C148.097 567.143 148.758 567.472 149.438 567.812 C149.564 567.08 149.69 566.348 149.82 565.594 C152.944 551.516 164.538 540.211 176.262 532.676 C193.212 522.731 212.217 518.783 231.5 523.312 C243.557 526.492 255.194 532.422 264.438 540.812 C264.779 541.114 264.779 541.114 266.508 542.641 C276.535 552.02 284.473 566.042 285.615 579.972 C286.136 599.821 283.094 617.975 269.062 633.188 C267.219 635.098 265.336 636.955 263.438 638.812 C262.73 639.552 262.022 640.292 261.293 641.055 C247.787 654.328 229.795 658.309 211.465 658.165 C195.629 657.769 182.349 652.313 170.438 641.812 C170.068 641.49 170.068 641.49 168.199 639.859 C154.657 627.229 146.139 609.436 145.305 590.855 C145.306 590.384 145.306 590.384 145.312 588 C145.31 587.065 145.307 586.131 145.305 585.168 C145.438 581.812 145.438 581.812 145.957 579.501 C146.72 575.632 147.198 573.014 145.025 569.582 C142.871 567.304 140.616 565.245 138.25 563.188 C136.571 561.616 134.899 560.036 133.234 558.449 C132.411 557.669 131.588 556.888 130.74 556.083 C118.295 543.81 106.979 526.003 103.438 508.812 C102.252 509.344 101.066 509.875 99.844 510.422 C63.999 526.187 24.396 526.756 -12.461 513.027 C-41.667 501.617 -62.896 480.551 -78.562 453.812 C-81.305 455.091 -83.547 456.477 -85.855 458.43 C-86.478 458.949 -87.1 459.468 -87.741 460.003 C-88.404 460.559 -89.067 461.115 -89.75 461.688 C-95.622 466.532 -101.606 471.154 -107.812 475.562 C-108.527 476.075 -109.241 476.588 -109.977 477.117 C-110.65 477.589 -111.323 478.061 -112.016 478.547 C-112.605 478.962 -113.194 479.376 -113.802 479.804 C-115.704 480.894 -117.422 481.381 -119.562 481.812 C-119.02 482.707 -118.477 483.602 -117.918 484.523 C-108.86 499.711 -105.704 513.625 -109.621 531.152 C-110.801 535.741 -112.233 539.696 -114.562 543.812 C-115.033 544.681 -115.504 545.55 -115.988 546.445 C-124.599 561.2 -138.392 570.078 -154.562 574.75 C-172.947 579.024 -189.528 576.776 -205.562 566.812 C-215.27 559.877 -221.111 551.031 -225.262 539.953 C-225.479 539.376 -225.479 539.376 -226.581 536.454 C-226.905 535.582 -227.229 534.711 -227.562 533.812 C-228.099 533.855 -228.099 533.855 -230.813 534.072 C-234.866 534.395 -238.92 534.718 -242.974 535.039 C-244.714 535.178 -246.455 535.316 -248.196 535.455 C-258.98 536.316 -269.765 537.127 -280.562 537.812 C-280.624 538.988 -280.686 540.164 -280.75 541.375 C-282.794 559.371 -292.455 574.256 -305.969 585.883 C-325.425 600.345 -350.216 605.284 -374.017 602.528 C-393.452 599.413 -409.361 589.182 -421.562 573.812 C-432.136 559.034 -436.882 540.727 -434.258 522.722 C-430.815 504.078 -421.42 489.473 -406.562 477.812 C-386.576 464.192 -362.948 458.178 -338.949 462.539 C-326.534 465.251 -315.583 470.03 -305.562 477.812 C-304.937 478.273 -304.312 478.733 -303.668 479.207 C-290.213 489.746 -282.945 507.336 -280.562 523.812 C-280.378 525.552 -280.201 527.291 -280.031 529.032 C-279.943 529.928 -279.854 530.825 -279.763 531.748 C-279.697 532.43 -279.631 533.111 -279.562 533.812 C-278.337 533.691 -277.112 533.57 -275.85 533.445 C-271.271 532.994 -266.692 532.548 -262.113 532.104 C-260.137 531.911 -258.161 531.717 -256.186 531.521 C-253.334 531.239 -250.481 530.963 -247.629 530.688 C-247.193 530.644 -247.193 530.644 -244.986 530.422 C-239.484 529.898 -234.089 529.734 -228.562 529.812 C-228.597 528.652 -228.632 527.492 -228.668 526.297 C-229.065 507.715 -224.945 491.645 -211.82 477.875 C-199.78 465.835 -185.271 460.083 -168.375 459.438 C-150.161 459.763 -136.344 467.688 -122.562 478.812 C-107.225 471.558 -94.287 459.855 -81.562 448.812 C-81.975 447.637 -82.388 446.461 -82.812 445.25 C-84.232 440.972 -85.496 436.658 -86.688 432.312 C-87.02 431.106 -87.353 429.899 -87.695 428.656 C-94.717 397.534 -87.039 365.523 -70.562 338.812 C-71.168 338.654 -71.774 338.495 -72.398 338.332 C-78.905 336.52 -84.627 334.009 -90.562 330.812 C-91.46 330.338 -92.358 329.863 -93.283 329.374 C-100.331 325.598 -107.167 321.514 -113.877 317.166 C-114.569 316.726 -115.26 316.286 -115.973 315.832 C-116.572 315.441 -117.172 315.05 -117.789 314.648 C-119.562 313.812 -119.562 313.812 -123.562 313.812 C-125.027 315.062 -125.027 315.062 -126.5 316.812 C-139.711 330.668 -159.486 335.601 -178.062 336.062 C-193.33 335.704 -206.403 332.162 -219.359 324.105 C-225.88 321.473 -232.023 324.133 -238.312 326.438 C-277.482 340.005 -319.322 344.627 -360.562 345.812 C-360.819 346.409 -361.076 347.005 -361.341 347.619 C-367.186 361.008 -375.576 371.217 -389.336 376.973 C-403.631 382.319 -418.824 382.935 -433.195 377.418 C-446.432 371.107 -456.721 360.623 -461.633 346.801 C-464.885 335.033 -464.27 319.406 -459.043 308.367 C-451.309 295.021 -440.398 286.948 -425.711 282.609 C-410.819 278.84 -396.977 280.83 -383.449 288.027 C-372.237 294.961 -363.347 305.979 -360.027 318.895 C-359.354 323.123 -359.194 327.351 -359 331.625 C-358.957 332.509 -358.914 333.392 -358.869 334.303 C-358.764 336.472 -358.663 338.642 -358.562 340.812 C-314.089 339.895 -270.798 333.012 -228.562 318.812 C-228.955 318.355 -229.348 317.898 -229.752 317.426 C-230.838 316.16 -231.923 314.893 -233.008 313.626 C-234.157 312.286 -235.311 310.95 -236.469 309.617 C-247.87 295.813 -251.351 279.612 -250.352 262.121 C-248.245 244.334 -239.509 228.175 -225.562 216.812 C-221.374 213.905 -216.996 211.328 -212.562 208.812 C-213.313 208.339 -214.063 207.866 -214.836 207.379 C-224.037 201.434 -231.911 194.66 -239.562 186.812 C-239.901 186.479 -239.901 186.479 -241.613 184.793 C-245.31 181.146 -248.873 177.501 -252.188 173.5 C-255.295 169.909 -258.251 167.753 -262.562 165.812 C-263.372 165.43 -264.182 165.047 -265.016 164.652 C-271.344 161.858 -274.935 161.461 -281.57 163.934 C-282.599 164.368 -283.628 164.802 -284.688 165.25 C-300.217 171.356 -317.12 171.655 -332.75 165.625 C-344.589 160.339 -353.162 151.81 -358.422 140.012 C-361.487 131.415 -363.097 123.582 -363 114.438 C-362.992 113.433 -362.985 112.429 -362.977 111.394 C-362.665 97.297 -358.188 85.652 -348.562 75.188 C-335.354 62.666 -318.432 57.662 -300.562 57.812 C-288.868 58.721 -278.184 64.05 -269.562 71.812 C-268.789 72.505 -268.016 73.197 -267.219 73.91 C-256.706 83.845 -250.538 96.428 -249.395 110.945 C-249.255 125.226 -252.899 139.008 -262.562 149.812 C-264.389 151.673 -266.235 153.495 -268.145 155.27 C-269.562 156.812 -269.562 156.812 -270.562 159.812 C-270.248 159.856 -270.248 159.856 -268.656 160.074 C-268.228 160.144 -268.228 160.144 -266.062 160.5 C-265.645 160.564 -265.645 160.564 -263.531 160.887 C-255.898 163.267 -250.451 168.488 -245 174.125 C-244.343 174.792 -243.686 175.459 -243.009 176.147 C-239.797 179.43 -236.665 182.75 -233.688 186.25 C-226.348 194.767 -216.833 203.177 -205.562 205.812 C-200.734 205.35 -196.965 203.738 -192.562 201.812 C-174.424 197.482 -154.538 200.719 -138.566 209.891 C-133.919 212.864 -129.688 216.154 -125.562 219.812 C-124.927 220.366 -124.291 220.919 -123.637 221.488 C-111.786 232.498 -105.46 248.581 -104.379 264.52 C-103.971 281.298 -109.125 296.689 -119.562 309.812 C-118.877 310.059 -118.191 310.305 -117.484 310.559 C-114.056 312.03 -110.972 313.912 -107.812 315.875 C-76.731 334.812 -76.731 334.812 -67.562 334.812 C-65.949 333.309 -65.949 333.309 -64.25 331.25 C-63.634 330.518 -63.018 329.786 -62.383 329.031 C-61.272 327.678 -60.163 326.324 -59.055 324.969 C-55.263 320.41 -51.149 316.567 -46.562 312.812 C-46.094 312.425 -46.094 312.425 -43.723 310.465 C-20.895 292.016 5.233 282.599 34.5 282.5 C34.88 282.499 34.88 282.499 36.803 282.491 C49.4 282.48 61.214 283.6 73.438 286.812 C74.662 287.121 75.887 287.429 77.148 287.746 C79.596 288.39 82.02 289.065 84.438 289.812 C100.752 274.759 112.191 256.581 117.438 234.812 C117.438 231.812 117.438 231.812 115.898 230.27 C115.21 229.727 114.522 229.184 113.812 228.625 C105.959 222.004 98.953 212.629 97.625 202.188 C97.563 201.074 97.501 199.96 97.438 198.812 C97.175 198.745 97.175 198.745 95.848 198.402 C77.409 193.279 60.461 184.658 45.438 172.812 C45.164 172.599 45.164 172.599 43.781 171.517 C23.981 155.86 8.553 133.829 3.438 108.812 C3.175 105.441 3.158 102.181 3.438 98.812 C3.002 99.078 3.002 99.078 0.797 100.422 C-15.225 109.997 -31.711 114.349 -50.359 111.164 C-70.088 105.942 -86.518 94.434 -97.375 77.062 C-105.166 62.876 -106.786 47.645 -102.66 32.004 C-96.897 15.246 -85.142 3.303 -69.688 -4.938 C-46.833 -15.744 -20.677 -15.135 0 0 Z M-89.688 16.32 C-99.452 29.41 -101.975 43.131 -100.207 59.004 C-97.048 74.586 -86.116 87.995 -73.125 96.625 C-57.507 105.948 -41.027 110.548 -22.906 107.121 C-14.226 104.651 -3.845 100.514 2.438 93.812 C3.25 90.562 3.25 90.562 3.438 87.812 C4.189 87.747 4.941 87.681 5.715 87.613 C10.221 86.288 11.48 82.871 13.793 78.996 C17.368 72.074 19.881 64.61 20.438 56.812 C20.501 55.978 20.564 55.144 20.629 54.285 C21.296 38.259 15.86 22.345 5.125 10.438 C-5.578 -0.894 -19.448 -7.881 -35.082 -8.522 C-56.693 -8.951 -75.735 -0.146 -89.688 16.32 Z M-347.562 78.812 C-357.829 92.086 -361.131 106.025 -359.102 122.57 C-356.792 135.805 -351.769 146.824 -341.562 155.812 C-328.626 164.642 -313.668 167.844 -298.254 165.129 C-283.852 162.211 -271.337 156.152 -262.488 143.953 C-254.378 130.827 -252.386 116.431 -255.219 101.309 C-259.668 86.599 -269.775 75.064 -282.816 67.25 C-303.424 56.463 -331.46 62.357 -347.562 78.812 Z M115.781 142.172 C107.075 152.805 100.25 166.741 100.34 180.676 C100.343 181.562 100.346 182.448 100.35 183.361 C100.358 184.273 100.366 185.185 100.375 186.125 C100.38 187.056 100.384 187.988 100.389 188.947 C100.4 191.236 100.417 193.524 100.438 195.812 C105.903 197.733 111.254 199.313 116.938 200.438 C123.333 201.709 123.333 201.709 124.438 202.812 C124.54 205.262 124.578 207.676 124.562 210.125 C124.561 210.841 124.559 211.557 124.557 212.295 C124.507 218.499 124.092 224.642 123.438 230.812 C125.1 231.613 126.768 232.403 128.438 233.188 C128.902 233.408 128.902 233.408 131.25 234.523 C148.296 241.417 168.945 239.142 185.516 232.117 C201.673 224.858 211.759 213.996 218.457 197.609 C223.814 182.329 220.489 165.809 213.934 151.539 C206.125 136.901 193.174 126.779 177.438 121.812 C153.853 116.007 131.737 124.176 115.781 142.172 Z M101.438 200.812 C104.483 211.173 109.466 220.442 118.438 226.812 C119.097 226.812 119.758 226.812 120.438 226.812 C121.72 219.401 122.693 212.34 122.438 204.812 C115.656 202.314 108.685 200.632 101.438 200.812 Z M-229.422 224.48 C-242.111 238.304 -247.34 254.824 -246.871 273.242 C-246.069 289.214 -238.113 304.004 -226.562 314.812 C-211.121 328.154 -191.722 333.085 -171.643 331.981 C-152.911 330.464 -138.361 323.111 -124.562 310.812 C-128.318 306.753 -132.586 304.223 -137.297 301.398 C-138.045 300.875 -138.792 300.352 -139.562 299.812 C-139.562 299.153 -139.562 298.493 -139.562 297.812 C-134.654 299.542 -131.058 302.302 -126.965 305.449 C-124.562 306.812 -124.562 306.812 -122.504 306.898 C-119.524 305.232 -118.173 302.65 -116.562 299.75 C-116.215 299.128 -115.868 298.506 -115.51 297.865 C-107.856 283.433 -106.576 267.27 -110.406 251.453 C-115.588 235.136 -125.43 221.313 -140.562 212.812 C-169.373 198.679 -205.796 201.52 -229.422 224.48 Z M393.785 225.211 C383.028 237.131 376.187 251.978 376.375 268.125 C376.38 268.866 376.384 269.606 376.389 270.369 C376.4 272.184 376.418 273.998 376.438 275.812 C380.068 275.812 383.697 275.812 387.438 275.812 C387.438 276.803 387.438 277.793 387.438 278.812 C385.787 278.977 385.787 278.977 377.438 279.812 C378.17 294.457 385.736 306.984 396.23 316.938 C410.962 329.453 430.04 333.84 449.044 332.539 C466.553 330.955 482.135 324.468 494.438 311.812 C495.083 311.187 495.729 310.562 496.395 309.918 C506.188 299.783 510.181 285.192 510.812 271.375 C509.88 250.66 501.958 232.244 486.898 217.879 C459.643 194.993 418.36 201.954 393.785 225.211 Z M-449.562 300.812 C-457.823 310.966 -460.274 322.217 -459.312 335.184 C-457.513 348.824 -452.584 357.566 -442.562 366.812 C-439.379 369.246 -436.179 371.1 -432.562 372.812 C-431.781 373.222 -431 373.632 -430.195 374.055 C-419.282 378.984 -405.241 378.464 -394 374.812 C-379.982 368.958 -370.664 359.534 -364.562 345.812 C-369.964 342.593 -376.415 342.268 -382.562 342.812 C-384.436 344.317 -385.09 345.677 -386.145 347.82 C-389.178 352.083 -394.884 353.775 -399.562 355.812 C-399.562 359.113 -399.562 362.413 -399.562 365.812 C-403.562 363.812 -403.562 363.812 -405.832 361.281 C-409.157 358.275 -411.965 357.828 -416.25 357.312 C-425.452 355.892 -433.473 353.294 -439.562 345.812 C-444.464 338.831 -446.332 333.389 -445.562 324.812 C-443.561 315.865 -439.099 309.048 -431.562 303.812 C-422.746 299.049 -413.668 297.35 -403.754 299.391 C-394.511 302.275 -387.332 308.235 -382.5 316.625 C-380.026 321.458 -379.424 325.447 -379.438 330.875 C-379.436 331.396 -379.436 331.396 -379.43 334.035 C-379.562 336.812 -379.562 336.812 -380.562 339.812 C-376.953 340.947 -373.578 340.913 -369.812 340.875 C-368.642 340.866 -367.472 340.857 -366.266 340.848 C-365.374 340.836 -364.482 340.824 -363.562 340.812 C-361.004 328.783 -363.73 317.879 -369.906 307.344 C-377.647 295.514 -388.282 288.55 -401.977 285.227 C-419.842 282.366 -437.159 287.625 -449.562 300.812 Z M-42.562 313.812 C-43.446 314.555 -44.329 315.298 -45.238 316.062 C-65.006 333.278 -77.259 354.433 -83.562 379.812 C-83.751 380.562 -83.939 381.311 -84.133 382.083 C-90.463 409.952 -83.704 437.359 -69.256 461.292 C-64.751 468.406 -59.239 474.623 -53.562 480.812 C-52.971 481.487 -52.379 482.161 -51.77 482.855 C-31.003 505.33 3.337 517.656 33.302 518.935 C46.994 519.291 60.1 519.046 73.438 515.812 C74.029 515.673 74.029 515.673 77.02 514.969 C105.326 507.598 130.184 489.828 145.335 464.624 C156.593 444.996 163.077 421.551 161.438 398.812 C161.356 397.571 161.275 396.33 161.191 395.051 C158.624 364.032 144.295 336.027 120.828 315.609 C99.679 297.845 72.455 286.783 44.625 286.609 C43.894 286.604 43.162 286.598 42.409 286.592 C40.866 286.583 39.323 286.576 37.78 286.572 C35.471 286.563 33.164 286.532 30.855 286.5 C3.745 286.305 -21.924 296.364 -42.562 313.812 Z M-437.562 312.812 C-442.262 319.512 -443.633 325.727 -442.562 333.812 C-441.115 341.623 -435.969 346.465 -429.824 351.133 C-424.741 354.176 -419.088 354.56 -413.285 354.955 C-408.526 355.357 -405.996 356.505 -402.562 359.812 C-402.562 357.832 -402.562 355.853 -402.562 353.812 C-401.696 353.565 -400.83 353.317 -399.938 353.062 C-392.977 350.485 -387.559 346.059 -383.562 339.812 C-381.118 333.374 -381.122 327.613 -383.453 321.16 C-387.093 313.458 -393.302 306.524 -401.125 302.938 C-414.43 298.623 -428.483 302.304 -437.562 312.812 Z M404.438 462.812 C398.314 470.757 391.438 480.523 391.438 490.812 C392.509 490.861 393.58 490.91 394.684 490.961 C396.081 491.036 397.478 491.112 398.875 491.188 C399.582 491.218 400.289 491.249 401.018 491.281 C402.83 491.385 404.636 491.592 406.438 491.812 C406.767 492.472 407.097 493.132 407.438 493.812 C401.827 493.812 396.217 493.812 390.438 493.812 C386.976 507.657 391.385 522.854 398.227 534.984 C408.913 551.759 423.474 561.562 442.438 566.812 C461.527 570.99 482.809 566.865 499.512 556.996 C513.199 547.546 522.491 534.372 526.004 518.008 C528.597 498.902 523.591 481.403 512.605 465.637 C501.27 450.87 485.993 442.672 467.938 439.125 C444.755 437.055 420.26 445.255 404.438 462.812 Z M-209.562 479.812 C-219.522 491.814 -224.999 504.195 -224.688 519.812 C-224.678 520.683 -224.669 521.553 -224.66 522.449 C-224.637 524.57 -224.601 526.692 -224.562 528.812 C-221.687 529.771 -220.272 529.879 -217.332 529.691 C-216.53 529.643 -215.727 529.595 -214.9 529.545 C-214.067 529.489 -213.234 529.433 -212.375 529.375 C-211.53 529.323 -210.685 529.271 -209.814 529.217 C-207.73 529.087 -205.646 528.951 -203.562 528.812 C-203.562 529.803 -203.562 530.793 -203.562 531.812 C-203.991 531.807 -203.991 531.807 -206.16 531.777 C-212.071 531.731 -217.744 531.73 -223.562 532.812 C-219.6 547.202 -211.295 558.106 -198.73 566.051 C-185.66 573.32 -170.973 574.324 -156.562 570.812 C-140.444 565.933 -126.006 556.49 -117.812 541.406 C-117.4 540.55 -116.987 539.694 -116.562 538.812 C-116.15 537.957 -115.737 537.101 -115.312 536.219 C-111.024 525.617 -110.501 511.577 -114.188 500.688 C-121.047 485.248 -131.008 474.431 -146.766 467.844 C-167.818 460.081 -193.668 462.302 -209.562 479.812 Z M-414.609 489.52 C-428.017 505.26 -431.611 521.535 -430.562 541.812 C-428.626 558.756 -418.559 573.45 -405.766 584.152 C-387.626 597.911 -367.301 601.321 -344.969 598.483 C-326.208 595.312 -308.779 586.641 -296.562 571.812 C-289.755 562.097 -284.562 550.894 -284.562 538.812 C-291.051 538.518 -297.131 539.642 -303.5 540.812 C-304.565 541.003 -305.631 541.194 -306.729 541.391 C-309.341 541.859 -311.952 542.333 -314.562 542.812 C-314.767 544.016 -314.972 545.22 -315.184 546.461 C-315.456 548.036 -315.728 549.612 -316 551.188 C-316.135 551.982 -316.269 552.776 -316.408 553.594 C-317.449 559.586 -317.449 559.586 -318.562 561.812 C-327.524 561.882 -336.486 561.935 -345.448 561.968 C-349.61 561.984 -353.771 562.005 -357.932 562.039 C-361.945 562.071 -365.959 562.089 -369.972 562.097 C-371.506 562.103 -373.039 562.114 -374.573 562.13 C-376.716 562.151 -378.858 562.154 -381.001 562.153 C-381.612 562.156 -381.612 562.156 -384.702 562.173 C-385.646 562.054 -386.59 561.935 -387.562 561.812 C-391.294 556.215 -390.712 549.44 -390.695 542.914 C-390.696 542.08 -390.697 541.245 -390.698 540.386 C-390.699 538.629 -390.697 536.873 -390.693 535.116 C-390.688 532.452 -390.693 529.789 -390.699 527.125 C-390.699 525.409 -390.697 523.693 -390.695 521.977 C-390.697 521.192 -390.699 520.407 -390.701 519.599 C-390.679 514.269 -390.225 509.102 -389.562 503.812 C-366.89 502.737 -344.255 502.701 -321.562 502.812 C-317.084 522.113 -317.084 522.113 -316.312 530.938 C-316.235 531.715 -316.158 532.492 -316.078 533.293 C-315.897 535.132 -315.728 536.972 -315.562 538.812 C-312.078 539.974 -310.258 539.636 -306.652 539.07 C-305.498 538.891 -304.344 538.712 -303.154 538.527 C-301.948 538.333 -300.742 538.138 -299.5 537.938 C-298.29 537.751 -297.08 537.564 -295.834 537.371 C-286.846 535.954 -286.846 535.954 -284.562 534.812 C-283.474 517.154 -288.231 501.112 -299.812 487.5 C-312.82 473.966 -330.787 465.842 -349.562 464.812 C-350.442 464.76 -351.321 464.707 -352.227 464.652 C-375.008 463.946 -398.969 472.692 -414.609 489.52 Z M-363.438 506.312 C-365.686 506.361 -367.935 506.409 -370.184 506.457 C-375.643 506.574 -381.103 506.693 -386.562 506.812 C-386.613 513.414 -386.648 520.016 -386.672 526.618 C-386.682 528.864 -386.696 531.109 -386.713 533.355 C-386.738 536.584 -386.749 539.813 -386.758 543.043 C-386.768 544.045 -386.778 545.047 -386.789 546.08 C-386.789 547.021 -386.789 547.961 -386.79 548.93 C-386.794 549.754 -386.798 550.578 -386.803 551.427 C-386.52 554.232 -385.863 556.311 -384.562 558.812 C-381.377 559.874 -379.093 559.946 -375.746 559.958 C-375.149 559.961 -375.149 559.961 -372.126 559.977 C-370.835 559.978 -369.545 559.979 -368.215 559.98 C-366.879 559.984 -365.543 559.987 -364.206 559.991 C-361.408 559.997 -358.61 559.998 -355.811 559.998 C-352.221 559.998 -348.631 560.011 -345.04 560.029 C-342.282 560.04 -339.524 560.042 -336.766 560.041 C-334.798 560.043 -332.829 560.054 -330.86 560.065 C-330.264 560.063 -330.264 560.063 -327.25 560.055 C-326.197 560.057 -325.145 560.058 -324.061 560.06 C-321.562 559.812 -321.562 559.812 -319.562 557.812 C-318.491 554.712 -318.457 551.823 -318.5 548.562 C-318.509 547.67 -318.518 546.778 -318.527 545.859 C-318.539 545.184 -318.551 544.508 -318.562 543.812 C-321.962 544.946 -322.615 545.938 -324.562 548.812 C-326.873 548.482 -329.183 548.153 -331.562 547.812 C-332.544 544.76 -332.544 542.865 -331.562 539.812 C-329.23 539.77 -326.895 539.772 -324.562 539.812 C-324.233 540.143 -323.903 540.472 -323.562 540.812 C-321.896 540.853 -320.229 540.855 -318.562 540.812 C-319.375 511 -319.375 511 -324.562 505.812 C-337.449 505.163 -350.544 506.029 -363.438 506.312 Z M163.438 547.812 C158.007 554.222 153.651 561.662 151.438 569.812 C151.812 572.668 151.812 572.668 152.438 574.812 C151.778 574.812 151.117 574.812 150.438 574.812 C146.099 588.744 150.718 604.489 156.688 617.125 C159.955 623.312 163.761 628.623 168.438 633.812 C168.991 634.447 169.544 635.081 170.113 635.734 C181.033 647.514 196.908 653.714 212.699 654.996 C232.716 655.607 250.232 647.212 264.566 633.824 C277.22 620.675 281.958 604.572 281.86 586.678 C281.353 568.213 273.237 555.634 260.469 542.84 C246.327 529.654 228.072 525.053 209.258 525.504 C191.251 526.363 175.532 534.818 163.438 547.812 Z M-329.562 541.812 C-329.727 542.472 -329.727 542.472 -330.562 545.812 C-329.903 546.143 -329.903 546.143 -326.562 547.812 C-325.903 547.153 -325.243 546.492 -324.562 545.812 C-324.938 543.688 -324.938 543.688 -325.562 541.812 C-326.882 541.812 -328.202 541.812 -329.562 541.812 Z " fill="#000000" transform="translate(663.5625,111.1875)"/>
<path d="M0 0 C2.702 2.341 3.715 4.405 4.824 7.781 C5.13 8.706 5.437 9.63 5.752 10.582 C6.061 11.545 6.369 12.508 6.688 13.5 C7.008 14.463 7.328 15.426 7.658 16.418 C10 23.578 10 23.578 10 27 C19.57 27 29.14 27 39 27 C39 27.66 39 28.32 39 29 C37.611 30.173 37.611 30.173 35.676 31.461 C34.976 31.933 34.277 32.405 33.557 32.891 C32.816 33.38 32.076 33.87 31.312 34.375 C26.734 37.435 22.239 40.472 18 44 C18.127 44.508 18.127 44.508 18.77 47.078 C20.846 55.385 22.923 63.693 25 72 C21.95 70.56 19.229 68.874 16.453 66.961 C16.031 66.671 16.031 66.671 13.895 65.203 C13.022 64.6 12.149 63.997 11.25 63.375 C10.362 62.764 9.474 62.153 8.559 61.523 C6.371 60.018 4.185 58.51 2 57 C-1.05 58.44 -3.771 60.126 -6.547 62.039 C-7.391 62.619 -8.236 63.199 -9.105 63.797 C-9.978 64.4 -10.851 65.003 -11.75 65.625 C-12.638 66.236 -13.526 66.847 -14.441 67.477 C-16.629 68.982 -18.815 70.49 -21 72 C-22.212 68.365 -21.659 67.079 -20.566 63.457 C-20.407 62.92 -20.407 62.92 -19.6 60.205 C-19.257 59.086 -18.915 57.966 -18.562 56.812 C-18.224 55.681 -17.886 54.55 -17.537 53.385 C-16.699 50.587 -15.853 47.793 -15 45 C-16.77 43.666 -18.541 42.333 -20.312 41 C-20.848 40.597 -21.383 40.194 -21.935 39.779 C-26.579 36.294 -31.285 32.899 -36.016 29.531 C-36.67 29.026 -37.325 28.521 -38 28 C-38 27.67 -38 27.34 -38 27 C-28.1 27 -18.2 27 -8 27 C-7.34 24.03 -6.68 21.06 -6 18 C-5.53 16.385 -5.035 14.776 -4.492 13.184 C-4.228 12.4 -3.964 11.617 -3.691 10.811 C-3.422 10.027 -3.153 9.244 -2.875 8.438 C-2.598 7.62 -2.321 6.802 -2.035 5.959 C-1.361 3.971 -0.681 1.985 0 0 Z M0 12 C-1.98 17.61 -3.96 23.22 -6 29 C-12.6 29.33 -19.2 29.66 -26 30 C-24.813 33.562 -23.264 34.333 -20.236 36.361 C-12.44 41.655 -12.44 41.655 -11.258 45.27 C-11.53 47.707 -12.151 49.699 -13 52 C-13.527 54.019 -14.048 56.04 -14.562 58.062 C-15.035 59.71 -15.512 61.357 -16 63 C-11.243 60.844 -7.19 57.627 -2.973 54.582 C0 53 0 53 2.523 53.008 C5.663 54.266 8.014 55.995 10.688 58.062 C15.801 62 15.801 62 18 62 C17.474 57.057 16.351 52.775 14.621 48.113 C14 46 14 46 14 42 C15.377 40.552 15.377 40.552 17.281 39.238 C17.958 38.759 18.635 38.281 19.332 37.787 C20.047 37.3 20.763 36.814 21.5 36.312 C22.908 35.332 24.314 34.349 25.719 33.363 C26.347 32.933 26.976 32.503 27.623 32.06 C28.077 31.71 28.532 31.36 29 31 C29 30.67 29 30.34 29 30 C22.07 29.67 15.14 29.34 8 29 C7.01 26.195 7.01 26.195 2 12 C1.34 12 0.68 12 0 12 Z " fill="#000000" transform="translate(626,123)"/>
<path d="M0 0 C2.194 1.881 4.139 3.895 6.109 6.008 C8 8 8 8 10.812 10.188 C14.392 13.153 15.745 15.77 16.688 20.312 C17.076 24.614 17.171 28.934 17.25 33.25 C17.272 33.948 17.293 34.646 17.315 35.365 C17.342 39.548 16.968 41.969 14 45 C12.35 44.67 10.7 44.34 9 44 C8.67 42.68 8.34 41.36 8 40 C9.65 40 11.3 40 13 40 C13.73 19.68 13.73 19.68 9.883 14.453 C7.373 11.995 4.897 9.98 2 8 C0.327 6.674 -1.341 5.343 -3 4 C-6.34 5.449 -8.523 7.282 -11.062 9.875 C-11.734 10.553 -12.406 11.231 -13.098 11.93 C-20.406 19.883 -19.142 28.661 -19 39 C-17.68 39 -16.36 39 -15 39 C-12.562 35.343 -12.328 32.067 -11.875 27.812 C-11.832 27.438 -11.832 27.438 -11.613 25.541 C-11.402 23.695 -11.2 21.848 -11 20 C-9.68 19.67 -8.36 19.34 -7 19 C-6.773 27.643 -7.171 35.541 -9 44 C-5.37 44 -1.74 44 2 44 C1.916 42.374 1.832 40.749 1.746 39.074 C1.643 36.945 1.54 34.816 1.438 32.688 C1.381 31.616 1.325 30.544 1.268 29.439 C1.243 28.925 1.243 28.925 1.121 26.324 C1.074 25.376 1.027 24.428 0.978 23.452 C1 21 1 21 2 18 C3.32 18.66 4.64 19.32 6 20 C6.029 24.104 6.047 28.208 6.062 32.312 C6.071 33.48 6.079 34.647 6.088 35.85 C6.09 36.409 6.09 36.409 6.098 39.238 C6.1 39.754 6.1 39.754 6.114 42.365 C6 45 6 45 5 48 C2.089 48.97 0.098 49.165 -2.938 49.188 C-3.792 49.202 -4.647 49.216 -5.527 49.23 C-8.177 48.984 -9.775 48.442 -12 47 C-12.75 44.875 -12.75 44.875 -13 43 C-13.99 43.66 -14.98 44.32 -16 45 C-19.322 44.676 -20.608 44.392 -23 42 C-23.567 37.982 -23.51 33.928 -23.562 29.875 C-23.612 28.759 -23.662 27.642 -23.713 26.492 C-23.784 20.742 -23.611 16.939 -19.734 12.504 C-18.508 11.316 -17.265 10.146 -16 9 C-15.61 8.552 -15.61 8.552 -13.637 6.285 C-13.315 5.918 -13.315 5.918 -11.688 4.062 C-11.031 3.311 -10.375 2.559 -9.699 1.785 C-6.476 -1.601 -4.374 -1.377 0 0 Z " fill="#000000" transform="translate(361,201)"/>
<path d="M0 0 C6.645 6.473 10.579 13.349 11.445 22.668 C11.575 34.997 9.392 42.817 0.711 51.781 C-7.222 58.713 -14.855 60.946 -25.324 60.527 C-29.538 59.969 -33.023 58.867 -36.84 57.027 C-38.953 56.025 -40.56 55.305 -42.891 55.055 C-45.293 56.051 -45.293 56.051 -47.828 57.492 C-51.422 59.531 -53.739 60.359 -57.891 60.055 C-57.45 55.909 -56.704 52.35 -55.266 48.43 C-53.459 43.186 -54.212 40.638 -56.391 35.555 C-59.947 27.256 -59.764 18.989 -56.926 10.473 C-53.241 1.865 -46.512 -3.594 -38.328 -7.758 C-24.687 -12.47 -10.951 -9.049 0 0 Z M-48.387 4.121 C-53.692 10.943 -55.881 18.483 -54.891 27.055 C-53.75 30.798 -52.31 34.41 -50.891 38.055 C-49.009 44.077 -51.055 49.228 -52.891 55.055 C-52.045 54.766 -51.199 54.477 -50.328 54.18 C-49.194 53.808 -48.059 53.437 -46.891 53.055 C-45.839 52.58 -44.787 52.106 -43.703 51.617 C-39.404 50.983 -38.595 51.482 -34.891 53.43 C-27.36 57.216 -19.241 57.467 -11.109 55.32 C-6.448 53.425 -3.18 50.908 0.109 47.055 C0.811 46.271 1.512 45.487 2.234 44.68 C7.933 36.702 8.11 28.531 7.109 19.055 C4.016 9.112 -2.871 1.972 -11.891 -2.945 C-24.553 -8.145 -39.043 -5.96 -48.387 4.121 Z " fill="#000000" transform="translate(852.890625,257.9453125)"/>
<path d="M0 0 C0.99 0.33 1.98 0.66 3 1 C2.954 1.557 2.907 2.114 2.859 2.688 C2.573 8.736 3.538 12.989 7 18 C11.274 22.519 17.203 24.705 23.359 25.184 C25.241 25.187 27.122 25.102 29 25 C29 26.32 29 27.64 29 29 C22.038 30.206 16.34 30.419 10 27 C4.316 22.979 -0.21 18.923 -2 12 C-2.305 8.635 -2.472 5.353 -2 2 C-1.34 1.34 -0.68 0.68 0 0 Z " fill="#000000" transform="translate(815,268)"/>
<path d="M0 0 C1.938 1 1.938 1 3 3 C3.04 4.223 3.08 5.447 3.121 6.707 C3.653 11.285 5.633 13.192 9.078 16.08 C9.416 16.345 9.416 16.345 11.125 17.688 C11.777 18.23 12.43 18.772 13.102 19.33 C17.264 22.753 21.586 25.91 26 29 C35.493 25.106 35.493 25.106 37.375 21 C36.906 17.245 35.343 15.911 33 13 C32.442 9.028 32.338 6.968 34.625 3.625 C37.584 1.601 39.411 1.072 43 1 C46.941 2.288 48.536 3.165 50.562 6.812 C51.118 10.86 50.165 12.598 48 16 C47.34 16.66 46.68 17.32 46 18 C45.5 21.375 45.5 21.375 46 25 C48.688 27.062 48.688 27.062 52 29 C55.975 32.857 58.785 36.997 59.188 42.613 C58.701 49.613 57.119 54.1 52 59 C46.696 63.354 40.612 64.372 33.871 63.828 C32.239 63.604 30.618 63.31 29 63 C24 69.036 24 69.036 24 73.125 C24 76 24 76 21.875 78.875 C19 81 19 81 16 81.562 C12.23 80.856 10.596 79.818 8 77 C6.744 73.31 6.656 71.736 8.312 68.188 C10 66 10 66 12 65 C13.439 65.082 14.876 65.189 16.312 65.312 C20.488 65.4 20.488 65.4 22.703 63.668 C24.062 62 24.062 62 26 59 C25.216 58.134 24.432 57.267 23.625 56.375 C20.682 52.788 18.91 49.625 19.074 44.832 C19.421 41.44 19.872 38.369 20.992 35.137 C21 32 21 32 19.738 30.352 C17.835 28.561 15.865 26.93 13.812 25.312 C13.126 24.745 12.44 24.177 11.732 23.592 C9.84 22.035 7.933 20.506 6 19 C5.309 18.448 4.617 17.896 3.905 17.327 C1.539 15.679 0.39 15.793 -2.438 16.062 C-5.879 16.176 -6.871 16.073 -10 14.312 C-12.286 11.669 -13 10.491 -13 7 C-10.184 0.027 -7.323 -0.78 0 0 Z M-8 5 C-8 6.65 -8 8.3 -8 10 C-7.34 10.33 -7.34 10.33 -4 12 C-3.01 11.34 -2.02 10.68 -1 10 C-1.33 8.02 -1.66 6.04 -2 4 C-6 4 -6 4 -8 5 Z M41 5 C38.688 5.812 38.688 5.812 37 7 C36.631 11.554 36.631 11.554 38.5 13.812 C38.995 14.204 39.49 14.596 40 15 C42.438 14.312 42.438 14.312 45 13 C45.812 10.375 45.812 10.375 46 8 C43.75 6.375 43.75 6.375 41 5 Z M41 22 C42 24 42 24 42 24 Z M25.625 35.625 C23.423 40.198 23.195 44.01 24 49 C26.19 53.38 28.85 56.394 33 59 C37.943 60.399 41.498 60.039 46.137 58.094 C49.792 55.948 52.112 52.776 54 49 C54.55 43.989 54.562 40.103 52.25 35.562 C48.908 31.756 46.13 29.364 40.949 28.762 C33.93 28.531 30.408 30.339 25.625 35.625 Z M11 71 C11.367 73.935 11.864 74.864 14 77 C16.625 76.625 16.625 76.625 19 76 C20.125 71.25 20.125 71.25 19 69 C13.25 68.75 13.25 68.75 11 71 Z " fill="#000000" transform="translate(1084,342)"/>
<path d="M0 0 C1.112 0.003 2.224 0.006 3.369 0.01 C4.52 0.018 5.67 0.027 6.855 0.035 C8.025 0.04 9.195 0.044 10.4 0.049 C13.281 0.061 16.162 0.077 19.043 0.098 C18.344 4.201 17.442 6.258 14.605 9.348 C13.988 10.033 13.371 10.719 12.734 11.426 C9.885 14.243 7.763 14.308 3.855 14.41 C-1.647 14.367 -4.562 13.37 -8.957 10.098 C-11.247 6.662 -11.135 5.112 -10.957 1.098 C-7.238 0.234 -3.814 -0.02 0 0 Z " fill="#000000" transform="translate(463.95703125,356.90234375)"/>
<path d="M0 0 C10.23 0 20.46 0 31 0 C24.256 8.992 24.256 8.992 21.16 12 C20.489 12.66 19.818 13.32 19.127 14 C18.446 14.66 17.764 15.32 17.062 16 C12.295 20.645 7.729 25.336 3.443 30.434 C2 32 2 32 0 33 C0 22.11 0 11.22 0 0 Z " fill="#000000" transform="translate(490,357)"/>
<path d="M0 0 C0.33 0 0.66 0 1 0 C1 11.22 1 22.44 1 34 C-9.23 34 -19.46 34 -30 34 C-26.01 28.68 -22.403 24.187 -17.688 19.688 C-12.635 14.762 -8.082 9.689 -3.707 4.145 C-2 2 -2 2 0 0 Z " fill="#000000" transform="translate(482,373)"/>
<path d="M0 0 C4.688 3.375 4.688 3.375 6.125 6.25 C6.125 8.23 6.125 10.21 6.125 12.25 C-3.775 12.25 -13.675 12.25 -23.875 12.25 C-22.848 6.087 -22.121 4.496 -17.875 0.25 C-12.532 -3.015 -5.464 -2.94 0 0 Z " fill="#000000" transform="translate(513.875,394.75)"/>
<path d="M0 0 C9.094 6.129 15.939 14.802 18.539 25.59 C20.46 37.199 19.013 47.795 12.301 57.555 C5.071 66.371 -4.467 71.553 -15.512 74.117 C-19.012 74.305 -19.012 74.305 -21.82 74.105 C-27.453 73.789 -31.034 73.624 -35.387 77.492 C-36.609 78.75 -37.818 80.02 -39.012 81.305 C-40.163 82.302 -41.328 83.284 -42.512 84.242 C-43.337 84.923 -44.162 85.603 -45.012 86.305 C-46.002 85.315 -46.992 84.325 -48.012 83.305 C-46.692 78.685 -45.372 74.065 -44.012 69.305 C-45.662 68.975 -47.312 68.645 -49.012 68.305 C-57.828 63.153 -63.853 54.948 -67.012 45.305 C-69.574 31.488 -65.614 21.467 -57.824 10.117 C-42.046 -5.661 -20.228 -11.386 0 0 Z M-50.012 7.305 C-50.637 7.806 -51.262 8.308 -51.906 8.824 C-58.891 15.078 -63.317 24.105 -64.215 33.41 C-64.452 43.958 -61.152 51.605 -54.012 59.305 C-50.032 63.336 -46.636 65.933 -41.012 67.305 C-41.342 69.285 -41.342 69.285 -43.012 79.305 C-41.898 78.356 -40.784 77.407 -39.637 76.43 C-39.01 75.896 -38.384 75.362 -37.738 74.812 C-36.453 73.69 -35.218 72.511 -34.012 71.305 C-32.199 71.033 -32.199 71.033 -30.012 70.996 C-29.212 70.973 -28.412 70.95 -27.587 70.927 C-26.737 70.907 -25.887 70.887 -25.012 70.867 C-12.835 70.39 -3.711 68.069 5.676 59.992 C13.108 51.355 15.48 43.534 15.301 32.133 C14.434 21.515 9.435 13.313 1.801 6.117 C-3.959 1.433 -11.559 -2.209 -19.012 -2.695 C-19.326 -2.726 -19.326 -2.726 -20.914 -2.883 C-31.603 -3.501 -41.81 0.65 -50.012 7.305 Z " fill="#000000" transform="translate(1149.01171875,578.6953125)"/>
<path d="M0 0 C20.41 -0.263 40.637 0.76 61 2 C59.156 6.858 56.537 10.949 53.57 15.184 C51.848 17.816 50.869 19.32 51.477 22.48 C53.41 25.678 55.456 28.772 57.625 31.812 C58.045 32.41 58.465 33.007 58.898 33.623 C59.928 35.085 60.963 36.543 62 38 C61.835 38.33 61.835 38.33 61 40 C58.449 40.443 55.979 40.757 53.406 41 C52.627 41.081 51.847 41.162 51.044 41.246 C48.53 41.506 46.015 41.753 43.5 42 C41.052 42.248 38.605 42.499 36.157 42.75 C34.529 42.917 32.901 43.082 31.272 43.246 C25.031 43.876 18.803 44.595 12.58 45.391 C8.64 45.877 5.008 46 1 46 C0.67 30.82 0.34 15.64 0 0 Z M4 4 C3.872 16.708 4.205 29.316 5 42 C11.157 41.308 17.313 40.614 23.469 39.919 C25.562 39.682 27.655 39.447 29.749 39.212 C32.762 38.873 35.776 38.532 38.789 38.191 C39.721 38.087 40.652 37.983 41.612 37.876 C46.1 37.366 50.552 36.801 55 36 C53.606 31.539 51.145 28.548 48.145 25.062 C47 23 47 23 47.102 20.605 C48.182 17.474 49.71 15.056 51.562 12.312 C55 7.201 55 7.201 55 5 C44.254 3.784 33.545 3.885 22.75 3.938 C20.926 3.943 19.102 3.947 17.277 3.951 C12.852 3.962 8.426 3.979 4 4 Z " fill="#000000" transform="translate(465,605)"/>
<path d="M0 0 C4.763 2.256 5.969 4.835 8.312 9.438 C12.06 12.476 15.569 12.972 20.312 13.438 C22.504 18.158 23.306 23.011 24.223 28.094 C24.395 29.032 24.567 29.971 24.745 30.938 C25.108 32.925 25.469 34.912 25.826 36.899 C26.368 39.901 26.923 42.9 27.479 45.898 C29.278 55.738 30.921 65.424 31.312 75.438 C29.211 76.165 27.108 76.877 24.992 77.562 C23.237 78.136 21.491 78.739 19.758 79.375 C7.489 83.452 -6.183 78.861 -18.532 76.351 C-20.909 75.868 -23.288 75.392 -25.666 74.916 C-27.188 74.61 -28.709 74.303 -30.23 73.996 C-30.937 73.854 -31.643 73.713 -32.37 73.567 C-35.214 72.987 -37.931 72.356 -40.688 71.438 C-40.827 65.353 -40.312 59.592 -39.445 53.574 C-39.381 53.117 -39.381 53.117 -39.056 50.805 C-38.785 48.888 -38.511 46.971 -38.234 45.054 C-37.811 42.118 -37.403 39.179 -36.996 36.24 C-36.73 34.372 -36.463 32.504 -36.195 30.637 C-36.074 29.759 -35.953 28.88 -35.829 27.976 C-35.709 27.161 -35.589 26.346 -35.465 25.507 C-35.363 24.791 -35.261 24.076 -35.156 23.339 C-34.688 21.438 -34.688 21.438 -32.688 18.438 C-30.305 17.926 -30.305 17.926 -27.562 17.75 C-26.652 17.684 -25.742 17.619 -24.805 17.551 C-24.106 17.513 -23.407 17.476 -22.688 17.438 C-22.639 17.153 -22.639 17.153 -22.391 15.715 C-21.142 9.267 -19.596 3.874 -14.375 -0.5 C-9.239 -2.531 -5.049 -1.923 0 0 Z M-13.355 3.758 C-16.576 7.583 -18.434 10.248 -18.688 15.438 C-16.359 15.246 -16.359 15.246 -13.688 14.438 C-12.141 12.223 -12.141 12.223 -10.938 9.5 C-10.53 8.604 -10.123 7.708 -9.703 6.785 C-9.368 6.01 -9.033 5.236 -8.688 4.438 C-8.357 3.778 -8.028 3.117 -7.688 2.438 C-11.688 2.438 -11.688 2.438 -13.355 3.758 Z M-5.688 4.438 C-7.008 7.077 -8.327 9.717 -9.688 12.438 C-5.82 13.404 -4.606 13.417 -0.938 12.5 C-0.138 12.305 0.661 12.111 1.484 11.91 C2.088 11.754 2.691 11.598 3.312 11.438 C2.562 6.688 2.562 6.688 0.312 4.438 C-2.812 4.312 -2.812 4.312 -5.688 4.438 Z M8.312 14.438 C8.159 22.504 8.011 30.57 7.87 38.637 C7.804 42.382 7.736 46.128 7.664 49.873 C7.595 53.484 7.531 57.096 7.47 60.707 C7.446 62.088 7.42 63.469 7.392 64.85 C7.354 66.777 7.322 68.705 7.291 70.633 C7.271 71.732 7.251 72.831 7.23 73.963 C7.312 76.438 7.312 76.438 8.312 77.438 C15.015 77.012 20.947 75.512 27.312 73.438 C26.794 63.218 25.056 53.246 23.301 43.18 C22.808 40.351 22.323 37.52 21.84 34.689 C21.529 32.885 21.218 31.081 20.906 29.277 C20.761 28.434 20.617 27.59 20.467 26.721 C19.911 23.539 19.335 20.506 18.312 17.438 C14.938 16.312 14.938 16.312 11.312 15.438 C10.322 15.107 9.332 14.778 8.312 14.438 Z M-11.562 17.312 C-12.843 17.582 -14.123 17.851 -15.441 18.129 C-16.058 18.261 -16.058 18.261 -19.18 18.93 C-20.307 19.171 -21.435 19.411 -22.597 19.66 C-28.109 21.047 -28.109 21.047 -30.688 22.438 C-31.539 24.304 -31.539 24.304 -31.867 26.645 C-32.005 27.541 -32.142 28.438 -32.284 29.362 C-32.417 30.377 -32.55 31.392 -32.688 32.438 C-32.773 33.002 -32.773 33.002 -33.208 35.861 C-33.773 39.612 -34.297 43.367 -34.812 47.125 C-34.994 48.404 -35.176 49.684 -35.363 51.002 C-35.535 52.243 -35.706 53.483 -35.883 54.762 C-36.038 55.876 -36.193 56.991 -36.352 58.139 C-36.703 61.594 -36.744 64.967 -36.688 68.438 C-30.201 70.35 -23.667 71.783 -17.044 73.152 C-15.059 73.563 -13.077 73.983 -11.094 74.402 C-9.833 74.664 -8.572 74.926 -7.273 75.195 C-6.129 75.434 -4.985 75.673 -3.806 75.918 C-1.021 76.382 1.499 76.542 4.312 76.438 C5.653 73.757 5.432 71.704 5.426 68.703 C5.426 67.502 5.426 66.3 5.426 65.063 C5.421 63.761 5.415 62.459 5.41 61.117 C5.408 59.775 5.407 58.432 5.406 57.09 C5.402 53.556 5.392 50.021 5.381 46.486 C5.371 42.88 5.366 39.274 5.361 35.668 C5.351 28.591 5.334 21.514 5.312 14.438 C-0.396 14.438 -6 16.115 -11.562 17.312 Z " fill="#000000" transform="translate(881.6875,652.5625)"/>
<path d="M0 0 C9.202 6.496 14.851 16.517 17.586 27.312 C19.987 42.897 16.684 55.141 7.629 67.938 C0.083 77.514 -11.085 83.098 -23 85 C-37.747 85.936 -49.196 82.831 -60.625 73.375 C-69.75 64.855 -75.246 53.847 -76.309 41.379 C-76.58 26.566 -72.843 15.188 -62.508 4.324 C-44.459 -12.403 -19.951 -13.532 0 0 Z M-64.277 11.527 C-71.505 21.902 -73.115 32.664 -72 45 C-69.724 55.468 -63.606 66.462 -55 73 C-42.731 80.484 -31.792 83.038 -17.566 80.352 C-6.24 76.905 3.607 69.78 9.469 59.398 C14.903 48.183 16.708 36.916 13.023 24.785 C8.252 12.58 0.226 2.438 -11.938 -3 C-31.004 -9.624 -51.373 -3.921 -64.277 11.527 Z " fill="#000000" transform="translate(440,754)"/>
<path d="M0 0 C12.767 9.951 23.256 23.658 25.402 40.078 C27.064 57.026 23.644 72.572 13 86 C12.763 86.318 12.763 86.318 11.566 87.93 C2.135 99.953 -14.137 107.09 -29 109 C-46.715 110.313 -63.825 108.109 -77.753 96.159 C-88.094 86.816 -97.058 74.281 -98.161 59.9 C-98.547 39.292 -95.135 23.88 -80.452 8.405 C-59.001 -12.347 -24.953 -16.911 0 0 Z M-84.098 17.512 C-92.341 28.66 -96.285 42.133 -95 56 C-92.501 72.629 -84.614 85.634 -71.492 95.977 C-57.03 105.284 -40.524 107.919 -23.873 104.53 C-6.722 100.553 5.651 91.91 15 77 C22.162 63.043 24.439 48.202 20.023 32.93 C14.404 16.844 4.244 5.531 -11 -2 C-36.532 -13.794 -66.775 -3.231 -84.098 17.512 Z " fill="#000000" transform="translate(649,758)"/>
</svg>
