<?xml version="1.0" encoding="UTF-8"?>
<!-- Generator: visioncortex VTracer 0.6.12 -->
<svg version="1.1" xmlns="http://www.w3.org/2000/svg" width="1536" height="1024">
<path d="M0 0 C2.015 -0.001 4.029 -0.003 6.044 -0.006 C11.468 -0.011 16.892 0.002 22.317 0.019 C28.038 0.035 33.759 0.033 39.48 0.034 C49.096 0.038 58.712 0.053 68.329 0.075 C80.583 0.104 92.838 0.114 105.093 0.119 C115.724 0.123 126.356 0.135 136.987 0.149 C140.356 0.153 143.724 0.156 147.092 0.159 C252.511 0.261 252.511 0.261 270.782 17.106 C284.173 31.75 282.503 52.883 282.478 71.431 C282.479 73.211 282.48 74.992 282.482 76.773 C282.484 81.788 282.48 86.804 282.473 91.819 C282.47 95.069 282.468 98.319 282.467 101.57 C282.442 165.625 282.051 229.68 281.719 293.734 C281.701 297.162 281.683 300.59 281.666 304.018 C281.66 305.135 281.654 306.253 281.648 307.404 C281.637 309.635 281.625 311.865 281.614 314.096 C281.587 319.411 281.559 324.727 281.53 330.042 C281.462 342.512 281.402 354.982 281.356 367.452 C281.348 369.437 281.34 371.423 281.332 373.408 C281.307 379.57 281.287 385.732 281.275 391.894 C281.271 393.826 281.265 395.758 281.257 397.689 C281.246 400.354 281.242 403.018 281.239 405.683 C281.235 406.461 281.23 407.24 281.226 408.042 C281.23 412.583 281.597 416.875 282.345 421.356 C283.335 421.686 284.325 422.016 285.345 422.356 C285.716 421.965 285.716 421.965 287.595 419.981 C289.889 417.791 291.466 416.529 294.345 415.356 C294.345 420.236 293.218 421.404 290.063 424.856 C287.509 427.086 285.709 427.576 282.345 427.356 C279.684 425.804 278.655 424.354 277.741 421.414 C276.131 413.892 276.113 406.583 276.206 398.915 C276.216 397.502 276.224 396.089 276.232 394.676 C276.25 391.719 276.274 388.761 276.303 385.804 C276.345 381.531 276.37 377.259 276.391 372.987 C276.429 365.707 276.478 358.427 276.53 351.148 C276.584 343.603 276.633 336.058 276.683 328.513 C276.701 325.83 276.719 323.147 276.736 320.463 C277.151 257.934 277.455 195.406 277.468 132.875 C277.469 127.051 277.473 121.228 277.477 115.404 C277.483 107.586 277.483 99.768 277.479 91.951 C277.478 89.107 277.478 86.263 277.481 83.42 C277.501 58.925 277.501 58.925 276.915 47.911 C276.878 47.215 276.841 46.52 276.804 45.803 C276.175 35.867 273.812 26.421 266.325 19.485 C244.935 2.991 211.442 5.208 185.896 5.195 C183.654 5.191 181.412 5.186 179.17 5.18 C173.116 5.167 167.062 5.161 161.008 5.156 C157.218 5.153 153.428 5.149 149.638 5.145 C139.111 5.133 128.585 5.122 118.059 5.119 C117.388 5.119 116.717 5.118 116.026 5.118 C115.353 5.118 114.681 5.118 113.988 5.118 C112.625 5.117 111.263 5.117 109.901 5.116 C109.225 5.116 108.549 5.116 107.853 5.116 C96.904 5.112 85.955 5.094 75.006 5.071 C63.723 5.047 52.441 5.035 41.158 5.034 C34.84 5.032 28.522 5.027 22.204 5.009 C16.259 4.992 10.315 4.99 4.371 4.999 C2.2 5 0.03 4.995 -2.14 4.985 C-39.649 4.824 -39.649 4.824 -53.788 17.228 C-60.852 25.161 -60.806 33.497 -60.786 43.689 C-60.787 44.876 -60.788 46.063 -60.79 47.286 C-60.791 50.666 -60.787 54.045 -60.78 57.424 C-60.776 59.647 -60.774 61.87 -60.772 64.093 C-60.727 115.029 -60.241 165.964 -59.838 216.898 C-59.752 227.776 -59.668 238.654 -59.585 249.532 C-59.58 250.243 -59.574 250.954 -59.569 251.686 C-59.547 254.554 -59.525 257.423 -59.503 260.291 C-59.083 315.406 -58.641 370.522 -58.155 425.637 C-58.125 429.121 -58.094 432.605 -58.064 436.089 C-57.832 462.871 -57.544 489.651 -57.158 516.431 C-57.09 521.168 -57.023 525.905 -56.958 530.643 C-56.948 531.359 -56.938 532.075 -56.927 532.813 C-56.532 561.327 -56.551 589.84 -56.655 618.356 C-57.645 618.686 -58.635 619.016 -59.655 619.356 C-60.67 616.312 -60.801 614.206 -60.838 611.017 C-60.853 609.898 -60.869 608.778 -60.884 607.625 C-60.896 606.385 -60.908 605.146 -60.921 603.869 C-60.937 602.55 -60.954 601.232 -60.971 599.873 C-61.017 596.173 -61.056 592.473 -61.095 588.772 C-61.129 585.551 -61.167 582.329 -61.205 579.108 C-61.309 570.14 -61.407 561.173 -61.501 552.206 C-61.572 545.449 -61.646 538.693 -61.72 531.937 C-62.639 448.12 -63.252 364.301 -63.928 267.749 C-64.001 257.337 -64.074 246.925 -64.147 236.514 C-64.171 233.114 -64.195 229.714 -64.219 226.314 C-64.427 196.504 -64.65 166.694 -64.936 136.885 C-64.948 135.667 -64.959 134.45 -64.971 133.196 C-65.092 120.664 -65.217 108.132 -65.347 95.6 C-65.436 87.011 -65.519 78.422 -65.591 69.833 C-65.625 65.797 -65.661 61.762 -65.706 57.727 C-65.751 53.663 -65.781 49.598 -65.808 45.534 C-65.823 44.402 -65.838 43.27 -65.854 42.105 C-65.895 31.563 -64.394 22.765 -57.655 14.356 C-41.857 0.083 -20.084 -0.103 0 0 Z " fill="#000000" transform="translate(1125.6552734375,155.6435546875)"/>
<path d="M0 0 C7.882 5.572 12.99 11.78 15.566 21.148 C16.647 29.791 15.236 37.66 10.254 44.898 C6.396 49.677 1.334 52.921 -4.121 55.648 C16.855 60.058 57.434 65.371 76.879 55.648 C76.353 55.339 76.353 55.339 73.691 53.773 C68.511 50.064 65.927 44.7 64.352 38.609 C64.051 36.605 63.931 34.674 63.879 32.648 C63.84 31.782 63.802 30.916 63.762 30.023 C63.406 15.779 63.406 15.779 67.289 10.863 C79.277 -0.251 99.016 1.513 114.162 1.586 C115.53 1.59 116.898 1.593 118.266 1.596 C122.47 1.608 126.675 1.627 130.879 1.648 C132.143 1.654 133.408 1.66 134.71 1.666 C142.894 1.705 151.077 1.758 159.26 1.818 C162.046 1.838 164.832 1.857 167.617 1.876 C192.029 2.043 216.441 2.233 240.852 2.43 C255.984 2.553 271.117 2.668 286.249 2.746 C293.96 2.787 301.671 2.839 309.381 2.903 C313.576 2.938 317.771 2.965 321.966 2.976 C325.773 2.986 329.579 3.014 333.385 3.056 C335.356 3.073 337.328 3.071 339.299 3.068 C346.276 3.168 350.968 3.836 356.879 7.648 C362.053 14.158 361.094 22.504 361.129 30.398 C361.139 30.969 361.139 30.969 361.191 33.859 C361.221 40.403 361.117 46.785 357.879 52.648 C351.491 58.285 342.92 57.797 334.853 57.789 C334.41 57.79 334.41 57.79 332.167 57.798 C329.208 57.807 326.25 57.808 323.291 57.81 C321.165 57.814 319.039 57.819 316.913 57.825 C311.147 57.838 305.38 57.844 299.614 57.849 C296.01 57.852 292.407 57.856 288.803 57.86 C277.524 57.874 266.245 57.883 254.966 57.887 C241.952 57.892 228.938 57.909 215.924 57.938 C205.858 57.96 195.793 57.97 185.727 57.971 C179.717 57.972 173.708 57.978 167.698 57.996 C162.047 58.013 156.396 58.015 150.745 58.006 C148.673 58.005 146.601 58.01 144.529 58.02 C141.696 58.032 138.864 58.026 136.032 58.016 C135.216 58.024 134.399 58.032 133.558 58.04 C126.314 57.978 120.194 56.098 114.379 51.586 C113.709 51.079 113.038 50.573 112.348 50.051 C111.863 49.588 111.378 49.125 110.879 48.648 C110.879 47.988 110.879 47.328 110.879 46.648 C110.166 46.695 109.453 46.741 108.719 46.789 C102.097 47.039 98.222 46.656 92.879 42.648 C89.906 39.378 88.86 36.848 88.93 32.363 C88.973 31.74 88.973 31.74 89.191 28.586 C89.27 27.337 89.349 26.088 89.43 24.801 C89.879 21.648 89.879 21.648 91.879 19.648 C92.879 20.648 92.879 20.648 93.004 23.773 C92.879 27.648 92.879 27.648 92.191 31.211 C91.807 35.436 92.447 37.196 94.879 40.648 C98.872 43.311 102.108 44.444 106.879 43.648 C111.197 41.33 111.197 41.33 112.879 38.648 C113.986 33.411 113.816 29.179 111.004 24.586 C106.801 21.98 102.736 21.28 97.879 20.648 C97.879 19.658 97.879 18.668 97.879 17.648 C110.299 19.129 110.299 19.129 114.879 24.648 C117.734 31.127 116.68 37.011 114.879 43.648 C116.004 44.795 117.155 45.914 118.316 47.023 C118.635 47.337 118.635 47.337 120.25 48.922 C126.365 52.938 133.962 52.943 141.076 52.909 C141.957 52.913 142.838 52.917 143.745 52.921 C146.672 52.931 149.599 52.927 152.526 52.923 C154.634 52.927 156.742 52.933 158.85 52.939 C164.559 52.952 170.267 52.953 175.976 52.95 C180.745 52.949 185.514 52.954 190.283 52.959 C201.532 52.97 212.782 52.97 224.031 52.964 C235.634 52.958 247.236 52.97 258.838 52.992 C268.807 53.009 278.775 53.015 288.744 53.012 C294.695 53.01 300.646 53.013 306.597 53.027 C312.19 53.039 317.783 53.037 323.375 53.024 C325.427 53.022 327.478 53.025 329.53 53.033 C332.332 53.043 335.133 53.035 337.935 53.023 C338.745 53.03 339.556 53.037 340.39 53.045 C345.596 52.995 349.281 52.156 353.879 49.648 C356.866 43.735 356.209 37.124 356.191 30.648 C356.208 29.486 356.224 28.323 356.24 27.125 C356.246 16.499 356.246 16.499 352.879 11.648 C346.273 5.043 328.902 7.341 319.886 7.33 C318.226 7.32 316.566 7.31 314.906 7.299 C310.424 7.272 305.941 7.257 301.459 7.244 C296.693 7.228 291.926 7.201 287.16 7.176 C279.111 7.134 271.063 7.1 263.014 7.07 C251.887 7.03 240.76 6.977 229.633 6.921 C211.294 6.83 192.955 6.757 174.616 6.701 C165.461 6.672 156.306 6.638 147.151 6.589 C140.935 6.556 134.718 6.533 128.501 6.514 C126.065 6.505 123.628 6.492 121.192 6.476 C81.772 6.217 81.772 6.217 72.879 12.648 C67.661 19.008 68.381 27.849 68.879 35.648 C69.955 41.924 71.532 46.813 76.879 50.648 C84.062 54.278 91.983 54.323 99.879 54.648 C99.879 55.968 99.879 57.288 99.879 58.648 C95.9 59.061 91.92 59.47 87.94 59.875 C85.943 60.079 83.946 60.287 81.949 60.494 C66.879 62.024 51.919 62.836 36.773 62.836 C35.028 62.836 33.283 62.84 31.538 62.847 C21.32 62.887 11.445 62.575 1.316 61.086 C-6.223 60.043 -6.223 60.043 -9.637 62.344 C-11.434 64.711 -11.434 64.711 -12.801 67.25 C-15.494 72.143 -20.758 74.407 -25.934 76.023 C-35.582 77.991 -44.411 75.392 -52.469 70.109 C-56.384 67.247 -59.401 64.485 -62.121 60.461 C-64.832 56.553 -67.456 55.374 -71.812 53.691 C-78.244 50.786 -82.552 45.879 -85.43 39.543 C-88.529 31.052 -87.806 22.528 -84.453 14.223 C-82.297 10.057 -79.483 6.884 -76.121 3.648 C-75.193 2.741 -74.265 1.833 -73.309 0.898 C-65.433 -4.661 -57.717 -6.516 -48.121 -5.352 C-45.758 -4.633 -45.758 -4.633 -43.684 -3.789 C-39.147 -1.959 -36.992 -2.803 -32.43 -4.141 C-20.553 -7.599 -10.461 -6.666 0 0 Z M-78.121 10.648 C-83.134 17.968 -84.058 24.9 -83.121 33.648 C-81.016 40.409 -77.234 45.942 -71.121 49.648 C-68.906 50.301 -68.906 50.301 -67.121 50.648 C-67.095 49.742 -67.07 48.836 -67.043 47.902 C-66.485 35.917 -63.971 27.979 -55.121 19.648 C-54.09 19.03 -53.059 18.411 -51.996 17.773 C-46.522 13.728 -44.554 6.829 -42.121 0.648 C-55.389 -6.274 -69.178 -0.843 -78.121 10.648 Z M-34.121 0.648 C-33.791 1.638 -33.461 2.628 -33.121 3.648 C-32.461 3.648 -31.801 3.648 -31.121 3.648 C-30.874 4.185 -30.626 4.721 -30.371 5.273 C-29.959 6.057 -29.546 6.841 -29.121 7.648 C-28.626 8.597 -28.131 9.546 -27.621 10.523 C-25.657 13.466 -23.375 14.811 -20.309 16.523 C-11.808 21.326 -7.187 27.701 -4.434 36.961 C-3.943 41.184 -4.047 45.402 -4.121 49.648 C1.114 48.702 4.428 45.552 7.879 41.648 C11.135 36.077 13.061 30.084 11.879 23.648 C9.329 14.232 4.246 7.608 -3.871 2.273 C-13.03 -2.79 -24.461 -4.182 -34.121 0.648 Z M-38.121 3.648 C-42.852 8.841 -42.852 8.841 -44.121 12.648 C-39.501 12.648 -34.881 12.648 -30.121 12.648 C-31.888 8.232 -32.672 6.558 -36.121 3.648 C-36.781 3.648 -37.441 3.648 -38.121 3.648 Z M-46.121 18.648 C-47.774 24.335 -46.022 30.31 -43.477 35.465 C-41.13 39.246 -38.211 42.463 -35.121 45.648 C-30.016 42.671 -28.611 38.838 -26.844 33.465 C-25.304 27.463 -25.723 22.432 -28.121 16.648 C-29.907 14.863 -32.458 15.434 -34.871 15.398 C-35.918 15.373 -36.965 15.347 -38.043 15.32 C-41.562 15.695 -43.397 16.395 -46.121 18.648 Z M-24.121 18.648 C-24.075 19.459 -24.028 20.27 -23.98 21.105 C-23.646 31.361 -25.707 38.961 -31.121 47.648 C-23.786 52.192 -17.734 53.602 -9.121 52.648 C-8.791 52.483 -8.791 52.483 -7.121 51.648 C-4.511 43.818 -6.636 36.856 -10.121 29.648 C-13.285 24.831 -17.134 21.482 -22.121 18.648 C-22.781 18.648 -23.441 18.648 -24.121 18.648 Z M-57.113 25.578 C-62.214 30.838 -63.925 36.984 -64.309 44.148 C-64.125 47.571 -63.92 49.735 -62.121 52.648 C-55.537 54.607 -46.485 54.203 -40.309 51.086 C-39.587 50.612 -38.865 50.137 -38.121 49.648 C-39.211 46.16 -40.796 43.706 -43.059 40.898 C-47.752 34.819 -49.321 28.174 -50.121 20.648 C-52.667 20.648 -55.319 23.99 -57.113 25.578 Z M-34.121 50.648 C-35.998 51.62 -37.873 52.595 -39.738 53.59 C-45.699 56.238 -52.646 56.998 -59.121 56.648 C-56.489 62.758 -51.208 67.075 -45.363 70.055 C-36.547 73.493 -30.142 73.597 -21.391 69.793 C-17.249 67.704 -14.681 65.489 -12.121 61.648 C-12.121 60.658 -12.121 59.668 -12.121 58.648 C-15.225 57.502 -18.329 56.356 -21.434 55.211 C-21.874 55.048 -21.874 55.048 -24.104 54.225 C-24.951 53.912 -25.799 53.599 -26.672 53.277 C-27.452 52.989 -28.232 52.701 -29.036 52.405 C-30.722 51.793 -32.42 51.215 -34.121 50.648 Z " fill="#000000" transform="translate(223.12109375,179.3515625)"/>
<path d="M0 0 C1.438 2.25 1.438 2.25 1.188 5 C1.064 5.371 1.064 5.371 0.438 7.25 C-0.553 6.92 -1.543 6.59 -2.562 6.25 C-2.892 5.26 -3.223 4.27 -3.562 3.25 C-10.829 -0.383 -19.784 3.599 -26.863 5.926 C-50.684 13.703 -74.234 15.323 -99.154 15.51 C-101.994 15.532 -104.835 15.559 -107.675 15.587 C-114.72 15.656 -121.764 15.716 -128.809 15.776 C-134.793 15.827 -140.776 15.882 -146.76 15.942 C-149.534 15.968 -152.309 15.989 -155.083 16.01 C-183.006 16.258 -183.006 16.258 -190.562 20.25 C-192.458 23.848 -192.827 26.929 -192.881 30.958 C-192.901 32.079 -192.921 33.2 -192.942 34.355 C-192.953 35.554 -192.965 36.753 -192.977 37.988 C-192.996 39.224 -193.015 40.46 -193.035 41.733 C-193.085 45.007 -193.126 48.28 -193.163 51.553 C-193.204 54.898 -193.255 58.243 -193.305 61.588 C-193.401 68.142 -193.486 74.696 -193.562 81.25 C-193.197 81.215 -193.197 81.215 -191.347 81.037 C-190.375 80.946 -189.403 80.855 -188.401 80.76 C-187.443 80.67 -186.485 80.579 -185.498 80.485 C-156.154 78.134 -100.493 75.841 -76.562 95.25 C-73.808 97.746 -73.345 99.647 -73.125 103.25 C-73.24 106.329 -73.461 107.114 -75.375 109.688 C-78.469 111.898 -80.949 112.375 -84.652 112.39 C-85.483 112.396 -86.315 112.402 -87.171 112.408 C-88.079 112.409 -88.988 112.41 -89.924 112.411 C-90.884 112.416 -91.844 112.421 -92.832 112.426 C-96.015 112.441 -99.197 112.448 -102.379 112.453 C-104.593 112.459 -106.806 112.465 -109.02 112.47 C-113.668 112.481 -118.316 112.487 -122.964 112.49 C-128.903 112.496 -134.842 112.52 -140.781 112.548 C-145.358 112.567 -149.935 112.572 -154.512 112.574 C-156.701 112.577 -158.889 112.585 -161.077 112.598 C-164.15 112.615 -167.222 112.613 -170.295 112.606 C-171.19 112.616 -172.084 112.625 -173.005 112.634 C-179.456 112.592 -187.065 112.1 -192.257 107.869 C-196.592 102.937 -196.714 98.34 -197.125 92 C-197.167 91.368 -197.167 91.368 -197.379 88.172 C-197.439 87.208 -197.5 86.243 -197.562 85.25 C-198.316 85.286 -199.07 85.321 -199.847 85.358 C-254.049 87.829 -254.049 87.829 -267.562 78.25 C-268.793 76.121 -268.793 76.121 -269.562 74.25 C-265.725 74.25 -264.664 74.494 -261.438 76.125 C-247.139 82.715 -230.154 81.394 -214.75 81.312 C-213.075 81.307 -211.4 81.303 -209.725 81.299 C-205.671 81.288 -201.617 81.271 -197.562 81.25 C-197.567 80.606 -197.571 79.962 -197.576 79.298 C-197.62 72.566 -197.65 65.833 -197.672 59.1 C-197.682 56.591 -197.696 54.082 -197.713 51.573 C-197.738 47.956 -197.749 44.34 -197.758 40.723 C-197.768 39.61 -197.778 38.497 -197.789 37.35 C-197.791 21.982 -197.791 21.982 -193.625 16.875 C-181.575 10.481 -167.323 11.094 -154.051 11.223 C-152.103 11.233 -150.156 11.244 -148.208 11.254 C-146.162 11.265 -144.117 11.277 -142.071 11.29 C-121.829 11.407 -101.599 11.425 -81.375 10.438 C-80.59 10.402 -79.806 10.367 -78.997 10.331 C-61.983 9.543 -45.436 7.356 -29.188 2.125 C-26.91 1.411 -24.631 0.7 -22.352 -0.008 C-21.865 -0.163 -21.865 -0.163 -19.405 -0.95 C-12.786 -2.813 -5.998 -4.096 0 0 Z M-193.562 85.25 C-193.551 87.481 -193.452 89.711 -193.312 91.938 C-193.245 93.158 -193.178 94.379 -193.109 95.637 C-192.521 99.527 -191.751 101.982 -189.562 105.25 C-184.249 108.792 -179.429 108.671 -173.274 108.622 C-172.253 108.626 -171.231 108.63 -170.178 108.633 C-166.811 108.641 -163.445 108.628 -160.078 108.613 C-157.737 108.613 -155.397 108.613 -153.056 108.615 C-148.157 108.615 -143.258 108.604 -138.359 108.586 C-132.068 108.563 -125.778 108.563 -119.487 108.57 C-114.657 108.573 -109.827 108.566 -104.998 108.557 C-102.677 108.553 -100.357 108.552 -98.036 108.553 C-94.802 108.554 -91.567 108.541 -88.333 108.525 C-87.368 108.527 -86.403 108.53 -85.408 108.532 C-84.969 108.529 -84.969 108.529 -82.749 108.511 C-81.984 108.509 -81.22 108.507 -80.432 108.504 C-78.562 108.25 -78.562 108.25 -76.562 106.25 C-75.968 102.429 -76.171 100.799 -78.438 97.625 C-85.193 92.491 -93.308 90.546 -101.562 89.188 C-102.542 89.025 -103.521 88.863 -104.531 88.696 C-127.18 85.152 -149.723 83.977 -172.625 84 C-173.615 84.001 -174.605 84.001 -175.625 84.002 C-178.428 84.008 -181.232 84.025 -184.035 84.047 C-184.46 84.049 -184.46 84.049 -186.609 84.06 C-192.444 84.132 -192.444 84.132 -193.562 85.25 Z " fill="#000000" transform="translate(464.5625,279.75)"/>
<path d="M0 0 C0.746 0.087 1.493 0.175 2.261 0.264 C17.143 2.187 30.883 7.608 40.812 19.25 C42.944 23.632 43.65 27.949 44.25 32.75 C44.436 33.575 44.621 34.4 44.812 35.25 C45.438 35.526 46.063 35.802 46.707 36.086 C50.421 38.139 50.872 41.746 52.047 45.629 C54.559 57.509 53.462 68.689 47.047 79.121 C39.118 90.624 27.231 100.308 13.121 103.039 C-3.037 104.515 -17.613 102.136 -30.922 92.211 C-40.41 84.074 -47.831 73.735 -50.188 61.25 C-50.998 48.58 -50.386 37.404 -42 27.152 C-29.79 14.337 -13.284 7.635 4.301 7.008 C7.811 6.965 11.307 7.064 14.812 7.25 C-26.386 -1.567 -72.944 5.439 -114.625 7.75 C-115.172 7.78 -115.172 7.78 -117.942 7.931 C-128.744 8.525 -139.526 9.201 -150.293 10.258 C-151.095 10.336 -151.897 10.414 -152.723 10.494 C-161.468 11.402 -170.26 12.446 -177.188 18.25 C-182.283 28.442 -180.504 44.771 -180.448 55.929 C-180.437 58.513 -180.448 61.096 -180.461 63.68 C-180.484 89.428 -180.484 89.428 -176.188 96.25 C-171.255 99.456 -165.892 100.292 -160.188 101.25 C-160.518 100.507 -160.847 99.765 -161.188 99 C-162.782 93.021 -163.62 86.204 -160.855 80.504 C-158.368 77.142 -156.615 76.321 -152.492 75.635 C-148.438 75.215 -144.395 75.096 -140.322 75.089 C-139.581 75.084 -138.84 75.079 -138.077 75.074 C-135.654 75.059 -133.231 75.052 -130.809 75.047 C-130.392 75.045 -130.392 75.045 -128.283 75.038 C-123.879 75.023 -119.475 75.014 -115.071 75.01 C-110.536 75.004 -106.001 74.98 -101.467 74.952 C-97.964 74.933 -94.461 74.928 -90.958 74.926 C-89.286 74.923 -87.615 74.915 -85.943 74.902 C-83.603 74.885 -81.264 74.887 -78.924 74.894 C-78.241 74.884 -77.559 74.875 -76.856 74.866 C-71.875 74.909 -68.536 75.985 -64.188 78.25 C-60.344 83.21 -60.486 89.221 -61.188 95.25 C-61.823 96.598 -62.486 97.935 -63.188 99.25 C-61.908 99.295 -60.629 99.34 -59.311 99.386 C-54.487 99.558 -49.663 99.747 -44.84 99.94 C-42.767 100.02 -40.694 100.097 -38.621 100.169 C-22.695 100.727 -7.93 102.417 7.438 106.812 C26.049 111.89 44.875 112.407 64.039 112.364 C65.814 112.363 67.59 112.363 69.366 112.364 C74.137 112.364 78.909 112.358 83.681 112.351 C88.685 112.345 93.69 112.345 98.695 112.343 C108.151 112.34 117.606 112.332 127.062 112.322 C137.836 112.311 148.61 112.305 159.384 112.3 C181.527 112.29 203.67 112.272 225.812 112.25 C224.941 111.927 224.07 111.605 223.173 111.273 C222.019 110.839 220.865 110.404 219.676 109.957 C218.537 109.531 217.398 109.106 216.224 108.667 C202.896 103.13 192.194 93.208 186.367 79.965 C181.499 67.628 178.882 52.435 183.652 39.543 C190.09 26.82 200.385 17.903 213.812 13.25 C228.768 8.582 244.082 6.588 258.812 13.25 C268.76 19.041 276.973 26.567 280.809 37.559 C282.369 41.743 284.482 45.63 286.543 49.586 C290.691 58.29 290.016 70.598 287.25 79.688 C281.416 94.568 270.175 103.957 255.812 110.25 C271.186 108.675 286.014 104.052 298.812 95.25 C299.485 94.791 300.158 94.332 300.852 93.859 C308.246 88.192 314.367 78.493 315.812 69.25 C317.083 53.473 314.652 40.31 304.703 27.543 C291.33 12.164 274.139 5.282 254.125 3.5 C240.124 2.844 226.109 3.416 212.109 3.836 C209.985 3.899 207.86 3.961 205.735 4.023 C201.274 4.155 196.812 4.288 192.351 4.422 C187.89 4.556 183.429 4.688 178.967 4.817 C154.462 5.53 129.961 6.318 105.465 7.293 C104.423 7.334 103.381 7.375 102.307 7.417 C59.115 9.131 59.115 9.131 50.812 13.25 C50.008 13.642 49.204 14.034 48.375 14.438 C47.859 14.706 47.344 14.974 46.812 15.25 C47.122 12.39 47.393 10.703 49.375 8.562 C56.215 4.88 64.17 4.714 71.762 4.188 C72.905 4.104 74.048 4.021 75.226 3.936 C87.017 3.111 98.813 2.639 110.625 2.25 C112.971 2.17 115.316 2.089 117.662 2.008 C124.022 1.792 130.381 1.585 136.741 1.381 C140.214 1.27 143.687 1.155 147.16 1.04 C205.902 -0.914 205.902 -0.914 233.601 -1.048 C235.532 -1.057 237.463 -1.072 239.394 -1.091 C263.091 -1.305 284.377 2.217 302.562 18.75 C303.305 19.575 304.048 20.4 304.812 21.25 C305.353 21.798 305.893 22.346 306.449 22.91 C316.758 33.8 321.522 47.844 321.164 62.691 C319.862 75.869 313.81 88.553 303.562 97.062 C287.858 109.297 269.195 113.806 249.812 116.25 C249.097 116.34 248.381 116.431 247.644 116.524 C238.051 117.557 228.436 117.394 218.801 117.383 C216.791 117.384 214.782 117.385 212.772 117.387 C207.351 117.39 201.93 117.386 196.509 117.379 C193.118 117.375 189.727 117.372 186.336 117.37 C153.214 117.346 120.094 117.204 86.974 116.902 C83.902 116.875 80.831 116.852 77.759 116.829 C16.828 116.363 16.828 116.363 -4.406 108.755 C-8.835 107.274 -13.064 106.512 -17.703 106.074 C-18.51 105.994 -19.317 105.915 -20.149 105.832 C-31.059 104.864 -41.995 104.994 -52.938 105.062 C-55.21 105.069 -57.482 105.076 -59.754 105.082 C-73.128 105.134 -86.479 105.38 -99.843 105.889 C-116.816 106.532 -133.776 106.459 -150.75 105.875 C-151.755 105.844 -152.759 105.813 -153.794 105.782 C-162.773 105.417 -171.847 104.829 -179.188 99.25 C-187.291 86.949 -185.38 69.826 -185.438 55.688 C-185.44 55.321 -185.44 55.321 -185.454 53.465 C-185.499 45.278 -185.236 37.18 -184.359 29.035 C-184.325 28.689 -184.325 28.689 -184.15 26.935 C-183.482 21.406 -181.97 17.085 -178.062 13.062 C-149.506 -4.94 -95.296 1.821 -62.562 0.562 C-61.697 0.529 -60.831 0.495 -59.939 0.461 C-54.867 0.265 -49.795 0.073 -44.723 -0.112 C-43.164 -0.169 -41.605 -0.227 -40.046 -0.286 C-11.42 -1.359 -11.42 -1.359 0 0 Z M-36.582 27.426 C-44.085 35.951 -47.736 45.291 -47.188 56.812 C-45.779 67.108 -41.028 75.596 -34.188 83.25 C-33.642 83.876 -33.097 84.503 -32.535 85.148 C-28.07 89.96 -23.007 93.259 -17.188 96.25 C-16.525 96.593 -15.862 96.936 -15.18 97.289 C-4.696 101.688 9.435 100.307 19.848 96.578 C31.944 91.16 41.042 83.256 46.812 71.25 C50.784 59.675 50.028 46.32 44.812 35.25 C42.429 31.618 39.772 28.424 36.812 25.25 C36.008 24.342 35.204 23.435 34.375 22.5 C13.718 4.362 -17.322 8.506 -36.582 27.426 Z M192.812 31.25 C185.482 40.272 184.082 51.988 184.812 63.25 C187.255 79.475 196.519 92.147 209.559 101.785 C221.224 109.367 234.822 111.091 248.352 108.598 C261.212 105.022 271.869 97.693 279.062 86.438 C285.216 75.479 286.98 63.308 283.688 51 C278.771 37.332 269.151 23.793 255.812 17.25 C234.55 7.828 208.358 15.248 192.812 31.25 Z M-157.042 81.652 C-158.792 84.093 -158.585 86.164 -158.562 89.125 C-158.57 90.154 -158.578 91.182 -158.586 92.242 C-158.103 95.887 -157.765 97.577 -155.188 100.25 C-146.74 102.229 -137.321 101.432 -128.672 101.453 C-127.894 101.456 -127.117 101.459 -126.315 101.462 C-122.21 101.477 -118.106 101.486 -114.001 101.49 C-109.776 101.496 -105.55 101.52 -101.325 101.548 C-98.058 101.567 -94.791 101.572 -91.524 101.574 C-89.966 101.577 -88.408 101.585 -86.85 101.598 C-84.673 101.615 -82.497 101.613 -80.319 101.606 C-79.702 101.608 -79.702 101.608 -76.575 101.617 C-72.819 101.21 -70.407 100.195 -67.188 98.25 C-65.073 95.334 -64.916 92.797 -64.938 89.25 C-64.932 88.404 -64.927 87.559 -64.922 86.688 C-65.209 84.055 -65.716 82.447 -67.188 80.25 C-70.717 79.073 -74.056 78.893 -77.738 78.699 C-78.521 78.657 -79.305 78.616 -80.111 78.572 C-90.382 78.079 -100.658 78.064 -110.938 78.065 C-114.38 78.062 -117.822 78.044 -121.264 78.025 C-152.136 77.943 -152.136 77.943 -157.042 81.652 Z " fill="#000000" transform="translate(715.1875,286.75)"/>
<path d="M0 0 C1.445 1.239 2.862 2.51 4.25 3.812 C4.938 4.448 5.627 5.084 6.336 5.738 C14.966 14.517 20.158 26.601 21.25 38.812 C21.374 40.091 21.498 41.37 21.625 42.688 C21.209 55.373 14.504 67.458 5.445 76 C-7.176 86.42 -21.62 90.218 -37.75 88.812 C-53.271 85.824 -65.077 77.761 -74.633 65.371 C-81.641 54.683 -84.444 41.81 -82.312 29.23 C-79.017 16.153 -70.444 7.422 -59.383 0.285 C-42.128 -9.272 -16.538 -12.053 0 0 Z M-70.957 15.562 C-77.131 23.31 -79.137 32.031 -78.75 41.812 C-76.871 56.036 -69.632 66.728 -58.75 75.812 C-55.217 78.198 -51.644 80.088 -47.75 81.812 C-47.059 82.15 -46.368 82.488 -45.656 82.836 C-35.597 87.053 -22.438 85.948 -12.469 82.086 C-7.995 79.991 -3.843 77.572 0.25 74.812 C0.693 74.524 0.693 74.524 2.938 73.062 C11.351 64.876 16.647 54.401 17.273 42.652 C17.171 30.277 12.634 17.435 3.969 8.332 C-2.313 2.778 -8.596 -1.145 -16.75 -3.188 C-17.575 -3.414 -18.4 -3.641 -19.25 -3.875 C-38.274 -6.253 -57.87 1.77 -70.957 15.562 Z " fill="#000000" transform="translate(488.75,300.1875)"/>
<path d="M0 0 C76.23 0 152.46 0 231 0 C231 1.32 231 2.64 231 4 C223.979 4.137 216.959 4.267 209.938 4.391 C206.67 4.449 203.403 4.509 200.136 4.573 C152.936 5.487 105.721 4.982 58.519 4.536 C51.879 4.474 45.238 4.415 38.598 4.355 C25.732 4.24 12.866 4.121 0 4 C0 2.68 0 1.36 0 0 Z " fill="#000000" transform="translate(1116,297)"/>
<path d="M0 0 C3.043 1.188 5.128 2.844 7.562 5 C8.222 3.68 8.882 2.36 9.562 1 C10.553 1.33 11.542 1.66 12.562 2 C13.113 4.676 13.592 7.279 13.875 10 C14.687 13.543 16.257 15.248 18.562 18 C18.562 18.99 18.562 19.98 18.562 21 C17.572 21 16.583 21 15.562 21 C15.562 27.93 15.562 34.86 15.562 42 C6.383 42.195 6.383 42.195 3.562 42 C1.562 40 1.562 40 1.367 37.18 C1.39 36.089 1.414 34.999 1.438 33.875 C1.456 32.779 1.474 31.684 1.492 30.555 C1.515 29.712 1.539 28.869 1.562 28 C0.243 28 -1.077 28 -2.438 28 C-2.426 28.927 -2.414 29.854 -2.402 30.809 C-2.393 32.006 -2.384 33.204 -2.375 34.438 C-2.363 35.632 -2.352 36.827 -2.34 38.059 C-2.438 41 -2.438 41 -3.438 42 C-7.762 42.465 -12.097 42.705 -16.438 43 C-16.438 35.74 -16.438 28.48 -16.438 21 C-17.428 21 -18.417 21 -19.438 21 C-18.856 17.898 -18.02 16.191 -15.855 13.906 C-15.335 13.351 -14.815 12.795 -14.279 12.223 C-13.733 11.654 -13.187 11.086 -12.625 10.5 C-12.091 9.932 -11.556 9.363 -11.006 8.777 C-9.965 7.674 -8.919 6.576 -7.867 5.484 C-6.631 4.201 -5.415 2.899 -4.203 1.594 C-2.438 0 -2.438 0 0 0 Z M-3.496 5.828 C-4.281 6.627 -5.066 7.427 -5.875 8.25 C-6.657 9.039 -7.44 9.828 -8.246 10.641 C-13.828 16.65 -13.828 16.65 -13.73 21.984 C-13.721 22.919 -13.711 23.854 -13.701 24.816 C-13.676 25.784 -13.651 26.753 -13.625 27.75 C-13.611 28.734 -13.598 29.717 -13.584 30.73 C-13.549 33.154 -13.499 35.577 -13.438 38 C-10.798 38 -8.157 38 -5.438 38 C-5.438 33.38 -5.438 28.76 -5.438 24 C-2.137 24 1.162 24 4.562 24 C4.892 28.62 5.222 33.24 5.562 38 C7.542 38 9.523 38 11.562 38 C14.645 19.198 14.645 19.198 10.027 12.711 C7.166 9.403 4.081 6.594 0.562 4 C-1.438 4 -1.438 4 -3.496 5.828 Z " fill="#000000" transform="translate(176.4375,307)"/>
<path d="M0 0 C3.353 2.375 4.668 3.98 5.938 7.875 C6.039 12.97 5.258 16.598 1.812 20.438 C-1.846 22.47 -3.867 22.653 -8 22 C-11.174 20.119 -13.369 18.685 -14.699 15.133 C-15.631 9.981 -14.527 6.513 -12 2 C-7.98 -0.68 -4.724 -0.804 0 0 Z M-8.188 4.062 C-10.86 6.92 -10.934 9.148 -11 13 C-9.863 15.376 -8.856 17.144 -7 19 C-3.562 18.812 -3.562 18.812 0 18 C2.123 15.6 2.032 13.703 2.375 10.5 C2 7 2 7 0.25 4.562 C-2.777 2.46 -4.876 2.454 -8.188 4.062 Z " fill="#000000" transform="translate(450,319)"/>
<path d="M0 0 C0.99 0.33 1.98 0.66 3 1 C1.289 6.082 -1.616 10.338 -4.5 14.812 C-5.583 16.502 -6.665 18.192 -7.746 19.883 C-8.018 20.308 -8.018 20.308 -9.394 22.458 C-10.93 24.89 -12.428 27.34 -13.91 29.805 C-14.359 30.545 -14.807 31.285 -15.27 32.048 C-16.118 33.452 -16.958 34.86 -17.789 36.275 C-18.779 37.901 -19.88 39.46 -21 41 C-21.99 41 -22.98 41 -24 41 C-23.471 36.154 -21.155 32.624 -18.562 28.625 C-18.121 27.931 -17.679 27.237 -17.224 26.522 C-13.663 20.953 -10.012 15.441 -6.313 9.961 C-4.108 6.695 -1.992 3.401 0 0 Z " fill="#000000" transform="translate(469,319)"/>
<path d="M0 0 C3.463 2.279 3.939 3.751 4.938 7.812 C5.264 12.189 4.3 15.216 2 19 C-1.219 21.289 -3.119 22 -7.062 22 C-10.957 20.674 -12.568 19.335 -15 16 C-16.495 11.28 -16.501 8.06 -14.375 3.562 C-9.915 -1.25 -6.309 -1.606 0 0 Z M-9.25 4 C-11.507 6.58 -11.567 8.689 -11.387 12.055 C-11 14 -11 14 -9.312 16.562 C-7 18 -7 18 -4.438 18 C-1.444 16.772 -0.477 15.876 1 13 C1.544 9.27 1.506 7.687 -0.75 4.625 C-3.777 2.439 -5.859 2.493 -9.25 4 Z " fill="#000000" transform="translate(708,322)"/>
<path d="M0 0 C0.99 0 1.98 0 3 0 C1.556 3.878 -0.245 7.355 -2.312 10.938 C-2.646 11.516 -2.979 12.094 -3.322 12.69 C-8.806 22.17 -14.412 31.581 -20 41 C-20.99 40.67 -21.98 40.34 -23 40 C-21.507 35.977 -19.603 32.359 -17.48 28.633 C-17.14 28.035 -16.8 27.437 -16.449 26.821 C-15.73 25.561 -15.01 24.302 -14.288 23.044 C-13.196 21.141 -12.113 19.233 -11.029 17.324 C-3.671 4.415 -3.671 4.415 0 0 Z " fill="#000000" transform="translate(726,321)"/>
<path d="M0 0 C1.875 1.125 1.875 1.125 3 3 C4.425 9.005 4.19 13.609 1 19 C-1.989 21.74 -3.441 22 -7.5 22 C-11.811 20.768 -13.406 19.662 -16 16 C-17.322 11.57 -17.312 8.052 -16 3.625 C-11.53 -2.242 -6.546 -2.77 0 0 Z M-11.375 4.062 C-13.415 7.751 -13.595 9.838 -13 14 C-11.312 16.938 -11.312 16.938 -9 19 C-6.5 19.625 -6.5 19.625 -4 19 C-1.402 16.823 -0.182 15.152 0.352 11.77 C0.568 5.737 0.568 5.737 -1.344 3.258 C-3 2 -3 2 -5.938 1.5 C-9 2 -9 2 -11.375 4.062 Z " fill="#000000" transform="translate(943,327)"/>
<path d="M0 0 C0.66 0.33 1.32 0.66 2 1 C1.435 5.363 -0.143 8.15 -2.57 11.789 C-2.93 12.333 -3.289 12.877 -3.659 13.437 C-4.807 15.172 -5.966 16.898 -7.125 18.625 C-8.257 20.326 -9.386 22.028 -10.515 23.73 C-11.623 25.4 -12.734 27.068 -13.845 28.735 C-16.958 33.451 -19.989 38.218 -23 43 C-23.99 42.67 -24.98 42.34 -26 42 C-24.652 38.328 -22.995 35.233 -20.84 31.973 C-20.527 31.497 -20.527 31.497 -18.946 29.09 C-18.283 28.091 -17.62 27.092 -16.938 26.062 C-15.58 24 -14.224 21.938 -12.867 19.875 C-12.207 18.873 -11.547 17.872 -10.866 16.84 C-8.406 13.097 -5.978 9.334 -3.562 5.562 C-2.863 4.471 -2.163 3.379 -1.441 2.254 C-0.966 1.51 -0.49 0.766 0 0 Z " fill="#000000" transform="translate(961,326)"/>
<path d="M0 0 C2.632 -0.001 5.264 -0.002 7.895 -0.003 C13.358 -0.005 18.82 -0.002 24.283 0.002 C30.594 0.008 36.905 0.006 43.217 0.001 C49.327 -0.004 55.437 -0.004 61.548 -0.001 C64.136 -0 66.725 -0.001 69.313 -0.003 C72.905 -0.006 76.497 -0.002 80.089 0.003 C81.16 0.001 82.231 -0.001 83.334 -0.003 C84.307 0 85.279 0.003 86.28 0.006 C87.128 0.006 87.975 0.007 88.848 0.007 C90.891 0.133 90.891 0.133 92.891 1.133 C92.561 2.123 92.231 3.113 91.891 4.133 C73.411 4.287 54.931 4.435 36.451 4.576 C27.871 4.641 19.291 4.709 10.71 4.781 C3.234 4.844 -4.242 4.903 -11.719 4.958 C-15.679 4.987 -19.64 5.018 -23.6 5.053 C-27.325 5.086 -31.049 5.115 -34.774 5.14 C-36.144 5.149 -37.514 5.161 -38.884 5.175 C-40.748 5.193 -42.613 5.204 -44.478 5.215 C-45.001 5.219 -45.001 5.219 -47.646 5.24 C-50.109 5.133 -50.109 5.133 -52.109 4.133 C-52.109 3.473 -52.109 2.813 -52.109 2.133 C-49.893 1.024 -48.551 0.941 -46.09 0.821 C-45.249 0.78 -44.409 0.738 -43.543 0.696 C-42.619 0.657 -41.694 0.619 -40.741 0.579 C-39.766 0.537 -38.79 0.494 -37.785 0.451 C-25.193 -0.043 -12.599 -0.012 0 0 Z " fill="#000000" transform="translate(1166.109375,334.8671875)"/>
<path d="M0 0 C2.975 1.555 4.517 2.882 5.859 5.988 C7.256 10.918 7.174 14.653 5.047 19.336 C3.412 21.934 1.858 22.937 -1 24 C-5.114 24.7 -6.68 24.187 -10.312 22.062 C-13.404 19.19 -13.982 16.413 -14.168 12.281 C-13.89 8.504 -12.964 6.274 -11 3 C-7.443 0.02 -4.584 -0.669 0 0 Z M-7.812 4.938 C-10.796 9.114 -10.642 10.946 -10 16 C-8.875 18.5 -8.875 18.5 -7 20 C-3.905 20.451 -1.955 20.527 0.812 19 C2.686 15.845 3.112 12.606 3 9 C1.706 5.622 0.89 4.422 -2.375 2.875 C-5 3 -5 3 -7.812 4.938 Z " fill="#000000" transform="translate(476,337)"/>
<path d="M0 0 C3.525 2.193 5.459 4.175 7 8 C7.327 12.607 6.608 16.766 3.812 20.5 C0.628 23.33 -0.764 24.086 -5 24 C-9.065 22.486 -12.11 20.99 -14 17 C-14.583 12.685 -14.495 9.139 -12.75 5.125 C-8.86 0.401 -6.255 -0.768 0 0 Z M-8.938 5.562 C-10.419 8.961 -10.451 11.326 -10 15 C-8 17.938 -8 17.938 -6 20 C-2.411 19.761 -0.573 19.61 1.938 16.938 C3.433 12.803 2.916 10.297 2 6 C0 4 0 4 -3.438 3.625 C-7 4 -7 4 -8.938 5.562 Z " fill="#000000" transform="translate(734,338)"/>
<path d="M0 0 C2.554 1.958 2.956 2.867 4 6 C4.566 11.773 3.464 16.349 0 21 C-3.503 23.287 -6.079 23.264 -10.094 22.582 C-12 22 -12 22 -14.5 20.125 C-16.756 15.425 -16.743 11.118 -16 6 C-14.287 2.383 -13.018 0.66 -9.688 -1.5 C-5.949 -2.195 -3.513 -1.366 0 0 Z M-12 5 C-13.239 9.187 -13.353 12.919 -12 17.062 C-10 19 -10 19 -6.5 19.562 C-3 19 -3 19 -1.305 17.281 C0.219 14.618 0.403 12.988 0.375 9.938 C0.379 9.509 0.379 9.509 0.398 7.34 C-0.077 4.548 -0.733 3.655 -3 2 C-7.275 1.466 -9.325 1.575 -12 5 Z " fill="#000000" transform="translate(970,347)"/>
<path d="M0 0 C1.873 0.034 3.746 0.062 5.619 0.084 C8.375 0.118 11.131 0.17 13.887 0.226 C14.302 0.229 14.302 0.229 16.406 0.245 C21.322 0.37 24.759 1.037 29.027 3.738 C32.326 8.67 32.499 14.791 31.656 20.503 C30.639 24.118 29.102 25.644 26.027 27.738 C12.754 32.478 -3.103 30.894 -16.974 30.868 C-20.399 30.863 -23.823 30.868 -27.248 30.874 C-60.453 30.886 -60.453 30.886 -66.973 26.738 C-69.074 22.763 -69.3 19.19 -69.348 14.738 C-69.362 14.139 -69.362 14.139 -69.434 11.113 C-68.887 7.107 -67.871 5.514 -64.973 2.738 C-47.527 -5.25 -18.733 -0.364 0 0 Z M-55.902 4.624 C-56.252 4.663 -56.252 4.663 -58.019 4.86 C-62.712 5.476 -62.712 5.476 -64.973 7.738 C-65.273 10.855 -65.273 10.855 -65.285 14.613 C-65.302 15.847 -65.319 17.082 -65.336 18.355 C-64.947 21.977 -64.749 23.397 -61.973 25.738 C-57.193 26.63 -52.55 26.872 -47.696 26.899 C-47.005 26.904 -46.315 26.909 -45.603 26.914 C-43.342 26.928 -41.081 26.935 -38.82 26.941 C-38.042 26.944 -37.264 26.946 -36.463 26.949 C-32.349 26.964 -28.236 26.973 -24.122 26.978 C-19.891 26.983 -15.661 27.007 -11.43 27.036 C-8.159 27.054 -4.888 27.06 -1.616 27.061 C-0.057 27.064 1.502 27.072 3.061 27.085 C18.56 27.207 18.56 27.207 25.027 23.738 C27.307 20.318 27.352 18.834 27.402 14.8 C27.431 13.76 27.459 12.72 27.488 11.648 C26.896 7.908 26.044 7.003 23.027 4.738 C20.181 4.269 17.704 4.048 14.848 3.999 C14.434 3.985 14.434 3.985 12.34 3.913 C9.569 3.829 6.799 3.779 4.027 3.738 C3.055 3.721 2.082 3.704 1.08 3.686 C-5.225 3.586 -11.529 3.552 -17.834 3.552 C-21.101 3.55 -24.367 3.532 -27.633 3.513 C-37.097 3.487 -46.489 3.557 -55.902 4.624 Z " fill="#000000" transform="translate(854.97265625,361.262451171875)"/>
<path d="M0 0 C1.147 0.001 2.294 0.002 3.475 0.003 C17.171 0.014 30.867 0.033 44.562 0.062 C44.892 1.382 45.223 2.702 45.562 4.062 C24.32 4.195 3.078 4.326 -18.164 4.454 C-28.035 4.513 -37.906 4.573 -47.777 4.635 C-123.451 5.109 -123.451 5.109 -157.387 5.151 C-160.036 5.154 -162.684 5.16 -165.333 5.167 C-168.901 5.175 -172.47 5.178 -176.038 5.178 C-177.078 5.181 -178.119 5.185 -179.19 5.189 C-180.127 5.187 -181.063 5.186 -182.028 5.184 C-182.838 5.185 -183.648 5.185 -184.482 5.186 C-186.438 5.062 -186.438 5.062 -188.438 4.062 C-188.108 3.072 -187.777 2.082 -187.438 1.062 C-168.458 0.887 -149.479 0.721 -130.5 0.562 C-130.145 0.56 -130.145 0.56 -128.349 0.544 C-85.565 0.187 -42.785 -0.032 0 0 Z " fill="#000000" transform="translate(1306.4375,368.9375)"/>
<path d="M0 0 C2 3 2 3 1.938 6.438 C1 10 1 10 -1 12.375 C-5.878 15.017 -10.632 15.641 -16 14.188 C-18 13 -18 13 -19 11 C-19.203 9.125 -19.203 9.125 -19.25 7 C-19.276 6.299 -19.302 5.598 -19.328 4.875 C-19.22 4.256 -19.112 3.637 -19 3 C-13.687 -0.542 -6.282 -0.949 0 0 Z M-14 4 C-15 5 -15 5 -15.125 7.5 C-15 10 -15 10 -14 11 C-6.788 11.473 -6.788 11.473 -3.5 9.5 C-3.005 9.005 -2.51 8.51 -2 8 C-2.165 7.175 -2.165 7.175 -3 3 C-6.759 3 -10.277 3.459 -14 4 Z " fill="#000000" transform="translate(181,388)"/>
<path d="M0 0 C2.345 3.518 2.58 4.858 2 9 C-1.208 13.151 -3.996 14.698 -9 16 C-11.985 16.297 -14.94 16.325 -17.938 16.312 C-18.324 16.321 -18.324 16.321 -20.279 16.361 C-26.35 16.366 -31.349 15.403 -36 11.188 C-37.433 8.053 -37.036 6.246 -36 3 C-33.638 0.632 -32.345 0.034 -28.984 -0.293 C-27.917 -0.258 -26.85 -0.223 -25.75 -0.188 C-25.211 -0.174 -25.211 -0.174 -22.484 -0.105 C-22.074 -0.088 -22.074 -0.088 -20 0 C-20 0.66 -20 1.32 -20 2 C-23.63 2.66 -27.26 3.32 -31 4 C-31.33 5.65 -31.66 7.3 -32 9 C-22.839 12.638 -15.407 12.919 -6 10 C-5.01 9.34 -4.02 8.68 -3 8 C-3 6.35 -3 4.7 -3 3 C-6.3 2.67 -9.6 2.34 -13 2 C-12.67 1.01 -12.34 0.02 -12 -1 C-7.338 -2.11 -4.387 -1.994 0 0 Z " fill="#000000" transform="translate(193,406)"/>
<path d="M0 0 C1.532 -0.009 3.063 -0.018 4.595 -0.027 C5.292 -0.036 5.989 -0.044 6.707 -0.052 C10.35 -0.067 13.694 0.172 17.237 1.041 C17.237 2.031 17.237 3.021 17.237 4.041 C-31.119 4.64 -79.474 5.147 -127.834 5.164 C-130.811 5.166 -133.789 5.169 -136.766 5.173 C-141.466 5.179 -146.165 5.179 -150.865 5.175 C-152.572 5.174 -154.279 5.175 -155.987 5.177 C-166.619 5.189 -177.16 4.835 -187.763 4.041 C-187.763 3.051 -187.763 2.061 -187.763 1.041 C-164.197 0.91 -140.63 0.779 -117.063 0.65 C-106.12 0.589 -95.176 0.529 -84.232 0.468 C-74.687 0.415 -65.141 0.362 -55.596 0.31 C-50.548 0.282 -45.5 0.254 -40.452 0.226 C-35.687 0.199 -30.922 0.173 -26.158 0.147 C-24.422 0.138 -22.686 0.128 -20.95 0.118 C-16.305 0.092 -11.66 0.07 -7.015 0.052 C-4.676 0.04 -2.338 0.02 0 0 Z " fill="#000000" transform="translate(1306.7633838653564,406.95924377441406)"/>
<path d="M0 0 C2.709 2.709 1.574 10.212 1.722 14.1 C1.782 15.57 1.851 17.04 1.929 18.509 C2.042 20.626 2.128 22.744 2.207 24.863 C2.264 26.135 2.32 27.406 2.378 28.716 C2 32 2 32 0.229 34.399 C-3.254 36.9 -6.854 36.86 -11 37 C-12.163 37.052 -13.325 37.103 -14.523 37.156 C-25.899 37.442 -25.899 37.442 -30 34 C-31.685 27.978 -31.224 21.574 -31.25 15.375 C-31.26 14.755 -31.26 14.755 -31.312 11.617 C-31.315 11.024 -31.315 11.024 -31.328 8.023 C-31.337 6.94 -31.347 5.856 -31.356 4.74 C-31 2 -31 2 -29.687 0.167 C-22.673 -4.684 -7.381 -2.946 0 0 Z M-28 4 C-28.391 8.324 -28.136 12.664 -28 17 C-27.982 18.276 -27.964 19.552 -27.945 20.867 C-27.901 22.107 -27.858 23.347 -27.812 24.625 C-27.778 25.772 -27.743 26.92 -27.707 28.102 C-27 31 -27 31 -25.023 32.91 C-20.82 34.425 -17.219 34.161 -12.812 33.812 C-11.993 33.768 -11.174 33.724 -10.33 33.678 C-4.274 33.274 -4.274 33.274 -2 31 C-1.741 28.434 -1.741 28.434 -1.734 25.223 C-1.732 24.07 -1.729 22.917 -1.727 21.729 C-1.734 20.519 -1.742 19.309 -1.75 18.062 C-1.742 16.857 -1.735 15.651 -1.727 14.408 C-1.728 13.831 -1.728 13.831 -1.734 10.91 C-1.737 9.849 -1.739 8.789 -1.741 7.696 C-2 5 -2 5 -4 2 C-6.215 1.628 -6.215 1.628 -8.938 1.637 C-9.915 1.637 -10.892 1.638 -11.898 1.639 C-12.41 1.647 -12.41 1.647 -15 1.688 C-16.024 1.684 -17.047 1.681 -18.102 1.678 C-25.733 1.733 -25.733 1.733 -28 4 Z " fill="#000000" transform="translate(192,462)"/>
<path d="M0 0 C0 0.99 0 1.98 0 3 C-2.012 4.867 -2.012 4.867 -4.688 6.875 C-7.646 9.132 -10.403 11.279 -12.875 14.062 C-13.576 14.702 -14.278 15.341 -15 16 C-17.312 15.812 -17.312 15.812 -19 15 C-18.188 13.062 -18.188 13.062 -17 11 C-16.01 10.67 -15.02 10.34 -14 10 C-11.356 7.495 -8.89 4.879 -6.438 2.188 C-4 0 -4 0 0 0 Z " fill="#000000" transform="translate(187,467)"/>
<path d="M0 0 C11.62 6.022 20.939 13.507 30.211 22.664 C30.875 23.314 31.539 23.964 32.223 24.634 C38.887 31.171 45.472 37.708 51.577 44.776 C55.673 49.509 59.95 54.08 64.211 58.664 C64.52 59.001 64.52 59.001 66.086 60.707 C74.789 69.849 87.711 79.802 100.684 80.867 C101.111 80.875 101.111 80.875 103.273 80.914 C104.131 80.94 104.988 80.966 105.871 80.992 C108.718 80.593 109.459 79.89 111.211 77.664 C111.871 76.674 112.531 75.684 113.211 74.664 C113.871 74.664 114.531 74.664 115.211 74.664 C115.211 109.314 115.211 143.964 115.211 179.664 C111.362 181.589 109.744 181.956 105.607 182.135 C104.459 182.188 103.311 182.242 102.129 182.297 C100.867 182.346 99.605 182.395 98.305 182.445 C96.951 182.504 95.597 182.563 94.243 182.622 C90.52 182.783 86.797 182.93 83.074 183.073 C80.695 183.165 78.317 183.259 75.939 183.354 C18.994 185.62 -37.987 186.854 -94.977 186.727 C-95.843 186.725 -96.709 186.723 -97.601 186.721 C-99.359 186.717 -101.117 186.713 -102.875 186.709 C-129.744 186.647 -156.608 186.716 -183.477 186.977 C-184.466 186.986 -185.455 186.995 -186.474 187.005 C-212.571 187.256 -238.657 187.72 -264.746 188.398 C-267.367 188.466 -269.987 188.534 -272.608 188.602 C-274.598 188.654 -276.588 188.705 -278.578 188.757 C-284.648 188.914 -290.719 189.071 -296.789 189.227 C-297.458 189.244 -298.127 189.261 -298.817 189.279 C-345.537 190.474 -392.238 190.972 -438.974 190.975 C-442.961 190.976 -446.948 190.979 -450.935 190.984 C-459.25 190.993 -467.565 190.99 -475.88 190.972 C-478.635 190.967 -481.389 190.965 -484.143 190.967 C-497.49 190.968 -510.767 190.761 -524.082 189.77 C-525.133 189.693 -526.183 189.616 -527.266 189.536 C-532.592 189.093 -537.674 188.391 -542.854 187.06 C-546.138 186.388 -549.36 186.727 -552.664 187.039 C-594.413 190.073 -633.832 183.651 -672.789 168.664 C-672.789 167.344 -672.789 166.024 -672.789 164.664 C-667.75 166.148 -662.727 167.667 -657.738 169.312 C-645.223 173.436 -632.716 177.072 -619.789 179.664 C-618.992 179.829 -618.196 179.994 -617.375 180.165 C-595.598 184.452 -572.863 182.936 -550.789 182.664 C-550.83 181.726 -550.872 180.787 -550.914 179.82 C-550.789 176.664 -550.789 176.664 -548.789 174.164 C-547.799 173.339 -546.809 172.514 -545.789 171.664 C-545.231 171.191 -544.673 170.718 -544.098 170.23 C-519.711 150.63 -478.408 143.783 -448.035 144.871 C-422.327 145.755 -422.327 145.755 -416.313 141.295 C-413.818 138.931 -411.846 136.428 -409.789 133.664 C-408.045 131.866 -406.295 130.074 -404.539 128.289 C-394.391 116.715 -386.734 103.328 -379.129 90.016 C-363.281 62.292 -343.782 31.157 -311.168 21.922 C-296.474 18.575 -282.513 21.72 -269.789 29.664 C-258.102 38.107 -248.69 48.653 -240.789 60.664 C-240.406 61.245 -240.022 61.826 -239.627 62.424 C-234.581 70.082 -229.677 77.819 -224.888 85.64 C-216.816 98.812 -208.664 111.584 -197.789 122.664 C-197.009 123.468 -196.229 124.273 -195.426 125.102 C-187.831 132.466 -179.947 136.82 -169.227 137.227 C-151.471 136.421 -138.493 123.939 -126.914 111.602 C-123.162 107.357 -119.654 102.99 -116.258 98.457 C-115.999 98.112 -115.999 98.112 -114.691 96.366 C-108.567 88.115 -102.867 79.583 -97.164 71.039 C-77.459 41.584 -77.459 41.584 -68.227 30.414 C-67.675 29.744 -67.123 29.074 -66.555 28.384 C-64.972 26.472 -63.381 24.568 -61.789 22.664 C-61.007 21.713 -60.224 20.761 -59.418 19.781 C-44.446 2.254 -22.77 -10.064 0 0 Z M-52.789 18.664 C-53.528 19.351 -54.266 20.038 -55.027 20.746 C-70.903 35.945 -82.672 55.416 -94.754 73.602 C-134.209 132.949 -134.209 132.949 -161.789 140.664 C-174.438 142.026 -184.066 139.557 -194.102 131.789 C-200.728 126.261 -206.479 120.158 -211.602 113.227 C-212.116 112.536 -212.63 111.845 -213.16 111.133 C-217.987 104.555 -222.27 97.69 -226.515 90.729 C-230.079 84.952 -233.816 79.282 -237.527 73.599 C-238.682 71.828 -239.832 70.053 -240.98 68.277 C-250.538 53.67 -261.873 38.649 -277.789 30.664 C-278.475 30.279 -279.161 29.893 -279.867 29.496 C-290.512 23.692 -302.739 22.986 -314.352 26.227 C-340.983 35.445 -357.636 60.501 -370.539 84.227 C-381.882 105.072 -394.63 124.227 -411.789 140.664 C-413.458 142.329 -415.125 143.995 -416.789 145.664 C-415.571 145.809 -414.352 145.954 -413.097 146.104 C-384.2 149.561 -355.446 153.571 -326.713 158.194 C-298.75 162.689 -270.773 167.029 -242.727 170.977 C-241.561 171.142 -240.395 171.307 -239.193 171.477 C-216.499 174.68 -193.78 177.586 -170.914 179.227 C-170.5 179.257 -170.5 179.257 -168.404 179.409 C-131.663 182.064 -95.053 183.056 -58.219 182.697 C-54.784 182.664 -51.35 182.635 -47.916 182.605 C-13.711 182.296 20.463 181.316 54.648 180.164 C55.14 180.148 55.14 180.148 57.63 180.064 C63.349 179.872 69.068 179.677 74.787 179.476 C76.534 179.415 78.282 179.355 80.03 179.295 C110.631 178.244 110.631 178.244 112.211 176.664 C112.306 173.773 112.336 170.905 112.324 168.013 C112.325 167.56 112.325 167.56 112.325 165.264 C112.324 162.25 112.316 159.237 112.309 156.223 C112.307 154.139 112.305 152.055 112.304 149.972 C112.3 144.476 112.291 138.98 112.28 133.484 C112.269 127.881 112.265 122.277 112.26 116.674 C112.249 105.671 112.232 94.667 112.211 83.664 C111.296 83.823 110.38 83.981 109.438 84.145 C96.341 86.253 85.947 81.223 75.352 73.973 C71.543 71.173 68.336 68.191 65.211 64.664 C64.407 63.86 63.602 63.055 62.773 62.227 C61.928 61.381 61.082 60.535 60.211 59.664 C59.604 59.069 58.997 58.473 58.371 57.859 C54.465 54.006 50.754 50.062 47.168 45.91 C9.147 2.273 9.147 2.273 -16.703 -0.344 C-31.732 -0.306 -42.45 8.73 -52.789 18.664 Z M-480.789 151.664 C-481.731 151.83 -482.672 151.997 -483.642 152.168 C-505.331 156.143 -529.545 162.177 -546.789 176.664 C-546.459 178.314 -546.129 179.964 -545.789 181.664 C-509.117 182.886 -462.096 169.182 -430.789 150.664 C-430.459 150.004 -430.129 149.344 -429.789 148.664 C-447.055 148.291 -463.762 148.641 -480.789 151.664 Z M-430.477 153.164 C-431.665 153.908 -432.856 154.646 -434.051 155.379 C-434.661 155.759 -435.271 156.139 -435.9 156.531 C-461.394 171.825 -492.686 177.51 -521.66 182.016 C-522.837 182.204 -524.014 182.392 -525.227 182.586 C-525.752 182.666 -525.752 182.666 -528.41 183.073 C-529.195 183.268 -529.98 183.463 -530.789 183.664 C-531.119 184.324 -531.449 184.984 -531.789 185.664 C-506.718 188.261 -481.275 187.79 -456.102 187.812 C-455.376 187.813 -454.649 187.814 -453.901 187.815 C-409.289 187.851 -364.688 186.849 -320.087 185.939 C-308.352 185.7 -296.618 185.471 -284.884 185.242 C-275.762 185.064 -266.64 184.883 -257.519 184.702 C-255.357 184.659 -253.196 184.616 -251.034 184.573 C-224.948 184.057 -198.868 183.468 -172.789 182.664 C-172.789 182.334 -172.789 182.004 -172.789 181.664 C-173.827 181.581 -174.865 181.497 -175.935 181.411 C-206.419 178.895 -236.648 174.899 -266.914 170.539 C-267.888 170.399 -268.862 170.258 -269.866 170.114 C-291.509 166.993 -313.139 163.786 -334.754 160.477 C-335.577 160.351 -336.4 160.225 -337.248 160.095 C-344.97 158.912 -352.691 157.723 -360.408 156.512 C-373.594 154.442 -386.78 152.44 -400.035 150.859 C-401.052 150.735 -402.069 150.61 -403.117 150.482 C-423.05 148.219 -423.05 148.219 -430.477 153.164 Z " fill="#000000" transform="translate(857.7890625,478.3359375)"/>
<path d="M0 0 C2.487 1.932 4.846 3.942 7.184 6.051 C7.868 6.642 8.553 7.234 9.258 7.844 C23.649 21.104 31.384 40.771 32.539 60.043 C33.238 78.637 28.576 94.202 16.496 108.738 C1.654 124.463 -17.97 131.478 -39.289 132.109 C-62.628 132.186 -84.509 123.112 -101.16 106.836 C-112.541 94.902 -119.686 79.649 -120.254 63.113 C-119.828 46.988 -112.315 33.701 -100.994 22.643 C-84.34 7.118 -64.68 3.126 -42.537 3.872 C-22.016 5.223 -7.997 16.998 5.074 31.621 C9.984 37.088 9.984 37.088 13.184 39.051 C15.434 38.738 15.434 38.738 17.184 38.051 C18.582 33.117 18.679 28.994 17.184 24.051 C7.373 7.601 -8.464 -2.201 -26.816 -6.949 C-50.965 -11.672 -71.781 -6.796 -92.195 6.488 C-98.432 10.773 -103.594 15.547 -108.191 21.551 C-108.66 22.151 -109.128 22.751 -109.611 23.37 C-112.832 27.568 -115.676 31.919 -118.441 36.426 C-122.704 43.314 -127.485 48.885 -134.816 52.551 C-140.774 53.544 -146.312 53.892 -151.816 51.051 C-151.486 50.061 -151.156 49.071 -150.816 48.051 C-149.887 48.097 -148.958 48.144 -148 48.191 C-139.422 48.442 -134.625 48.465 -128.199 42.566 C-124.089 38.286 -121.166 33.417 -118.129 28.363 C-105.667 7.819 -87.238 -6.018 -63.816 -11.949 C-41.544 -16.143 -18.786 -13.001 0 0 Z M-99.816 26.051 C-100.448 26.641 -101.08 27.232 -101.73 27.84 C-111.477 37.93 -116.25 51.612 -116.18 65.425 C-115.795 81.326 -108.22 94.48 -97.064 105.391 C-80.064 121.258 -58.525 128.564 -35.402 128.199 C-17.305 127.16 -0.875 119.489 12.184 107.051 C23.696 93.988 28.577 80.697 28.621 63.488 C28.625 62.443 28.629 61.397 28.633 60.32 C28.499 51.21 26.635 43.434 23.184 35.051 C21.184 38.051 21.184 38.051 19.996 40.238 C18.184 42.051 18.184 42.051 15.121 42.863 C7.368 42.344 1.509 33.452 -3.339 28.071 C-14.389 15.818 -27.912 7.965 -44.79 6.93 C-65.676 5.999 -84.35 11.505 -99.816 26.051 Z " fill="#000000" transform="translate(1283.81640625,512.94921875)"/>
<path d="M0 0 C3 2.375 3 2.375 5 5 C5 5.66 5 6.32 5 7 C5.577 7.082 6.155 7.165 6.75 7.25 C9.67 8.223 11.018 9.676 13 12 C14.736 17.207 14.732 22.707 13.062 27.938 C9.918 31.082 6.217 31.869 2 33 C1.505 33.165 1.505 33.165 -1 34 C-7.119 34.502 -10.107 34.078 -15 30 C-17.477 26.285 -17.549 24.391 -17 20 C-16.584 19.789 -16.584 19.789 -14.477 18.719 C-14.068 18.435 -14.068 18.435 -12 17 C-11.652 13.75 -11.652 13.75 -11.938 10 C-12.215 6.25 -12.215 6.25 -12 3 C-8.705 -0.59 -4.643 -1.011 0 0 Z M-9 5 C-8.91 7.024 -8.754 9.045 -8.562 11.062 C-8.512 11.615 -8.512 11.615 -8.254 14.41 C-8.17 15.265 -8.086 16.119 -8 17 C-7.237 16.484 -6.474 15.969 -5.688 15.438 C-4.801 14.963 -3.914 14.489 -3 14 C-2.01 14.33 -1.02 14.66 0 15 C0.688 17.062 0.688 17.062 1 19 C0.196 18.814 -0.609 18.629 -1.438 18.438 C-2.283 18.293 -3.129 18.149 -4 18 C-5 19 -5 19 -5.062 22.562 C-5.042 23.697 -5.021 24.831 -5 26 C-6.32 25.67 -7.64 25.34 -9 25 C-9.33 22.69 -9.66 20.38 -10 18 C-12.062 19.75 -12.062 19.75 -14 22 C-13.92 24.634 -13.262 25.693 -11.562 27.688 C-8.78 30.025 -6.925 30.113 -3.375 30.062 C-2.558 30.053 -1.74 30.044 -0.898 30.035 C-0.272 30.024 0.355 30.012 1 30 C0.34 29.34 -0.32 28.68 -1 28 C-0.75 25.938 -0.75 25.938 0 24 C0.66 23.67 1.32 23.34 2 23 C2.33 24.32 2.66 25.64 3 27 C5.375 27.125 5.375 27.125 8 27 C10.405 24.595 10.296 23.918 10.312 20.625 C10.231 17.805 10.028 16.067 8.938 13.438 C6.028 11.279 3.509 11.735 0 12 C0.021 10.866 0.041 9.731 0.062 8.562 C0 5 0 5 -1 4 C-7.759 3.759 -7.759 3.759 -9 5 Z " fill="#000000" transform="translate(179,537)"/>
<path d="M0 0 C3.208 1.497 5.729 3.275 8 6 C9.926 11.777 9.902 17.81 7.312 23.375 C5.352 26.756 3.453 29.038 0 31 C-5.672 32.488 -9.192 32.234 -14.301 29.293 C-17.054 27.198 -17.99 25.283 -19 22 C-19.565 16.16 -18.979 11.145 -16 6 C-11.259 0.893 -6.913 -0.758 0 0 Z M-11 6 C-14.415 9.691 -15.325 12.656 -15.562 17.562 C-15.4 21.413 -15.101 22.839 -13 26.188 C-9.244 28.457 -6.223 29.025 -2 28 C1.594 25.737 3.506 23.967 5.438 20.188 C6.376 14.87 6.004 10.815 3.375 6.062 C-1.375 1.938 -6.256 2.025 -11 6 Z " fill="#000000" transform="translate(1223,545)"/>
<path d="M0 0 C0.66 0 1.32 0 2 0 C1.436 4.141 0.122 6.706 -2.25 10.125 C-2.973 11.178 -3.696 12.231 -4.441 13.316 C-4.848 13.901 -5.254 14.485 -5.672 15.086 C-7.114 17.164 -8.54 19.251 -9.965 21.34 C-12.151 24.545 -14.341 27.746 -16.535 30.945 C-18.902 34.395 -21.263 37.849 -23.621 41.305 C-24.208 42.164 -24.795 43.024 -25.4 43.91 C-26.525 45.559 -27.65 47.208 -28.774 48.858 C-29.029 49.231 -29.029 49.231 -30.32 51.121 C-30.766 51.775 -31.213 52.429 -31.672 53.103 C-32.11 53.729 -32.549 54.355 -33 55 C-33.488 55.74 -33.977 56.48 -34.48 57.242 C-34.982 57.822 -35.483 58.402 -36 59 C-36.99 59 -37.98 59 -39 59 C-38.388 55.924 -37.408 53.829 -35.621 51.262 C-35.37 50.899 -35.37 50.899 -34.102 49.061 C-33.553 48.277 -33.003 47.494 -32.438 46.688 C-31.868 45.864 -31.298 45.041 -30.71 44.193 C-28.814 41.458 -26.908 38.728 -25 36 C-22.902 32.995 -20.804 29.99 -18.707 26.984 C-17.356 25.048 -16.003 23.114 -14.646 21.182 C-10.756 15.62 -7.039 9.983 -3.458 4.215 C-2 2 -2 2 0 0 Z " fill="#000000" transform="translate(1254,547)"/>
<path d="M0 0 C3.253 2.144 4.377 3.152 5.75 6.812 C6.507 13.509 6.153 19.881 2.75 25.812 C-0.353 29.458 -2.463 31.386 -7.266 32.121 C-11.909 32.389 -14.612 32.037 -18.25 29 C-21.667 25.797 -22.433 22.859 -22.625 18.25 C-22.573 12.353 -20.606 7.626 -17.25 2.812 C-12.026 -1.723 -6.497 -2.374 0 0 Z M-15.25 5.812 C-19.072 10.867 -19.066 16.719 -18.25 22.812 C-16.688 25.938 -16.688 25.938 -14.25 27.812 C-10.329 28.953 -8.245 29.265 -4.5 27.562 C0.261 23.86 2.112 21.016 3.047 14.855 C3.311 11.018 2.956 8.5 0.625 5.375 C-5.026 0.339 -9.732 1.242 -15.25 5.812 Z " fill="#000000" transform="translate(1263.25,576.1875)"/>
<path d="M0 0 C4.961 2.559 8.209 5.993 9.965 11.262 C10.532 18.295 10.532 18.295 8.277 22.137 C5.792 24.42 4.174 25.283 0.965 26.262 C-1.938 26.133 -1.938 26.133 -4.973 25.699 C-9.859 25.194 -12.995 25.095 -17.035 28.262 C-17.91 30.449 -17.91 30.449 -18.035 32.262 C-17.128 31.746 -16.22 31.23 -15.285 30.699 C-12.035 29.262 -12.035 29.262 -9.66 29.574 C-9.124 29.801 -8.588 30.028 -8.035 30.262 C-9.035 33.262 -9.035 33.262 -10.961 34.281 C-11.355 34.412 -11.355 34.412 -13.348 35.074 C-14.128 35.349 -14.907 35.623 -15.711 35.906 C-18.513 36.335 -19.675 35.747 -22.035 34.262 C-22.16 31.387 -22.16 31.387 -22.035 28.262 C-21.375 27.602 -20.715 26.942 -20.035 26.262 C-20.529 25.924 -21.023 25.586 -21.531 25.238 C-22.172 24.792 -22.813 24.346 -23.473 23.887 C-24.111 23.446 -24.749 23.005 -25.406 22.551 C-27.035 21.262 -27.035 21.262 -28.035 19.262 C-28.398 14.903 -28.411 12.201 -26.785 8.137 C-19.961 1.003 -9.7 -3.519 0 0 Z M-23.812 11.195 C-25.035 13.262 -25.035 13.262 -25.16 16.637 C-24.035 19.262 -24.035 19.262 -21.035 21.262 C-19.036 21.303 -17.035 21.304 -15.035 21.262 C-14.375 21.592 -13.715 21.922 -13.035 22.262 C-12.375 21.932 -11.715 21.602 -11.035 21.262 C-7.459 21.271 -3.894 21.394 -0.32 21.52 C2.965 21.262 2.965 21.262 4.879 19.961 C6.755 17.025 6.366 14.643 5.965 11.262 C3.996 7.166 2.532 5.571 -1.473 3.387 C-10.759 0.454 -17.837 3.804 -23.812 11.195 Z " fill="#000000" transform="translate(187.03515625,613.73828125)"/>
<path d="M0 0 C2.875 0.125 2.875 0.125 6 1 C9.644 5.523 10.124 10.422 10.129 16.071 C10.133 17.057 10.136 18.043 10.139 19.059 C10.138 19.588 10.138 19.588 10.133 22.266 C10.133 22.819 10.133 22.819 10.136 25.62 C10.136 27.966 10.135 30.313 10.13 32.66 C10.125 36.195 10.13 39.73 10.137 43.266 C10.141 49.845 10.087 56.422 10 63 C9.996 63.453 9.996 63.453 9.976 65.744 C9.946 68.117 9.883 70.487 9.805 72.859 C9.771 74.138 9.737 75.416 9.703 76.733 C8.826 80.809 7.146 82.362 4 85 C1.688 84.438 1.688 84.438 -1 83 C-2.348 80.72 -3.114 78.519 -4 76 C-4.825 76.198 -5.65 76.395 -6.5 76.599 C-14.959 78.531 -23.302 79.732 -31.947 80.453 C-33.972 80.623 -35.996 80.806 -38.02 80.992 C-58.31 82.802 -78.601 83.153 -98.961 83.133 C-101.409 83.133 -103.857 83.134 -106.304 83.136 C-111.406 83.137 -116.507 83.135 -121.608 83.13 C-128.047 83.125 -134.485 83.128 -140.924 83.134 C-176.046 83.161 -210.985 82.98 -246 80 C-246 79.01 -246 78.02 -246 77 C-236.926 76.952 -227.877 76.992 -218.808 77.346 C-190.95 78.413 -163.055 78.188 -135.181 78.185 C-129.19 78.185 -123.198 78.197 -117.206 78.211 C-111.305 78.224 -105.404 78.229 -99.504 78.229 C-96.029 78.229 -92.555 78.231 -89.081 78.242 C-74.188 78.281 -59.358 77.995 -44.492 77.111 C-43.819 77.072 -43.146 77.033 -42.452 76.993 C-14.575 75.345 -14.575 75.345 -5 70 C-5.005 68.736 -5.01 67.473 -5.016 66.171 C-5.034 61.386 -5.046 56.602 -5.055 51.818 C-5.06 49.765 -5.067 47.712 -5.075 45.659 C-5.119 35.214 -5.104 24.771 -4.684 14.332 C-4.661 13.559 -4.639 12.786 -4.616 11.99 C-4.378 7.124 -3.514 3.514 0 0 Z M1 4 C-1.07 7.105 -1.247 7.715 -1.208 11.22 C-1.204 12.073 -1.2 12.926 -1.195 13.805 C-1.18 14.732 -1.164 15.658 -1.148 16.613 C-1.14 17.585 -1.131 18.556 -1.123 19.557 C-1.092 22.705 -1.046 25.852 -1 29 C-0.976 31.085 -0.953 33.17 -0.931 35.255 C-0.869 40.505 -0.782 45.754 -0.683 51.003 C-0.644 53.16 -0.609 55.317 -0.578 57.474 C-0.533 60.643 -0.475 63.812 -0.414 66.98 C-0.403 67.946 -0.391 68.911 -0.379 69.906 C-0.359 70.796 -0.339 71.686 -0.319 72.602 C-0.306 73.382 -0.292 74.162 -0.278 74.965 C0 77 0 77 2 80 C2.495 79.835 2.495 79.835 5 79 C6.38 76.24 6.135 74.006 6.145 70.917 C6.148 70.278 6.148 70.278 6.165 67.043 C6.166 65.639 6.167 64.236 6.168 62.832 C6.171 61.394 6.175 59.957 6.178 58.519 C6.184 55.5 6.186 52.481 6.185 49.463 C6.185 45.607 6.199 41.752 6.216 37.896 C6.227 34.923 6.229 31.951 6.229 28.978 C6.23 27.558 6.234 26.137 6.242 24.717 C6.252 22.721 6.248 20.725 6.243 18.73 C6.244 17.597 6.246 16.463 6.247 15.296 C5.97 11.6 5.296 8.474 4 5 C3.01 4.67 2.02 4.34 1 4 Z " fill="#000000" transform="translate(453,714)"/>
<path d="M0 0 C2.914 1.195 3.855 2.31 5.438 5 C6.624 8.561 6.668 11.867 6.754 15.578 C6.775 16.333 6.796 17.088 6.817 17.867 C6.884 20.328 6.942 22.789 7 25.25 C7.021 26.086 7.041 26.922 7.062 27.784 C7.202 33.522 7.325 39.261 7.438 45 C7.462 46.244 7.487 47.489 7.513 48.771 C8.036 78.798 8.036 78.798 3.52 84.363 C1.438 86 1.438 86 -1.125 86 C-4.149 84.76 -5.041 83.892 -6.562 81 C-7.775 74.791 -7.707 68.629 -7.695 62.32 C-7.696 61.194 -7.697 60.068 -7.698 58.908 C-7.699 56.526 -7.697 54.144 -7.693 51.762 C-7.688 48.172 -7.693 44.582 -7.699 40.992 C-7.703 34.327 -7.659 27.664 -7.562 21 C-7.549 20.084 -7.536 19.168 -7.522 18.225 C-7.475 15.833 -7.398 13.445 -7.305 11.055 C-7.259 9.768 -7.214 8.481 -7.167 7.156 C-6.339 2.834 -4.655 0 0 0 Z M-2.562 4 C-4.766 7.548 -4.787 10.381 -4.729 14.509 C-4.723 15.154 -4.717 15.798 -4.711 16.462 C-4.687 18.587 -4.649 20.711 -4.609 22.836 C-4.588 24.318 -4.568 25.8 -4.548 27.282 C-4.504 30.387 -4.453 33.493 -4.396 36.598 C-4.324 40.567 -4.27 44.537 -4.222 48.507 C-4.182 51.568 -4.134 54.629 -4.082 57.69 C-4.059 59.153 -4.038 60.617 -4.02 62.08 C-3.994 64.131 -3.955 66.181 -3.913 68.232 C-3.894 69.397 -3.874 70.562 -3.854 71.762 C-3.552 75.112 -2.753 77.864 -1.562 81 C-1.067 80.835 -1.067 80.835 1.438 80 C3.876 74.186 3.718 67.507 3.625 61.312 C3.617 60.367 3.609 59.422 3.601 58.448 C3.563 54.965 3.501 51.483 3.438 48 C3.412 46.434 3.388 44.868 3.363 43.301 C3.293 39.021 3.209 34.74 3.117 30.46 C3.081 28.742 3.047 27.025 3.016 25.307 C2.971 22.868 2.913 20.43 2.852 17.992 C2.846 17.626 2.846 17.626 2.817 15.773 C2.702 11.802 2.406 8.496 0.438 5 C-0.553 4.67 -1.543 4.34 -2.562 4 Z " fill="#000000" transform="translate(494.5625,714)"/>
<path d="M0 0 C3 0.5 3 0.5 4.75 1.5 C9.206 8.629 8.29 17.729 8.266 25.781 C8.267 27.163 8.269 28.545 8.271 29.927 C8.274 32.811 8.27 35.696 8.261 38.581 C8.249 42.259 8.256 45.937 8.268 49.615 C8.275 52.465 8.273 55.315 8.268 58.165 C8.266 60.175 8.272 62.184 8.278 64.193 C8.201 79.198 8.201 79.198 4 85.5 C1.062 85.938 1.062 85.938 -2 85.5 C-4.859 83.232 -5.015 81.399 -5.562 77.8 C-6.25 70.933 -6.185 64.035 -6.203 57.141 C-6.206 56.416 -6.209 55.691 -6.212 54.945 C-6.227 51.12 -6.236 47.295 -6.24 43.47 C-6.246 39.53 -6.27 35.591 -6.298 31.651 C-6.317 28.608 -6.322 25.564 -6.324 22.52 C-6.327 21.067 -6.335 19.614 -6.348 18.162 C-6.365 16.133 -6.361 14.104 -6.356 12.075 C-6.36 10.923 -6.364 9.771 -6.367 8.584 C-5.816 3.953 -4.838 0.806 0 0 Z M-1 4.5 C-3.033 7.55 -3.25 8.083 -3.23 11.496 C-3.229 12.344 -3.228 13.192 -3.227 14.065 C-3.214 15.013 -3.201 15.961 -3.188 16.938 C-3.18 17.941 -3.172 18.945 -3.164 19.98 C-3.132 23.059 -3.087 26.137 -3.036 29.216 C-2.996 31.764 -2.96 34.313 -2.925 36.861 C-2.855 41.802 -2.772 46.742 -2.68 51.683 C-2.643 53.683 -2.61 55.683 -2.579 57.684 C-2.534 60.533 -2.475 63.382 -2.414 66.23 C-2.402 67.091 -2.391 67.952 -2.379 68.838 C-2.272 73.154 -1.995 76.567 0 80.5 C0.99 80.5 1.98 80.5 3 80.5 C4.854 75.003 5.258 70.273 5.148 64.496 C5.14 63.632 5.131 62.768 5.123 61.878 C5.092 59.085 5.046 56.293 5 53.5 C4.976 51.611 4.953 49.722 4.931 47.833 C4.869 43.044 4.782 38.255 4.683 33.467 C4.644 31.504 4.609 29.541 4.578 27.577 C4.533 24.688 4.475 21.799 4.414 18.91 C4.403 18.036 4.391 17.162 4.379 16.262 C4.273 11.914 4.017 8.459 2 4.5 C1.01 4.5 0.02 4.5 -1 4.5 Z " fill="#000000" transform="translate(530,714.5)"/>
<path d="M0 0 C2.484 3.726 2.445 6.837 2.633 11.168 C2.674 11.963 2.716 12.758 2.759 13.576 C2.889 16.113 3.007 18.65 3.125 21.188 C3.211 22.908 3.299 24.629 3.387 26.35 C3.601 30.566 3.803 34.783 4 39 C18.658 44.94 34.489 44.275 50.062 44.125 C51.912 44.115 53.762 44.106 55.611 44.098 C60.074 44.076 64.537 44.042 69 44 C69 43.34 69 42.68 69 42 C67.845 41.938 66.69 41.876 65.5 41.812 C60.512 41.175 56.819 39.24 53 36 C49.582 31.3 49.272 26.624 50 21 C51.716 16.042 54.372 12.495 59 10 C86.295 -0.074 118.851 2.829 147.459 2.87 C151.384 2.875 155.308 2.872 159.233 2.866 C176.815 2.845 194.383 3.023 211.961 3.425 C236.98 3.989 261.99 4.161 287.014 4.199 C294.031 4.21 301.048 4.231 308.066 4.252 C327.971 4.313 347.877 4.369 367.782 4.401 C378.88 4.42 389.978 4.449 401.076 4.489 C406.909 4.51 412.741 4.526 418.574 4.528 C424.021 4.53 429.467 4.546 434.914 4.573 C436.905 4.58 438.896 4.582 440.887 4.578 C443.61 4.575 446.331 4.589 449.054 4.608 C449.834 4.602 450.614 4.597 451.418 4.591 C456.939 4.657 461.971 5.639 467 8 C471.607 13.327 471.302 20.519 471.211 27.246 C470.906 31.231 470.155 34.603 468 38 C462.692 42.404 458.556 43.12 451.836 43.151 C450.57 43.16 449.305 43.168 448.001 43.177 C446.6 43.181 445.2 43.185 443.799 43.189 C442.322 43.197 440.845 43.206 439.368 43.215 C436.187 43.233 433.006 43.248 429.825 43.26 C424.784 43.281 419.744 43.308 414.703 43.337 C403.99 43.397 393.276 43.449 382.562 43.5 C371.026 43.555 359.49 43.612 347.953 43.678 C342.954 43.706 337.955 43.729 332.956 43.749 C329.828 43.763 326.699 43.78 323.57 43.799 C322.132 43.806 320.695 43.813 319.257 43.817 C312.706 43.837 306.212 43.931 299.684 44.501 C291.357 45.207 283.04 45.161 274.689 45.174 C272.877 45.18 271.065 45.187 269.252 45.194 C265.368 45.208 261.483 45.22 257.598 45.23 C251.406 45.245 245.213 45.269 239.021 45.295 C221.417 45.365 203.813 45.425 186.209 45.477 C176.472 45.506 166.734 45.541 156.996 45.583 C151.873 45.605 146.75 45.624 141.627 45.634 C118.739 45.679 95.924 46.083 73.063 47.28 C61.436 47.886 49.83 48.219 38.188 48.312 C37.429 48.319 36.671 48.326 35.889 48.333 C25.241 48.414 12.555 48.445 3 43 C3.005 43.573 3.01 44.147 3.016 44.737 C3.265 76.156 3.265 76.156 -1 82 C-2.875 83.062 -2.875 83.062 -5 83 C-8.097 81.577 -9.685 80.832 -10.915 77.584 C-11.963 69.611 -12.307 61.769 -12.301 53.73 C-12.305 52.397 -12.309 51.063 -12.314 49.729 C-12.321 46.959 -12.321 44.188 -12.316 41.417 C-12.31 37.882 -12.327 34.348 -12.35 30.813 C-12.368 27.411 -12.365 24.008 -12.363 20.605 C-12.372 19.345 -12.382 18.084 -12.391 16.786 C-12.358 10.45 -12.215 5.54 -9 0 C-5.703 -2.747 -3.606 -1.993 0 0 Z M-6 4 C-7.796 7.862 -8.252 10.903 -8.259 15.148 C-8.265 16.366 -8.271 17.585 -8.278 18.84 C-8.274 20.148 -8.27 21.457 -8.266 22.805 C-8.267 24.171 -8.269 25.537 -8.271 26.903 C-8.274 29.763 -8.27 32.622 -8.261 35.482 C-8.249 39.132 -8.256 42.782 -8.268 46.433 C-8.275 49.254 -8.273 52.074 -8.268 54.895 C-8.266 56.891 -8.272 58.887 -8.278 60.882 C-8.247 66.954 -8.144 72.287 -6 78 C-5.01 78 -4.02 78 -3 78 C-1.002 74.667 -0.752 72.147 -0.757 68.289 C-0.754 67.14 -0.751 65.991 -0.748 64.808 C-0.755 63.569 -0.762 62.331 -0.77 61.055 C-0.77 59.774 -0.77 58.494 -0.771 57.175 C-0.772 54.464 -0.781 51.752 -0.794 49.04 C-0.811 45.591 -0.815 42.141 -0.814 38.692 C-0.815 35.375 -0.823 32.059 -0.832 28.742 C-0.833 27.516 -0.834 26.289 -0.835 25.026 C-0.872 18.291 -1.165 11.686 -2 5 C-3.32 4.67 -4.64 4.34 -6 4 Z M94.246 7.895 C93.541 7.934 92.835 7.973 92.108 8.014 C66.094 9.511 66.094 9.511 56 17 C53.652 19.988 53.567 23.226 53.699 26.977 C54.232 30.56 55.548 32.368 58 35 C76.738 48.035 113.92 42.167 135.655 42.129 C138.033 42.125 140.411 42.123 142.789 42.121 C170.715 42.099 198.64 41.881 226.565 41.594 C229.582 41.563 232.598 41.533 235.614 41.503 C247.565 41.383 259.515 41.235 271.466 41.041 C273.986 41 276.506 40.963 279.026 40.925 C282.932 40.865 286.837 40.789 290.743 40.699 C292.158 40.668 293.573 40.642 294.988 40.622 C296.911 40.592 298.833 40.542 300.755 40.492 C301.824 40.469 302.893 40.447 303.994 40.423 C308.39 39.804 311.816 38.307 314.812 35 C317.727 30.092 317.835 24.431 316.504 18.961 C314.881 14.65 313.011 13.03 309 11 C300.005 8.505 290.492 8.599 281.223 8.41 C279.719 8.374 278.215 8.336 276.712 8.299 C272.875 8.205 269.038 8.122 265.201 8.045 C263.117 8.002 261.032 7.958 258.948 7.913 C249.778 7.72 240.608 7.568 231.438 7.438 C230.73 7.427 230.022 7.417 229.292 7.407 C204.169 7.047 179.046 6.866 153.921 6.819 C151.361 6.813 148.802 6.803 146.243 6.792 C128.883 6.721 111.581 6.892 94.246 7.895 Z M314 9 C314.639 9.928 315.279 10.856 315.938 11.812 C319.018 16.573 319.183 20.37 319.188 25.875 C319.2 26.583 319.212 27.29 319.225 28.02 C319.236 32.196 318.658 35.202 317 39 C335.002 39.047 353.005 39.082 371.007 39.104 C379.367 39.114 387.726 39.128 396.085 39.151 C403.372 39.171 410.659 39.184 417.946 39.188 C421.803 39.191 425.66 39.197 429.518 39.211 C433.151 39.225 436.785 39.229 440.418 39.226 C442.382 39.227 444.345 39.238 446.308 39.249 C452.223 39.235 457.468 39.211 463 37 C467.702 32.141 467.285 26.58 467.207 20.18 C466.957 16.336 466.499 13.982 464 11 C458.728 9.102 453.769 8.6 448.199 8.383 C447.367 8.345 446.534 8.308 445.676 8.269 C437.054 7.909 428.44 7.849 419.812 7.875 C418.947 7.876 418.082 7.877 417.19 7.878 C382.793 7.917 348.393 8.524 314 9 Z " fill="#000000" transform="translate(574,715)"/>
<path d="M0 0 C3.37 2.808 3.964 6.858 5 11 C9.248 10.528 11.2 8.033 14 5 C18.365 6.191 21.258 7.309 24 11 C24.807 15.379 23.034 18.187 21 22 C21 22.66 21 23.32 21 24 C21.831 23.942 22.663 23.884 23.52 23.824 C24.063 23.802 24.063 23.802 26.812 23.688 C27.891 23.629 28.97 23.571 30.082 23.512 C33 24 33 24 34.859 26.324 C36.222 29.521 36.523 31.561 36 35 C33.167 38.159 30.103 38.534 26 39 C26 40.65 26 42.3 26 44 C26.928 44.268 27.856 44.536 28.812 44.812 C33.523 46.567 33.523 46.567 35 49 C34.922 52.596 34.144 54.745 32.375 57.875 C30 60 30 60 26.562 60.375 C23.638 60.067 20.872 59.601 18 59 C18.13 59.748 18.26 60.495 18.395 61.266 C18.81 64.23 19.095 67.007 19 70 C16.531 73.142 14.689 73.775 10.938 75 C8 75 8 75 5.75 73.25 C4.43 71.552 3.193 69.789 2 68 C0.68 67.67 -0.64 67.34 -2 67 C-2.99 69.97 -3.98 72.94 -5 76 C-14.9 75.272 -14.9 75.272 -18 72 C-18.172 69.52 -18.172 69.52 -17.75 66.812 C-17.621 65.911 -17.492 65.01 -17.359 64.082 C-17.241 63.395 -17.122 62.708 -17 62 C-20.375 62.547 -22.082 63.055 -25 65 C-27.375 65.5 -27.375 65.5 -30 65 C-32.358 62.898 -33.647 61.724 -35 59 C-35.072 54.821 -34.781 52.852 -31.938 49.75 C-31.298 49.173 -30.659 48.595 -30 48 C-30 47.01 -30 46.02 -30 45 C-33.3 44.34 -36.6 43.68 -40 43 C-41.11 38.338 -40.994 35.387 -39 31 C-35.555 28.704 -33.062 28.46 -29 28 C-28.67 27.01 -28.34 26.02 -28 25 C-29.295 23.511 -30.59 22.023 -31.895 20.543 C-33 19 -33 19 -33.188 16.438 C-31.459 12.89 -29.249 11.187 -26 9 C-23.438 8.438 -23.438 8.438 -21 9 C-19.317 10.313 -17.65 11.646 -16 13 C-14.68 13 -13.36 13 -12 13 C-12 9.37 -12 5.74 -12 2 C-7.206 -0.397 -5.253 -0.5 0 0 Z M-8 4 C-8.055 4.385 -8.055 4.385 -8.332 6.336 C-8.411 6.837 -8.411 6.837 -8.812 9.375 C-8.963 10.373 -9.114 11.37 -9.27 12.398 C-10 15 -10 15 -13 17 C-18.361 16.665 -18.361 16.665 -20.562 14.375 C-21.037 13.921 -21.511 13.467 -22 13 C-24.562 13.125 -24.562 13.125 -27 14 C-27.33 14.495 -27.33 14.495 -29 17 C-28.34 17.866 -27.68 18.732 -27 19.625 C-24.853 23.249 -24.36 24.883 -25 29 C-26 30.812 -26 30.812 -28 32 C-30.681 32.539 -33.263 32.776 -36 33 C-36 35.31 -36 37.62 -36 40 C-33.03 40.33 -30.06 40.66 -27 41 C-25.85 46.927 -25.85 46.927 -26 50 C-28.5 52.812 -28.5 52.812 -31 55 C-31.062 57.188 -31.062 57.188 -30 59 C-28.25 60.438 -28.25 60.438 -26 61 C-25.216 60.526 -24.433 60.051 -23.625 59.562 C-21 58 -21 58 -17.75 58.25 C-15 59 -15 59 -14 60 C-13.928 61.853 -13.916 63.708 -13.938 65.562 C-13.947 66.574 -13.956 67.586 -13.965 68.629 C-13.976 69.411 -13.988 70.194 -14 71 C-12.02 71.33 -10.04 71.66 -8 72 C-7.72 71.423 -7.441 70.845 -7.152 70.25 C-5.914 67.957 -4.702 65.975 -3 64 C0.5 63.062 0.5 63.062 4 64 C6.076 66.118 7.567 68.412 9 71 C9.825 70.835 9.825 70.835 14 70 C14.889 66.74 14.959 64.763 14.375 61.375 C14 58 14 58 15 56 C19.03 53.985 23.832 55.833 28 57 C28.99 55.02 29.98 53.04 31 51 C30.423 50.648 29.845 50.296 29.25 49.934 C26.957 48.409 24.938 46.96 23 45 C22.5 41.125 22.5 41.125 23 38 C24.485 37.175 24.485 37.175 32 33 C31.835 32.01 31.835 32.01 31 27 C30.656 27.017 30.656 27.017 28.918 27.105 C28.017 27.133 27.116 27.16 26.188 27.188 C25.741 27.205 25.741 27.205 23.48 27.293 C21 27 21 27 19.238 25.676 C18 24 18 24 17 21 C17.777 18.957 17.777 18.957 18.938 16.812 C19.128 16.455 19.128 16.455 20.09 14.645 C20.39 14.102 20.691 13.559 21 13 C17.618 9.98 17.618 9.98 15.062 10.062 C13 11 13 11 10.625 13.125 C8 15 8 15 4.938 15.375 C1.311 13.677 1.082 12.567 -0.375 8.938 C-0.94 7.3 -1.489 5.656 -2 4 C-3.98 4 -5.96 4 -8 4 Z " fill="#000000" transform="translate(178,729)"/>
<path d="M0 0 C3.682 2.04 5.504 3.817 7.754 7.43 C9.07 12.608 9.171 16.364 6.652 21.051 C2.303 26.831 -3.808 30.031 -10.09 33.353 C-16.059 36.598 -21.098 40.485 -23.309 47.117 C-22.38 47.112 -21.451 47.107 -20.495 47.101 C-17.054 47.084 -13.614 47.072 -10.174 47.062 C-8.684 47.057 -7.194 47.05 -5.704 47.042 C-3.564 47.03 -1.425 47.024 0.715 47.02 C2.003 47.014 3.291 47.009 4.619 47.004 C7.691 47.117 7.691 47.117 9.691 48.117 C9.691 49.107 9.691 50.097 9.691 51.117 C-2.849 51.117 -15.389 51.117 -28.309 51.117 C-29.309 48.117 -29.309 48.117 -28.707 46.285 C-23.825 36.838 -18.326 32.574 -9.309 27.117 C-7.634 26.067 -5.967 25.005 -4.309 23.93 C-3.958 23.706 -3.958 23.706 -2.184 22.574 C1.465 19.739 2.604 17.805 3.191 13.18 C3.044 9.896 2.645 9.048 0.691 6.18 C-3.034 3.619 -5.809 2.81 -10.309 3.117 C-14.169 4.13 -18.076 5.709 -20.309 9.117 C-21.141 11.771 -21.727 14.39 -22.309 17.117 C-23.629 16.787 -24.949 16.457 -26.309 16.117 C-25.945 8.966 -25.945 8.966 -23.246 5.367 C-16.176 -0.048 -8.872 -3.393 0 0 Z " fill="#000000" transform="translate(314.30859375,731.8828125)"/>
<path d="M0 0 C4.631 2.961 6.541 7.31 8.25 12.438 C9.034 24.485 8.725 34.172 0.875 43.938 C-2.742 47.731 -5.556 49.303 -10.879 49.527 C-16.199 49.32 -19.524 47.894 -23.309 44.145 C-28.427 38.083 -28.273 31.937 -28.098 24.23 C-27.296 15.484 -23.93 7.741 -17.75 1.438 C-12.179 -2.438 -6.058 -3.01 0 0 Z M-19.938 9.062 C-24.259 17.109 -26.257 25.661 -24.246 34.703 C-22.775 39.244 -21.017 42.013 -16.75 44.438 C-12.436 45.74 -9.616 45.676 -5.562 43.875 C-0.814 41.202 1.264 37.669 3.438 32.75 C5.358 24.921 6.139 17.115 3.25 9.438 C1.077 6.033 -0.849 3.664 -4.75 2.438 C-11.752 1.66 -15.484 3.718 -19.938 9.062 Z " fill="#000000" transform="translate(364.75,733.5625)"/>
<path d="M0 0 C6.047 3.557 10.518 8.321 12.684 15.086 C13.44 23.853 13.917 32.953 8.066 40.047 C4.493 43.804 1.411 46.769 -3.902 47.387 C-11.078 47.417 -15.361 46.619 -20.941 41.836 C-26.704 35.164 -28.896 28.92 -28.316 20.086 C-26.736 11.211 -22.684 5.968 -16.066 0.086 C-10.851 -1.811 -5.21 -2.056 0 0 Z M-18.316 7.086 C-23.202 13.028 -24.974 19.457 -24.316 27.086 C-23.105 33.377 -21.013 37.063 -15.938 40.992 C-11.895 43.72 -8.07 43.532 -3.316 43.086 C1.766 41.007 4.942 36.883 7.805 32.285 C9.932 26.963 9.524 20.086 7.996 14.633 C5.832 9.907 2.909 7.052 -1.316 4.086 C-7.882 1.898 -13.019 2.829 -18.316 7.086 Z " fill="#000000" transform="translate(411.31640625,735.9140625)"/>
<path d="M0 0 C2.197 1.763 3.995 3.338 5.266 5.879 C5.616 11.219 5.746 14.558 2.266 18.879 C-0.764 22.275 -3.176 23.215 -7.609 23.504 C-12.475 23.322 -14.988 21.791 -18.457 18.484 C-21.274 14.944 -21.101 11.207 -20.734 6.879 C-18.853 2.803 -16.992 0.688 -12.922 -1.059 C-8.329 -2.482 -4.203 -2.717 0 0 Z M-14.734 3.879 C-17.226 7.616 -17.192 9.452 -16.734 13.879 C-14.694 17.634 -13.45 18.653 -9.359 19.941 C-4.924 19.865 -3.102 18.685 0.266 15.879 C1.875 12.661 1.864 9.359 1.266 5.879 C-1.466 2.567 -3.031 1.953 -7.297 1.504 C-10.423 1.845 -12.197 2.093 -14.734 3.879 Z " fill="#000000" transform="translate(183.734375,757.12109375)"/>
<path d="M0 0 C5.338 -0.113 5.338 -0.113 7.548 1.751 C8.737 4.502 9.079 6.104 8.548 9.064 C6.333 11.534 4.892 12.013 1.61 12.501 C-2.175 11.961 -3.808 10.786 -6.452 8.064 C-6.452 7.074 -6.452 6.084 -6.452 5.064 C-7.237 5.066 -8.021 5.068 -8.829 5.071 C-18.787 5.098 -28.744 5.116 -38.702 5.126 C-39.491 5.127 -40.279 5.128 -41.092 5.129 C-64.559 5.152 -88.001 5.038 -111.452 4.064 C-111.555 4.848 -111.658 5.631 -111.765 6.439 C-112.452 9.064 -112.452 9.064 -115.452 11.064 C-117.792 11.33 -117.792 11.33 -120.39 11.314 C-121.244 11.319 -122.099 11.324 -122.979 11.33 C-125.607 11.047 -127.229 10.474 -129.452 9.064 C-130.39 7.126 -130.39 7.126 -130.452 5.064 C-128.61 2.578 -127.447 2.062 -124.452 1.064 C-122.808 0.963 -121.16 0.918 -119.513 0.906 C-118.494 0.896 -117.475 0.886 -116.425 0.876 C-115.308 0.87 -114.19 0.865 -113.039 0.859 C-111.862 0.849 -110.684 0.839 -109.471 0.829 C-106.239 0.802 -103.008 0.781 -99.776 0.761 C-96.39 0.739 -93.004 0.711 -89.617 0.685 C-83.195 0.635 -76.774 0.59 -70.352 0.547 C-63.074 0.497 -55.796 0.442 -48.518 0.387 C-37.183 0.301 -25.847 0.218 -14.512 0.14 C-13.405 0.132 -12.297 0.124 -11.156 0.116 C-9.145 0.103 -7.134 0.092 -5.123 0.084 C-3.415 0.071 -1.707 0.045 0 0 Z M-0.452 3.064 C-1.112 4.384 -1.772 5.704 -2.452 7.064 C0.548 9.064 0.548 9.064 2.735 8.689 C3.334 8.483 3.932 8.276 4.548 8.064 C4.548 6.744 4.548 5.424 4.548 4.064 C2.898 3.734 1.248 3.404 -0.452 3.064 Z M-125.452 5.064 C-125.122 5.724 -124.792 6.384 -124.452 7.064 C-121.812 7.064 -119.172 7.064 -116.452 7.064 C-116.452 6.404 -116.452 5.744 -116.452 5.064 C-119.422 5.064 -122.392 5.064 -125.452 5.064 Z " fill="#000000" transform="translate(907.4520053863525,770.9360523223877)"/>
</svg>
