<svg xmlns="http://www.w3.org/2000/svg" viewBox="0 0 1536 1024" width="1536" height="1024" fill="none" stroke="#000000" stroke-linecap="round" stroke-linejoin="round">

  <!-- ============================================ -->
  <!-- TOP-LEFT: Two overlapping people silhouettes -->
  <!-- ============================================ -->
  <!-- Person 1 (back) - wobbly head -->
  <path d="M 139,79 C 139,62 148,51 167,50 C 186,49 198,60 199,78 C 200,96 190,109 170,110 C 151,111 140,97 139,79" stroke-width="3.4"/>
  <!-- Person 1 shoulder arc -->
  <path d="M 117,143 C 119,121 133,107 153,100 C 168,95 183,96 197,103 C 211,110 219,124 220,144" stroke-width="3.2"/>

  <!-- Person 2 (front, overlapping) - wobbly head -->
  <path d="M 178,71 C 179,53 191,41 210,40 C 229,39 243,52 244,71 C 245,90 234,103 214,104 C 195,105 178,91 178,71" stroke-width="3.6"/>
  <!-- Person 2 shoulder arc -->
  <path d="M 154,140 C 157,116 173,102 193,95 C 210,89 228,91 243,100 C 256,108 263,122 262,141" stroke-width="3.3"/>

  <!-- ============================================ -->
  <!-- TOP AREA: Wobbly rounded search/URL bar      -->
  <!-- ============================================ -->
  <path d="M 346,62 C 370,59 480,57 560,58 C 650,59 780,56 870,60 C 892,61 898,68 899,80 C 900,92 895,101 878,103 C 830,106 700,105 600,104 C 480,103 380,107 348,104 C 332,102 326,94 325,82 C 324,70 330,63 346,62" stroke-width="3.0"/>
  <!-- Search icon wobbly circle -->
  <path d="M 352,72 C 353,67 358,63 364,63 C 370,62 376,66 377,72 C 378,78 374,83 368,84 C 362,85 353,79 352,72" stroke-width="2.7"/>
  <!-- Search icon handle -->
  <path d="M 375,83 C 378,86 382,91 385,94" stroke-width="2.6"/>
  <!-- Placeholder wobbly lines -->
  <path d="M 402,79 C 430,77 480,81 530,78 C 560,77 590,80 620,79" stroke-width="2.5"/>
  <path d="M 650,80 C 670,78 700,82 730,79" stroke-width="2.3"/>

  <!-- ============================================ -->
  <!-- LEFT SIDE: Vertical toolbar with icons       -->
  <!-- ============================================ -->
  <!-- Wobbly tall rounded rectangle -->
  <path d="M 50,196 C 52,184 60,178 72,177 C 84,176 91,183 93,196 C 95,280 94,450 93,560 C 92,640 94,720 92,780 C 91,793 84,800 72,801 C 60,802 52,795 50,782 C 48,720 49,560 50,450 C 51,350 49,250 50,196" stroke-width="3.1"/>

  <!-- Home icon (wobbly) -->
  <path d="M 58,222 C 62,218 66,212 71,208 C 74,212 78,218 82,222" stroke-width="2.6"/>
  <path d="M 60,222 C 59,228 60,234 61,238 C 65,239 75,239 79,238 C 80,234 81,228 80,222" stroke-width="2.5"/>

  <!-- Play triangle (wobbly) -->
  <path d="M 57,280 C 58,274 57,268 58,262 C 64,268 72,276 78,282 C 72,288 64,296 58,302 C 57,296 58,288 57,280" stroke-width="2.7"/>

  <!-- Square icon (wobbly) -->
  <path d="M 54,342 C 58,340 68,340 74,341 C 76,346 76,356 75,362 C 70,364 60,364 55,363 C 53,358 53,348 54,342" stroke-width="2.5"/>

  <!-- Heart icon (wobbly) -->
  <path d="M 66,410 C 63,404 56,400 52,406 C 48,412 52,420 58,426 C 62,430 66,434 66,434 C 66,434 70,430 74,426 C 80,420 84,412 80,406 C 76,400 69,404 66,410" stroke-width="2.6"/>

  <!-- Search icon (wobbly) -->
  <path d="M 56,484 C 57,476 63,470 71,471 C 79,472 84,479 83,487 C 82,495 76,500 68,499 C 60,498 55,492 56,484" stroke-width="2.5"/>
  <path d="M 79,497 C 82,500 86,505 89,508" stroke-width="2.5"/>

  <!-- Star icon (wobbly) -->
  <path d="M 66,554 C 68,548 69,542 71,536 C 73,542 75,548 77,554 C 83,555 89,556 94,557 C 89,561 84,566 80,570 C 82,576 83,582 85,588 C 80,584 74,580 69,576 C 64,580 58,584 53,588 C 55,582 57,576 59,570 C 54,566 50,561 46,557 C 52,556 58,555 66,554" stroke-width="2.6"/>

  <!-- Menu bars icon (wobbly) -->
  <path d="M 52,636 C 58,634 68,636 78,635" stroke-width="2.7"/>
  <path d="M 51,648 C 60,646 70,649 79,647" stroke-width="2.7"/>
  <path d="M 53,660 C 59,658 69,661 77,659" stroke-width="2.7"/>

  <!-- Grid icon (4 wobbly squares) -->
  <path d="M 51,702 C 52,700 56,699 60,700 C 62,702 62,708 61,711 C 58,712 54,712 52,711 C 50,708 50,704 51,702" stroke-width="2.2"/>
  <path d="M 67,701 C 69,699 73,699 76,700 C 78,703 78,708 77,711 C 74,713 70,712 68,711 C 66,708 66,704 67,701" stroke-width="2.2"/>
  <path d="M 51,718 C 53,716 57,715 60,716 C 62,718 63,724 61,727 C 58,728 54,728 52,727 C 50,724 50,720 51,718" stroke-width="2.2"/>
  <path d="M 67,717 C 69,715 73,715 76,716 C 78,719 78,724 77,727 C 74,729 70,728 68,727 C 66,724 66,720 67,717" stroke-width="2.2"/>

  <!-- ============================================ -->
  <!-- MIDDLE ROW: Three circular % badge icons     -->
  <!-- ============================================ -->
  <!-- Badge 1 - wobbly circle -->
  <path d="M 272,198 C 274,170 296,150 324,148 C 352,146 374,164 376,192 C 378,220 360,244 332,246 C 304,248 270,226 272,198" stroke-width="3.5"/>
  <!-- Hand-drawn % inside badge 1 -->
  <path d="M 304,178 C 305,175 309,173 312,174 C 315,175 316,179 315,182 C 314,185 310,187 307,186 C 304,185 303,181 304,178" stroke-width="2.8"/>
  <path d="M 335,212 C 336,209 340,207 343,208 C 346,209 347,213 346,216 C 345,219 341,221 338,220 C 335,219 334,215 335,212" stroke-width="2.8"/>
  <path d="M 340,176 C 332,188 320,200 308,218" stroke-width="2.8"/>

  <!-- Badge 2 - wobbly circle -->
  <path d="M 470,196 C 472,166 496,146 526,145 C 556,144 578,162 580,192 C 582,222 562,246 532,248 C 502,250 468,228 470,196" stroke-width="3.6"/>
  <!-- Hand-drawn % inside badge 2 -->
  <path d="M 504,176 C 505,173 509,171 512,172 C 515,173 516,177 515,180 C 514,183 510,185 507,184 C 504,183 503,179 504,176" stroke-width="2.8"/>
  <path d="M 535,210 C 536,207 540,205 543,206 C 546,207 547,211 546,214 C 545,217 541,219 538,218 C 535,217 534,213 535,210" stroke-width="2.8"/>
  <path d="M 540,174 C 532,186 520,198 508,216" stroke-width="2.8"/>

  <!-- Badge 3 - wobbly circle -->
  <path d="M 668,200 C 670,172 692,152 720,150 C 748,148 770,167 772,195 C 774,223 754,248 726,250 C 698,252 666,230 668,200" stroke-width="3.4"/>
  <!-- Hand-drawn % inside badge 3 -->
  <path d="M 700,180 C 701,177 705,175 708,176 C 711,177 712,181 711,184 C 710,187 706,189 703,188 C 700,187 699,183 700,180" stroke-width="2.8"/>
  <path d="M 731,214 C 732,211 736,209 739,210 C 742,211 743,215 742,218 C 741,221 737,223 734,222 C 731,221 730,217 731,214" stroke-width="2.8"/>
  <path d="M 736,178 C 728,190 716,202 704,220" stroke-width="2.8"/>

  <!-- Small label lines under badges -->
  <path d="M 292,270 C 308,268 330,271 352,269" stroke-width="2.3"/>
  <path d="M 492,271 C 510,269 530,272 554,270" stroke-width="2.3"/>
  <path d="M 690,269 C 708,267 728,271 750,269" stroke-width="2.3"/>

  <!-- ============================================ -->
  <!-- BELOW BADGES: Row of rounded pill buttons    -->
  <!-- ============================================ -->
  <!-- Pill 1 -->
  <path d="M 168,362 C 180,358 210,357 232,360 C 244,362 250,370 248,380 C 246,390 238,396 226,398 C 210,400 178,399 164,396 C 154,394 150,386 152,376 C 154,368 160,363 168,362" stroke-width="3.0"/>
  <path d="M 174,380 C 190,378 214,381 236,379" stroke-width="2.2"/>

  <!-- Pill 2 -->
  <path d="M 282,364 C 294,360 320,359 342,362 C 352,364 356,372 354,382 C 352,392 344,398 332,400 C 316,402 288,401 276,398 C 268,396 264,388 266,378 C 268,370 274,365 282,364" stroke-width="2.8"/>
  <path d="M 288,382 C 302,380 324,383 346,381" stroke-width="2.2"/>

  <!-- Pill 3 -->
  <path d="M 386,361 C 400,357 440,356 472,359 C 488,361 494,369 492,379 C 490,389 482,396 468,398 C 444,401 404,400 388,397 C 378,395 374,387 376,377 C 378,369 382,363 386,361" stroke-width="3.1"/>
  <path d="M 396,380 C 420,378 456,381 480,379" stroke-width="2.2"/>

  <!-- Pill 4 -->
  <path d="M 524,363 C 538,359 566,358 590,361 C 602,363 608,371 606,381 C 604,391 596,398 584,400 C 566,402 540,401 526,398 C 518,396 514,388 516,378 C 518,370 520,365 524,363" stroke-width="2.9"/>
  <path d="M 534,381 C 550,379 576,382 598,380" stroke-width="2.2"/>

  <!-- Pill 5 -->
  <path d="M 640,362 C 654,358 690,357 720,360 C 734,362 740,370 738,380 C 736,390 728,397 714,399 C 694,401 658,400 642,397 C 634,395 630,387 632,377 C 634,369 636,364 640,362" stroke-width="3.0"/>
  <path d="M 650,380 C 670,378 704,381 728,379" stroke-width="2.2"/>

  <!-- Pill 6 -->
  <path d="M 762,363 C 774,359 798,358 822,361 C 834,363 840,371 838,381 C 836,391 828,398 816,400 C 798,402 776,401 764,398 C 756,396 752,388 754,378 C 756,370 758,365 762,363" stroke-width="2.7"/>
  <path d="M 772,381 C 786,379 808,382 830,380" stroke-width="2.2"/>

  <!-- ============================================ -->
  <!-- CENTER: Large line chart area                -->
  <!-- ============================================ -->
  <!-- Chart frame - wobbly rounded rectangle -->
  <path d="M 148,448 C 160,442 350,440 550,441 C 720,442 880,438 978,442 C 992,444 998,452 999,464 C 1002,520 1000,600 998,660 C 997,688 1001,696 992,702 C 880,706 700,704 550,703 C 370,702 200,707 152,704 C 140,702 134,694 134,682 C 132,620 133,520 135,464 C 136,452 140,446 148,448" stroke-width="3.0"/>

  <!-- Wobbly horizontal grid lines -->
  <path d="M 152,496 C 300,494 550,497 700,495 C 820,493 920,496 986,494" stroke-width="1.2" opacity="0.22"/>
  <path d="M 153,548 C 320,546 560,550 710,547 C 830,545 930,549 985,547" stroke-width="1.2" opacity="0.22"/>
  <path d="M 151,600 C 310,598 540,602 700,599 C 825,597 925,601 984,599" stroke-width="1.2" opacity="0.22"/>
  <path d="M 152,652 C 290,650 530,654 690,651 C 830,649 935,653 985,651" stroke-width="1.2" opacity="0.22"/>

  <!-- Main data line with peaks/valleys - wobbly freehand -->
  <path d="M 158,668 C 170,662 186,650 210,632 C 234,614 256,588 280,564 C 304,540 320,518 340,498 C 356,482 368,476 382,490 C 398,508 416,534 434,522 C 452,510 468,482 488,460 C 504,442 518,432 532,440 C 548,450 566,468 586,452 C 604,436 620,414 640,422 C 656,428 672,442 690,434 C 706,426 718,418 734,430 C 748,440 760,450 776,434 C 792,418 806,404 824,412 C 840,420 856,436 872,428 C 888,420 904,410 920,418 C 936,426 950,440 966,432 C 974,428 980,424 984,426" stroke-width="3.4"/>

  <!-- Second data line - lighter, different pattern -->
  <path d="M 160,682 C 178,676 200,666 228,650 C 256,634 280,614 308,596 C 332,580 352,568 372,558 C 388,550 400,548 416,558 C 432,568 448,584 468,570 C 486,556 504,530 524,514 C 540,502 554,496 568,504 C 584,514 602,530 622,516 C 640,502 656,486 676,494 C 692,500 708,514 726,506 C 742,498 756,490 772,502 C 786,512 800,524 818,510 C 834,498 850,484 868,492 C 884,500 900,512 918,504 C 934,496 950,490 966,498 C 976,502 982,506 986,504" stroke-width="2.6" opacity="0.45"/>

  <!-- Y-axis tick marks (wobbly) -->
  <path d="M 138,494 C 142,493 146,495 150,494" stroke-width="2.2"/>
  <path d="M 137,546 C 141,545 146,547 150,546" stroke-width="2.2"/>
  <path d="M 139,598 C 143,597 147,599 151,598" stroke-width="2.2"/>
  <path d="M 138,650 C 142,649 146,651 150,650" stroke-width="2.2"/>

  <!-- Decorative data points on main line (wobbly dots) -->
  <path d="M 484,456 C 486,452 490,450 494,452 C 498,454 499,458 497,462 C 495,466 491,467 487,465 C 483,463 482,459 484,456" stroke-width="2.5"/>
  <path d="M 638,418 C 640,414 644,412 648,414 C 652,416 653,420 651,424 C 649,428 645,429 641,427 C 637,425 636,421 638,418" stroke-width="2.5"/>
  <path d="M 820,408 C 822,404 826,402 830,404 C 834,406 835,410 833,414 C 831,418 827,419 823,417 C 819,415 818,411 820,408" stroke-width="2.5"/>
  <path d="M 916,414 C 918,410 922,408 926,410 C 930,412 931,416 929,420 C 927,424 923,425 919,423 C 915,421 914,417 916,414" stroke-width="2.5"/>

  <!-- ============================================ -->
  <!-- RIGHT SIDE: Wobbly vertical panel            -->
  <!-- ============================================ -->
  <path d="M 886,308 C 892,304 940,302 968,304 C 980,306 984,314 984,326 C 986,380 984,480 983,540 C 982,554 976,560 966,562 C 942,564 908,563 892,560 C 882,558 878,550 878,538 C 876,480 877,380 878,326 C 879,314 882,308 886,308" stroke-width="3.0"/>

  <!-- Wavy horizontal lines inside panel -->
  <path d="M 896,336 C 912,334 940,337 966,335" stroke-width="2.3"/>
  <path d="M 898,362 C 916,360 944,363 968,361" stroke-width="2.1"/>
  <path d="M 895,388 C 914,386 942,389 965,387" stroke-width="2.3"/>
  <path d="M 897,414 C 918,412 946,415 967,413" stroke-width="2.0"/>
  <path d="M 896,440 C 913,438 941,441 964,439" stroke-width="2.3"/>
  <path d="M 898,466 C 920,464 948,467 968,465" stroke-width="2.1"/>
  <path d="M 895,492 C 916,490 944,493 966,491" stroke-width="2.2"/>
  <path d="M 897,518 C 914,516 940,519 963,517" stroke-width="2.0"/>
  <path d="M 896,544 C 918,542 946,545 968,543" stroke-width="2.3"/>

  <!-- ============================================ -->
  <!-- BOTTOM-LEFT: Sketchy "200" + gear icon       -->
  <!-- ============================================ -->
  <!-- Hand-drawn "2" -->
  <path d="M 96,762 C 102,752 114,744 130,744 C 146,744 156,754 154,766 C 152,778 136,794 118,808 C 108,816 100,822 96,826 C 112,826 134,824 156,826" stroke-width="3.3"/>

  <!-- Hand-drawn "0" (first) -->
  <path d="M 172,788 C 174,762 184,744 200,742 C 216,740 226,758 228,784 C 230,810 222,830 206,832 C 190,834 170,816 172,788" stroke-width="3.2"/>

  <!-- Hand-drawn "0" (second) -->
  <path d="M 242,786 C 244,760 254,742 270,740 C 286,738 296,756 298,782 C 300,808 292,830 276,832 C 260,834 240,814 242,786" stroke-width="3.4"/>

  <!-- Gear/cog icon - wobbly outer ring -->
  <path d="M 138,880 C 140,864 152,852 170,850 C 188,848 200,860 202,878 C 204,896 194,910 176,912 C 158,914 136,898 138,880" stroke-width="3.0"/>
  <!-- Gear inner hole -->
  <path d="M 160,876 C 161,871 166,868 172,869 C 178,870 182,875 181,880 C 180,885 175,889 169,888 C 163,887 159,882 160,876" stroke-width="2.6"/>
  <!-- Gear teeth (wobbly spokes) -->
  <path d="M 168,848 C 167,842 169,836 171,832" stroke-width="3.2"/>
  <path d="M 170,914 C 169,920 171,926 172,930" stroke-width="3.2"/>
  <path d="M 134,878 C 128,877 122,879 118,880" stroke-width="3.2"/>
  <path d="M 206,880 C 212,879 218,881 222,882" stroke-width="3.2"/>
  <path d="M 143,856 C 139,852 135,848 132,844" stroke-width="2.8"/>
  <path d="M 197,906 C 201,910 205,914 208,918" stroke-width="2.8"/>
  <path d="M 143,906 C 139,910 135,914 132,918" stroke-width="2.8"/>
  <path d="M 197,856 C 201,852 205,848 208,844" stroke-width="2.8"/>

  <!-- ============================================ -->
  <!-- BOTTOM-CENTER: Bar chart with wobbly bars    -->
  <!-- ============================================ -->
  <!-- Chart frame - wobbly rounded rectangle -->
  <path d="M 414,758 C 430,754 530,752 600,754 C 670,756 720,753 736,756 C 746,758 750,766 749,776 C 748,820 750,880 748,924 C 747,936 740,942 730,944 C 680,947 540,946 470,944 C 440,943 420,946 412,943 C 404,940 400,934 400,922 C 398,880 399,810 400,776 C 401,764 406,758 414,758" stroke-width="3.0"/>

  <!-- Wobbly bar 1 -->
  <path d="M 436,876 C 440,874 454,873 464,875 C 468,878 470,890 469,908 C 468,918 466,924 462,926 C 454,928 442,927 436,925 C 432,922 431,910 432,896 C 433,884 434,878 436,876" stroke-width="2.9"/>

  <!-- Wobbly bar 2 (taller) -->
  <path d="M 492,832 C 496,830 510,829 520,831 C 524,834 526,860 525,890 C 524,910 523,924 520,926 C 512,928 498,927 492,925 C 488,922 487,900 488,870 C 489,848 490,834 492,832" stroke-width="3.0"/>

  <!-- Wobbly bar 3 (tallest) -->
  <path d="M 550,802 C 554,800 568,799 578,801 C 582,804 584,840 583,880 C 582,906 581,924 578,926 C 570,928 556,927 550,925 C 546,922 545,890 546,850 C 547,822 548,804 550,802" stroke-width="2.8"/>

  <!-- Wobbly bar 4 -->
  <path d="M 608,856 C 612,854 626,853 636,855 C 640,858 642,880 641,904 C 640,916 639,924 636,926 C 628,928 614,927 608,925 C 604,922 603,904 604,882 C 605,866 606,858 608,856" stroke-width="3.1"/>

  <!-- Wobbly bar 5 (shortest) -->
  <path d="M 664,886 C 668,884 682,883 692,885 C 696,888 697,900 696,912 C 695,920 694,924 692,926 C 684,928 670,927 664,925 C 660,922 660,908 661,898 C 662,890 663,886 664,886" stroke-width="2.9"/>

  <!-- Wobbly baseline -->
  <path d="M 418,930 C 460,928 560,932 640,929 C 690,927 720,931 738,929" stroke-width="2.3"/>

  <!-- X-axis tick marks (wobbly) -->
  <path d="M 450,930 C 451,934 450,938 451,942" stroke-width="2.0"/>
  <path d="M 506,929 C 507,933 506,937 507,941" stroke-width="2.0"/>
  <path d="M 564,930 C 565,934 564,938 565,942" stroke-width="2.0"/>
  <path d="M 622,929 C 623,933 622,937 623,941" stroke-width="2.0"/>
  <path d="M 678,930 C 679,934 678,938 679,942" stroke-width="2.0"/>

  <!-- Bar chart title wobbly line -->
  <path d="M 432,772 C 460,770 500,773 546,771" stroke-width="2.6"/>

  <!-- ============================================ -->
  <!-- BOTTOM-RIGHT: % circle + progress bar        -->
  <!-- ============================================ -->
  <!-- Wobbly percent circle -->
  <path d="M 818,830 C 820,806 836,790 860,788 C 884,786 902,802 904,826 C 906,850 892,870 868,872 C 844,874 816,856 818,830" stroke-width="3.5"/>
  <!-- Hand-drawn % inside -->
  <path d="M 842,814 C 843,811 847,809 850,810 C 853,811 854,815 853,818 C 852,821 848,823 845,822 C 842,821 841,817 842,814" stroke-width="2.6"/>
  <path d="M 872,844 C 873,841 877,839 880,840 C 883,841 884,845 883,848 C 882,851 878,853 875,852 C 872,851 871,847 872,844" stroke-width="2.6"/>
  <path d="M 876,810 C 868,822 856,834 844,852" stroke-width="2.6"/>

  <!-- Long wobbly horizontal progress bar (outer) -->
  <path d="M 938,818 C 960,814 1060,813 1180,816 C 1280,818 1380,814 1430,818 C 1442,820 1446,828 1445,838 C 1444,848 1438,854 1428,856 C 1380,858 1260,857 1160,856 C 1040,855 960,858 940,855 C 930,853 926,846 927,836 C 928,826 932,820 938,818" stroke-width="3.0"/>
  <!-- Progress fill (partial, wobbly inner shape) -->
  <path d="M 944,824 C 960,822 1040,821 1140,823 C 1200,824 1240,822 1260,824 C 1268,826 1270,832 1269,838 C 1268,844 1264,848 1256,849 C 1220,850 1120,849 1040,848 C 980,847 960,849 946,848 C 940,846 936,840 937,834 C 938,828 940,825 944,824" stroke-width="2.6"/>

  <!-- Detail lines under progress bar -->
  <path d="M 940,874 C 968,872 1020,875 1068,873" stroke-width="2.2"/>
  <path d="M 1090,875 C 1112,873 1148,876 1178,874" stroke-width="2.1"/>

</svg>