<?xml version="1.0" encoding="UTF-8"?>
<!-- Generator: visioncortex VTracer 0.6.12 -->
<svg version="1.1" xmlns="http://www.w3.org/2000/svg" width="1536" height="1024">
<path d="M0 0 C0.99 0 1.98 0 3 0 C3.999 2.998 4.154 5.073 4.208 8.21 C4.229 9.296 4.25 10.383 4.272 11.503 C4.281 12.102 4.281 12.102 4.328 15.137 C4.351 16.408 4.374 17.68 4.398 18.99 C4.463 22.533 4.522 26.075 4.579 29.618 C4.643 33.443 4.712 37.267 4.78 41.092 C4.898 47.754 5.013 54.416 5.125 61.079 C5.29 70.864 5.462 80.648 5.634 90.433 C5.918 106.51 6.197 122.587 6.474 138.663 C6.491 139.627 6.507 140.59 6.524 141.583 C6.591 145.473 6.658 149.363 6.725 153.253 C7.271 184.964 7.824 216.675 8.381 248.385 C8.43 251.154 8.478 253.923 8.527 256.693 C9.453 309.401 10.454 362.108 11.585 414.813 C11.632 417.05 11.68 419.287 11.728 421.524 C12.108 439.356 12.501 457.188 12.929 475.02 C12.995 477.809 13.06 480.598 13.123 483.388 C13.225 487.778 13.34 492.168 13.46 496.558 C13.486 497.705 13.512 498.851 13.538 500.032 C13.995 515.095 13.995 515.095 16 521 C26.831 528.424 51.059 524.105 63.438 524.062 C66.019 524.057 68.6 524.053 71.182 524.049 C77.454 524.038 83.727 524.021 90 524 C89.945 522.752 89.889 521.505 89.832 520.219 C88.464 489.072 87.512 457.942 87.055 426.769 C87.008 423.552 86.959 420.335 86.91 417.118 C86.547 393.311 86.277 369.504 86.037 345.696 C86.011 343.125 85.985 340.554 85.959 337.983 C85.77 319.422 85.593 300.861 85.436 282.299 C85.369 274.329 85.298 266.358 85.219 258.387 C85.151 251.524 85.091 244.661 85.039 237.798 C85.013 234.239 84.982 230.681 84.943 227.122 C84.901 223.209 84.874 219.296 84.849 215.383 C84.841 214.811 84.841 214.811 84.804 211.916 C84.78 205.937 84.998 200.668 87 195 C96.322 189.103 109.732 190.693 120.438 190.438 C121.262 190.417 122.087 190.397 122.937 190.376 C128.958 190.232 134.979 190.11 141 190 C141.829 189.985 142.659 189.969 143.513 189.953 C148.251 189.868 152.989 189.804 157.728 189.769 C159.188 189.756 160.649 189.739 162.11 189.716 C176.775 189.501 176.775 189.501 182 193 C188.014 204.877 185.192 223.65 185.26 236.547 C185.282 240.553 185.309 244.559 185.337 248.564 C185.392 256.408 185.44 264.252 185.487 272.095 C185.559 283.986 185.635 295.876 185.719 307.766 C185.721 308.108 185.721 308.108 185.733 309.84 C185.872 329.325 186.097 348.807 186.477 368.289 C186.496 369.308 186.515 370.326 186.535 371.376 C189.047 501.036 189.047 501.036 200.566 514.883 C203.234 516.108 204.751 516.116 207.652 516.07 C208.465 516.06 209.279 516.05 210.117 516.039 C210.738 516.026 211.36 516.013 212 516 C212.066 507.542 212.104 499.083 212.125 490.625 C212.127 489.952 212.128 489.279 212.13 488.586 C212.206 454.357 211.493 420.141 210.783 385.92 C210.712 382.513 210.642 379.106 210.572 375.699 C210.486 371.51 210.397 367.321 210.305 363.132 C210.182 357.421 210.084 351.711 210 346 C209.983 344.98 209.967 343.96 209.95 342.909 C209.904 339.811 209.873 336.712 209.848 333.614 C209.833 332.681 209.817 331.749 209.802 330.788 C209.737 316.789 209.737 316.789 213.654 311.962 C216.943 310.613 220.037 310.582 223.535 310.612 C224.288 310.607 225.042 310.601 225.818 310.596 C228.304 310.583 230.791 310.591 233.277 310.602 C235.008 310.6 236.74 310.597 238.471 310.593 C242.098 310.588 245.725 310.595 249.352 310.609 C253.997 310.626 258.642 310.616 263.287 310.598 C266.862 310.587 270.436 310.591 274.011 310.599 C275.724 310.601 277.436 310.598 279.148 310.591 C281.544 310.583 283.94 310.595 286.336 310.612 C287.041 310.606 287.746 310.6 288.472 310.593 C292.81 310.649 295.57 311.309 299 314 C304.083 323.077 303.283 334.272 303.755 344.428 C303.87 346.89 303.988 349.353 304.107 351.815 C304.277 355.328 304.445 358.842 304.613 362.355 C306.441 400.544 308.498 438.672 312 476.75 C312.078 477.616 312.156 478.481 312.236 479.373 C313.24 490.402 314.76 501.15 317 512 C317.334 513.667 317.667 515.333 318 517 C319.279 517.062 320.558 517.124 321.875 517.188 C322.235 517.205 322.235 517.205 324.055 517.293 C324.697 517.196 325.339 517.1 326 517 C331.399 508.902 329.158 495.658 329.169 486.165 C329.175 484.349 329.181 482.533 329.188 480.717 C329.202 476.781 329.212 472.844 329.22 468.907 C329.233 462.502 329.253 456.096 329.274 449.69 C329.303 440.391 329.329 431.093 329.354 421.795 C329.393 407.103 329.444 392.411 329.496 377.719 C329.514 372.692 329.532 367.664 329.549 362.636 C329.554 361.38 329.558 360.123 329.563 358.829 C329.614 344.539 329.662 330.249 329.71 315.959 C329.715 314.653 329.719 313.347 329.723 312.002 C329.794 290.812 329.853 269.622 329.909 248.432 C329.967 226.678 330.04 204.923 330.126 183.169 C330.179 169.749 330.219 156.328 330.244 142.907 C330.262 133.719 330.294 124.532 330.338 115.344 C330.363 110.039 330.381 104.734 330.382 99.429 C330.383 94.577 330.402 89.725 330.436 84.872 C330.445 83.114 330.447 81.355 330.442 79.596 C330.436 77.211 330.455 74.828 330.479 72.443 C330.472 71.755 330.464 71.067 330.456 70.358 C330.542 65.671 331.691 63.29 335 60 C337.171 59.104 337.171 59.104 339.527 58.741 C340.409 58.603 341.29 58.465 342.199 58.323 C346.984 57.771 351.761 57.411 356.57 57.148 C357.11 57.117 357.11 57.117 359.843 56.955 C362.117 56.823 364.391 56.693 366.665 56.567 C370.095 56.377 373.524 56.174 376.953 55.969 C411.037 53.98 411.037 53.98 419 57 C426.432 64.832 424.291 80.021 424.272 90.147 C424.276 91.744 424.281 93.34 424.287 94.936 C424.301 99.29 424.303 103.643 424.302 107.997 C424.304 112.706 424.317 117.416 424.329 122.125 C424.347 130.281 424.359 138.436 424.366 146.592 C424.376 158.42 424.398 170.247 424.423 182.075 C424.464 201.315 424.497 220.554 424.523 239.794 C424.525 240.944 424.526 242.095 424.528 243.28 C424.53 244.431 424.531 245.583 424.533 246.77 C424.556 263.046 424.58 279.322 424.607 295.599 C424.609 296.741 424.611 297.884 424.613 299.062 C424.645 318.208 424.681 337.355 424.718 356.501 C424.741 368.276 424.76 380.052 424.774 391.828 C424.784 399.923 424.796 408.019 424.812 416.114 C424.82 420.764 424.828 425.415 424.83 430.065 C424.841 446.701 424.889 463.334 425.33 479.965 C425.383 481.99 425.431 484.015 425.477 486.041 C426.155 508.232 426.155 508.232 430 514 C433.625 514.688 433.625 514.688 437 515 C436.604 497.815 436.074 480.651 435.027 463.492 C434.984 462.77 434.94 462.047 434.895 461.302 C434.493 454.685 434.079 448.069 433.654 441.454 C432.669 426.03 431.79 410.603 431.597 395.146 C431.577 393.732 431.548 392.318 431.512 390.905 C431.464 388.959 431.453 387.013 431.444 385.067 C431.43 383.964 431.416 382.861 431.402 381.725 C432 379 432 379 434.376 377.153 C437.122 375.946 439.197 375.515 442.18 375.32 C443.145 375.256 444.11 375.192 445.104 375.126 C449.449 374.937 453.777 374.852 458.125 374.875 C458.599 374.876 458.599 374.876 460.999 374.883 C470.231 374.941 479.459 375.177 488.688 375.438 C489.42 375.457 490.152 375.477 490.907 375.497 C493.005 375.554 495.102 375.618 497.199 375.684 C498.414 375.72 499.63 375.757 500.882 375.795 C503.445 375.963 505.544 376.337 508 377 C507.845 375.695 507.689 374.391 507.529 373.047 C507.02 368.45 506.732 363.872 506.535 359.253 C506.516 358.84 506.516 358.84 506.421 356.754 C506.299 354.049 506.181 351.343 506.062 348.637 C505.977 346.721 505.891 344.806 505.805 342.89 C505.625 338.872 505.447 334.853 505.271 330.834 C505.048 325.77 504.822 320.707 504.595 315.643 C501.807 253.495 501.807 253.495 501.705 231.535 C501.693 229.759 501.672 227.982 501.643 226.205 C501.601 223.562 501.585 220.921 501.574 218.277 C501.565 217.881 501.565 217.881 501.521 215.873 C501.543 210.455 501.543 210.455 503.696 208.314 C511.426 203.907 524.027 205.839 532.672 205.832 C534.048 205.829 535.424 205.825 536.8 205.822 C539.661 205.816 542.522 205.814 545.382 205.815 C549.029 205.815 552.676 205.801 556.322 205.784 C559.155 205.773 561.988 205.771 564.821 205.771 C566.813 205.77 568.804 205.759 570.796 205.748 C586.016 205.786 586.016 205.786 590.938 209.438 C597.595 219.228 594.192 241.335 594.26 252.768 C594.282 256.323 594.309 259.879 594.337 263.434 C594.406 272.242 594.467 281.05 594.526 289.858 C594.577 297.349 594.632 304.84 594.692 312.331 C594.718 315.84 594.739 319.348 594.76 322.856 C594.776 324.985 594.793 327.114 594.811 329.242 C594.815 330.222 594.819 331.201 594.823 332.211 C594.832 333.096 594.84 333.982 594.849 334.894 C594.854 335.667 594.859 336.441 594.864 337.238 C595 339 595 339 596 340 C595.918 339.072 595.835 338.144 595.75 337.188 C596 334 596 334 597.691 332.342 C600.37 330.785 602.104 330.526 605.188 330.348 C606.252 330.283 607.317 330.219 608.414 330.153 C615.276 329.86 622.134 329.612 629 329.438 C629.389 329.427 629.389 329.427 631.36 329.376 C636.907 329.235 642.453 329.113 648 329 C648.724 328.985 649.449 328.969 650.195 328.953 C654.776 328.857 659.356 328.794 663.938 328.75 C664.514 328.739 664.514 328.739 667.432 328.685 C668.494 328.681 669.557 328.676 670.652 328.672 C671.57 328.663 672.488 328.653 673.433 328.644 C676.729 329.101 678.438 329.856 681 332 C683.526 338.375 683.3 344.734 683.303 351.515 C683.307 352.139 683.307 352.139 683.329 355.298 C683.345 358.006 683.359 360.714 683.366 363.422 C683.378 367.731 683.403 372.04 683.43 376.348 C683.472 383.193 683.504 390.037 683.533 396.881 C683.584 409.061 683.647 421.24 683.718 433.42 C683.743 437.675 683.762 441.93 683.778 446.185 C683.827 459.094 683.952 471.991 684.457 484.891 C684.476 485.391 684.476 485.391 684.574 487.919 C685.552 510.364 685.552 510.364 689 515 C690.655 515.388 692.323 515.726 694 516 C694.409 486.674 693.283 457.409 692.204 428.107 C688.809 335.6 688.809 335.6 688.815 294.066 C688.815 289.977 688.801 285.887 688.784 281.798 C688.773 278.575 688.771 275.353 688.771 272.131 C688.77 270.62 688.766 269.11 688.758 267.6 C688.663 247.506 688.663 247.506 693 241 C703.359 237.547 714.709 237.84 725.52 237.797 C726.662 237.791 727.805 237.785 728.983 237.78 C731.377 237.77 733.771 237.764 736.165 237.76 C739.82 237.75 743.475 237.719 747.131 237.688 C749.469 237.681 751.807 237.676 754.145 237.672 C755.23 237.66 756.316 237.647 757.434 237.634 C763.363 237.652 767.856 237.915 773 241 C775.429 244.495 775.269 247.828 775.303 251.993 C775.311 252.698 775.32 253.403 775.329 254.13 C775.355 256.497 775.367 258.863 775.379 261.23 C775.395 262.932 775.412 264.633 775.429 266.335 C775.466 270.013 775.496 273.691 775.521 277.37 C775.562 283.246 775.616 289.121 775.672 294.997 C775.75 303.34 775.823 311.684 775.891 320.027 C776.042 338.318 776.222 356.608 776.407 374.899 C776.468 380.993 776.526 387.088 776.581 393.182 C776.765 413.397 777.029 433.609 777.473 453.82 C777.482 454.273 777.482 454.273 777.53 456.563 C778.557 504.519 778.557 504.519 782 513 C784.074 514.272 784.074 514.272 786 515 C786.251 498.923 786.074 482.871 785.555 466.801 C785.533 466.128 785.511 465.455 785.489 464.761 C785.288 458.586 785.079 452.411 784.855 446.236 C784.331 431.822 783.882 417.408 783.75 402.984 C783.729 401.78 783.707 400.577 783.685 399.336 C783.658 392.37 783.764 386.61 788.625 381.188 C796.717 377.141 805.893 377.689 814.703 377.699 C816.113 377.695 817.523 377.691 818.933 377.686 C821.872 377.679 824.81 377.679 827.748 377.684 C831.506 377.69 835.264 377.673 839.022 377.65 C841.927 377.635 844.832 377.634 847.736 377.637 C849.122 377.637 850.508 377.632 851.894 377.622 C853.829 377.609 855.765 377.618 857.7 377.628 C858.799 377.627 859.898 377.626 861.03 377.626 C864.397 378.05 866.273 379.015 869 381 C872.407 385.94 872.149 392.501 872.341 398.286 C872.354 398.639 872.354 398.639 872.416 400.424 C872.469 401.952 872.52 403.481 872.57 405.01 C872.65 407.469 872.736 409.928 872.824 412.387 C873.074 419.379 873.315 426.371 873.547 433.364 C874.16 451.77 874.919 470.134 876.477 488.488 C876.507 488.853 876.507 488.853 876.66 490.7 C877.034 495.143 877.477 499.571 878 504 C878.109 504.953 878.218 505.906 878.33 506.888 C878.72 509.344 878.72 509.344 880 513 C883.125 514.562 883.125 514.562 886 515 C886.271 495.857 885.612 476.875 884.462 457.775 C883.977 449.716 883.53 441.655 883.086 433.594 C883.063 433.176 883.063 433.176 882.946 431.062 C881.898 411.948 881.118 392.825 880.406 373.696 C880.314 371.24 880.222 368.785 880.129 366.33 C879.475 348.907 878.904 331.483 878.43 314.055 C878.409 313.292 878.388 312.529 878.366 311.743 C877.321 273.334 877.321 273.334 880 269 C894.668 260.555 922.595 264.88 939.393 264.769 C941.039 264.756 942.685 264.739 944.331 264.716 C946.656 264.686 948.98 264.676 951.305 264.672 C951.994 264.66 952.684 264.647 953.394 264.635 C957.996 264.655 961.286 265.22 965 268 C967.607 274.601 967.385 281.597 967.527 288.621 C967.579 290.589 967.63 292.557 967.681 294.525 C967.735 296.664 967.785 298.804 967.834 300.943 C967.938 305.542 968.057 310.14 968.178 314.739 C968.358 321.638 968.534 328.538 968.707 335.438 C971.53 447.645 971.53 447.645 973.562 486.625 C973.592 487.202 973.592 487.202 973.738 490.121 C973.9 493.261 974.074 496.4 974.254 499.539 C974.3 500.416 974.345 501.293 974.393 502.197 C975.138 514.138 975.138 514.138 978 517 C980.333 517.041 982.667 517.042 985 517 C985.232 479.082 984.675 441.218 983.677 403.314 C983.478 395.764 983.289 388.214 983.099 380.664 C982.759 367.147 982.414 353.63 982.064 340.114 C981.729 327.154 981.396 314.194 981.066 301.234 C981.046 300.435 981.025 299.635 981.005 298.811 C980.781 290.012 980.557 281.214 980.334 272.415 C980.275 270.056 980.215 267.697 980.155 265.337 C980.115 263.778 980.076 262.219 980.036 260.66 C979.79 250.944 979.542 241.229 979.291 231.514 C978.606 204.994 977.938 178.475 977.41 151.952 C977.39 150.932 977.369 149.911 977.348 148.86 C976.463 104.196 976.463 104.196 979 100 C984.911 95.84 994.361 96.705 1001.277 96.445 C1002.369 96.403 1003.461 96.361 1004.586 96.318 C1015.803 95.92 1027.014 95.848 1038.236 95.87 C1041.62 95.875 1045.004 95.87 1048.389 95.863 C1050.573 95.864 1052.757 95.865 1054.941 95.867 C1055.937 95.865 1056.933 95.863 1057.959 95.861 C1072.504 95.91 1072.504 95.91 1075.694 98.234 C1077.427 100.577 1077.382 102.031 1077.395 104.932 C1077.406 105.957 1077.418 106.981 1077.43 108.036 C1077.428 109.166 1077.426 110.295 1077.423 111.459 C1077.433 112.657 1077.442 113.855 1077.451 115.09 C1077.474 118.425 1077.484 121.759 1077.488 125.094 C1077.496 128.693 1077.52 132.292 1077.543 135.891 C1077.58 142.15 1077.607 148.41 1077.626 154.67 C1077.655 163.822 1077.702 172.975 1077.753 182.128 C1077.837 197.112 1077.908 212.097 1077.971 227.082 C1077.975 227.98 1077.978 228.877 1077.982 229.802 C1077.984 230.251 1077.984 230.251 1077.994 232.524 C1078.001 234.339 1078.009 236.153 1078.017 237.968 C1078.018 238.416 1078.018 238.416 1078.028 240.688 C1078.153 270.385 1078.301 300.082 1078.459 329.779 C1078.473 332.333 1078.486 334.888 1078.499 337.442 C1078.722 380.013 1079.055 422.574 1079.996 465.137 C1080.007 465.621 1080.007 465.621 1080.06 468.071 C1080.197 474.282 1080.343 480.492 1080.498 486.702 C1080.516 487.455 1080.534 488.208 1080.552 488.985 C1081.22 516.35 1081.22 516.35 1084 521 C1103.919 521.591 1123.839 522.005 1143.766 522.254 C1144.591 522.264 1145.416 522.275 1146.266 522.285 C1153.832 522.38 1161.398 522.472 1168.965 522.554 C1179.644 522.67 1190.322 522.806 1201 523 C1202.315 523.024 1203.631 523.047 1204.986 523.071 C1208.533 523.144 1212.079 523.238 1215.625 523.344 C1216.65 523.364 1217.676 523.385 1218.732 523.406 C1219.658 523.439 1220.585 523.472 1221.539 523.506 C1222.335 523.529 1223.131 523.552 1223.952 523.576 C1226.462 524.096 1227.386 525.058 1229 527 C1227.435 528.565 1225.914 528.126 1223.738 528.127 C1222.812 528.13 1221.887 528.133 1220.934 528.136 C1219.906 528.133 1218.878 528.131 1217.818 528.128 C1216.736 528.129 1215.654 528.13 1214.539 528.132 C1210.882 528.133 1207.224 528.125 1203.566 528.117 C1202.286 528.116 1201.005 528.114 1199.686 528.113 C1167.633 528.073 1135.585 527.655 1103.536 527.226 C1094.871 527.11 1086.207 527 1077.542 526.89 C1061.995 526.693 1046.448 526.493 1030.902 526.291 C1030.441 526.285 1030.441 526.285 1028.113 526.255 C1017.888 526.122 1007.664 525.988 997.44 525.854 C841.592 523.811 841.592 523.811 797.081 523.812 C794.697 523.812 792.313 523.811 789.929 523.81 C768.149 523.805 746.393 524.299 724.625 524.943 C721.994 525.02 719.362 525.097 716.731 525.173 C714.429 525.239 712.126 525.306 709.824 525.373 C685.462 526.077 661.104 526.198 636.733 526.188 C633.756 526.188 630.778 526.188 627.801 526.19 C603.544 526.194 579.314 525.845 555.066 525.185 C543.493 524.873 531.917 524.682 520.34 524.497 C516.598 524.437 512.856 524.372 509.113 524.307 C470.458 523.658 431.827 524.203 393.175 524.774 C385.419 524.888 377.663 525 369.908 525.112 C356.132 525.31 342.357 525.511 328.581 525.713 C313.352 525.937 298.124 526.157 282.895 526.376 C282.51 526.382 282.51 526.382 280.561 526.41 C280.177 526.415 280.177 526.415 278.234 526.443 C266.136 526.617 254.038 526.793 241.939 526.968 C237.66 527.03 233.381 527.092 229.101 527.154 C220.379 527.279 211.656 527.406 202.934 527.535 C202.298 527.545 202.298 527.545 199.079 527.592 C185.458 527.794 171.838 528.014 158.219 528.281 C157.622 528.292 157.622 528.292 154.598 528.351 C149.019 528.461 143.44 528.574 137.861 528.692 C123.573 528.987 109.291 529.052 95 529 C95 531.64 95 534.28 95 537 C93.68 537 92.36 537 91 537 C91 534.36 91 531.72 91 529 C90.193 529.004 89.386 529.009 88.555 529.013 C80.92 529.054 73.285 529.084 65.65 529.104 C61.726 529.114 57.802 529.128 53.877 529.151 C50.084 529.173 46.291 529.185 42.498 529.19 C41.057 529.193 39.616 529.201 38.175 529.211 C20.399 529.34 20.399 529.34 13.062 525.438 C7.912 519.35 8.629 509.83 8.438 502.242 C8.401 501.073 8.365 499.904 8.328 498.699 C8.23 495.449 8.141 492.198 8.055 488.947 C7.999 486.849 7.94 484.751 7.879 482.653 C6.845 446.787 6.155 410.912 5.433 375.039 C5.158 361.367 4.861 347.695 4.535 334.023 C3.307 282.228 2.379 230.429 1.487 178.627 C1.438 175.782 1.389 172.936 1.34 170.091 C0.666 131.089 0.01 92.088 -0.557 53.084 C-0.589 50.869 -0.622 48.653 -0.655 46.437 C-1.03 21.096 -1.03 21.096 -1.088 8.636 C-1.095 7.856 -1.102 7.075 -1.109 6.271 C-1.112 4.514 -1.062 2.756 -1 1 C-0.67 0.67 -0.34 0.34 0 0 Z M397.507 59.335 C396.239 59.409 394.971 59.483 393.665 59.559 C392.295 59.64 390.925 59.722 389.555 59.805 C389.207 59.826 389.207 59.826 387.447 59.931 C383.772 60.151 380.098 60.374 376.423 60.599 C372.633 60.83 368.842 61.052 365.051 61.271 C362.129 61.442 359.207 61.621 356.286 61.802 C354.888 61.887 353.49 61.969 352.092 62.048 C350.139 62.159 348.186 62.282 346.234 62.406 C345.679 62.439 345.679 62.439 342.87 62.608 C340.036 62.995 338.275 63.266 336 65 C334.873 69.034 334.871 72.952 334.864 77.121 C334.862 77.831 334.859 78.54 334.856 79.271 C334.849 81.653 334.849 84.036 334.849 86.418 C334.845 88.141 334.84 89.865 334.836 91.588 C334.824 96.328 334.819 101.069 334.814 105.81 C334.808 110.921 334.796 116.033 334.785 121.144 C334.767 130.006 334.752 138.868 334.74 147.73 C334.721 160.564 334.697 173.398 334.67 186.231 C334.627 207.08 334.588 227.928 334.552 248.777 C334.55 250.025 334.548 251.273 334.546 252.559 C334.53 261.415 334.515 270.27 334.5 279.125 C334.483 289.216 334.465 299.307 334.448 309.398 C334.446 310.64 334.443 311.883 334.441 313.163 C334.405 333.916 334.365 354.669 334.322 375.422 C334.296 388.213 334.274 401.005 334.255 413.796 C334.243 422.575 334.227 431.354 334.208 440.132 C334.197 445.19 334.188 450.247 334.183 455.305 C334.179 459.948 334.17 464.59 334.157 469.233 C334.153 470.9 334.151 472.568 334.151 474.235 C334.149 482.856 334.01 491.461 333.616 500.075 C333.585 500.835 333.555 501.596 333.524 502.38 C333.187 508.899 332.678 515.483 329 521 C338.938 520.859 348.875 520.713 358.812 520.562 C359.543 520.551 360.273 520.54 361.025 520.529 C383.356 520.191 405.679 519.771 428 519 C427.524 518.406 427.048 517.811 426.557 517.199 C424.481 514.267 424.052 511.645 423.375 508.125 C423.135 506.931 422.895 505.738 422.648 504.508 C420.89 493.628 420.851 482.531 420.849 471.538 C420.845 470.136 420.84 468.735 420.836 467.333 C420.824 463.52 420.819 459.708 420.814 455.896 C420.808 451.765 420.796 447.634 420.785 443.504 C420.767 436.345 420.752 429.185 420.74 422.026 C420.721 411.599 420.697 401.172 420.67 390.745 C420.627 373.723 420.588 356.702 420.552 339.68 C420.551 339.171 420.551 339.171 420.546 336.597 C420.535 331.452 420.524 326.306 420.513 321.16 C420.492 310.981 420.47 300.801 420.448 290.621 C420.447 290.121 420.447 290.121 420.441 287.593 C420.405 270.698 420.365 253.804 420.322 236.909 C420.299 227.475 420.277 218.041 420.26 208.607 C420.195 173.029 420.096 137.452 419.663 101.876 C419.625 98.794 419.592 95.711 419.562 92.629 C419.521 88.416 419.464 84.204 419.404 79.991 C419.399 79.373 419.399 79.373 419.372 76.242 C419.353 75.104 419.334 73.967 419.314 72.795 C419.302 71.814 419.289 70.833 419.277 69.823 C418.96 66.593 418.294 63.978 417 61 C410.619 58.3 404.286 58.939 397.507 59.335 Z M982 104 C981.152 108.498 980.895 112.787 980.998 117.354 C981.023 118.594 981.048 119.834 981.074 121.111 C981.107 122.473 981.141 123.836 981.174 125.199 C981.206 126.657 981.237 128.116 981.268 129.574 C981.354 133.575 981.447 137.577 981.542 141.578 C981.643 145.9 981.738 150.223 981.834 154.545 C982.023 163.025 982.219 171.505 982.418 179.985 C982.579 186.901 982.738 193.818 982.895 200.734 C983.953 247.305 985.105 293.872 986.383 340.438 C986.441 342.546 986.498 344.655 986.556 346.764 C987.085 366.074 987.619 385.382 988.175 404.691 C990.209 475.37 990.209 475.37 990.203 501.07 C990.204 501.97 990.204 502.87 990.205 503.796 C990.195 517.416 990.195 517.416 989 521 C996.305 521.134 1003.61 521.264 1010.915 521.391 C1014.311 521.45 1017.706 521.511 1021.102 521.573 C1040.405 521.925 1059.694 522.068 1079 522 C1078.857 521.055 1078.714 520.11 1078.566 519.136 C1077.501 511.975 1076.795 504.877 1076.465 497.645 C1076.424 496.773 1076.382 495.902 1076.34 495.005 C1074.875 462.898 1074.854 430.708 1074.5 398.574 C1074.489 397.599 1074.478 396.623 1074.467 395.618 C1074.123 364.535 1073.874 333.452 1073.719 302.367 C1073.714 301.411 1073.709 300.454 1073.704 299.469 C1073.622 282.976 1073.547 266.483 1073.474 249.991 C1073.414 236.387 1073.35 222.783 1073.281 209.18 C1073.277 208.248 1073.272 207.315 1073.267 206.355 C1073.089 171.232 1072.652 136.117 1072 101 C1063.445 100.977 1054.89 100.959 1046.334 100.948 C1042.36 100.943 1038.385 100.936 1034.411 100.925 C985.724 100.788 985.724 100.788 982 104 Z M109.684 195.383 C108.611 195.413 107.538 195.444 106.433 195.475 C93.017 195.983 93.017 195.983 90 199 C89.899 201.816 89.864 204.608 89.871 207.425 C89.869 208.318 89.867 209.212 89.865 210.132 C89.861 213.146 89.864 216.159 89.867 219.172 C89.866 221.314 89.865 223.456 89.863 225.599 C89.86 231.429 89.864 237.259 89.871 243.089 C89.875 246.752 89.878 250.415 89.88 254.078 C89.936 336.923 90.491 419.785 93.5 502.582 C93.535 503.603 93.571 504.625 93.607 505.677 C93.644 506.634 93.681 507.591 93.719 508.577 C93.734 508.983 93.734 508.983 93.811 511.038 C94.088 515.371 94.548 519.683 95 524 C128.702 524.199 162.382 523.974 196.078 523.344 C196.956 523.327 197.834 523.311 198.739 523.294 C209.502 523.092 220.265 522.88 231.028 522.664 C240.328 522.478 249.628 522.299 258.927 522.12 C277.952 521.754 296.976 521.38 316 521 C315.52 519.902 315.04 518.804 314.546 517.672 C294.767 470.693 301.784 401.872 299.375 351.145 C299.33 350.213 299.285 349.281 299.239 348.321 C299.042 344.217 298.853 340.114 298.683 336.009 C298.091 322.508 298.091 322.508 296 317 C292.539 314.497 289.065 314.74 284.908 314.725 C284.555 314.723 284.555 314.723 282.768 314.71 C280.439 314.696 278.11 314.697 275.781 314.699 C274.16 314.695 272.538 314.691 270.917 314.686 C267.521 314.679 264.125 314.679 260.729 314.684 C256.378 314.69 252.027 314.673 247.675 314.65 C244.328 314.635 240.981 314.634 237.633 314.637 C236.029 314.637 234.424 314.632 232.82 314.622 C230.577 314.609 228.335 314.616 226.092 314.628 C224.816 314.627 223.54 314.626 222.225 314.626 C218.783 315.025 217.341 315.47 215 318 C214.609 321.072 214.489 323.777 214.539 326.852 C214.539 327.805 214.539 328.757 214.54 329.739 C214.547 333.035 214.586 336.33 214.625 339.625 C214.639 342.015 214.652 344.404 214.664 346.794 C214.882 378.572 215.62 410.35 216.288 442.122 C217.091 480.478 217.091 480.478 217.125 495.043 C217.127 495.548 217.127 495.548 217.139 498.104 C217.103 514.345 217.103 514.345 214 519 C211.127 519.958 209.121 520.195 206.125 520.25 C205.282 520.276 204.439 520.302 203.57 520.328 C200.322 519.913 198.637 518.94 196 517 C192.353 509.886 191.086 501.474 189.938 493.625 C189.774 492.523 189.61 491.422 189.442 490.286 C179.984 422.796 181.246 352.862 180.723 284.848 C180.713 283.562 180.702 282.276 180.692 280.952 C180.592 268.079 180.503 255.205 180.447 242.332 C180.424 237.513 180.394 232.694 180.363 227.875 C180.35 225.615 180.341 223.356 180.336 221.096 C180.328 217.987 180.309 214.878 180.287 211.769 C180.288 210.861 180.289 209.953 180.29 209.017 C180.184 198.184 180.184 198.184 177 195 C175.481 194.901 173.957 194.872 172.434 194.871 C171.457 194.867 170.48 194.864 169.473 194.861 C168.937 194.862 168.937 194.862 166.223 194.867 C165.109 194.866 163.996 194.865 162.849 194.864 C160.469 194.864 158.089 194.865 155.709 194.87 C152.165 194.875 148.62 194.87 145.076 194.863 C133.274 194.859 121.48 194.993 109.684 195.383 Z M506 213 C505.64 215.073 505.64 215.073 505.663 217.685 C505.666 218.675 505.669 219.665 505.672 220.685 C505.693 221.777 505.713 222.87 505.734 223.996 C505.746 225.15 505.758 226.304 505.769 227.493 C505.961 241.904 506.544 256.305 507.151 270.704 C507.252 273.105 507.351 275.506 507.45 277.908 C509.828 335.644 512.278 393.4 517 451 C517.082 452.012 517.165 453.023 517.25 454.065 C518.759 472.467 520.279 490.873 523.125 509.125 C523.204 509.635 523.204 509.635 523.605 512.217 C524.464 517.258 524.464 517.258 525 519 C527.277 520.138 528.613 520.153 531.145 520.205 C531.575 520.215 531.575 520.215 533.754 520.266 C534.692 520.282 535.631 520.299 536.598 520.316 C537.572 520.337 538.546 520.358 539.55 520.38 C542.721 520.446 545.891 520.504 549.062 520.562 C551.218 520.605 553.374 520.648 555.53 520.691 C570.021 520.971 584.505 521.134 599 521 C598.802 519.952 598.605 518.904 598.401 517.825 C596.196 505.683 595.118 493.621 594.375 481.312 C594.248 479.304 594.122 477.295 593.995 475.286 C592.998 459.195 592.365 443.117 592 427 C591.981 426.183 591.963 425.367 591.943 424.525 C591.366 399.322 590.923 374.12 590.719 348.91 C590.709 347.73 590.7 346.551 590.69 345.335 C590.613 335.697 590.543 326.059 590.474 316.421 C590.29 290.756 590.098 265.093 589.531 239.434 C589.522 238.981 589.522 238.981 589.474 236.693 C589.421 234.168 589.361 231.644 589.299 229.119 C589.284 228.393 589.269 227.666 589.253 226.918 C588.935 215.114 588.935 215.114 586.393 212.086 C583.069 210.577 580.358 210.626 576.709 210.628 C575.981 210.624 575.254 210.62 574.505 210.617 C572.106 210.609 569.708 210.622 567.309 210.637 C565.64 210.637 563.971 210.637 562.303 210.635 C558.808 210.635 555.314 210.646 551.82 210.664 C547.338 210.687 542.857 210.687 538.376 210.68 C534.931 210.677 531.487 210.684 528.043 210.693 C526.39 210.697 524.737 210.698 523.085 210.697 C520.777 210.696 518.47 210.709 516.162 210.725 C515.505 210.728 515.505 210.728 512.181 210.739 C509 211 509 211 506 213 Z M696 245 C693.619 248.571 693.545 251.29 693.375 255.438 C693.342 256.217 693.309 256.996 693.275 257.8 C692.964 266.391 692.923 274.978 692.926 283.574 C692.926 284.356 692.926 285.137 692.926 285.943 C692.935 302.334 693.278 318.708 693.748 335.092 C693.814 337.433 693.878 339.775 693.941 342.116 C694.465 361.468 695.083 380.815 695.801 400.16 C695.87 402.024 695.939 403.887 696.008 405.75 C696.042 406.672 696.076 407.594 696.111 408.543 C698.292 467.372 698.292 467.372 698.312 495.188 C698.316 496.273 698.319 497.358 698.323 498.476 C698.328 501.436 698.318 504.396 698.301 507.355 C698.302 508.204 698.302 509.053 698.303 509.927 C698.256 513.8 698.198 515.703 696 519 C695.01 519.66 694.02 520.32 693 521 C722.04 520.34 751.08 519.68 781 519 C780.34 518.67 779.68 518.34 779 518 C771.529 493.757 773.018 465.216 772.469 440.039 C772.448 439.123 772.428 438.206 772.407 437.262 C771.972 417.33 771.838 397.397 771.719 377.461 C771.714 376.653 771.709 375.845 771.704 375.013 C771.619 360.747 771.546 346.482 771.474 332.216 C771.427 322.915 771.378 313.614 771.322 304.312 C771.299 300.346 771.278 296.379 771.26 292.413 C771.138 264.294 771.138 264.294 770.607 252.557 C770.578 251.794 770.548 251.031 770.517 250.244 C770.242 245.242 770.242 245.242 768 243 C765.428 242.746 765.428 242.746 762.133 242.741 C761.517 242.738 761.517 242.738 758.399 242.722 C757.046 242.726 755.693 242.73 754.34 242.734 C752.952 242.733 751.564 242.731 750.176 242.729 C747.259 242.726 744.343 242.73 741.427 242.739 C737.711 242.751 733.994 242.744 730.278 242.732 C727.407 242.725 724.535 242.727 721.663 242.732 C720.295 242.734 718.926 242.732 717.558 242.727 C710.118 242.708 703.136 242.75 696 245 Z M948.979 269.076 C948.588 269.084 948.588 269.084 946.604 269.127 C946.182 269.136 946.182 269.136 944.047 269.184 C943.162 269.203 942.277 269.222 941.365 269.242 C930.91 269.475 920.455 269.728 910 270 C909.255 270.019 908.509 270.039 907.741 270.059 C903.66 270.167 899.58 270.294 895.5 270.438 C894.548 270.464 893.597 270.491 892.616 270.519 C891.763 270.553 890.91 270.586 890.031 270.621 C889.315 270.646 888.599 270.671 887.861 270.697 C886 271 886 271 883 273 C882.689 275.798 882.581 278.369 882.602 281.172 C882.597 282.041 882.593 282.91 882.589 283.805 C882.582 286.787 882.602 289.768 882.625 292.75 C882.629 293.814 882.634 294.879 882.638 295.975 C882.842 339.987 885.204 383.995 887.348 427.945 C887.464 430.347 887.581 432.749 887.698 435.15 C888.217 445.816 888.74 456.481 889.287 467.146 C889.513 471.582 889.733 476.019 889.952 480.455 C890.055 482.524 890.162 484.592 890.271 486.66 C891.694 513.611 891.694 513.611 889 519 C894.346 519.744 899.576 520.16 904.977 520.205 C905.729 520.215 906.481 520.225 907.256 520.235 C909.712 520.267 912.169 520.292 914.625 520.316 C916.34 520.337 918.055 520.358 919.77 520.379 C924.261 520.434 928.752 520.484 933.244 520.532 C937.836 520.583 942.428 520.638 947.02 520.693 C956.013 520.801 965.006 520.902 974 521 C973.796 520.419 973.592 519.838 973.381 519.24 C971.139 512.415 970.331 505.992 969.938 498.84 C969.861 497.575 969.784 496.31 969.705 495.007 C968.435 473.16 967.851 451.27 967.128 429.401 C966.956 424.228 966.78 419.055 966.604 413.882 C965.445 379.713 964.374 345.541 963.495 311.364 C963.37 306.665 963.228 301.968 963.086 297.27 C962.999 293.98 962.949 290.692 962.904 287.401 C962.857 285.38 962.81 283.358 962.762 281.336 C962.759 280.425 962.756 279.514 962.754 278.575 C962.685 276.275 962.58 274.226 962 272 C957.982 268.356 954.104 268.965 948.979 269.076 Z M616.939 334.32 C614.965 334.374 612.992 334.421 611.019 334.468 C609.846 334.507 608.673 334.546 607.465 334.586 C606.45 334.617 605.436 334.649 604.39 334.681 C602 335 602 335 600 337 C599.746 339.653 599.746 339.653 599.741 343.084 C599.735 344.377 599.729 345.67 599.722 347.002 C599.726 348.438 599.73 349.873 599.734 351.309 C599.732 352.804 599.729 354.299 599.726 355.794 C599.72 359.834 599.729 363.874 599.742 367.915 C599.75 370.436 599.754 372.957 599.757 375.478 C599.817 414.815 600.652 454.174 603.39 493.426 C604.019 502.631 604.088 511.779 604 521 C632.996 522.766 661.991 522.111 691 521 C690.687 520.848 690.687 520.848 689.103 520.076 C686.804 518.9 685.563 518.059 684 516 C681.667 508.583 680.811 500.694 680.432 492.954 C680.391 492.154 680.351 491.354 680.31 490.531 C679.744 477.854 679.787 465.158 679.73 452.471 C679.711 448.679 679.687 444.887 679.663 441.095 C679.598 430.685 679.542 420.274 679.487 409.864 C679.436 400.278 679.383 390.692 679.322 381.107 C679.294 376.612 679.271 372.118 679.251 367.623 C679.24 365.503 679.228 363.384 679.215 361.264 C679.198 358.69 679.186 356.116 679.177 353.542 C679.057 337.057 679.057 337.057 676 334 C673.13 333.811 670.358 333.745 667.488 333.77 C666.62 333.77 665.751 333.77 664.856 333.77 C662.008 333.773 659.16 333.792 656.312 333.812 C654.361 333.821 652.409 333.829 650.457 333.836 C639.283 333.894 628.109 334.016 616.939 334.32 Z M436 382 C435.709 385.097 435.63 387.965 435.691 391.062 C435.701 392.026 435.711 392.989 435.722 393.981 C435.949 407.613 436.908 421.222 437.796 434.823 C438.216 441.277 438.621 447.733 439.027 454.188 C439.071 454.878 439.115 455.568 439.16 456.28 C441.196 488.568 441.196 488.568 441.125 504.062 C441.129 504.971 441.133 505.879 441.137 506.814 C441.13 511.147 440.862 514.688 440 519 C463.1 519 486.2 519 510 519 C509.34 515.04 508.68 511.08 508 507 C507.803 504.399 507.664 501.792 507.604 499.185 C507.585 498.493 507.567 497.802 507.549 497.089 C507.493 494.836 507.449 492.582 507.406 490.328 C507.369 488.707 507.332 487.086 507.294 485.465 C506.83 464.78 506.65 444.088 506.448 423.399 C506.405 419.044 506.358 414.69 506.308 410.336 C506.282 407.929 506.261 405.522 506.24 403.115 C506.166 396.021 505.985 389.039 505 382 C500.805 380.423 497.333 379.748 492.859 379.741 C491.668 379.735 490.476 379.729 489.249 379.722 C487.977 379.726 486.705 379.73 485.395 379.734 C484.078 379.732 482.762 379.731 481.406 379.729 C478.63 379.726 475.854 379.73 473.077 379.739 C469.52 379.751 465.962 379.744 462.405 379.732 C459.005 379.723 455.606 379.729 452.207 379.734 C451.568 379.732 451.568 379.732 448.334 379.722 C447.743 379.725 447.743 379.725 444.753 379.741 C443.712 379.743 442.671 379.744 441.598 379.746 C439 380 439 380 436 382 Z M806.875 382.312 C806.412 382.324 806.412 382.324 804.07 382.38 C798.743 382.603 794.565 383.125 790 386 C788.059 391.091 787.763 395.78 787.953 401.156 C787.973 401.951 787.992 402.746 788.013 403.565 C788.081 406.21 788.165 408.855 788.25 411.5 C788.302 413.385 788.353 415.271 788.404 417.156 C788.71 428.137 789.107 439.113 789.52 450.09 C789.564 451.282 789.609 452.474 789.654 453.702 C789.873 459.522 790.099 465.341 790.339 471.16 C790.967 487.148 791 502.968 791 519 C805.685 519.165 805.685 519.165 880 520 C879.67 519.34 879.34 518.68 879 518 C878.34 518 877.68 518 877 518 C868.099 487.735 869.761 453.306 868.697 422.036 C868.02 402.2 868.02 402.2 867.566 393.621 C867.505 392.418 867.444 391.214 867.381 389.974 C867.016 387.128 866.637 385.343 865 383 C861.172 381.724 857.57 381.857 853.582 381.867 C852.74 381.866 851.899 381.864 851.031 381.863 C848.292 381.861 845.552 381.867 842.812 381.875 C842.349 381.876 842.349 381.876 840.004 381.881 C828.96 381.907 817.914 381.949 806.875 382.312 Z M511 432 C510.977 440.364 510.959 448.727 510.948 457.091 C510.943 460.976 510.936 464.861 510.925 468.746 C510.914 472.506 510.908 476.267 510.905 480.028 C510.903 481.451 510.9 482.874 510.894 484.297 C510.794 511.606 510.794 511.606 515 517 C518.188 517.312 518.188 517.312 521 517 C520.935 516.547 520.935 516.547 520.604 514.258 C516.712 486.911 514.136 459.536 512 432 C511.67 432 511.34 432 511 432 Z " fill="#000000" transform="translate(183,201)"/>
</svg>
