<?xml version="1.0" encoding="UTF-8"?>
<!-- Generator: visioncortex VTracer 0.6.12 -->
<svg version="1.1" xmlns="http://www.w3.org/2000/svg" width="1536" height="1024">
<path d="M0 0 C15.075 14.521 15.199 36.604 15.685 56.153 C15.782 61.88 15.79 67.608 15.799 73.335 C15.805 75.225 15.812 77.114 15.819 79.003 C15.834 83.058 15.845 87.112 15.855 91.167 C15.871 97.707 15.894 104.246 15.918 110.786 C15.952 120.178 15.983 129.571 16.014 138.963 C16.094 163.645 16.193 188.326 16.305 213.008 C16.31 214.243 16.316 215.478 16.322 216.751 C16.528 262.055 16.974 307.353 17.619 352.653 C17.819 366.713 18.012 380.772 18.203 394.832 C18.213 395.556 18.223 396.28 18.233 397.026 C18.594 423.516 18.871 450.005 18.93 476.498 C18.937 479.126 18.951 481.755 18.966 484.383 C18.988 488.318 18.995 492.252 18.989 496.187 C18.988 498.195 19.002 500.202 19.016 502.21 C18.954 514.315 17.735 527.177 9.625 536.75 C6.817 539.199 3.927 541.037 0.625 542.75 C0.022 543.066 -0.582 543.382 -1.203 543.707 C-13.267 549.031 -28.585 548.129 -41.516 548.348 C-43.361 548.385 -45.206 548.422 -47.052 548.46 C-65.764 548.83 -84.479 548.988 -103.193 549.139 C-136.306 549.408 -169.405 549.89 -202.509 550.674 C-233.904 551.416 -265.292 551.983 -296.697 552.055 C-299.278 552.062 -301.858 552.076 -304.438 552.091 C-308.454 552.113 -312.47 552.12 -316.486 552.114 C-317.935 552.113 -319.384 552.118 -320.833 552.128 C-336.351 552.226 -352.75 550.77 -364.59 539.73 C-372.065 531.437 -374.536 520.44 -376.062 509.688 C-376.192 508.822 -376.322 507.956 -376.455 507.064 C-376.769 504.961 -377.073 502.855 -377.375 500.75 C-377.525 501.298 -377.676 501.847 -377.831 502.411 C-382.164 518.02 -386.739 530.052 -398.375 541.75 C-398.905 542.315 -399.435 542.879 -399.98 543.461 C-413.674 556.768 -436.303 559.245 -454.375 560.75 C-455.348 560.837 -456.321 560.924 -457.323 561.013 C-523.091 566.198 -590.364 558.994 -655.914 553.883 C-696.044 550.756 -736.138 548.747 -776.375 547.75 C-776.375 546.76 -776.375 545.77 -776.375 544.75 C-744.602 544.143 -713.126 544.631 -681.438 547 C-680.689 547.056 -679.94 547.112 -679.168 547.169 C-670.299 547.835 -661.433 548.534 -652.568 549.251 C-645.573 549.817 -638.576 550.361 -631.578 550.902 C-630.436 550.991 -629.294 551.079 -628.118 551.17 C-625.889 551.342 -623.66 551.514 -621.431 551.686 C-618.234 551.934 -615.037 552.184 -611.841 552.434 C-599.483 553.395 -587.126 554.256 -574.75 554.938 C-573.449 555.009 -572.148 555.081 -570.808 555.155 C-567.455 555.33 -564.101 555.492 -560.747 555.643 C-559.06 555.719 -557.372 555.798 -555.685 555.878 C-537.996 556.712 -520.328 556.938 -502.624 556.935 C-499.661 556.935 -496.698 556.942 -493.735 556.956 C-421.753 557.28 -421.753 557.28 -400.375 537.75 C-379.337 516.014 -379.152 483.919 -379.188 455.5 C-379.188 454.672 -379.188 453.844 -379.188 452.991 C-379.218 433.529 -379.405 413.683 -384.375 394.75 C-384.544 394.104 -384.712 393.458 -384.886 392.793 C-388.548 379.125 -394.101 363.36 -406.555 355.348 C-414.052 351.489 -421.233 350.366 -429.438 352.574 C-433.412 353.996 -436.853 355.402 -440.375 357.75 C-442.563 357.375 -442.563 357.375 -444.375 356.75 C-438.019 349.369 -430.155 347.24 -420.688 346.438 C-411.202 346.619 -403.794 351.118 -397.375 357.75 C-396.866 358.227 -396.357 358.704 -395.832 359.195 C-392.083 363.035 -389.687 367.583 -387.25 372.312 C-386.925 372.931 -386.6 373.549 -386.266 374.185 C-382.917 380.957 -381.544 387.16 -379.375 394.75 C-379.375 328.09 -379.375 261.43 -379.375 192.75 C-378.055 192.42 -376.735 192.09 -375.375 191.75 C-373.814 194.871 -374.246 198.185 -374.261 201.61 C-374.261 202.433 -374.261 203.255 -374.261 204.103 C-374.262 206.879 -374.27 209.655 -374.277 212.431 C-374.279 214.418 -374.281 216.405 -374.282 218.392 C-374.285 222.695 -374.291 226.998 -374.3 231.301 C-374.313 238.19 -374.319 245.079 -374.324 251.967 C-374.337 269.15 -374.361 286.332 -374.385 303.514 C-374.53 406.74 -374.53 406.74 -373.969 448.601 C-373.938 450.927 -373.908 453.253 -373.878 455.579 C-373.708 468.437 -373.528 481.296 -372.918 494.142 C-372.883 494.896 -372.848 495.649 -372.812 496.425 C-372.047 510.548 -369.785 523.897 -362.312 536.125 C-349.453 547.616 -332.991 547.057 -316.797 547.016 C-314.95 547.018 -313.103 547.02 -311.256 547.024 C-306.259 547.029 -301.263 547.02 -296.266 547.007 C-293.097 547 -289.928 546.996 -286.759 546.994 C-252.651 546.959 -218.567 546.42 -184.469 545.603 C-161.283 545.049 -138.103 544.646 -114.91 544.465 C-113.672 544.455 -112.434 544.445 -111.159 544.435 C-99.01 544.339 -86.861 544.255 -74.712 544.198 C-70.228 544.175 -65.744 544.145 -61.259 544.113 C-59.197 544.101 -57.134 544.091 -55.072 544.086 C-44.314 544.057 -33.647 543.745 -22.924 542.838 C-22.451 542.798 -22.451 542.798 -20.055 542.598 C-9.797 541.648 0.659 540.077 7.625 531.75 C13.504 524.011 13.925 514.741 13.868 505.358 C13.87 504.354 13.872 503.351 13.874 502.316 C13.877 498.997 13.867 495.678 13.855 492.359 C13.855 490.006 13.855 487.653 13.855 485.3 C13.854 479.006 13.84 472.711 13.822 466.417 C13.812 462.486 13.806 458.554 13.801 454.623 C13.756 419.098 13.487 383.587 12.874 348.067 C12.554 329.415 12.345 310.761 12.156 292.106 C12.125 289.071 12.093 286.036 12.062 283.002 C11.741 251.928 11.568 220.855 11.437 189.78 C11.41 183.461 11.382 177.142 11.354 170.823 C11.335 166.576 11.316 162.33 11.297 158.083 C11.292 157.027 11.287 155.972 11.283 154.885 C11.226 142.134 11.176 129.383 11.136 116.631 C11.111 108.509 11.078 100.387 11.041 92.265 C11.019 87.508 11.001 82.751 10.991 77.994 C10.982 73.567 10.964 69.14 10.939 64.713 C10.932 63.114 10.928 61.514 10.927 59.914 C10.923 51.578 10.616 43.362 9.719 35.07 C9.68 34.703 9.68 34.703 9.48 32.841 C8.102 21.213 4.183 9.593 -5.23 2.066 C-16.744 -5.001 -30.566 -4.436 -43.57 -4.402 C-44.305 -4.402 -45.039 -4.401 -45.796 -4.4 C-63.162 -4.372 -80.493 -3.675 -97.839 -2.918 C-138.702 -1.136 -179.492 -0.159 -220.395 -0.223 C-220.806 -0.223 -220.806 -0.223 -222.887 -0.226 C-239.165 -0.252 -255.442 -0.294 -271.719 -0.346 C-279.433 -0.371 -287.146 -0.388 -294.86 -0.398 C-299.681 -0.404 -304.503 -0.419 -309.324 -0.442 C-312.319 -0.454 -315.315 -0.457 -318.31 -0.458 C-320.324 -0.461 -322.338 -0.474 -324.351 -0.488 C-339.963 -0.471 -357.731 0.09 -369.531 11.527 C-374.041 16.964 -376.543 23.802 -376.455 30.866 C-376.448 31.678 -376.44 32.49 -376.433 33.326 C-376.42 34.207 -376.407 35.089 -376.393 35.997 C-376.374 37.936 -376.354 39.874 -376.334 41.813 C-376.328 42.326 -376.328 42.326 -376.297 44.923 C-376.237 50.362 -376.206 55.801 -376.17 61.24 C-376.122 68.16 -376.065 75.079 -375.977 81.999 C-375.907 87.593 -375.866 93.186 -375.845 98.78 C-375.831 100.909 -375.807 103.039 -375.771 105.168 C-375.723 108.151 -375.712 111.131 -375.71 114.115 C-375.698 114.552 -375.698 114.552 -375.64 116.768 C-375.686 122.345 -376.867 125.259 -380.732 129.305 C-383.584 131.813 -386.666 133.775 -389.938 135.688 C-390.29 135.9 -390.29 135.9 -392.073 136.977 C-393.502 137.839 -394.934 138.697 -396.369 139.551 C-399.167 141.223 -401.924 142.959 -404.688 144.688 C-439.662 166.117 -439.662 166.117 -448.375 164.75 C-455.987 162.01 -459.53 155.912 -463.109 149.031 C-463.271 148.721 -463.271 148.721 -464.09 147.15 C-464.765 145.847 -465.438 144.543 -466.106 143.237 C-467.125 141.249 -468.161 139.271 -469.199 137.293 C-469.858 136.019 -470.515 134.744 -471.172 133.469 C-471.468 132.896 -471.468 132.896 -472.964 129.998 C-474.374 126.751 -475.238 124.287 -475.375 120.75 C-473.6 116.555 -471.231 114.652 -467.391 112.328 C-466.409 111.732 -465.427 111.136 -464.416 110.521 C-459.692 107.77 -454.939 105.092 -450.125 102.5 C-449.614 102.224 -449.614 102.224 -447.026 100.827 C-439.682 96.9 -432.259 93.163 -424.75 89.562 C-423.797 89.105 -422.844 88.648 -421.862 88.177 C-408.554 81.889 -408.554 81.889 -401.375 83.75 C-398.361 86.37 -396.306 89.192 -394.246 92.594 C-393.686 93.51 -393.126 94.427 -392.549 95.371 C-392.262 95.846 -392.262 95.846 -390.812 98.25 C-389.667 100.136 -388.52 102.022 -387.371 103.906 C-386.868 104.74 -386.364 105.573 -385.845 106.432 C-384.452 108.629 -382.947 110.679 -381.375 112.75 C-381.384 111.714 -381.393 110.678 -381.402 109.611 C-381.483 99.799 -381.543 89.988 -381.582 80.176 C-381.603 75.133 -381.631 70.09 -381.677 65.047 C-381.721 60.171 -381.744 55.295 -381.755 50.419 C-381.762 48.568 -381.776 46.717 -381.798 44.866 C-381.95 31.389 -381.69 18.477 -372.422 7.684 C-362.614 -1.582 -350.126 -4.361 -337.004 -4.388 C-336.294 -4.391 -335.584 -4.394 -334.853 -4.397 C-332.488 -4.405 -330.124 -4.406 -327.76 -4.408 C-326.054 -4.412 -324.349 -4.418 -322.644 -4.423 C-318.964 -4.434 -315.283 -4.443 -311.603 -4.449 C-305.692 -4.46 -299.78 -4.48 -293.869 -4.502 C-277.052 -4.564 -260.235 -4.617 -243.418 -4.651 C-231.122 -4.677 -218.827 -4.716 -206.531 -4.773 C-205.52 -4.778 -204.508 -4.783 -203.466 -4.788 C-157.633 -5.013 -111.822 -6.345 -66.06 -8.957 C-14.508 -11.86 -14.508 -11.86 0 0 Z M-415.438 89.375 C-416.159 89.674 -416.881 89.973 -417.625 90.282 C-460.441 108.609 -460.441 108.609 -470.375 119.75 C-469.83 121.577 -469.83 121.577 -468.375 123.75 C-465.92 124.863 -463.658 125.719 -461.102 126.512 C-460.381 126.748 -459.661 126.984 -458.919 127.227 C-456.617 127.978 -454.309 128.708 -452 129.438 C-450.453 129.939 -448.906 130.443 -447.359 130.947 C-429.883 136.62 -429.883 136.62 -424.375 135.75 C-420.32 131.106 -418.026 124.999 -415.824 119.312 C-415.672 118.93 -415.672 118.93 -414.904 116.993 C-413.949 114.581 -413.006 112.166 -412.062 109.75 C-411.412 108.1 -410.76 106.45 -410.107 104.801 C-408.522 100.787 -406.946 96.77 -405.375 92.75 C-404.715 92.75 -404.055 92.75 -403.375 92.75 C-404.098 97.508 -405.807 101.748 -407.578 106.191 C-407.898 106.996 -408.217 107.801 -408.547 108.63 C-409.224 110.326 -409.903 112.021 -410.584 113.716 C-411.621 116.302 -412.637 118.896 -413.652 121.49 C-414.314 123.141 -414.977 124.792 -415.641 126.441 C-415.94 127.214 -416.239 127.987 -416.547 128.784 C-418.379 133.256 -419.944 136.379 -424.375 138.75 C-430.54 139.429 -435.446 138.108 -441.25 136.125 C-442.06 135.859 -442.87 135.592 -443.704 135.318 C-446.265 134.473 -448.82 133.612 -451.375 132.75 C-453.121 132.171 -454.867 131.593 -456.613 131.016 C-460.871 129.606 -465.124 128.182 -469.375 126.75 C-457.672 156.582 -457.672 156.582 -448.375 160.75 C-442.843 161.392 -438.986 160.066 -434.188 157.5 C-433.505 157.146 -432.822 156.791 -432.118 156.427 C-419.121 149.565 -406.681 141.672 -394.312 133.75 C-393.461 133.21 -392.61 132.671 -391.733 132.115 C-391.338 131.858 -391.338 131.858 -389.34 130.562 C-388.645 130.115 -387.95 129.668 -387.234 129.207 C-385.141 127.566 -383.77 126.014 -382.375 123.75 C-382.417 117.774 -384.634 114.214 -388 109.562 C-388.915 108.253 -389.826 106.942 -390.734 105.629 C-391.184 104.981 -391.633 104.332 -392.096 103.665 C-394.571 99.96 -396.678 96.053 -398.805 92.141 C-400.458 89.623 -401.765 88.239 -404.375 86.75 C-408.645 86.75 -411.581 87.771 -415.438 89.375 Z " fill="#000000" transform="translate(909.375,180.25)"/>
<path d="M0 0 C4.834 4.452 6.189 8.741 6.536 15.179 C6.989 50.929 6.989 50.929 1.898 58.336 C-4.135 64.204 -12.637 64.498 -20.621 64.488 C-21.454 64.493 -22.287 64.497 -23.145 64.501 C-24.896 64.507 -26.646 64.508 -28.397 64.503 C-31.052 64.5 -33.706 64.524 -36.361 64.549 C-38.073 64.551 -39.785 64.552 -41.496 64.551 C-42.278 64.56 -43.059 64.569 -43.864 64.579 C-50.903 64.521 -57.271 63.341 -62.562 58.5 C-66.417 52.309 -66.935 45.925 -66.926 38.812 C-66.93 38.044 -66.934 37.275 -66.939 36.483 C-66.944 34.869 -66.945 33.256 -66.941 31.643 C-66.938 29.194 -66.961 26.746 -66.986 24.297 C-66.989 22.719 -66.989 21.141 -66.988 19.562 C-66.997 18.841 -67.007 18.12 -67.016 17.377 C-66.968 12.056 -65.826 8.049 -63.625 3.188 C-51.754 -7.553 -13.38 -8.022 0 0 Z M-60.625 6.188 C-65.298 15.534 -63.81 29.168 -63.312 39.375 C-63.278 40.152 -63.243 40.928 -63.208 41.729 C-62.523 53.289 -62.523 53.289 -58.25 57.562 C-53.331 60.608 -48.461 60.362 -42.801 60.391 C-41.94 60.396 -41.079 60.402 -40.192 60.408 C-38.371 60.417 -36.549 60.424 -34.728 60.428 C-31.965 60.437 -29.202 60.468 -26.439 60.5 C-24.664 60.507 -22.889 60.512 -21.113 60.516 C-20.705 60.522 -20.705 60.522 -18.641 60.553 C-13.057 60.532 -7.601 59.897 -2.625 57.188 C2.04 51.014 2.532 43.986 2.578 36.473 C2.584 35.739 2.59 35.006 2.595 34.25 C2.605 32.705 2.611 31.159 2.615 29.614 C2.625 27.261 2.656 24.909 2.688 22.557 C2.694 21.049 2.699 19.542 2.703 18.035 C2.709 17.687 2.709 17.687 2.741 15.923 C2.72 11.283 1.9 8.088 -0.625 4.188 C-13.332 -2.393 -49.891 -4.547 -60.625 6.188 Z " fill="#000000" transform="translate(755.625,220.8125)"/>
<path d="M0 0 C0.418 -0.003 0.418 -0.003 2.533 -0.017 C4.295 -0.027 6.058 -0.033 7.82 -0.037 C10.493 -0.047 13.165 -0.078 15.838 -0.109 C17.559 -0.116 19.279 -0.121 21 -0.125 C21.788 -0.137 22.576 -0.15 23.387 -0.162 C29.971 -0.136 36.381 0.963 41.637 5.141 C48.386 18.369 47.291 42.067 43.199 56.203 C40.487 61.31 37.656 64.332 32.113 66.298 C27.698 67.486 23.377 67.509 18.828 67.504 C18.388 67.506 18.388 67.506 16.158 67.517 C14.303 67.523 12.448 67.523 10.594 67.519 C7.774 67.516 4.955 67.539 2.135 67.564 C0.324 67.567 -1.486 67.567 -3.297 67.566 C-4.13 67.576 -4.964 67.585 -5.823 67.594 C-12.788 67.54 -18.472 66.431 -23.676 61.453 C-31.827 48.987 -30.151 27.367 -27.801 13.203 C-26.694 9.081 -25.384 6.235 -21.746 3.863 C-14.686 0.523 -7.693 0.041 0 0 Z M-22.801 10.203 C-27.074 23.022 -26.66 43.332 -22.801 56.203 C-20.895 59.606 -19.789 60.778 -16.242 62.304 C-11.915 63.435 -7.944 63.49 -3.492 63.469 C-2.607 63.471 -1.722 63.473 -0.811 63.475 C1.054 63.476 2.919 63.472 4.784 63.464 C7.624 63.453 10.463 63.464 13.303 63.477 C15.121 63.475 16.939 63.473 18.758 63.469 C19.179 63.471 19.179 63.471 21.309 63.481 C27.218 63.435 32.804 63.21 37.512 59.266 C42.069 50.995 41.511 40.769 41.449 31.578 C41.457 30.415 41.465 29.253 41.473 28.055 C41.437 12.387 41.437 12.387 38.063 7.587 C32.941 3.784 26.62 3.905 20.52 3.938 C19.707 3.936 18.895 3.934 18.058 3.932 C16.349 3.93 14.64 3.934 12.93 3.942 C10.339 3.953 7.748 3.942 5.156 3.93 C3.486 3.931 1.815 3.934 0.145 3.938 C-0.618 3.933 -1.381 3.929 -2.167 3.925 C-9.731 3.99 -17.295 4.525 -22.801 10.203 Z " fill="#000000" transform="translate(825.80078125,216.796875)"/>
<path d="M0 0 C2.056 -0.002 4.111 -0.02 6.167 -0.039 C23.817 -0.116 23.817 -0.116 30.626 3.998 C34.696 8.45 34.934 13.057 34.927 18.873 C34.931 19.612 34.935 20.351 34.939 21.112 C34.945 22.675 34.946 24.239 34.941 25.802 C34.938 28.15 34.962 30.497 34.987 32.845 C35.079 54.39 35.079 54.39 29.376 62.31 C19.501 69.043 8.807 68.367 -2.687 68.373 C-3.942 68.385 -5.197 68.397 -6.49 68.41 C-27.013 68.442 -27.013 68.442 -34.374 62.185 C-42.807 52.525 -39.732 33.083 -39.062 21.06 C-38.457 14.582 -37.779 9.262 -32.624 4.81 C-22.395 -0.305 -11.18 -0.001 0 0 Z M-31.062 8.06 C-36.884 15.928 -35.712 28.043 -35.687 37.435 C-35.703 38.65 -35.719 39.864 -35.736 41.115 C-35.743 55.59 -35.743 55.59 -30.57 61.111 C-21.751 65.426 -9.608 64.385 -0.062 64.435 C1.035 64.445 2.131 64.454 3.261 64.463 C18.955 64.403 18.955 64.403 25.626 60.373 C33.939 51.28 31.872 31.774 31.571 20.185 C31.242 14.916 30.67 11.615 27.626 7.185 C21.229 2.616 11.032 3.999 3.567 4 C1.527 3.998 -0.513 3.98 -2.554 3.961 C-24.633 3.864 -24.633 3.864 -31.062 8.06 Z " fill="#000000" transform="translate(620.374267578125,217.814697265625)"/>
<path d="M0 0 C14.191 -0.51 26.827 3.887 37.59 13.152 C47.9 24.269 51.856 35.451 51.758 50.453 C51.61 52.833 51.266 54.874 50.59 57.152 C50.962 57.293 50.962 57.293 52.848 58.004 C59.243 60.682 64.552 65.081 69.866 69.457 C92.175 87.78 114.901 93.405 143.647 90.884 C171.751 87.578 199.032 78.083 224.302 65.59 C229.283 63.152 229.283 63.152 232.59 63.152 C232.59 64.472 232.59 65.792 232.59 67.152 C220.189 73.264 207.591 78.457 194.59 83.152 C194.205 83.293 194.205 83.293 192.258 84.004 C160.036 95.678 122.672 103.018 90.172 88.863 C80.519 84.253 72.413 77.578 64.283 70.72 C54.034 62.152 54.034 62.152 49.59 62.152 C49.25 62.914 48.909 63.676 48.559 64.461 C42.448 77.479 34.401 86.392 20.777 91.465 C19.057 92.053 17.328 92.619 15.59 93.152 C14.969 93.347 14.347 93.542 13.707 93.742 C0.484 96.304 -13.097 93.2 -24.41 86.152 C-35.693 77.809 -43.003 65.995 -45.156 52.105 C-46.206 39.897 -43.719 28.441 -35.906 18.855 C-27.625 9.428 -18.21 3.159 -5.848 0.34 C-3.898 0.234 -1.949 0.123 0 0 Z M-31.223 18.965 C-38.663 28.072 -41.833 37.971 -41.285 49.652 C-40.071 61.547 -34.28 72.17 -25.672 80.449 C-14.165 89.114 -2.466 91.064 11.59 90.152 C23.097 88.377 33.532 81.257 40.59 72.152 C47.115 60.473 49.885 48.704 46.719 35.527 C42.425 23.588 34.896 14.316 23.652 8.402 C4.555 -0.489 -16.811 3.624 -31.223 18.965 Z " fill="#000000" transform="translate(199.41015625,237.84765625)"/>
<path d="M0 0 C0.99 0.33 1.98 0.66 3 1 C3 3.31 3 5.62 3 8 C3.526 8.031 3.526 8.031 6.188 8.188 C10.629 9.134 12.116 10.592 15 14 C14.67 14.66 14.34 15.32 14 16 C10.084 15.217 6.636 13.608 3 12 C3.165 14.475 3.165 14.475 4 27 C6.507 27.911 9.013 28.823 11.52 29.734 C14.309 31.158 15.449 32.3 17 35 C17.837 41.486 17.837 41.486 16.016 44.781 C13.761 47.621 11.472 49.88 8 51 C6.68 51 5.36 51 4 51 C3.67 53.31 3.34 55.62 3 58 C2.01 58 1.02 58 0 58 C0.041 57.092 0.083 56.185 0.125 55.25 C-1 52 -1 52 -3.188 50.852 C-4.961 50.207 -6.751 49.607 -8.555 49.055 C-11.407 47.824 -12.467 46.674 -14 44 C-13.688 41.75 -13.688 41.75 -13 40 C-11.062 40.812 -11.062 40.812 -9 42 C-8.67 42.99 -8.34 43.98 -8 45 C-5.69 45.66 -3.38 46.32 -1 47 C-1 41.72 -1 36.44 -1 31 C-3.31 30.34 -5.62 29.68 -8 29 C-11.189 26.673 -12.83 23.908 -13.562 20 C-12.835 16.118 -11.547 14.016 -9 11 C-4 8 -4 8 -1 8 C-1.021 6.866 -1.041 5.731 -1.062 4.562 C-1 1 -1 1 0 0 Z M-7.785 15.43 C-9 17 -9 17 -9.125 20.688 C-8 24 -8 24 -6.125 25.438 C-4 26 -4 26 -1 26 C-1 21.38 -1 16.76 -1 12 C-3.95 12 -5.615 13.573 -7.785 15.43 Z M3 32 C3 36.95 3 41.9 3 47 C3.33 47.165 3.33 47.165 5 48 C11.706 44.588 11.706 44.588 13 42 C13.375 39.125 13.375 39.125 13 36 C10.812 33.625 10.812 33.625 8 32 C6.35 32 4.7 32 3 32 Z " fill="#000000" transform="translate(201,256)"/>
<path d="M0 0 C0 8.58 0 17.16 0 26 C-1.32 25.67 -2.64 25.34 -4 25 C-3.988 24.287 -3.977 23.574 -3.965 22.84 C-3.914 17.437 -4.054 12.322 -5 7 C-5.598 7.495 -6.196 7.99 -6.812 8.5 C-9 10 -9 10 -12 10 C-12 8.68 -12 7.36 -12 6 C-10.137 4.297 -10.137 4.297 -7.688 2.75 C-6.887 2.229 -6.086 1.708 -5.262 1.172 C-3 0 -3 0 0 0 Z " fill="#000000" transform="translate(326,294)"/>
<path d="M0 0 C0.955 -0.012 1.91 -0.024 2.895 -0.037 C12.142 -0.056 23.115 0.188 30.25 6.812 C34.373 14.647 33.842 23.803 33.816 32.416 C33.813 34.617 33.836 36.817 33.861 39.018 C33.945 57.463 33.945 57.463 28.188 63.688 C17.527 69.638 4.114 68.369 -7.75 68.375 C-9.06 68.387 -10.369 68.399 -11.719 68.412 C-28.778 68.438 -28.778 68.438 -33.875 63.812 C-39.799 57.888 -39.656 51.075 -39.703 43.008 C-39.706 42.622 -39.706 42.622 -39.72 40.67 C-39.73 39.044 -39.736 37.419 -39.74 35.793 C-39.75 33.327 -39.781 30.861 -39.812 28.395 C-39.819 26.807 -39.824 25.22 -39.828 23.633 C-39.84 22.905 -39.853 22.178 -39.866 21.429 C-39.843 16.077 -38.723 12.073 -36.5 7.188 C-27.112 -1.109 -11.793 0.008 0 0 Z M-33.5 10.188 C-35.548 14.88 -35.807 19.321 -35.801 24.367 C-35.805 25.139 -35.809 25.91 -35.814 26.705 C-35.819 28.331 -35.82 29.956 -35.816 31.582 C-35.813 34.048 -35.836 36.514 -35.861 38.98 C-35.864 40.568 -35.864 42.155 -35.863 43.742 C-35.872 44.47 -35.882 45.197 -35.891 45.946 C-35.839 51.826 -34.882 57.805 -30.562 62.125 C-26.071 64.439 -21.621 64.348 -16.656 64.355 C-15.891 64.359 -15.126 64.362 -14.338 64.366 C-12.718 64.371 -11.097 64.373 -9.477 64.373 C-7.036 64.375 -4.596 64.393 -2.156 64.412 C20.401 64.496 20.401 64.496 26.688 59.812 C29.933 55.112 29.672 50.526 29.703 44.949 C29.709 44.15 29.715 43.351 29.72 42.528 C29.73 40.839 29.736 39.151 29.74 37.462 C29.75 34.894 29.781 32.327 29.812 29.76 C29.819 28.115 29.824 26.469 29.828 24.824 C29.834 24.444 29.834 24.444 29.866 22.519 C29.844 17.351 28.889 13.789 26.5 9.188 C19.982 2.737 8.301 3.978 -0.25 3.938 C-26.356 4.082 -26.356 4.082 -33.5 10.188 Z " fill="#000000" transform="translate(729.5,311.8125)"/>
<path d="M0 0 C6.023 5.535 7.014 11.206 7.498 19.179 C7.58 22.455 7.585 25.723 7.562 29 C7.566 29.547 7.566 29.547 7.586 32.316 C7.535 53.903 7.535 53.903 1.312 60.125 C-9.159 65.728 -23.346 64.329 -34.812 64.375 C-36.105 64.396 -37.398 64.416 -38.73 64.438 C-55.929 64.507 -55.929 64.507 -62.188 58.875 C-65.411 52.965 -65.996 47.239 -65.988 40.664 C-65.993 39.874 -65.997 39.084 -66.001 38.27 C-66.007 36.608 -66.008 34.946 -66.003 33.283 C-66 30.764 -66.023 28.246 -66.049 25.727 C-66.125 6.989 -66.125 6.989 -61.219 1.475 C-57.115 -2.141 -51.798 -2.448 -46.562 -3 C-45.778 -3.083 -44.994 -3.167 -44.187 -3.253 C-10.534 -6.526 -10.534 -6.526 0 0 Z M-60.688 7.125 C-64.082 21.208 -64.823 40.113 -60.688 54.125 C-57.907 57.529 -56.005 59.425 -51.688 60.125 C-49.075 60.232 -46.491 60.289 -43.879 60.293 C-43.116 60.296 -42.354 60.3 -41.568 60.303 C-39.952 60.308 -38.335 60.31 -36.719 60.31 C-34.29 60.312 -31.861 60.331 -29.432 60.35 C-5.83 60.442 -5.83 60.442 -0.463 56.485 C4.615 49.735 3.652 41.025 3.628 32.992 C3.625 30.763 3.649 28.534 3.674 26.305 C3.748 10.857 3.748 10.857 0.312 5.125 C-11 -4.488 -50.188 -3.375 -60.688 7.125 Z " fill="#000000" transform="translate(864.6875,315.875)"/>
<path d="M0 0 C1.519 -0.012 3.039 -0.032 4.558 -0.062 C14.641 -0.257 24.945 -0.425 33.037 6.483 C37.146 14.522 36.788 23.344 36.735 32.152 C36.724 34.291 36.735 36.429 36.748 38.569 C36.768 56.458 36.768 56.458 32.099 62.233 C24.793 67.973 16.277 67.45 7.345 67.498 C6.928 67.501 6.928 67.501 4.818 67.516 C3.07 67.525 1.321 67.532 -0.428 67.535 C-3.085 67.545 -5.742 67.576 -8.399 67.608 C-10.109 67.614 -11.819 67.619 -13.53 67.623 C-14.313 67.636 -15.097 67.648 -15.904 67.661 C-21.411 67.639 -25.499 66.588 -30.526 64.295 C-37.858 56.577 -36.843 43.745 -36.776 33.795 C-36.783 32.649 -36.791 31.503 -36.799 30.323 C-36.758 12.357 -36.758 12.357 -32.338 6.295 C-22.616 -0.619 -11.441 0.06 0 0 Z M-25.526 6.295 C-26.222 6.483 -26.918 6.671 -27.636 6.865 C-30.779 9.244 -31.591 12.56 -32.526 16.295 C-32.798 19.084 -32.948 21.638 -32.924 24.416 C-32.927 25.16 -32.93 25.905 -32.933 26.671 C-32.935 28.234 -32.929 29.796 -32.917 31.358 C-32.901 33.724 -32.917 36.088 -32.936 38.453 C-32.966 54.994 -32.966 54.994 -29.526 60.295 C-20.394 66.941 -4.221 64.326 6.474 63.983 C7.632 63.948 8.789 63.914 9.981 63.878 C25.397 63.266 25.397 63.266 29.912 58.983 C33.708 52.454 32.66 44.584 32.66 37.258 C32.662 35 32.68 32.743 32.699 30.485 C32.702 29.03 32.704 27.574 32.705 26.119 C32.709 24.811 32.713 23.502 32.717 22.153 C32.42 17.429 31.939 12.388 29.162 8.42 C21.526 3.33 12.169 4.109 3.381 4.11 C1.31 4.108 -0.761 4.09 -2.832 4.071 C-10.521 4.037 -18.074 4.213 -25.526 6.295 Z " fill="#000000" transform="translate(618.525634765625,312.704833984375)"/>
<path d="M0 0 C1.078 0.484 2.157 0.967 3.268 1.466 C11.128 5.053 18.823 8.919 26.438 13 C27.409 13.518 28.38 14.036 29.381 14.569 C37.567 19.061 46.277 24.26 51.438 32.25 C53.191 42.579 44.857 53.893 39.239 61.974 C28.476 76.904 28.476 76.904 21.438 79.25 C5.574 80.243 -10.333 68.812 -23.562 61.25 C-24.316 60.828 -25.069 60.405 -25.845 59.97 C-45.802 48.771 -45.802 48.771 -49.562 41.25 C-50.698 33.03 -48.23 26.984 -44.562 19.75 C-44.062 18.738 -43.562 17.727 -43.046 16.685 C-33.776 -1.609 -33.776 -1.609 -24.562 -4.75 C-15.797 -7.34 -7.931 -3.611 0 0 Z M-31.438 5 C-36.328 10.959 -39.331 18.309 -42.562 25.25 C-43.047 26.257 -43.532 27.264 -44.031 28.301 C-44.413 29.15 -44.794 30 -45.188 30.875 C-45.349 31.232 -45.349 31.232 -46.164 33.039 C-46.751 36.295 -45.907 38.26 -44.562 41.25 C-35.296 52.428 -20.394 58.903 -7.812 65.562 C-6.867 66.066 -5.921 66.57 -4.947 67.089 C13.2 76.542 13.2 76.542 21.438 75.25 C27.077 72.21 30.227 68.06 33.875 62.875 C34.44 62.079 35.006 61.282 35.589 60.462 C48.435 42.012 48.435 42.012 47.438 32.25 C45.124 29.722 43.236 28.139 40.438 26.25 C39.596 25.679 38.754 25.108 37.887 24.52 C23.889 15.528 8.83 7.79 -6.562 1.5 C-7.368 1.165 -8.174 0.83 -9.004 0.484 C-18.551 -3.264 -23.968 -2.145 -31.438 5 Z " fill="#000000" transform="translate(192.5625,372.75)"/>
<path d="M0 0 C1.32 0 2.64 0 4 0 C11.038 28.619 4.587 54.894 -10.312 79.75 C-15.77 88.056 -22.966 95.035 -30 102 C-30.637 102.634 -31.274 103.268 -31.93 103.922 C-43.293 114.601 -57.878 122.671 -73.254 125.305 C-85.622 127.457 -85.622 127.457 -89.188 132.312 C-89.658 133.098 -90.129 133.883 -90.613 134.691 C-95.767 143.271 -105.825 148.37 -115.188 150.812 C-130.04 153.845 -144.057 152.056 -157 144 C-166.573 136.958 -173.693 127.478 -177 116 C-177.268 114.044 -177.518 112.086 -177.75 110.125 C-178.528 105.484 -178.528 105.484 -180.441 103.523 C-182.603 102.341 -184.623 101.658 -187 101 C-188.024 100.706 -189.047 100.412 -190.102 100.109 C-216.02 93.433 -242.739 105.226 -266.733 114.217 C-267.962 114.676 -269.191 115.136 -270.457 115.609 C-271.55 116.022 -272.643 116.434 -273.769 116.858 C-280.147 119.112 -285.3 120.235 -292 120 C-292.33 118.68 -292.66 117.36 -293 116 C-292.632 115.964 -292.632 115.964 -290.771 115.782 C-281.556 114.647 -273.469 111.919 -264.83 108.634 C-260.874 107.133 -256.902 105.675 -252.93 104.219 C-252.155 103.934 -251.379 103.65 -250.581 103.357 C-229.761 95.776 -204.486 88.253 -182.879 97.027 C-181 98 -181 98 -180 99 C-179.792 98.056 -179.585 97.113 -179.371 96.141 C-175.759 80.702 -168.705 68.294 -155 59.625 C-141.883 52.272 -127.647 51.245 -113.168 54.965 C-99.638 59.386 -89.43 68.373 -83 81 C-77.144 94.132 -77.023 109.55 -82 123 C-53.249 116.078 -29.349 100.964 -13.247 75.531 C-9.258 68.997 -5.716 62.164 -3 55 C-2.859 54.652 -2.859 54.652 -2.146 52.893 C1.304 42.782 0.321 31.846 0.188 21.312 C0.172 19.243 0.159 17.173 0.146 15.104 C0.114 10.069 0.062 5.034 0 0 Z M-164.984 73.289 C-171.213 81.674 -176.037 92.315 -175 103 C-173.965 105.049 -172.789 106.572 -171.281 108.297 C-169.072 111.233 -168.688 114.437 -168 118 C-168.99 118 -169.98 118 -171 118 C-169.59 127.342 -162.406 134.707 -155.234 140.402 C-145.076 147.423 -133.088 149.247 -121 148 C-112.561 146.335 -105.779 143.244 -99 138 C-98.072 137.319 -97.144 136.639 -96.188 135.938 C-93.782 133.807 -91.86 131.618 -90 129 C-90 128.34 -90 127.68 -90 127 C-94.62 126.01 -99.24 125.02 -104 124 C-104 123.34 -104 122.68 -104 122 C-102.866 122.165 -101.731 122.33 -100.562 122.5 C-96.029 123.076 -91.563 123.095 -87 123 C-81.049 110.737 -80.888 98.938 -85 86 C-89.357 75.267 -97.401 65.953 -108 61 C-127.853 52.866 -150.634 56.736 -164.984 73.289 Z " fill="#000000" transform="translate(529,314)"/>
<path d="M0 0 C1.311 0.001 2.622 0.003 3.973 0.004 C7.465 0.009 10.956 0.033 14.448 0.062 C17.359 0.084 20.271 0.094 23.182 0.105 C40.293 0.171 57.388 0.405 74.488 1.039 C125.909 2.926 177.416 2.77 228.855 1.828 C247.599 1.486 266.34 1.199 285.087 1.151 C287.392 1.144 289.697 1.134 292.002 1.12 C332.027 0.894 332.027 0.894 345.23 10.516 C359.414 26.083 358.783 48.679 359.313 68.568 C359.333 69.294 359.353 70.021 359.374 70.769 C359.877 88.758 360.161 106.751 360.434 124.745 C360.507 129.472 360.582 134.2 360.657 138.927 C360.768 145.926 360.879 152.925 360.988 159.923 C361.329 181.776 361.684 203.628 362.039 225.48 C362.056 226.5 362.072 227.52 362.089 228.571 C363.15 293.777 363.15 293.777 363.793 325.453 C363.812 326.373 363.83 327.294 363.849 328.242 C364.283 349.661 364.854 371.073 365.582 392.484 C365.617 393.501 365.651 394.517 365.687 395.564 C365.963 403.683 366.239 411.801 366.521 419.919 C367.831 457.733 368.163 495.494 367.793 533.328 C385.057 524.974 385.057 524.974 392.105 519.703 C392.794 519.204 393.482 518.706 394.191 518.192 C396.402 516.584 398.599 514.959 400.793 513.328 C402.383 512.151 403.973 510.974 405.562 509.797 C406.363 509.204 407.163 508.611 407.988 508.001 C442.694 482.328 442.694 482.328 452.793 482.328 C452.683 466.341 452.57 450.354 452.455 434.367 C452.444 432.84 452.433 431.312 452.422 429.785 C452.417 429.023 452.411 428.26 452.405 427.475 C452.367 422.082 452.328 416.69 452.291 411.297 C451.865 350.818 451.865 350.818 451.434 321.301 C451.405 319.326 451.377 317.351 451.349 315.375 C451.234 307.381 451.113 299.386 450.966 291.392 C450.91 288.237 450.862 285.083 450.816 281.928 C450.793 280.511 450.767 279.095 450.736 277.678 C450.503 266.882 450.279 255.871 457.793 247.328 C468.568 237.767 483.018 237.212 496.736 237.123 C497.217 237.118 497.217 237.118 499.652 237.093 C502.862 237.061 506.071 237.036 509.281 237.012 C511.599 236.991 513.917 236.97 516.235 236.948 C523.858 236.88 531.482 236.822 539.105 236.766 C541.742 236.745 544.378 236.725 547.015 236.704 C566.941 236.552 586.867 236.431 606.793 236.328 C607.544 236.324 608.296 236.32 609.07 236.316 C628.888 236.214 648.706 236.137 668.525 236.101 C669.256 236.1 669.987 236.098 670.74 236.097 C671.469 236.096 672.197 236.094 672.948 236.093 C678.07 236.083 683.191 236.065 688.313 236.044 C695.239 236.016 702.165 236.005 709.092 236.004 C711.638 236.001 714.185 235.994 716.732 235.981 C720.227 235.963 723.722 235.965 727.218 235.972 C728.221 235.962 729.224 235.953 730.257 235.944 C740.999 236.007 751.633 237.897 759.793 245.328 C769.729 256.899 770.01 270.472 769.681 285.024 C769.633 287.601 769.585 290.177 769.538 292.753 C769.51 294.126 769.483 295.499 769.455 296.872 C769.307 304.228 769.186 311.583 769.066 318.939 C769.054 319.701 769.041 320.462 769.028 321.247 C768.76 337.729 768.661 354.21 768.619 370.695 C768.618 371.392 768.616 372.088 768.614 372.806 C768.593 380.753 768.577 388.699 768.563 396.645 C768.547 405.912 768.523 415.178 768.498 424.444 C768.49 427.656 768.481 430.868 768.473 434.08 C768.471 434.881 768.468 435.682 768.466 436.507 C768.443 445.469 768.421 454.431 768.4 463.393 C768.398 464.205 768.396 465.018 768.394 465.855 C768.363 479.174 768.337 492.494 768.311 505.813 C768.285 519.629 768.25 533.446 768.21 547.262 C768.185 555.719 768.166 564.175 768.156 572.631 C768.149 578.39 768.134 584.148 768.114 589.906 C768.103 593.217 768.096 596.528 768.095 599.84 C768.094 603.434 768.081 607.029 768.065 610.623 C768.067 611.656 768.07 612.688 768.073 613.752 C767.992 625.291 766.838 635.115 758.543 643.641 C747.562 650.379 733.277 650.49 720.719 650.41 C719.892 650.407 719.065 650.405 718.213 650.402 C711.846 650.367 705.488 650.193 699.125 649.972 C677.811 649.236 656.491 649.203 635.168 649.203 C634.347 649.203 633.526 649.203 632.681 649.203 C609.692 649.208 586.715 649.4 563.73 649.828 C545.68 650.163 527.632 650.457 509.577 650.505 C507.384 650.512 505.19 650.522 502.996 650.536 C471.107 650.726 471.107 650.726 462.078 642.828 C454.733 635.07 454.314 625.712 454.125 615.495 C454.092 614.269 454.06 613.044 454.026 611.781 C453.93 607.963 453.857 604.146 453.793 600.328 C453.783 599.75 453.783 599.75 453.732 596.826 C453.601 588.77 453.534 580.714 453.477 572.656 C453.456 570.14 453.435 567.624 453.414 565.109 C453.359 558.592 453.309 552.076 453.261 545.559 C453.21 538.868 453.155 532.176 453.1 525.484 C452.993 512.432 452.891 499.38 452.793 486.328 C449.802 487.695 446.818 489.078 443.836 490.465 C443.003 490.845 442.169 491.226 441.31 491.618 C432.359 495.799 424.639 501.38 416.793 507.328 C415.43 508.356 414.067 509.383 412.703 510.41 C410.693 511.926 408.684 513.441 406.676 514.959 C381.016 534.254 381.016 534.254 368.793 538.328 C368.753 539.037 368.714 539.746 368.673 540.477 C367.402 562.136 365.907 584.634 348.793 600.328 C322.248 622.387 279.157 618.397 246.762 618.883 C245.404 618.904 244.046 618.925 242.689 618.946 C209.641 619.455 176.594 619.481 143.544 619.457 C137.865 619.453 132.186 619.454 126.507 619.458 C77.461 619.493 28.642 618.708 -20.344 616.117 C-24.482 615.899 -28.62 615.689 -32.759 615.478 C-60.266 614.074 -87.739 612.351 -115.207 610.328 C-115.207 609.008 -115.207 607.688 -115.207 606.328 C-105.489 606.108 -95.866 606.715 -86.179 607.378 C-83.271 607.577 -80.364 607.769 -77.456 607.96 C-69.191 608.502 -60.926 609.051 -52.663 609.614 C10.386 613.891 73.246 614.635 136.411 614.529 C144.722 614.515 153.032 614.513 161.342 614.514 C171.532 614.514 181.723 614.507 191.913 614.498 C194.75 614.496 197.586 614.495 200.423 614.495 C220.984 614.489 241.535 614.318 262.092 613.868 C263.036 613.848 263.98 613.828 264.953 613.807 C326.356 612.469 326.356 612.469 344.27 597.465 C345.793 596.328 345.793 596.328 347.793 596.328 C347.929 596.039 347.929 596.039 348.617 594.574 C349.787 592.339 351.123 590.428 352.605 588.391 C362.342 573.846 363.024 557.232 363.793 540.328 C363.25 540.503 363.25 540.503 360.504 541.387 C359.059 541.847 357.613 542.306 356.168 542.766 C355.455 542.996 354.742 543.226 354.008 543.463 C347.752 545.443 342.015 546.464 335.418 546.391 C334.358 546.382 333.299 546.373 332.207 546.363 C331.41 546.352 330.614 546.34 329.793 546.328 C330.123 545.008 330.453 543.688 330.793 542.328 C331.835 542.242 332.876 542.155 333.949 542.066 C335.397 541.925 336.845 541.783 338.293 541.641 C338.97 541.587 339.646 541.534 340.344 541.479 C348.464 540.637 356.081 537.88 363.793 535.328 C363.925 516.176 363.778 497.035 363.406 477.887 C363.385 476.78 363.364 475.672 363.342 474.532 C362.99 456.425 362.496 438.324 361.926 420.223 C361.906 419.593 361.906 419.593 361.806 416.405 C361.661 411.809 361.516 407.214 361.371 402.619 C359.524 344.053 358.166 285.486 357.152 226.899 C357.106 224.237 357.06 221.574 357.013 218.911 C356.805 207.006 356.603 195.101 356.406 183.195 C356.393 182.374 356.379 181.554 356.365 180.708 C356.053 161.914 355.779 143.12 355.588 124.324 C355.56 121.604 355.531 118.885 355.502 116.166 C355.483 114.377 355.464 112.589 355.444 110.8 C355.435 109.923 355.425 109.046 355.416 108.142 C355.371 103.876 355.329 99.61 355.296 95.344 C354.772 27.953 354.772 27.953 341.668 14.078 C327.156 5.245 310.001 6.042 293.652 6.117 C291.536 6.119 289.42 6.12 287.304 6.121 C282.763 6.124 278.222 6.133 273.68 6.147 C266.45 6.17 259.22 6.178 251.99 6.184 C240.502 6.195 229.014 6.216 217.526 6.241 C197.092 6.285 176.658 6.319 156.224 6.341 C149.088 6.349 141.953 6.363 134.818 6.382 C108.219 6.447 81.654 6.2 55.064 5.5 C42.598 5.183 30.129 5.106 17.659 5.088 C14.238 5.08 10.819 5.058 7.399 5.03 C4.027 5.007 0.656 5.005 -2.715 5 C-3.917 4.988 -5.119 4.975 -6.357 4.963 C-16.363 4.989 -25.07 6.277 -33.207 12.328 C-33.867 12.328 -34.527 12.328 -35.207 12.328 C-38.067 19.149 -40.237 26.206 -42.207 33.328 C-42.867 33.328 -43.527 33.328 -44.207 33.328 C-46.112 27.612 -44.476 21.158 -42.051 15.75 C-37.966 9.079 -32.703 4.656 -25.156 2.427 C-16.664 0.558 -8.681 -0.087 0 0 Z M683.3 239.368 C674.356 239.4 665.412 239.447 656.467 239.497 C653.816 239.512 651.164 239.527 648.512 239.541 C640.116 239.588 631.72 239.635 623.324 239.684 C613.813 239.739 604.302 239.791 594.791 239.84 C587.308 239.879 579.826 239.921 572.343 239.965 C567.932 239.991 563.521 240.016 559.11 240.037 C547.67 240.094 536.232 240.189 524.793 240.328 C523.902 240.338 523.012 240.349 522.094 240.359 C516.526 240.425 510.958 240.508 505.39 240.613 C503.631 240.644 501.871 240.671 500.111 240.692 C470.921 241.068 470.921 241.068 460.273 250.703 C454.263 257.077 454.509 265.394 454.642 273.598 C454.65 274.597 454.658 275.595 454.666 276.623 C454.694 279.914 454.737 283.205 454.781 286.496 C454.805 288.814 454.828 291.132 454.85 293.45 C454.898 298.318 454.954 303.186 455.014 308.054 C455.091 314.206 455.156 320.358 455.216 326.51 C455.456 350.792 455.698 375.067 456.793 399.328 C485.667 399.57 514.525 399.439 543.395 398.883 C544.527 398.861 545.66 398.839 546.827 398.817 C552.728 398.703 558.628 398.587 564.528 398.471 C607.496 397.625 650.442 397.142 693.418 397.203 C694.023 397.204 694.023 397.204 697.084 397.208 C711.654 397.231 726.223 397.27 740.793 397.328 C741.123 398.318 741.453 399.308 741.793 400.328 C741.193 400.325 740.593 400.323 739.975 400.32 C719.893 400.229 699.812 400.173 679.73 400.141 C678.948 400.139 678.165 400.138 677.359 400.137 C624.695 400.051 572.068 400.637 519.418 401.828 C519.021 401.837 519.021 401.837 517.012 401.882 C511.491 402.007 505.97 402.133 500.449 402.261 C499.758 402.277 499.066 402.293 498.354 402.309 C484.5 402.631 470.647 402.982 456.793 403.328 C456.793 429.068 456.793 454.808 456.793 481.328 C457.783 481.328 458.773 481.328 459.793 481.328 C459.793 482.648 459.793 483.968 459.793 485.328 C458.803 485.328 457.813 485.328 456.793 485.328 C456.728 510.637 456.871 535.939 457.165 561.246 C457.221 566.049 457.271 570.852 457.32 575.655 C457.359 579.445 457.402 583.236 457.446 587.026 C457.466 588.797 457.485 590.568 457.502 592.338 C457.593 601.459 457.782 610.569 458.203 619.681 C458.235 620.462 458.267 621.243 458.3 622.048 C458.671 629.269 460.013 635.398 465.105 640.766 C471.34 644.391 477.181 646.45 484.388 646.457 C485.286 646.46 486.184 646.463 487.109 646.467 C488.086 646.465 489.063 646.463 490.07 646.462 C491.115 646.464 492.161 646.466 493.238 646.469 C496.746 646.475 500.254 646.474 503.762 646.473 C506.275 646.476 508.788 646.48 511.302 646.484 C517.425 646.491 523.547 646.495 529.67 646.495 C534.65 646.496 539.631 646.498 544.611 646.501 C558.742 646.51 572.874 646.514 587.005 646.514 C587.767 646.514 588.528 646.513 589.313 646.513 C590.076 646.513 590.838 646.513 591.624 646.513 C603.97 646.513 616.316 646.522 628.662 646.537 C641.35 646.551 654.038 646.558 666.726 646.557 C673.844 646.557 680.963 646.559 688.082 646.57 C694.782 646.58 701.482 646.58 708.182 646.573 C710.636 646.572 713.09 646.574 715.544 646.58 C718.905 646.588 722.266 646.583 725.627 646.575 C726.108 646.578 726.108 646.578 728.541 646.591 C739.645 646.535 749.899 645.711 758.32 637.914 C763.138 632.691 764.018 626.552 764.193 619.68 C764.212 619.026 764.23 618.373 764.249 617.699 C764.308 615.451 764.351 613.203 764.394 610.954 C764.403 610.546 764.403 610.546 764.449 608.477 C765.106 578.823 765.063 549.15 765.162 519.49 C765.18 514.268 765.199 509.045 765.218 503.823 C765.282 486.507 765.341 469.191 765.397 451.875 C765.398 451.412 765.398 451.412 765.406 449.071 C765.407 448.608 765.407 448.608 765.414 446.264 C765.463 431.167 765.521 416.071 765.583 400.974 C765.647 385.395 765.704 369.815 765.753 354.235 C765.78 345.519 765.811 336.802 765.85 328.086 C765.883 320.691 765.909 313.295 765.926 305.9 C765.934 302.134 765.947 298.367 765.967 294.601 C765.99 290.514 765.997 286.427 766.002 282.341 C766.011 281.159 766.02 279.978 766.03 278.76 C766.019 268.348 765.329 257.455 758.035 249.383 C745.896 238.005 728.508 239.022 712.851 239.192 C711.227 239.201 709.604 239.21 707.981 239.218 C704.602 239.236 701.224 239.26 697.845 239.288 C692.997 239.328 688.149 239.351 683.3 239.368 Z " fill="#000000" transform="translate(604.20703125,137.671875)"/>
<path d="M0 0 C0.99 0.33 1.98 0.66 3 1 C3.816 3.316 3.816 3.316 4.562 6.562 C6.481 13.796 9.124 20.594 12 27.5 C12.427 28.538 12.855 29.577 13.295 30.647 C18.131 42.131 18.131 42.131 22 46 C30.349 46.922 37.331 45.05 45.125 42.25 C45.635 42.076 45.635 42.076 48.215 41.195 C53.664 39.307 58.943 37.231 64.15 34.75 C66.499 33.798 68.495 33.677 71 34 C70.058 36.318 69.435 37.718 67.306 39.099 C66.615 39.381 65.923 39.663 65.211 39.953 C64.405 40.282 63.599 40.612 62.769 40.951 C57.417 42.979 52.043 44.906 46.625 46.75 C45.47 47.161 44.315 47.572 43.125 47.996 C34.836 50.812 26.847 53.223 18.551 49.418 C15.641 46.659 13.866 43.898 12.188 40.312 C11.862 39.64 11.537 38.967 11.201 38.274 C8.086 31.606 5.523 24.723 3 17.812 C2.602 16.726 2.204 15.639 1.794 14.519 C1.611 14.003 1.611 14.003 0.688 11.395 C0.361 10.475 0.035 9.556 -0.301 8.609 C-1.018 5.934 -1.208 3.756 -1 1 C-0.67 0.67 -0.34 0.34 0 0 Z " fill="#000000" transform="translate(167,375)"/>
<path d="M0 0 C1.65 0.33 3.3 0.66 5 1 C4.688 2.938 4.688 2.938 4 5 C3.01 5.33 2.02 5.66 1 6 C0.34 5.67 -0.32 5.34 -1 5 C-0.67 3.35 -0.34 1.7 0 0 Z " fill="#000000" transform="translate(383,393)"/>
<path d="M0 0 C12.848 10.129 22.544 23.407 25 40 C26.064 58.494 22.125 74.316 10.047 88.879 C0.082 99.205 -12.533 105.972 -26.98 106.607 C-37.987 106.692 -47.167 104.675 -55.344 96.867 C-60.284 91.298 -62.359 85.704 -62.207 78.273 C-61.441 69.866 -58.405 63.532 -52 58 C-44.228 52.731 -37.366 51.086 -28 52 C-20.227 54.228 -14.24 58.52 -10.188 65.562 C-7.575 70.44 -6.872 74.219 -6.938 79.75 C-6.947 80.735 -6.956 81.72 -6.965 82.734 C-6.976 83.482 -6.988 84.23 -7 85 C-7.99 85 -8.98 85 -10 85 C-10.159 84.082 -10.317 83.164 -10.48 82.219 C-12.156 73.405 -13.925 66.871 -20.5 60.625 C-26.524 56.71 -31.968 56.34 -39 57 C-41.891 57.744 -44.258 58.749 -47 60 C-47.784 60.309 -48.568 60.619 -49.375 60.938 C-51.493 62.323 -51.929 63.72 -53 66 C-53.353 66.674 -53.706 67.348 -54.07 68.043 C-57.175 74.356 -58.198 79.485 -56.375 86.355 C-53.695 93.497 -48.966 97.149 -42.188 100.312 C-27.26 103.532 -14.976 100.956 -2 93 C9.489 84.677 16.113 73.333 19.582 59.715 C22.266 42.28 18.032 27.6 7.812 13.375 C-0.147 3.507 -12.636 -2.745 -25 -5 C-42.538 -6.753 -57.406 -2.97 -71.188 8.25 C-80.718 17.05 -87.427 29.783 -88.238 42.836 C-88.67 60.325 -84.401 73.5 -73 87 C-71.181 88.604 -69.305 90.082 -67.391 91.57 C-66 93 -66 93 -66 96 C-72.291 95.165 -75.065 91.736 -79 87 C-90.436 71.717 -95.078 55.879 -92.574 36.746 C-89.053 20.521 -78.703 7.081 -65 -2 C-45.085 -14.06 -19.189 -13.251 0 0 Z " fill="#000000" transform="translate(1243,411)"/>
<path d="M0 0 C7.808 8.675 5.507 26.997 5 38 C4.047 52.656 4.047 52.656 -1 58 C-4.779 60.525 -9.091 60.7 -13.5 61.125 C-14.355 61.208 -15.21 61.29 -16.091 61.376 C-23.971 62.052 -31.844 62.249 -39.75 62.312 C-40.345 62.321 -40.345 62.321 -43.354 62.366 C-50.918 62.36 -57.292 62.025 -63.375 57.062 C-69.556 49.218 -68.215 38.319 -68.24 28.792 C-68.25 26.571 -68.281 24.351 -68.312 22.131 C-68.37 14.61 -68.233 7.945 -65 1 C-52.248 -10.213 -12.633 -10.738 0 0 Z M-61 3 C-63.635 8.079 -64.448 12.288 -64.398 18.023 C-64.401 18.769 -64.404 19.515 -64.407 20.283 C-64.409 21.851 -64.404 23.419 -64.391 24.987 C-64.375 27.362 -64.391 29.735 -64.41 32.109 C-64.421 39.866 -64.265 46.816 -61 54 C-55.915 59.085 -49.449 58.162 -42.738 58.186 C-42.369 58.186 -42.369 58.186 -40.499 58.185 C-38.3 58.187 -36.101 58.206 -33.902 58.225 C-9.596 58.329 -9.596 58.329 -3.16 54.161 C2.424 48.575 1.259 39.32 1.273 31.936 C1.27 31.276 1.27 31.276 1.25 27.938 C1.257 26.601 1.265 25.264 1.273 23.928 C1.242 8.327 1.242 8.327 -2.938 2.125 C-10.026 -2.794 -19.824 -2.332 -28.188 -2.25 C-28.684 -2.247 -28.684 -2.247 -31.197 -2.232 C-55.045 -1.914 -55.045 -1.914 -61 3 Z " fill="#000000" transform="translate(758,409)"/>
<path d="M0 0 C1.159 -0.012 2.318 -0.024 3.512 -0.037 C21.882 -0.068 21.882 -0.068 28.5 5.188 C33.585 10.696 33.657 15.079 33.668 22.355 C33.67 22.753 33.67 22.753 33.678 24.762 C33.683 26.443 33.685 28.123 33.685 29.803 C33.687 32.349 33.706 34.894 33.725 37.439 C33.728 39.078 33.73 40.717 33.73 42.355 C33.738 43.106 33.745 43.856 33.752 44.629 C33.724 51.2 33.319 57.745 29.312 63.125 C19.522 70.305 3.884 68.391 -7.625 68.438 C-8.918 68.458 -10.211 68.479 -11.543 68.5 C-28.742 68.57 -28.742 68.57 -35 62.938 C-42.326 49.506 -41.566 26.409 -37.941 11.961 C-36.388 7.835 -34.218 5.469 -30.5 3.188 C-20.846 -0.409 -10.159 0.006 0 0 Z M-32.5 9.188 C-36.643 16.437 -35.683 26.425 -35.688 34.5 C-35.7 35.564 -35.712 36.628 -35.725 37.725 C-35.754 53.852 -35.754 53.852 -32.364 60.372 C-27.948 64.672 -21.663 64.443 -15.836 64.453 C-15.122 64.455 -14.408 64.457 -13.673 64.459 C-12.168 64.46 -10.664 64.457 -9.16 64.448 C-6.902 64.438 -4.645 64.448 -2.387 64.461 C21.701 64.487 21.701 64.487 26.75 59.812 C29.971 54.981 29.674 50.143 29.703 44.477 C29.709 43.631 29.715 42.785 29.72 41.914 C29.73 40.127 29.736 38.34 29.74 36.553 C29.75 33.829 29.781 31.106 29.812 28.383 C29.819 26.643 29.824 24.904 29.828 23.164 C29.834 22.759 29.834 22.759 29.866 20.711 C29.846 15.806 29.246 12.422 26.5 8.188 C18.892 3.285 10.122 4.001 1.407 4.002 C-0.664 4 -2.735 3.982 -4.807 3.963 C-26.396 3.871 -26.396 3.871 -32.5 9.188 Z " fill="#000000" transform="translate(837.5,402.8125)"/>
<path d="M0 0 C0.761 0.026 1.523 0.052 2.307 0.079 C8.915 0.451 14.612 1.798 19.625 6.375 C24.808 14.606 24.056 24.224 24 33.625 C24.004 34.274 24.004 34.274 24.023 37.559 C23.985 56.791 23.985 56.791 19.438 62.812 C9.705 69.829 -4.58 67.987 -16.097 68.045 C-17.706 68.057 -19.316 68.077 -20.925 68.107 C-37.986 68.416 -37.986 68.416 -44.25 63.75 C-50.88 55.762 -49.44 40.746 -49.5 30.875 C-49.509 29.925 -49.519 28.975 -49.528 27.997 C-49.495 20.633 -49.319 13.216 -45.469 6.766 C-34.726 -2.994 -13.429 -0.546 0 0 Z M-20.918 3.84 C-28.092 4.161 -36.168 4.552 -42.25 8.75 C-44.813 13.727 -45.627 17.408 -45.613 23.082 C-45.614 23.759 -45.614 24.435 -45.615 25.132 C-45.612 26.555 -45.603 27.978 -45.586 29.401 C-45.563 31.547 -45.566 33.692 -45.572 35.838 C-45.536 54.137 -45.536 54.137 -41.312 60.812 C-37.382 64.505 -32.93 63.911 -27.848 63.918 C-27.431 63.92 -27.431 63.92 -25.324 63.928 C-23.556 63.933 -21.788 63.935 -20.02 63.935 C-17.354 63.937 -14.688 63.956 -12.021 63.975 C11.333 64.056 11.333 64.056 16.433 60.614 C19.927 55.668 20.05 49.761 20.016 43.91 C20.018 43.184 20.019 42.459 20.021 41.711 C20.023 40.186 20.019 38.66 20.011 37.135 C20 34.822 20.011 32.51 20.023 30.197 C20.022 28.706 20.02 27.214 20.016 25.723 C20.02 25.042 20.024 24.362 20.028 23.661 C19.972 17.821 19.596 11.787 15.555 7.328 C5.446 1.64 -9.811 3.568 -20.918 3.84 Z " fill="#000000" transform="translate(631.25,403.25)"/>
<path d="M0 0 C0.99 0.33 1.98 0.66 3 1 C3 10.57 3 20.14 3 30 C1.68 30.33 0.36 30.66 -1 31 C-1.025 26.746 -1.043 22.492 -1.055 18.238 C-1.06 16.789 -1.067 15.341 -1.075 13.893 C-1.088 11.815 -1.093 9.738 -1.098 7.66 C-1.1 7.034 -1.1 7.034 -1.114 3.867 C-1 1 -1 1 0 0 Z " fill="#000000" transform="translate(384,405)"/>
<path d="M0 0 C0.577 0.371 1.155 0.743 1.75 1.125 C2.493 1.414 3.235 1.702 4 2 C5.338 1.342 6.671 0.674 8 0 C11.751 -0.648 15.399 -0.819 18.848 0.945 C22.2 3.564 23.852 5.98 25 10 C25.234 13.442 25.188 16.865 25.125 20.312 C25.116 21.244 25.107 22.175 25.098 23.135 C25.074 25.423 25.041 27.712 25 30 C23.68 30 22.36 30 21 30 C20.963 28.686 20.925 27.373 20.887 26.02 C20.821 24.284 20.755 22.548 20.688 20.812 C20.665 19.948 20.642 19.084 20.619 18.193 C20.416 13.377 20.157 9.89 17 6 C14.111 4.556 12.204 4.623 9 5 C6.082 7.07 4.279 8.707 3.506 12.286 C3.284 14.971 3.205 17.619 3.188 20.312 C3.162 21.244 3.137 22.175 3.111 23.135 C3.053 25.424 3.016 27.711 3 30 C1.68 30.33 0.36 30.66 -1 31 C-1.025 26.746 -1.043 22.492 -1.055 18.238 C-1.06 16.789 -1.067 15.341 -1.075 13.893 C-1.088 11.815 -1.093 9.738 -1.098 7.66 C-1.1 7.034 -1.1 7.034 -1.114 3.867 C-1 1 -1 1 0 0 Z " fill="#000000" transform="translate(396,405)"/>
<path d="M0 0 C4.76 2.628 7.046 6.263 8.75 11.375 C9.314 17.065 9.078 21.544 5.75 26.375 C1.351 30.805 -2.137 33.492 -8.562 33.625 C-14.307 33.541 -17.706 31.744 -22 27.938 C-26.233 23.117 -26.702 19.442 -26.559 13.133 C-26.075 8.813 -24.976 6.8 -22.25 3.375 C-15.475 -1.66 -7.826 -3.525 0 0 Z M-21.125 8.562 C-23.096 13.489 -23.096 18.261 -21.125 23.188 C-18.24 26.553 -15.558 28.965 -11.07 29.762 C-5.676 30.025 -2.406 29.036 1.75 25.375 C4.912 21.686 5.274 18.296 5.102 13.59 C4.384 9.072 1.933 6.389 -1.438 3.5 C-9.265 0.369 -15.633 2.155 -21.125 8.562 Z " fill="#000000" transform="translate(1218.25,422.625)"/>
<path d="M0 0 C0 9.24 0 18.48 0 28 C-0.99 28 -1.98 28 -3 28 C-3 20.74 -3 13.48 -3 6 C-5.31 7.32 -7.62 8.64 -10 10 C-10.99 9.67 -11.98 9.34 -13 9 C-11.799 5.396 -10.739 4.853 -7.625 2.812 C-6.834 2.283 -6.042 1.753 -5.227 1.207 C-3 0 -3 0 0 0 Z " fill="#000000" transform="translate(315,489)"/>
<path d="M0 0 C8.481 11.406 5.749 33.822 4.312 47.125 C4.185 48.324 4.057 49.523 3.926 50.758 C2.623 55.321 0.153 57.762 -3.93 60.109 C-15.098 63.787 -27.309 63.097 -38.938 63.188 C-40.004 63.201 -41.07 63.214 -42.168 63.227 C-49.223 63.234 -55.613 63.032 -61.812 59.312 C-67.61 53.184 -68.154 45.381 -68.203 37.355 C-68.209 36.627 -68.215 35.898 -68.22 35.148 C-68.23 33.61 -68.236 32.073 -68.24 30.536 C-68.25 28.205 -68.281 25.875 -68.312 23.545 C-68.319 22.044 -68.324 20.544 -68.328 19.043 C-68.34 18.356 -68.353 17.67 -68.366 16.962 C-68.34 11.317 -67.287 5.44 -63.309 1.195 C-48.644 -7.193 -14.307 -10.165 0 0 Z M-60 4 C-66.207 10.838 -65.338 22.649 -65.191 31.367 C-64.234 49.534 -64.234 49.534 -60 56 C-55.354 58.935 -51.33 59.432 -45.961 59.363 C-45.199 59.364 -44.437 59.364 -43.652 59.365 C-42.043 59.362 -40.434 59.353 -38.826 59.336 C-36.403 59.313 -33.981 59.316 -31.559 59.322 C-10.569 59.284 -10.569 59.284 -2.875 55.438 C2.516 48.429 1.301 37.868 1.25 29.5 C1.258 28.233 1.265 26.966 1.273 25.66 C1.239 9.189 1.239 9.189 -3.062 3.062 C-10.22 -1.963 -19.328 -1.32 -27.75 -1.25 C-28.901 -1.244 -30.053 -1.238 -31.239 -1.232 C-52.72 -0.981 -52.72 -0.981 -60 4 Z " fill="#000000" transform="translate(868,498)"/>
<path d="M0 0 C0.721 -0.006 1.442 -0.011 2.185 -0.017 C3.702 -0.027 5.219 -0.033 6.736 -0.037 C9.027 -0.047 11.317 -0.078 13.607 -0.109 C31.484 -0.238 31.484 -0.238 38.73 5.016 C46.738 16.694 44.365 38.988 42.48 52.266 C41.54 56.669 40.488 59.945 37.23 63.203 C27.152 68.701 13.645 67.304 2.543 67.391 C1.486 67.404 0.429 67.417 -0.66 67.43 C-18.587 67.449 -18.587 67.449 -24.77 62.203 C-33.073 48.265 -31.268 25.536 -27.77 10.203 C-25.93 6.055 -23.007 4.104 -18.895 2.391 C-12.806 0.289 -6.387 0.04 0 0 Z M-8.02 3.953 C-8.726 4.027 -9.433 4.101 -10.161 4.177 C-15.485 4.871 -20.136 6.175 -23.582 10.453 C-28.785 22.503 -27.702 43.821 -23.77 56.203 C-21.728 59.983 -20.648 60.898 -16.606 62.304 C-12.625 63.237 -9.155 63.462 -5.07 63.469 C-4.354 63.471 -3.638 63.473 -2.9 63.475 C-1.391 63.476 0.117 63.472 1.626 63.464 C3.895 63.453 6.163 63.464 8.432 63.477 C30.362 63.504 30.362 63.504 35.476 59.401 C40.831 52.691 39.535 41.811 39.48 33.703 C39.488 32.544 39.496 31.385 39.504 30.191 C39.466 13.286 39.466 13.286 35.418 7.703 C29.358 3.547 23.156 3.695 16.043 3.453 C14.886 3.412 13.73 3.371 12.538 3.329 C5.635 3.143 -1.152 3.211 -8.02 3.953 Z " fill="#000000" transform="translate(612.76953125,494.796875)"/>
<path d="M0 0 C2.431 0.003 4.861 -0.02 7.292 -0.046 C8.861 -0.048 10.431 -0.049 12 -0.048 C12.714 -0.057 13.429 -0.066 14.166 -0.076 C20.3 -0.02 25.705 1.332 30.679 5.128 C36.828 13.405 35.486 26.015 35.492 35.816 C35.504 36.987 35.516 38.159 35.529 39.366 C35.559 57.455 35.559 57.455 30.054 63.101 C17.79 71.614 -7.526 69.35 -21.696 67.316 C-25.811 66.407 -28.815 65.101 -32.008 62.253 C-36.84 53.842 -37.357 44.843 -37.696 35.316 C-37.737 34.291 -37.778 33.266 -37.821 32.21 C-38.242 12.303 -38.242 12.303 -31.696 5.316 C-22.346 -0.695 -10.693 -0.029 0 0 Z M-14.196 4.066 C-14.925 4.127 -15.654 4.189 -16.406 4.252 C-21.704 4.837 -26.215 6.374 -30.696 9.316 C-36.971 18.865 -34.061 36.41 -32.946 47.378 C-32.884 48.08 -32.823 48.782 -32.759 49.505 C-32.196 54.376 -30.745 57.5 -27.696 61.316 C-15.25 68.38 9.985 65.957 23.304 62.316 C26.991 60.834 28.122 59.638 30.093 56.152 C32.071 50.046 31.75 43.513 31.695 37.162 C31.679 34.952 31.695 32.744 31.714 30.534 C31.742 14.621 31.742 14.621 28.304 8.316 C18.36 -0.464 -1.715 2.871 -14.196 4.066 Z " fill="#000000" transform="translate(727.69580078125,494.684326171875)"/>
<path d="M0 0 C5.277 3.611 7.491 7.155 9.875 13 C10.039 13.387 10.039 13.387 10.867 15.347 C11.93 17.891 12.965 20.445 14 23 C14.381 23.912 14.762 24.823 15.154 25.763 C16.312 28.542 17.442 31.331 18.562 34.125 C18.921 34.989 19.28 35.852 19.65 36.742 C21.823 42.327 22.785 46.18 21 52 C15.151 58.823 6.246 62.102 -1.75 65.875 C-3.242 66.586 -4.733 67.297 -6.225 68.008 C-9.835 69.723 -13.454 71.42 -17.078 73.106 C-18.799 73.906 -20.517 74.711 -22.236 75.517 C-24.792 76.704 -27.359 77.861 -29.938 79 C-30.631 79.32 -31.325 79.639 -32.04 79.968 C-37.255 82.184 -42.379 83.096 -48 82 C-54.46 78.765 -57.4 72.316 -60.5 66.125 C-67.308 52.649 -74.175 45.789 -88.594 40.742 C-121.065 30.799 -155.453 43.918 -184 59 C-184.882 59.546 -185.765 60.091 -186.674 60.653 C-189 62 -189 62 -191 62 C-191.206 63.258 -191.412 64.516 -191.625 65.812 C-194.457 78.189 -202.615 87.895 -213 94.938 C-224.42 101.277 -237.919 101.651 -250.609 99.344 C-262.594 95.742 -273.039 87.511 -279.25 76.688 C-285.16 65.026 -287.281 52.48 -283.875 39.625 C-279.166 26.611 -270.622 17.116 -258.159 11.187 C-246.014 5.733 -233.532 5.377 -221 10 C-207.877 15.171 -199.385 23.316 -193.406 36.105 C-190.783 42.773 -189.899 49.931 -189 57 C-188.498 56.728 -187.995 56.457 -187.478 56.177 C-156.739 39.62 -121.795 25.751 -86.441 36.035 C-79.81 38.419 -74.175 41.191 -69 46 C-68.358 46.589 -67.716 47.178 -67.055 47.785 C-61.779 53.154 -58.494 59.262 -55.233 65.972 C-52.6 71.296 -50.092 75.836 -44.25 78.035 C-39.607 77.985 -36.179 76.357 -32 74.438 C-31.114 74.043 -30.227 73.649 -29.314 73.243 C-26.2 71.849 -23.1 70.426 -20 69 C-18.728 68.42 -17.456 67.839 -16.184 67.26 C-12.138 65.414 -8.099 63.553 -4.062 61.688 C-3.407 61.386 -2.752 61.084 -2.077 60.773 C-0.185 59.9 1.703 59.019 3.59 58.137 C4.682 57.628 5.773 57.12 6.898 56.596 C15.386 52.228 15.386 52.228 17 49 C17.474 43.88 16.086 39.988 14.078 35.371 C13.777 34.659 13.476 33.947 13.165 33.213 C12.528 31.714 11.886 30.217 11.238 28.723 C10.254 26.447 9.29 24.163 8.328 21.877 C7.704 20.416 7.079 18.956 6.453 17.496 C6.168 16.819 5.882 16.142 5.588 15.444 C3.854 11.475 1.994 8.148 -1 5 C-8.027 3.435 -13.914 7.513 -20 10.688 C-21.135 11.267 -22.271 11.847 -23.441 12.445 C-34.809 18.306 -45.931 24.596 -57 31 C-59.332 32.336 -61.666 33.668 -64 35 C-64 36.32 -64 37.64 -64 39 C-56.274 42.281 -48.415 44.854 -40.375 47.25 C-39.199 47.614 -38.024 47.977 -36.812 48.352 C-25.299 51.793 -25.299 51.793 -19 51 C-15.217 48.497 -14.554 44.059 -13.371 39.938 C-13.136 39.15 -12.901 38.362 -12.658 37.551 C-11.909 35.036 -11.172 32.519 -10.438 30 C-9.697 27.482 -8.955 24.965 -8.206 22.449 C-7.741 20.885 -7.281 19.319 -6.827 17.752 C-5.848 14.446 -4.928 11.891 -3 9 C-2.01 9.33 -1.02 9.66 0 10 C-2.053 18.542 -4.381 26.97 -6.938 35.375 C-7.272 36.511 -7.607 37.646 -7.951 38.816 C-11.952 51.968 -11.952 51.968 -18 56 C-24.101 56.851 -29.749 55.574 -35.543 53.77 C-36.315 53.537 -37.087 53.305 -37.883 53.066 C-39.5 52.575 -41.116 52.078 -42.73 51.575 C-45.186 50.813 -47.65 50.08 -50.115 49.35 C-51.696 48.866 -53.276 48.381 -54.855 47.895 C-55.584 47.68 -56.312 47.465 -57.062 47.244 C-62.018 45.668 -65.284 43.671 -69 40 C-69.75 37 -69.75 37 -69 34 C-65.184 30.464 -61.317 27.865 -56.738 25.363 C-56.154 25.042 -55.57 24.721 -54.968 24.39 C-53.086 23.357 -51.2 22.334 -49.312 21.312 C-48.007 20.6 -46.702 19.888 -45.398 19.175 C-42.189 17.425 -38.975 15.684 -35.758 13.949 C-34.144 13.078 -32.53 12.204 -30.917 11.331 C-28.345 9.942 -25.768 8.562 -23.188 7.188 C-22.462 6.798 -21.736 6.408 -20.988 6.007 C-7.47 -1.107 -7.47 -1.107 0 0 Z M-272 26 C-277.966 34.261 -281.586 42.518 -281.5 52.75 C-281.495 53.535 -281.49 54.32 -281.485 55.129 C-281.275 62.206 -279.493 67.82 -276 74 C-275.566 74.808 -275.131 75.616 -274.684 76.449 C-268.849 86.24 -259.509 92.425 -248.754 95.68 C-237.65 98.489 -226.531 97.091 -216.312 91.812 C-205.808 85.354 -200.824 78.044 -196 67 C-196.777 67.317 -197.555 67.634 -198.355 67.961 C-200.575 68.833 -202.678 69.484 -205 70 C-203.782 66.346 -202.703 65.919 -199.5 63.938 C-195.101 61.202 -195.101 61.202 -194 59 C-192.826 47.468 -196.372 36.407 -203 27 C-211.812 17.362 -222.172 11.876 -235.242 10.711 C-249.454 10.343 -262.293 15.433 -272 26 Z " fill="#000000" transform="translate(443,501)"/>
<path d="M0 0 C4.769 4.103 8.329 7.809 8.996 14.324 C9.485 28.264 5.091 42.642 -4.312 53.312 C-6.324 54.262 -6.324 54.262 -8.312 54.312 C-17.47 48.742 -26.399 33.278 -29.312 23.312 C-30.139 16.86 -30.306 10.723 -26.312 5.312 C-18.829 -2.511 -9.999 -5.094 0 0 Z M-23.75 7.875 C-26.647 14.247 -26.162 20.705 -23.875 27.25 C-21.043 33.605 -16.644 38.921 -12.312 44.312 C-11.936 44.784 -11.936 44.784 -10.031 47.168 C-9.748 47.522 -9.748 47.522 -8.312 49.312 C-4.603 48.076 -4.078 46.51 -2.355 43.145 C-2.011 42.437 -1.667 41.729 -1.312 41 C-0.959 40.278 -0.605 39.556 -0.24 38.812 C3.814 30.282 7.085 21.742 4.688 12.312 C2.835 7.436 0.322 4.299 -4.391 1.973 C-12.235 -0.722 -18.288 2.133 -23.75 7.875 Z " fill="#000000" transform="translate(215.3125,530.6875)"/>
<path d="M0 0 C2.716 1.93 3.747 3.342 4.938 6.438 C5.022 9.913 4.225 11.345 2 14 C-0.875 15.5 -0.875 15.5 -4 16 C-6.929 14.669 -8.733 13.267 -11 11 C-11.428 7.145 -11.559 4.872 -9.438 1.562 C-6.058 -0.604 -3.94 -0.563 0 0 Z M-6 4 C-6.66 5.32 -7.32 6.64 -8 8 C-7.01 9.32 -6.02 10.64 -5 12 C-3.35 11.67 -1.7 11.34 0 11 C0.625 8.625 0.625 8.625 1 6 C-1 4 -1 4 -3.625 3.875 C-4.409 3.916 -5.192 3.957 -6 4 Z " fill="#000000" transform="translate(209,539)"/>
<path d="M0 0 C3.565 2.614 5.253 4.754 6 9.062 C6 13 6 13 4.562 15.5 C4.047 15.995 3.531 16.49 3 17 C5.624 20.595 7.9 23.155 12 25 C14.205 24.755 15.424 24.576 17 23 C20.694 22.58 22.562 22.747 25.812 24.625 C28.508 27.551 29.162 29.02 29 33 C26.41 36.15 24.171 38.658 20.039 39.309 C11.426 39.768 4.636 36.553 -2.141 31.359 C-8.105 25.81 -12.72 18.333 -13.25 10.125 C-13.194 6.316 -12.475 4.006 -10 1 C-6.616 -1.567 -3.967 -1.214 0 0 Z M-7.715 4.246 C-9.72 6.982 -9.597 9.152 -9.473 12.465 C-7.921 20.788 -1.71 27.273 5 32 C10.357 35.075 15.895 36.089 22 35 C23.812 33.609 23.812 33.609 25 32 C24.749 29.863 24.541 28.541 23 27 C20.062 26.812 20.062 26.812 17 27 C16.34 27.66 15.68 28.32 15 29 C9.182 28.677 4.867 25.162 1.062 21 C-1 18 -1 18 -0.938 15.75 C0 14 0 14 2 12 C1.801 8.875 1.499 6.713 -0.312 4.125 C-2.953 2.365 -5.154 2.385 -7.715 4.246 Z " fill="#000000" transform="translate(1096,565)"/>
<path d="M0 0 C0 1.32 0 2.64 0 4 C-0.543 3.999 -1.086 3.998 -1.645 3.997 C-14.99 3.975 -28.335 3.959 -41.68 3.948 C-48.134 3.943 -54.588 3.936 -61.042 3.925 C-67.292 3.914 -73.543 3.908 -79.793 3.905 C-82.155 3.903 -84.517 3.9 -86.879 3.894 C-101.429 3.862 -115.929 4.136 -130.466 4.775 C-137.022 5.059 -143.563 5.119 -150.125 5.062 C-151.2 5.058 -152.275 5.053 -153.383 5.049 C-155.922 5.037 -158.461 5.021 -161 5 C-161 4.01 -161 3.02 -161 2 C-154.84 0.966 -148.729 0.691 -142.492 0.465 C-141.359 0.422 -140.226 0.379 -139.058 0.334 C-135.331 0.196 -131.603 0.065 -127.875 -0.062 C-126.59 -0.107 -125.306 -0.152 -123.982 -0.197 C-82.645 -1.599 -41.338 -1.222 0 0 Z " fill="#000000" transform="translate(1306,584)"/>
<path d="M0 0 C1.65 -0.001 3.301 -0.002 4.951 -0.003 C8.404 -0.004 11.857 -0.002 15.31 0.002 C19.685 0.008 24.061 0.005 28.436 -0.001 C31.846 -0.005 35.256 -0.004 38.665 -0.001 C40.276 -0 41.886 -0.001 43.497 -0.003 C45.774 -0.006 48.052 -0.002 50.33 0.003 C50.973 0.004 50.973 0.004 54.225 0.006 C57.8 0.059 61.357 0.265 64.924 0.496 C74.208 1.093 83.432 1.259 92.733 1.215 C94.315 1.211 95.898 1.208 97.48 1.205 C100.85 1.199 104.219 1.189 107.589 1.177 C112.934 1.159 118.279 1.149 123.623 1.141 C138.809 1.118 153.994 1.082 169.179 1.037 C177.595 1.012 186.011 0.995 194.427 0.985 C199.724 0.979 205.021 0.963 210.318 0.941 C213.629 0.929 216.94 0.926 220.252 0.925 C221.769 0.923 223.286 0.917 224.803 0.908 C257.224 0.715 257.224 0.715 267.406 8.383 C275.033 16.187 276.111 25.217 276.344 35.82 C276.026 50.09 275.095 65.014 265.094 76.133 C262.797 77.863 262.797 77.863 260.344 79.32 C259.545 79.809 258.745 80.297 257.922 80.801 C217.505 99.837 148.8 88.459 104.309 88.39 C98.822 88.382 93.335 88.385 87.848 88.394 C27.728 88.483 27.728 88.483 4.27 87.242 C3.527 87.203 2.785 87.165 2.02 87.125 C-5.703 86.702 -13.39 86.025 -21.073 85.142 C-21.425 85.101 -21.425 85.101 -23.203 84.898 C-33.375 83.666 -42.627 81.059 -49.66 73.164 C-59.316 59.805 -60.065 43.006 -58.906 27.133 C-57.548 20.033 -54.545 13.785 -48.906 9.133 C-34.573 -0.388 -16.54 -0.024 0 0 Z M-47.969 13.695 C-48.608 14.5 -49.247 15.304 -49.906 16.133 C-50.463 16.752 -51.02 17.37 -51.594 18.008 C-55.373 24.127 -55.26 30.85 -55.219 37.82 C-55.214 38.798 -55.209 39.775 -55.204 40.782 C-55.018 52.249 -53.063 62.929 -45.414 71.879 C-34.021 82.809 -15.027 82.352 -0.281 83.195 C0.424 83.236 1.128 83.277 1.855 83.319 C70.062 87.176 139.122 86.216 207.344 83.195 C208.217 83.158 209.089 83.12 209.989 83.082 C219.341 82.67 228.652 82.057 237.969 81.141 C238.798 81.059 239.628 80.978 240.483 80.894 C250.598 79.846 258.173 78.065 265.094 70.133 C271.835 60.938 272.364 48.368 272.469 37.383 C272.476 36.952 272.476 36.952 272.511 34.769 C272.456 27.158 271.055 20.247 266.969 13.758 C256.053 3.791 239.928 4.832 226.047 4.814 C224.356 4.805 222.664 4.794 220.973 4.784 C216.39 4.756 211.808 4.741 207.225 4.728 C202.338 4.712 197.452 4.685 192.565 4.66 C184.294 4.619 176.022 4.584 167.75 4.555 C156.378 4.514 145.006 4.461 133.635 4.405 C114.579 4.313 95.524 4.24 76.468 4.185 C74.521 4.18 72.574 4.174 70.627 4.168 C69.67 4.166 68.712 4.163 67.726 4.16 C60.13 4.137 52.534 4.106 44.939 4.073 C37.817 4.043 30.695 4.021 23.574 4.004 C19.477 3.995 15.38 3.982 11.284 3.96 C7.519 3.941 3.755 3.931 -0.01 3.928 C-1.992 3.925 -3.974 3.911 -5.957 3.897 C-20.235 3.909 -36.511 4.108 -47.969 13.695 Z " fill="#000000" transform="translate(620.90625,594.8671875)"/>
<path d="M0 0 C0.99 0.33 1.98 0.66 3 1 C1.31 6.248 -1.879 10.461 -5 14.938 C-5.578 15.772 -6.156 16.607 -6.751 17.466 C-7.93 19.165 -9.112 20.862 -10.296 22.557 C-11.865 24.807 -13.422 27.064 -14.977 29.324 C-15.859 30.592 -16.741 31.859 -17.625 33.125 C-18.026 33.71 -18.427 34.295 -18.84 34.898 C-20.817 37.698 -21.658 38.886 -25 40 C-26.418 38.439 -27.835 36.876 -29.25 35.312 C-30.039 34.442 -30.828 33.572 -31.641 32.676 C-38 25.464 -38 25.464 -38 22 C-33.711 22.46 -32.056 24.875 -29.375 28.062 C-27.956 29.743 -26.506 31.398 -25 33 C-24.34 33 -23.68 33 -23 33 C-21.288 30.721 -19.696 28.436 -18.125 26.062 C-17.143 24.605 -16.16 23.148 -15.176 21.691 C-14.661 20.927 -14.146 20.163 -13.616 19.375 C-10.899 15.381 -8.106 11.441 -5.312 7.5 C-4.784 6.752 -4.255 6.005 -3.709 5.235 C-2.474 3.489 -1.237 1.744 0 0 Z " fill="#000000" transform="translate(864,613)"/>
<path d="M0 0 C2 2.062 2 2.062 3 4 C0 5 0 5 -3.438 4 C-6.714 3.08 -7.944 2.778 -11 4 C-10.801 6.371 -10.801 6.371 -10 9 C-7.855 10.223 -7.855 10.223 -5.188 11.062 C1.679 13.518 1.679 13.518 4 17 C4.5 19.5 4.5 19.5 4 22 C2.13 24.244 0.611 25.694 -2 27 C-6.997 27.377 -9.991 27.093 -14 24 C-14.66 23.01 -15.32 22.02 -16 21 C-14.188 20.312 -14.188 20.312 -12 20 C-11.546 20.474 -11.092 20.949 -10.625 21.438 C-9 23 -9 23 -5.938 23.25 C-3 23 -3 23 -1 22 C-1 20.35 -1 18.7 -1 17 C-1.675 16.769 -2.351 16.539 -3.047 16.301 C-12.523 12.836 -12.523 12.836 -15 8 C-14.929 5.02 -14.461 3.587 -12.625 1.25 C-8.735 -1.742 -4.49 -1.253 0 0 Z " fill="#000000" transform="translate(607,624)"/>
<path d="M0 0 C0.99 0.33 1.98 0.66 3 1 C3 3.97 3 6.94 3 10 C3.66 9.67 4.32 9.34 5 9 C8.275 8.715 10.363 8.673 13.312 10.188 C16.813 13.947 16.164 19.131 16.328 24.012 C16.22 24.668 16.112 25.324 16 26 C15.01 26.66 14.02 27.32 13 28 C11.122 26.122 11.609 22.961 11.438 20.438 C11.354 19.24 11.27 18.042 11.184 16.809 C11.123 15.882 11.062 14.955 11 14 C8.625 13.375 8.625 13.375 6 13 C3.319 15.681 3.613 17.392 3.375 21.125 C3.3 22.221 3.225 23.316 3.148 24.445 C3.099 25.288 3.05 26.131 3 27 C2.01 27 1.02 27 0 27 C0 18.09 0 9.18 0 0 Z " fill="#000000" transform="translate(665,623)"/>
<path d="M0 0 C0.879 0.002 1.758 0.004 2.663 0.006 C4.52 0.012 6.377 0.026 8.234 0.047 C11.082 0.078 13.93 0.088 16.779 0.094 C18.582 0.103 20.385 0.113 22.188 0.125 C23.043 0.129 23.898 0.133 24.779 0.138 C30.793 0.211 30.793 0.211 33.027 1.328 C33.101 5.279 33.156 9.23 33.192 13.181 C33.215 15.187 33.253 17.193 33.291 19.199 C33.301 20.456 33.31 21.713 33.32 23.008 C33.336 24.17 33.352 25.333 33.368 26.531 C33.312 26.992 33.312 26.992 33.027 29.328 C29.175 31.896 25.993 31.616 21.527 31.594 C20.695 31.596 19.863 31.598 19.006 31.6 C17.247 31.601 15.489 31.597 13.73 31.589 C11.038 31.578 8.345 31.589 5.652 31.602 C3.944 31.6 2.236 31.598 0.527 31.594 C-0.279 31.598 -1.085 31.602 -1.916 31.606 C-5.787 31.574 -7.677 31.525 -10.973 29.328 C-12.552 24.59 -12.198 19.79 -12.223 14.828 C-12.243 13.77 -12.264 12.711 -12.285 11.621 C-12.29 10.607 -12.295 9.592 -12.301 8.547 C-12.31 7.618 -12.319 6.689 -12.329 5.732 C-11.337 -0.956 -5.493 -0.079 0 0 Z M-4.973 3.328 C-4.973 3.988 -4.973 4.648 -4.973 5.328 C-3.504 6.473 -3.504 6.473 -1.473 7.711 C-0.751 8.156 -0.029 8.6 0.715 9.059 C1.478 9.519 2.241 9.979 3.027 10.453 C3.79 10.921 4.554 11.389 5.34 11.871 C7.232 13.03 9.128 14.182 11.027 15.328 C16.285 11.928 21.361 8.516 26.027 4.328 C26.027 3.998 26.027 3.668 26.027 3.328 C15.797 3.328 5.567 3.328 -4.973 3.328 Z M25.422 9.023 C24.685 9.574 23.948 10.124 23.189 10.691 C21.632 11.859 20.085 13.042 18.549 14.238 C12.865 18.429 12.865 18.429 8.867 17.949 C5.74 16.164 2.739 14.316 -0.223 12.266 C-5.88 8.374 -5.88 8.374 -7.973 7.328 C-8.002 10.474 -8.019 13.62 -8.035 16.766 C-8.044 17.663 -8.052 18.561 -8.061 19.486 C-8.064 20.34 -8.067 21.194 -8.07 22.074 C-8.076 22.865 -8.081 23.656 -8.086 24.47 C-7.973 26.328 -7.973 26.328 -6.973 27.328 C-4.318 27.429 -1.69 27.468 0.965 27.461 C1.362 27.461 1.362 27.461 3.375 27.464 C5.059 27.465 6.744 27.463 8.429 27.458 C11.016 27.453 13.604 27.458 16.191 27.465 C17.824 27.464 19.457 27.463 21.09 27.461 C21.869 27.463 22.648 27.465 23.451 27.467 C28.912 27.443 28.912 27.443 30.027 26.328 C30.114 24.839 30.134 23.347 30.125 21.855 C30.122 20.956 30.119 20.057 30.115 19.131 C30.107 18.185 30.098 17.24 30.09 16.266 C30.085 15.316 30.081 14.367 30.076 13.389 C30.064 11.035 30.048 8.682 30.027 6.328 C28.189 6.328 26.823 7.944 25.422 9.023 Z " fill="#000000" transform="translate(1093.97265625,622.671875)"/>
<path d="M0 0 C0.99 0.33 1.98 0.66 3 1 C3 2.65 3 4.3 3 6 C4.32 6 5.64 6 7 6 C7 6.99 7 7.98 7 9 C5.68 9 4.36 9 3 9 C3 13.29 3 17.58 3 22 C4.65 22 6.3 22 8 22 C7.67 22.99 7.34 23.98 7 25 C4.625 25.125 4.625 25.125 2 25 C0 23 0 23 -0.195 19.742 C-0.172 18.466 -0.149 17.19 -0.125 15.875 C-0.107 14.594 -0.089 13.312 -0.07 11.992 C-0.047 11.005 -0.024 10.017 0 9 C-1.32 8.67 -2.64 8.34 -4 8 C-4 7.34 -4 6.68 -4 6 C-3.01 5.67 -2.02 5.34 -1 5 C-0.67 3.35 -0.34 1.7 0 0 Z " fill="#000000" transform="translate(654,626)"/>
<path d="M0 0 C65.34 0 130.68 0 198 0 C198 0.99 198 1.98 198 3 C172.644 3.154 147.289 3.302 121.933 3.443 C110.16 3.509 98.387 3.576 86.615 3.648 C76.356 3.711 66.097 3.77 55.838 3.825 C50.404 3.854 44.97 3.885 39.536 3.921 C34.424 3.954 29.313 3.982 24.201 4.007 C22.322 4.017 20.444 4.028 18.565 4.042 C16.005 4.06 13.444 4.072 10.884 4.082 C10.51 4.086 10.51 4.086 8.62 4.103 C5.268 4.11 2.204 4.052 -1 3 C-0.67 2.01 -0.34 1.02 0 0 Z " fill="#000000" transform="translate(1148,630)"/>
<path d="M0 0 C3 1 3 1 4.168 2.961 C4.504 3.758 4.841 4.554 5.188 5.375 C5.36 5.771 5.36 5.771 6.23 7.773 C7 10 7 10 7 13 C7.66 13 8.32 13 9 13 C9.052 12.66 9.052 12.66 9.312 10.938 C10.148 7.367 11.36 4.279 13 1 C13.99 0.67 14.98 0.34 16 0 C15.444 6.119 13.564 11.233 11.188 16.875 C10.844 17.741 10.5 18.607 10.146 19.5 C9.803 20.322 9.459 21.145 9.105 21.992 C8.798 22.738 8.49 23.485 8.173 24.253 C7 26 7 26 4.868 26.75 C4.252 26.833 3.635 26.915 3 27 C2.67 26.01 2.34 25.02 2 24 C2.516 23.649 3.031 23.299 3.562 22.938 C5 21 5 21 4.938 17.938 C4.171 13.844 2.518 10.125 0.84 6.332 C0 4 0 4 0 0 Z " fill="#000000" transform="translate(613,632)"/>
<path d="M0 0 C0.977 -0.026 1.954 -0.052 2.961 -0.078 C5.625 0.25 5.625 0.25 7.414 1.641 C9.988 5.061 9.729 7.649 9.688 11.875 C9.678 13.064 9.669 14.252 9.66 15.477 C9.649 16.392 9.637 17.307 9.625 18.25 C8.635 18.58 7.645 18.91 6.625 19.25 C6.564 18.335 6.504 17.42 6.441 16.477 C6.358 15.288 6.274 14.1 6.188 12.875 C6.106 11.692 6.025 10.508 5.941 9.289 C5.625 6.25 5.625 6.25 4.625 4.25 C2.25 4.125 2.25 4.125 -0.375 4.25 C-3.056 6.931 -2.762 8.642 -3 12.375 C-3.075 13.471 -3.15 14.566 -3.227 15.695 C-3.276 16.538 -3.325 17.381 -3.375 18.25 C-4.365 18.25 -5.355 18.25 -6.375 18.25 C-6.402 15.437 -6.422 12.625 -6.438 9.812 C-6.442 9.411 -6.442 9.411 -6.463 7.381 C-6.472 5.337 -6.427 3.293 -6.375 1.25 C-4.643 -0.482 -2.355 0.037 0 0 Z " fill="#000000" transform="translate(638.375,631.75)"/>
<path d="M0 0 C4.044 0.842 5.532 2.359 8 5.625 C8 7.275 8 8.925 8 10.625 C3.71 10.625 -0.58 10.625 -5 10.625 C-4.01 12.275 -3.02 13.925 -2 15.625 C1.205 16.118 3.913 15.54 7 14.625 C6.438 16.562 6.438 16.562 5 18.625 C1.654 19.492 -0.872 19.907 -4.25 19.062 C-6.878 16.904 -7.839 14.803 -9 11.625 C-9 7.586 -8.268 5.977 -5.812 2.75 C-3 0.625 -3 0.625 0 0 Z M-3.875 4.938 C-5 6.625 -5 6.625 -5 8.625 C-1.7 8.625 1.6 8.625 5 8.625 C4.67 7.305 4.34 5.985 4 4.625 C-1.506 3.279 -1.506 3.279 -3.875 4.938 Z " fill="#000000" transform="translate(692,631.375)"/>
<path d="M0 0 C3.5 0.25 3.5 0.25 5.5 2.25 C5.5 3.24 5.5 4.23 5.5 5.25 C2.86 4.92 0.22 4.59 -2.5 4.25 C-2.5 4.91 -2.5 5.57 -2.5 6.25 C-1.934 6.527 -1.368 6.804 -0.785 7.09 C-0.052 7.452 0.682 7.814 1.438 8.188 C2.168 8.547 2.899 8.907 3.652 9.277 C5.5 10.25 5.5 10.25 6.5 11.25 C6.812 13.625 6.812 13.625 6.5 16.25 C4.938 18.125 4.938 18.125 2.5 19.25 C-0.82 19.021 -3.51 18.745 -6.5 17.25 C-6.5 16.26 -6.5 15.27 -6.5 14.25 C-3.53 14.58 -0.56 14.91 2.5 15.25 C2.83 14.26 3.16 13.27 3.5 12.25 C2.407 11.982 1.314 11.714 0.188 11.438 C-5.01 9.764 -5.01 9.764 -6.5 7.25 C-6.141 2.343 -5.133 0.367 0 0 Z " fill="#000000" transform="translate(709.5,631.75)"/>
<path d="M0 0 C0.99 0.33 1.98 0.66 3 1 C3.027 3.625 3.047 6.25 3.062 8.875 C3.071 9.621 3.079 10.368 3.088 11.137 C3.113 16.773 3.113 16.773 2 19 C1.34 19 0.68 19 0 19 C-1.587 15.826 -1.143 12.418 -1.125 8.938 C-1.129 8.192 -1.133 7.446 -1.137 6.678 C-1.127 1.127 -1.127 1.127 0 0 Z " fill="#000000" transform="translate(720,632)"/>
<path d="M0 0 C4.29 0 8.58 0 13 0 C13 4.774 12.069 5.585 9.062 9.125 C5.057 13.887 5.057 13.887 4 16 C7.3 16 10.6 16 14 16 C13.67 16.99 13.34 17.98 13 19 C8.71 19 4.42 19 0 19 C-0.33 18.01 -0.66 17.02 -1 16 C0.408 13.804 1.817 11.839 3.438 9.812 C3.871 9.254 4.305 8.695 4.752 8.119 C5.825 6.739 6.912 5.368 8 4 C5.36 3.67 2.72 3.34 0 3 C0 2.01 0 1.02 0 0 Z " fill="#000000" transform="translate(727,632)"/>
<path d="M0 0 C0.66 0 1.32 0 2 0 C3.172 3.517 3.133 6.358 3.125 10.062 C3.128 11.312 3.13 12.561 3.133 13.848 C3 17 3 17 2 19 C1.01 18.67 0.02 18.34 -1 18 C-1.027 15.187 -1.047 12.375 -1.062 9.562 C-1.067 9.161 -1.067 9.161 -1.088 7.131 C-1.097 5.087 -1.052 3.043 -1 1 C-0.67 0.67 -0.34 0.34 0 0 Z " fill="#000000" transform="translate(745,632)"/>
<path d="M0 0 C11.465 -0.37 11.465 -0.37 13.824 1.262 C16.146 4.695 16.137 8.07 16.125 12.125 C16.126 12.559 16.126 12.559 16.133 14.758 C16 17 16 17 15 19 C14.01 18.67 13.02 18.34 12 18 C11.67 13.71 11.34 9.42 11 5 C9.35 4.67 7.7 4.34 6 4 C3.319 6.681 3.613 8.392 3.375 12.125 C3.3 13.221 3.225 14.316 3.148 15.445 C3.099 16.288 3.05 17.131 3 18 C2.01 18 1.02 18 0 18 C0 12.06 0 6.12 0 0 Z " fill="#000000" transform="translate(752,632)"/>
<path d="M0 0 C0.117 3.396 0.187 6.791 0.25 10.188 C0.267 10.667 0.267 10.667 0.352 13.096 C0.45 20.236 0.45 20.236 -1.836 24.113 C-4.649 26.566 -6.273 27 -10 27 C-13.375 25.562 -13.375 25.562 -16 24 C-16 23.01 -16 22.02 -16 21 C-15.722 21.072 -15.722 21.072 -14.312 21.438 C-13.549 21.623 -12.786 21.809 -12 22 C-11.154 22.247 -10.309 22.495 -9.438 22.75 C-7 23 -7 23 -5.188 21.688 C-4 20 -4 20 -4 18 C-5.052 18.227 -6.104 18.454 -7.188 18.688 C-11 19 -11 19 -13.812 17.875 C-16.406 15.652 -17.227 14.322 -18 11 C-17.922 7.244 -17.194 5.308 -15.188 2.125 C-10.352 -1.098 -5.648 -0.405 0 0 Z M-14 5 C-14.554 11.984 -14.554 11.984 -12.875 15.062 C-9.974 16.513 -8.037 15.905 -5 15 C-2.687 11.531 -2.575 10.078 -3 6 C-4.125 4.125 -4.125 4.125 -6 3 C-11.444 2.444 -11.444 2.444 -14 5 Z " fill="#000000" transform="translate(788,632)"/>
<path d="M0 0 C4.385 4.026 6.684 8.31 7.375 14.188 C6.224 25.889 -1.353 36.427 -9 45 C-18.184 40.927 -24.044 29.8 -28 21 C-29.474 14.741 -28.986 9.669 -26 4 C-19.247 -4.183 -8.896 -4.942 0 0 Z M-22.25 6.25 C-24.739 10.161 -25.324 13.3 -24.77 17.922 C-22.658 26.366 -16.231 33.26 -11 40 C-7.177 36.431 -4.471 32.892 -1.75 28.375 C-1.064 27.248 -0.378 26.122 0.328 24.961 C2.933 20.347 3.693 16.242 3 11 C1.673 7.358 -0.27 4.647 -3.188 2.062 C-10.704 -0.777 -16.632 0.632 -22.25 6.25 Z " fill="#000000" transform="translate(1116,672)"/>
<path d="M0 0 C5.875 0.875 5.875 0.875 7 2 C7.188 4.938 7.188 4.938 7 8 C5 10 5 10 1.875 10.125 C0.926 10.084 -0.023 10.043 -1 10 C-2.188 7.25 -2.188 7.25 -3 4 C-1.625 1.625 -1.625 1.625 0 0 Z " fill="#000000" transform="translate(1103,680)"/>
<path d="M0 0 C0.47 0 0.47 0 2.849 0.003 C14.212 0.014 25.575 0.033 36.938 0.062 C37.267 1.053 37.598 2.043 37.938 3.062 C35.05 4.506 32.543 4.207 29.315 4.227 C28.971 4.23 28.971 4.23 27.229 4.245 C24.911 4.262 22.594 4.273 20.276 4.284 C18.619 4.295 16.962 4.307 15.305 4.319 C10.794 4.35 6.284 4.375 1.773 4.399 C-1.989 4.419 -5.751 4.443 -9.514 4.466 C-18.39 4.522 -27.267 4.573 -36.143 4.62 C-45.305 4.669 -54.466 4.725 -63.627 4.786 C-71.487 4.837 -79.347 4.884 -87.207 4.928 C-91.904 4.955 -96.6 4.982 -101.297 5.014 C-105.715 5.043 -110.133 5.067 -114.552 5.087 C-116.173 5.096 -117.795 5.106 -119.417 5.118 C-121.631 5.134 -123.845 5.143 -126.059 5.152 C-127.298 5.159 -128.537 5.166 -129.814 5.173 C-132.699 5.075 -135.262 4.734 -138.062 4.062 C-137.733 3.072 -137.402 2.082 -137.062 1.062 C-124 0.886 -110.938 0.72 -97.875 0.562 C-96.891 0.551 -95.906 0.539 -94.892 0.527 C-63.261 0.148 -31.634 -0.029 0 0 Z " fill="#000000" transform="translate(1285.0625,682.9375)"/>
<path d="M0 0 C4.28 3.349 6.626 6.361 8.117 11.711 C8.971 18.838 8.489 24.852 4.117 30.711 C-0.879 36.142 -5.827 38.705 -13.258 39.023 C-20.764 38.822 -26.665 36.166 -31.883 30.711 C-35.419 25.066 -37.126 19.325 -35.883 12.711 C-33.663 5.666 -30.332 1.603 -24.066 -2.23 C-15.981 -6.15 -7.324 -5.014 0 0 Z M-27.883 4.711 C-30.618 8.305 -31.883 11.097 -31.883 15.711 C-29.243 15.711 -26.603 15.711 -23.883 15.711 C-23.213 13.587 -22.547 11.462 -21.883 9.336 C-21.512 8.153 -21.14 6.969 -20.758 5.75 C-19.883 2.711 -19.883 2.711 -19.883 0.711 C-23.33 0.711 -25.228 2.64 -27.883 4.711 Z M-14.883 0.711 C-18.992 5.568 -19.501 9.418 -19.883 15.711 C-15.923 15.711 -11.963 15.711 -7.883 15.711 C-8.264 9.418 -8.773 5.568 -12.883 0.711 C-13.543 0.711 -14.203 0.711 -14.883 0.711 Z M-7.883 0.711 C-6.563 5.661 -5.243 10.611 -3.883 15.711 C-1.243 15.711 1.397 15.711 4.117 15.711 C3.703 10.426 2.895 7.489 -0.883 3.711 C-5.228 0.711 -5.228 0.711 -7.883 0.711 Z M-31.883 19.711 C-31.349 24.249 -29.686 27.129 -26.883 30.711 C-24.258 32.648 -24.258 32.648 -21.883 33.711 C-21.223 33.381 -20.563 33.051 -19.883 32.711 C-21.203 28.421 -22.523 24.131 -23.883 19.711 C-26.523 19.711 -29.163 19.711 -31.883 19.711 Z M-19.883 19.711 C-19.451 25.863 -18.229 29.53 -14.883 34.711 C-11.883 33.711 -11.883 33.711 -10.715 31.82 C-10.378 31.042 -10.042 30.263 -9.695 29.461 C-9.351 28.693 -9.007 27.924 -8.652 27.133 C-7.883 24.711 -7.883 24.711 -7.883 19.711 C-11.843 19.711 -15.803 19.711 -19.883 19.711 Z M-3.883 19.711 C-4.579 21.833 -5.265 23.959 -5.945 26.086 C-6.328 27.269 -6.711 28.453 -7.105 29.672 C-7.883 32.711 -7.883 32.711 -6.883 34.711 C-1.83 31.326 2.003 28.658 4.117 22.711 C4.117 21.721 4.117 20.731 4.117 19.711 C1.477 19.711 -1.163 19.711 -3.883 19.711 Z " fill="#000000" transform="translate(1120.8828125,732.2890625)"/>
<path d="M0 0 C0 0.99 0 1.98 0 3 C-1.545 4.545 -3.057 4.207 -5.209 4.297 C-6.096 4.336 -6.982 4.375 -7.895 4.415 C-8.859 4.452 -9.823 4.49 -10.816 4.528 C-11.314 4.549 -11.314 4.549 -13.833 4.653 C-23.533 5.045 -33.233 5.34 -42.938 5.555 C-43.402 5.565 -43.402 5.565 -45.75 5.618 C-72.114 6.194 -98.482 6.152 -124.85 6.129 C-130.399 6.124 -135.949 6.127 -141.498 6.132 C-147.587 6.137 -153.675 6.137 -159.764 6.134 C-162.322 6.133 -164.88 6.134 -167.438 6.136 C-170.972 6.139 -174.505 6.135 -178.039 6.129 C-179.082 6.131 -180.125 6.133 -181.199 6.136 C-181.679 6.134 -181.679 6.134 -184.108 6.127 C-184.937 6.127 -185.766 6.126 -186.621 6.126 C-189.16 5.992 -191.522 5.556 -194 5 C-193.67 4.01 -193.34 3.02 -193 2 C-192.277 1.996 -191.554 1.992 -190.809 1.987 C-173.056 1.883 -155.303 1.774 -137.55 1.661 C-128.964 1.606 -120.378 1.552 -111.792 1.503 C-104.291 1.459 -96.79 1.413 -89.29 1.363 C-85.334 1.337 -81.378 1.312 -77.422 1.291 C-60.241 1.198 -43.081 0.969 -25.911 0.34 C-17.267 0.03 -8.648 -0.053 0 0 Z " fill="#000000" transform="translate(1341,739)"/>
</svg>
