<?xml version="1.0" encoding="UTF-8"?>
<svg xmlns="http://www.w3.org/2000/svg" width="1536" height="1024" viewBox="0 0 1536 1024" fill="none">
  <!-- Report document - main page -->
  <rect x="468" y="80" width="600" height="780" rx="8" stroke="#333" stroke-width="2.5"/>

  <!-- Cover title area -->
  <rect x="528" y="140" width="480" height="12" rx="4" fill="#444"/>
  <rect x="578" y="168" width="380" height="8" rx="3" fill="#3a3a3a"/>
  <rect x="618" y="190" width="300" height="8" rx="3" fill="#3a3a3a"/>

  <!-- Divider line -->
  <line x1="528" y1="225" x2="1008" y2="225" stroke="#333" stroke-width="1.5"/>

  <!-- Section heading -->
  <rect x="528" y="252" width="200" height="10" rx="3" fill="#444"/>

  <!-- Body text block 1 -->
  <rect x="528" y="282" width="460" height="6" rx="2" fill="#2e2e2e"/>
  <rect x="528" y="296" width="440" height="6" rx="2" fill="#2e2e2e"/>
  <rect x="528" y="310" width="420" height="6" rx="2" fill="#2e2e2e"/>
  <rect x="528" y="324" width="380" height="6" rx="2" fill="#2e2e2e"/>

  <!-- Bar chart -->
  <rect x="528" y="365" width="460" height="160" rx="4" stroke="#333" stroke-width="1.5"/>
  <rect x="560" y="440" width="40" height="72" rx="2" fill="#3a3a3a"/>
  <rect x="620" y="410" width="40" height="102" rx="2" fill="#444"/>
  <rect x="680" y="425" width="40" height="87" rx="2" fill="#3a3a3a"/>
  <rect x="740" y="395" width="40" height="117" rx="2" fill="#444"/>
  <rect x="800" y="430" width="40" height="82" rx="2" fill="#3a3a3a"/>
  <rect x="860" y="405" width="40" height="107" rx="2" fill="#444"/>
  <rect x="920" y="445" width="40" height="67" rx="2" fill="#3a3a3a"/>
  <!-- Chart baseline -->
  <line x1="548" y1="512" x2="976" y2="512" stroke="#333" stroke-width="1"/>

  <!-- Section heading 2 -->
  <rect x="528" y="555" width="240" height="10" rx="3" fill="#444"/>

  <!-- Body text block 2 -->
  <rect x="528" y="585" width="460" height="6" rx="2" fill="#2e2e2e"/>
  <rect x="528" y="599" width="430" height="6" rx="2" fill="#2e2e2e"/>
  <rect x="528" y="613" width="450" height="6" rx="2" fill="#2e2e2e"/>

  <!-- Callout box -->
  <rect x="548" y="645" width="420" height="80" rx="6" stroke="#444" stroke-width="1.5" fill="none"/>
  <rect x="575" y="665" width="180" height="8" rx="3" fill="#444"/>
  <rect x="575" y="685" width="360" height="6" rx="2" fill="#2e2e2e"/>
  <rect x="575" y="699" width="340" height="6" rx="2" fill="#2e2e2e"/>

  <!-- Bottom section -->
  <rect x="528" y="755" width="160" height="10" rx="3" fill="#444"/>
  <rect x="528" y="780" width="460" height="6" rx="2" fill="#2e2e2e"/>
  <rect x="528" y="794" width="400" height="6" rx="2" fill="#2e2e2e"/>
  <rect x="528" y="808" width="320" height="6" rx="2" fill="#2e2e2e"/>

  <!-- Second page peeking behind -->
  <rect x="488" y="100" width="600" height="780" rx="8" stroke="#2a2a2a" stroke-width="1.5" fill="none" transform="translate(-30, -10)"/>
</svg>
