<svg version="1.2" xmlns="http://www.w3.org/2000/svg" viewBox="0 0 1538 385" width="1538" height="385">
	<title>linkedin_BIG-svg</title>
	<style>
		.s0 { fill: #ffffff } 
	</style>
	<g id="layer1">
		<g id="g1917">
			<g id="g1915">
				<g id="g1913">
					<g id="g1905">
						<path id="path1903" fill-rule="evenodd" class="s0" d="m1537.6 27.6v328.8c0 15.3-16.7 27.6-32.4 27.6h-327.4c-15.7 0-24.4-12.3-24.4-27.6v-328.8c0-15.2 13.3-27.6 28.9-27.6h327.5c15.6 0 27.8 12.4 27.8 27.6zm-237.9 301.6h54.9v-87.9c0-30.6 13.2-49.3 40.8-49.3 22.7 0 32.4 21.4 32.4 45.7v91.5h54.9v-101.5c0-54.4-15.4-83.7-70.7-83.7-28.8 0-52.1 14.4-60 28.7h-0.5v-26.4h-51.8zm-91.4 0h54.9v-182.9h-54.9zm51.7-271.1c-6.5-6.4-15.2-10-24.3-10-9.1 0-17.8 3.6-24.2 10-6.5 6.5-10.1 15.2-10.1 24.3 0 9.1 3.6 17.8 10.1 24.2 6.4 6.4 15.1 10 24.2 10 9.1 0 17.9-3.6 24.3-10 6.4-6.4 10-15.2 10-24.3 0-9-3.6-17.8-10-24.2z"/>
					</g>
					<g id="g1911">
						<path id="path1907" fill-rule="evenodd" class="s0" d="m1098.5 329.2h-51.2v-21.8h-0.6c-11.4 13.2-31.2 24.1-64.7 24.1-45.8 0-85.1-34.4-85.1-93.6 0-56.3 38.8-93.9 86.8-93.9 29.7 0 48.2 10.6 59.4 24.1h0.5v-113.2h54.9zm-101-144.1c-31.4 0-49 22.4-49 52.1 0 29.8 17.6 53.1 49 53.1 31.4 0 49.8-22.7 49.8-53.1 0-31.1-18.4-52.1-49.8-52.1zm-124.7 114.6c-13 16.8-39.7 31.7-82.7 31.7-57.5 0-94.1-38-94.1-97.7 0-53.1 33.2-89.7 95.7-89.7 54 0 87.3 35.4 87.3 97.8 0 6.2-1 12.4-1 12.4h-130.2l0.3 5.6c3.6 15.8 15.5 35.1 42.9 35.1 23.8 0 40.2-12.8 47.6-22.9zm-46.7-80.3c0.4-19.3-13.7-38.8-36.1-38.8-26.5 0-40.7 20.7-42.2 38.8z"/>
						<path id="path1909" fill-rule="evenodd" class="s0" d="m622.8 229.2l77.6 100h-64.8l-67.6-91.5v91.5h-54.9v-274.3h54.9v164.6l64-73.2h64zm-329.3-82.9h51.7v26.4h0.6c7.9-14.3 31.2-28.7 60-28.7 55.2 0 70.7 35.1 70.7 83.7v101.5h-54.9v-91.5c0-26.9-9.7-45.7-32.5-45.7-27.6 0-40.7 21.9-40.7 49.3v87.9h-54.9zm-91.5 0h54.9v182.9h-54.9zm4.7-41c-6-6.2-9.4-14.4-9.4-23 0-8.6 3.4-16.9 9.4-23 6-6.2 14.2-9.7 22.8-9.9 8.9-0.3 17.4 3.1 23.8 9.3 6.3 6.2 9.9 14.7 9.9 23.6 0 8.8-3.6 17.3-9.9 23.5-6.4 6.2-14.9 9.6-23.8 9.4-8.6-0.2-16.8-3.8-22.8-9.9zm-151 169h109.7v54.8h-164.6v-274.3h54.9z"/>
					</g>
				</g>
			</g>
		</g>
	</g>
</svg>