<?xml version="1.0" encoding="UTF-8"?>
<!-- Generator: visioncortex VTracer 0.6.12 -->
<svg version="1.1" xmlns="http://www.w3.org/2000/svg" width="898" height="708">
<path d="M0 0 C4.146 3.261 7.481 7.001 10.75 11.125 C11.342 11.869 11.933 12.613 12.543 13.379 C17.043 19.307 20.842 25.537 24.625 31.938 C36.993 52.775 50.788 68.538 74.75 76.125 C76.412 76.483 78.078 76.822 79.75 77.125 C74.38 59.12 67.025 43.455 54.75 29.125 C54.055 28.305 53.36 27.485 52.645 26.641 C41.936 14.988 27.318 9.324 12.802 3.944 C10.718 3.112 8.742 2.156 6.75 1.125 C7.08 0.135 7.41 -0.855 7.75 -1.875 C17.489 0.337 26.687 2.815 35.75 7.125 C36.206 7.334 36.206 7.334 38.512 8.391 C59.583 18.851 75.141 41.494 82.852 63.23 C83.542 65.519 84.188 67.802 84.75 70.125 C85.41 70.125 86.07 70.125 86.75 70.125 C85.685 58.803 83.789 48.084 80.75 37.125 C82.07 37.125 83.39 37.125 84.75 37.125 C87.775 42.724 89.698 47.847 91 54.062 C91.173 54.81 91.345 55.557 91.523 56.326 C93.282 64.412 93.958 71.761 89.75 79.125 C87.75 80.375 87.75 80.375 85.75 81.125 C85.3 81.633 84.85 82.141 84.387 82.664 C82.75 84.125 82.75 84.125 80.832 84.445 C64.65 83.053 45.247 71.701 34.566 59.664 C29.185 52.706 24.368 45.512 19.688 38.062 C0.221 7.099 0.221 7.099 -16.25 -0.875 C-17.071 -1.287 -17.892 -1.7 -18.738 -2.125 C-33.193 -8.15 -52.827 -6.382 -67.25 -0.875 C-70.305 0.701 -73.289 2.38 -76.25 4.125 C-75.561 4.134 -74.872 4.144 -74.161 4.153 C-40.733 4.723 -40.733 4.723 -28.234 17.125 C-23.783 21.882 -20.248 26.973 -16.891 32.547 C-10.127 43.176 0.053 46.925 11.5 51.25 C26.61 56.985 26.61 56.985 30.75 61.125 C31.062 64 31.062 64 30.75 67.125 C27.555 70.336 23.658 71.189 19.375 72.188 C19.018 72.272 19.018 72.272 17.209 72.7 C0.353 76.581 -16.949 77.493 -34.152 75.367 C-53.274 73.158 -69.717 78.69 -85.031 90.219 C-94.982 98.696 -103.096 109.663 -107.25 122.125 C-107.423 124.293 -107.547 126.464 -107.645 128.637 C-107.711 129.946 -107.778 131.255 -107.846 132.603 C-107.881 133.292 -107.916 133.981 -107.952 134.69 C-108.568 146.521 -109.47 157.804 -113.25 169.125 C-110.381 167.478 -108.168 166.043 -105.812 163.688 C-98.151 156.026 -90.887 154.88 -80.49 154.796 C-79.884 154.798 -79.884 154.798 -76.812 154.812 C-75.561 154.817 -74.309 154.822 -73.019 154.827 C-58.385 155.012 -41.712 156.458 -29.562 165.562 C-27.029 168.37 -26.327 170.55 -25.25 174.125 C-10.914 174.821 -1.833 171.715 10.489 164.558 C29.282 153.832 51.376 148.436 72.688 153.812 C77.308 155.205 81.7 156.893 86.125 158.812 C94.173 162.298 99.916 162.487 108.387 160.551 C111.742 159.946 114.471 160.255 117.75 161.125 C119.426 162.293 119.426 162.293 120.75 164.125 C121.078 166.945 121.078 166.945 121 170.25 C120.987 170.826 120.987 170.826 120.922 173.738 C120.71 177.907 120.311 181.989 119.75 186.125 C124.378 185.385 126.917 184.463 129.875 180.75 C137.163 170.013 139.895 157.862 140.75 145.125 C140.804 144.442 140.858 143.759 140.914 143.055 C141.701 124.242 133.742 102.996 121.5 88.812 C118.319 85.362 115.621 83.508 111 82.562 C106.655 83.315 104.79 85.489 101.777 88.594 C99.267 90.49 97.823 90.423 94.75 90.125 C93.155 95.176 94.167 98.484 96.18 103.156 C98.475 107.496 101.247 111.468 104.027 115.51 C111.436 126.386 116.189 137.78 114.75 151.125 C113.25 154.312 113.25 154.312 111.75 156.125 C110.1 155.795 108.45 155.465 106.75 155.125 C106.767 154.606 106.767 154.606 106.855 151.977 C107.206 137.474 103.875 128.744 95.809 116.729 C90.222 108.264 85.368 99.54 86.75 89.125 C88.702 83.53 93.976 81.158 98.75 78.125 C105.029 73.978 107.144 69.295 108.75 62.125 C110.385 47.32 106.231 33.453 97.562 21.5 C89.392 11.555 78.649 4.906 65.75 3.125 C62.686 3.038 59.627 3.076 56.562 3.125 C48.019 3.259 48.019 3.259 45.75 2.125 C45.75 1.465 45.75 0.805 45.75 0.125 C58.008 -5.076 69.424 -3.144 81.75 1.125 C96.201 7.054 105.376 18.885 112.062 32.625 C117.089 44.836 117.466 59.531 113.75 72.125 C113.107 73.47 112.446 74.807 111.75 76.125 C112.318 76.272 112.887 76.419 113.473 76.57 C114.245 76.795 115.017 77.019 115.812 77.25 C116.567 77.459 117.321 77.668 118.098 77.883 C125.043 81.136 129.33 86.764 133.312 93.125 C133.784 93.871 134.256 94.617 134.742 95.386 C147.729 116.392 151.604 141.4 145.93 165.555 C142.799 175.031 138.366 183.644 131.75 191.125 C132.121 191.207 132.121 191.207 134 191.625 C138.613 194.141 140.004 198.7 141.5 203.562 C142.903 217.946 138.277 229.872 131.924 242.515 C128.314 249.724 126.5 256.21 126.188 264.312 C126.111 265.815 126.035 267.318 125.957 268.82 C125.888 270.255 125.819 271.69 125.75 273.125 C124.926 289.495 124.926 289.495 119.125 296.125 C114.807 298.684 111.64 298.614 106.75 298.125 C106.649 298.929 106.549 299.734 106.445 300.562 C102.079 322.935 86.921 342.725 71.75 359.125 C71.302 359.616 70.853 360.107 70.391 360.612 C52.086 380.47 28.342 396.236 0.852 398.348 C-19.962 398.989 -39.506 390.266 -55.25 377.125 C-56.249 376.31 -57.248 375.496 -58.277 374.656 C-70.815 364.342 -81.6 353.186 -91.25 340.125 C-91.659 339.577 -92.068 339.029 -92.489 338.464 C-98.917 329.781 -104.654 320.484 -108.266 310.246 C-108.59 309.546 -108.915 308.846 -109.25 308.125 C-110.178 307.981 -111.106 307.836 -112.062 307.688 C-115.735 307.039 -116.852 305.859 -119.115 302.982 C-121.126 299.692 -121.7 296.192 -122.375 292.438 C-122.704 290.819 -123.035 289.2 -123.367 287.582 C-123.52 286.808 -123.673 286.034 -123.831 285.237 C-125.602 276.309 -128.716 268.448 -132.558 260.229 C-132.903 259.483 -133.249 258.737 -133.605 257.969 C-133.922 257.3 -134.238 256.632 -134.563 255.943 C-135.25 254.125 -135.25 254.125 -135.25 251.125 C-135.614 251.242 -135.614 251.242 -137.457 251.836 C-140.25 252.125 -140.25 252.125 -142.574 250.727 C-142.964 250.4 -142.964 250.4 -144.938 248.75 C-149.949 245.019 -154 243.593 -160.25 244.125 C-162.945 244.711 -165.585 245.407 -168.25 246.125 C-167.404 246.898 -166.559 247.672 -165.688 248.469 C-162.732 251.178 -159.791 253.902 -156.856 256.634 C-155.576 257.823 -154.286 259.001 -152.992 260.176 C-137.72 274.586 -128.223 293.443 -123.406 313.668 C-121.085 323.161 -117.583 331.393 -113.246 340.118 C-111.754 343.125 -110.307 346.151 -108.875 349.188 C-108.414 350.148 -107.952 351.108 -107.477 352.098 C-102.479 364.433 -102.512 378.87 -106.988 391.355 C-110.636 399.363 -116.88 406.46 -125.062 410 C-136.388 413.644 -145.217 409.185 -155.25 404.125 C-156.026 404.982 -156.802 405.839 -157.602 406.723 C-171.229 421.325 -186.321 427.1 -206.25 428.125 C-191.606 436.619 -175.356 436.476 -159.323 432.686 C-150.782 430.374 -142.848 426.607 -135.25 422.125 C-134.59 423.445 -133.93 424.765 -133.25 426.125 C-142.722 436.378 -158.119 440.768 -171.789 441.508 C-188.821 442.032 -201.211 439.027 -215.973 430.703 C-222.967 426.917 -229.464 425.662 -237.277 424.688 C-245.577 423.64 -252.427 419.775 -259.25 415.125 C-259.617 415.621 -259.985 416.118 -260.363 416.629 C-263.854 419.397 -268.031 418.103 -272.246 417.688 C-296.182 414.555 -318.216 403.127 -335.25 386.125 C-335.906 385.48 -336.562 384.836 -337.238 384.172 C-344.351 376.678 -347.602 368.336 -348.25 358.125 C-348.58 357.465 -348.91 356.805 -349.25 356.125 C-351.148 355.738 -351.148 355.738 -353.625 355.438 C-358.133 354.653 -361.056 353.158 -364.812 350.562 C-369.647 347.333 -373.353 345.281 -379.25 346.125 C-383.407 347.475 -387.306 349.251 -391.25 351.125 C-400.831 355.656 -400.831 355.656 -405.25 354.562 C-408.25 353.125 -408.25 353.125 -410.25 350.125 C-412.598 334.693 -397.963 316.652 -389.657 304.864 C-375.526 285.828 -355.123 278.513 -332.25 275.125 C-330.907 275.023 -329.563 274.934 -328.219 274.855 C-317.233 274.133 -311.218 270.446 -303.25 263.125 C-279.238 241.574 -244.472 227.928 -212.081 229.211 C-202.871 229.771 -194.79 231.575 -186.203 235.004 C-181.492 236.792 -177.414 237.235 -172.391 237.082 C-171.274 237.061 -170.158 237.039 -169.008 237.018 C-166.685 236.965 -164.362 236.9 -162.039 236.822 C-151.799 236.663 -146.222 238.747 -138.25 245.125 C-138.25 231.925 -138.25 218.725 -138.25 205.125 C-137.26 204.795 -136.27 204.465 -135.25 204.125 C-135.869 203.259 -136.488 202.393 -137.125 201.5 C-140.947 195.43 -141.862 190.174 -141.25 183.125 C-140.441 179.744 -139.893 178.583 -137.062 176.566 C-133.959 174.976 -131.38 174.429 -127.938 173.938 C-126.869 173.779 -125.8 173.62 -124.699 173.457 C-123.891 173.347 -123.083 173.238 -122.25 173.125 C-122.572 172.47 -122.895 171.815 -123.227 171.141 C-128.518 155.55 -122.126 136.815 -115.625 122.66 C-114.113 118.772 -113.345 115.1 -112.688 111 C-110.588 98.065 -105.687 85.976 -95.062 77.875 C-82.171 69.094 -70.691 66.782 -55.312 66.938 C-54.707 66.938 -54.707 66.938 -51.643 66.939 C-46.506 66.964 -41.431 67.038 -36.324 67.617 C-29.568 68.378 -22.793 68.409 -16 68.438 C-15.303 68.441 -14.606 68.445 -13.887 68.449 C-1.334 68.483 10.514 67.029 22.75 64.125 C22.75 63.465 22.75 62.805 22.75 62.125 C19.917 61.179 17.083 60.234 14.244 59.307 C11.304 58.343 8.371 57.36 5.438 56.375 C4.443 56.053 3.448 55.73 2.424 55.398 C-10.982 50.856 -19.581 43.431 -27.125 31.688 C-34.258 20.668 -42.176 13.936 -55.25 11.125 C-58.934 10.901 -62.622 10.94 -66.312 10.938 C-67.299 10.925 -68.286 10.913 -69.303 10.9 C-79.087 10.881 -87.698 11.405 -95.719 17.348 C-99.418 19.945 -103.383 22.038 -107.378 24.145 C-111.261 26.277 -113.788 28.44 -116.25 32.125 C-117.125 35.25 -117.125 35.25 -117.25 38.125 C-116.59 39.115 -115.93 40.105 -115.25 41.125 C-110.475 39.785 -107.106 37.808 -103.125 34.875 C-90.173 25.659 -75.441 18.964 -59.172 21.441 C-51.795 23.004 -46.109 26.367 -41.426 32.262 C-39.502 35.31 -39.051 37.548 -39.25 41.125 C-41.062 44.062 -41.062 44.062 -44.25 46.125 C-49.875 47.239 -55.149 45.967 -60.625 44.625 C-74.433 41.493 -88.536 41.34 -101.25 48.125 C-102.248 48.656 -103.245 49.187 -104.273 49.734 C-120.269 59.083 -125.424 77.837 -131.312 94.438 C-131.834 95.9 -132.356 97.363 -132.878 98.826 C-133.646 100.983 -134.413 103.14 -135.176 105.299 C-136.522 109.108 -137.909 112.896 -139.355 116.668 C-144.479 130.308 -145.593 142.646 -139.637 156.293 C-138.649 158.311 -137.646 160.322 -136.633 162.328 C-134.68 166.278 -133.769 168.682 -135.188 172.938 C-135.538 173.659 -135.889 174.381 -136.25 175.125 C-137.9 174.795 -139.55 174.465 -141.25 174.125 C-141.861 171.855 -142.305 169.689 -142.602 167.352 C-143.306 163.845 -144.51 161.275 -146.188 158.125 C-152.381 146.438 -153.204 134.491 -149.438 121.812 C-146.458 112.946 -142.819 104.28 -139.355 95.595 C-135.623 86.211 -132.271 76.76 -129.25 67.125 C-132.815 71.117 -134.651 75.008 -136.5 79.938 C-136.768 80.63 -137.036 81.323 -137.312 82.037 C-137.966 83.73 -138.609 85.427 -139.25 87.125 C-140.57 87.125 -141.89 87.125 -143.25 87.125 C-142.92 84.485 -142.59 81.845 -142.25 79.125 C-148.423 85.298 -151.743 92.828 -152.367 101.496 C-152.191 105.452 -151.147 109.021 -149.941 112.777 C-149.25 115.125 -149.25 115.125 -149.25 118.125 C-153.416 116.736 -154.189 114.564 -156.164 110.781 C-159.55 102.499 -158.542 94.269 -155.25 86.125 C-151.916 79.458 -146.718 74.217 -141.635 68.861 C-138.917 65.989 -136.459 63.169 -134.25 59.875 C-130.432 54.46 -124.615 50.875 -119.25 47.125 C-119.611 46.64 -119.972 46.156 -120.344 45.656 C-123.906 40.51 -125.144 37.38 -124.25 31.125 C-120.407 22.21 -113.623 18.194 -105.277 13.82 C-98.71 10.143 -92.639 5.586 -86.555 1.168 C-60.331 -17.698 -26.551 -18.754 0 0 Z M-99.25 38.125 C-95.408 39.406 -94.029 38.433 -90.25 37.125 C-80.633 35.276 -72.024 36.23 -62.528 38.051 C-57.015 39.078 -51.869 39.393 -46.25 39.125 C-46.525 35.828 -46.978 34.406 -49.312 32 C-66.011 21.341 -83.756 29.097 -99.25 38.125 Z M-83.555 77.762 C-92.133 82.1 -99.998 88.812 -103.125 98.062 C-103.517 99.412 -103.898 100.765 -104.25 102.125 C-101.75 99.648 -99.281 97.158 -96.883 94.582 C-89.775 87.086 -82.003 81.571 -73.25 76.125 C-77.451 74.725 -79.586 76.078 -83.555 77.762 Z M-116.25 139.125 C-118.505 148.034 -118.847 156.988 -119.25 166.125 C-118.26 165.795 -117.27 165.465 -116.25 165.125 C-114.646 156.375 -113.988 148.018 -114.25 139.125 C-114.91 139.125 -115.57 139.125 -116.25 139.125 Z M25.75 164.125 C29.643 165.542 33.206 164.767 37.188 164.188 C50.305 162.472 63.551 162.949 76.75 163.125 C71.633 158.008 63.574 157.775 56.688 157.688 C46.126 157.725 35.462 159.947 25.75 164.125 Z M-99.25 165.125 C-99.58 165.785 -99.91 166.445 -100.25 167.125 C-99.346 167.104 -98.441 167.083 -97.51 167.062 C-79.475 166.7 -62.362 166.971 -44.612 170.667 C-41.173 171.334 -37.731 171.74 -34.25 172.125 C-34.25 171.465 -34.25 170.805 -34.25 170.125 C-50.874 160.159 -82.096 153.998 -99.25 165.125 Z M108.75 166.125 C108.09 166.785 107.43 167.445 106.75 168.125 C107.08 169.445 107.41 170.765 107.75 172.125 C104.78 172.125 101.81 172.125 98.75 172.125 C98.562 175 98.562 175 98.75 178.125 C101.884 180.214 102.725 180.399 106.312 180.375 C107.098 180.38 107.883 180.385 108.691 180.391 C110.75 180.125 110.75 180.125 112.75 178.125 C112.945 175.305 112.945 175.305 112.875 172 C112.857 170.904 112.839 169.809 112.82 168.68 C112.797 167.837 112.774 166.994 112.75 166.125 C111.43 166.125 110.11 166.125 108.75 166.125 Z M8.75 179.125 C4.739 187.148 9.128 198.172 11.75 206.125 C16.369 219.416 21.299 233.377 34.25 240.5 C47.574 243.831 63.881 243.801 76.188 237.312 C87.952 227.269 91.38 212.01 92.75 197.125 C92.973 193.562 93.07 190.007 93.125 186.438 C93.162 185.514 93.2 184.59 93.238 183.639 C93.298 179.041 93.284 176.846 90.48 173.059 C86.59 170.304 83.41 169.741 78.75 169.125 C77.921 169.014 77.092 168.903 76.238 168.789 C57.492 166.81 23.12 164.26 8.75 179.125 Z M-109.25 179.125 C-113.356 190.358 -110.522 201.763 -107.438 212.812 C-107.313 213.258 -107.313 213.258 -106.686 215.513 C-103.552 226.222 -99.378 235.453 -89.25 241.125 C-83.485 243.177 -78.217 243.476 -72.125 243.438 C-71.661 243.435 -71.661 243.435 -69.316 243.42 C-59.562 243.249 -49.613 242.613 -41.891 235.961 C-31.975 224.865 -30.129 206.732 -29.938 192.438 C-29.908 191.705 -29.879 190.972 -29.85 190.217 C-29.808 186.627 -30.111 184.365 -31.922 181.238 C-44.491 169.829 -72.926 171.349 -88.509 171.952 C-96.278 172.442 -103.522 173.447 -109.25 179.125 Z M-3.875 178.562 C-10.799 180.973 -17.986 180.82 -25.25 181.125 C-24.92 187.725 -24.59 194.325 -24.25 201.125 C-22.25 200.125 -22.25 200.125 -21.609 198.418 C-21.408 197.723 -21.207 197.028 -21 196.312 C-19.82 193.011 -19.19 192.072 -16.438 189.625 C-12.891 187.956 -11.108 187.482 -7.25 188.125 C-2.594 190.639 -0.665 192.856 2.75 197.125 C2.42 190.525 2.09 183.925 1.75 177.125 C-0.25 177.125 -0.25 177.125 -3.875 178.562 Z M-132.562 181.438 C-135.342 185.865 -134.318 190.17 -133.25 195.125 C-131.688 199.666 -129.228 203.213 -126.25 206.938 C-119.873 215.214 -118.369 225.544 -116.812 235.625 C-116.605 236.907 -116.397 238.188 -116.184 239.509 C-115.021 246.749 -113.977 254.003 -112.996 261.27 C-106.914 306.258 -88.663 342.245 -52.453 371.262 C-36.131 383.652 -16.595 393.191 4.324 390.699 C27.28 387.274 46.511 374.192 62.75 358.125 C63.512 357.424 64.274 356.722 65.059 356 C93.117 329.592 107.82 288.982 109.042 251.057 C109.198 245.247 109.314 239.439 109.335 233.627 C109.343 232.852 109.35 232.076 109.358 231.277 C109.372 229.825 109.373 228.373 109.36 226.921 C109.412 222.023 110.604 218.496 112.75 214.125 C113.094 213.399 113.439 212.673 113.793 211.925 C114.1 211.317 114.407 210.709 114.723 210.082 C115.065 209.401 115.407 208.719 115.76 208.018 C116.107 207.331 116.455 206.645 116.812 205.938 C117.164 205.239 117.515 204.541 117.877 203.822 C118.545 202.495 119.214 201.169 119.883 199.842 C120.844 197.939 121.799 196.033 122.75 194.125 C121.801 193.548 120.852 192.97 119.875 192.375 C116.863 190.206 116.146 189.351 114.75 186.125 C114.46 186.131 114.46 186.131 112.992 186.16 C108.45 186.213 104.223 186.043 99.75 185.125 C98.993 187.89 98.566 190.506 98.355 193.363 C97.052 209.399 95.333 228.389 83 240.125 C71.022 249.533 55.233 249.15 40.75 248.125 C33.598 247.049 28.328 244.664 22.75 240.125 C22.09 240.125 21.43 240.125 20.75 240.125 C20.618 239.858 20.618 239.858 19.949 238.508 C12.891 224.482 12.891 224.482 8.25 218.312 C4.682 213.446 2.443 208.238 0.234 202.657 C-1.368 198.707 -2.826 195.737 -6.25 193.125 C-8.25 192.559 -8.25 192.559 -10.25 192.562 C-10.58 192.552 -10.58 192.552 -12.25 192.496 C-15.41 193.49 -16.416 195.411 -18.25 198.125 C-19.072 200.826 -19.713 203.349 -20.25 206.102 C-20.412 206.867 -20.575 207.633 -20.742 208.422 C-21.258 210.862 -21.755 213.306 -22.25 215.75 C-27.477 241.245 -27.477 241.245 -34.277 251.332 C-35.7 253.955 -35.613 256.218 -35.25 259.125 C-30.739 260.378 -30.739 260.378 -28.438 259.188 C-25.053 257.544 -21.872 257.33 -18.25 258.125 C-16.27 259.469 -16.27 259.469 -14.312 261.125 C-10.703 264.084 -8.162 265.087 -3.48 264.797 C0.105 263.717 2.277 261.331 4.914 258.762 C7.515 256.443 9.286 255.978 12.75 256.125 C15.09 257.11 17.423 258.11 19.75 259.125 C22.688 258.812 22.688 258.812 24.75 258.125 C25.964 254.483 25.417 253.793 23.812 250.438 C23.622 250.033 23.622 250.033 22.66 247.988 C22.51 247.681 22.51 247.681 21.75 246.125 C26.243 248.311 28.082 250.399 29.75 255.125 C29.682 258.606 29.415 260.358 27.125 263 C23.783 264.583 21.414 264.504 17.75 264.125 C16.719 263.589 15.688 263.053 14.625 262.5 C11.75 261.125 11.75 261.125 9.25 261.625 C6.114 263.507 3.541 265.759 0.75 268.125 C-3.965 269.697 -8.385 270.013 -12.875 267.875 C-14.673 266.55 -16.463 265.215 -18.25 263.875 C-21.25 262.125 -21.25 262.125 -24 262.312 C-26.25 263.125 -26.25 263.125 -28.25 264.125 C-29.957 264.195 -31.667 264.209 -33.375 264.188 C-33.83 264.183 -33.83 264.183 -36.133 264.16 C-36.482 264.154 -36.482 264.154 -38.25 264.125 C-39.68 259.836 -40.214 255.512 -38.496 251.258 C-36.85 248.354 -34.951 245.71 -33 243 C-31.167 239.988 -30.845 238.569 -31.25 235.125 C-33.25 236.5 -33.25 236.5 -35.25 238.125 C-35.25 238.785 -35.25 239.445 -35.25 240.125 C-35.818 240.403 -36.387 240.682 -36.973 240.969 C-38.458 241.723 -39.926 242.514 -41.371 243.344 C-54.225 250.453 -71.486 251.071 -85.75 248 C-94.959 245.254 -100.758 240.743 -105.621 232.438 C-112.577 218.291 -116.321 202.83 -117.25 187.125 C-117.91 187.125 -118.57 187.125 -119.25 187.125 C-119.25 187.785 -119.25 188.445 -119.25 189.125 C-120.9 188.795 -122.55 188.465 -124.25 188.125 C-124.91 185.485 -125.57 182.845 -126.25 180.125 C-130.25 180.125 -130.25 180.125 -132.562 181.438 Z M126.148 198.266 C123.741 201.467 122.63 205.2 121.227 208.922 C119.988 211.608 119.03 213.036 117.193 215.22 C114.016 219.62 114.083 223.524 114.184 228.809 C114.179 229.734 114.175 230.659 114.171 231.612 C114.162 233.581 114.163 235.55 114.174 237.519 C114.248 254.062 113.839 269.995 110.101 286.182 C109.75 288.125 109.75 288.125 109.75 292.125 C112 292.125 112 292.125 114.75 291.125 C119.336 284.162 119.455 277.549 119.75 269.375 C120.223 256.447 122.99 246.124 128.812 234.625 C133.896 224.168 137.841 213.338 134.875 201.688 C133.75 199.125 133.75 199.125 131.75 197.125 C127.75 197.125 127.75 197.125 126.148 198.266 Z M-133.25 207.125 C-133.205 211.569 -133.135 216.012 -133.042 220.455 C-133.015 221.96 -132.993 223.465 -132.979 224.97 C-132.841 238.735 -130.318 250.617 -124.188 263.062 C-120.466 270.97 -118.475 278.474 -117.25 287.125 C-116.92 287.125 -116.59 287.125 -116.25 287.125 C-116.125 280.417 -116.58 273.965 -117.387 267.309 C-117.508 266.294 -117.629 265.279 -117.754 264.234 C-118.013 262.094 -118.274 259.956 -118.539 257.817 C-118.933 254.598 -119.306 251.376 -119.678 248.154 C-123.428 216.927 -123.428 216.927 -132.25 207.125 C-132.58 207.125 -132.91 207.125 -133.25 207.125 Z M-247.25 240.125 C-247.618 240.224 -247.618 240.224 -249.481 240.726 C-272.161 247.014 -292.189 258.944 -308.25 276.125 C-306.25 279.125 -306.25 279.125 -303.875 280.5 C-300.174 282.791 -297.824 285.308 -296.5 289.5 C-296.418 290.366 -296.335 291.233 -296.25 292.125 C-296.147 293.115 -296.044 294.105 -295.938 295.125 C-296.249 311.053 -306.863 325.625 -317.559 336.465 C-323.432 341.952 -329.856 346.577 -336.441 351.156 C-339.25 353.125 -339.25 353.125 -340.25 354.125 C-341.685 363.968 -338.316 370.386 -332.75 378.242 C-317.9 396.731 -293.32 407.362 -270.25 410.125 C-267.575 410.205 -264.927 410.178 -262.25 410.125 C-262.611 409.219 -262.972 408.313 -263.344 407.379 C-266.419 399.307 -268.669 392.8 -266.5 384.125 C-265.25 382.125 -265.25 382.125 -263.578 381.203 C-259.794 381.076 -257.519 383.565 -254.75 385.875 C-254.133 386.374 -253.517 386.874 -252.882 387.388 C-248.3 391.141 -243.917 395.091 -239.584 399.127 C-226.2 411.58 -214.678 420.775 -195.84 420.434 C-184.827 419.487 -173.527 414.22 -166.062 405.938 C-164.25 403.125 -164.25 403.125 -164.25 399.125 C-165.445 398.629 -166.64 398.132 -167.871 397.621 C-180.496 392.271 -194.684 385.739 -200.25 372.125 C-200.953 367.63 -200.692 364.065 -198.75 359.938 C-189.704 349.761 -177.618 345.778 -164.273 344.938 C-154.164 344.729 -144.247 345.346 -136.25 352.125 C-132.833 356.314 -132.005 360.749 -132.395 366.117 C-134.38 378.033 -141.949 387.786 -150.25 396.125 C-148.858 400.302 -146.64 401.118 -142.848 403.102 C-136.993 405.408 -131.393 404.826 -125.562 402.688 C-118.891 399.334 -114.81 393.368 -112.375 386.438 C-108.347 372.153 -110.474 359.569 -117.125 346.5 C-117.998 344.738 -118.871 342.974 -119.742 341.211 C-119.954 340.783 -119.954 340.783 -121.026 338.617 C-124.614 331.311 -127.19 324.272 -129.188 316.375 C-133.834 298.802 -140.285 284.066 -152.25 270.125 C-152.927 269.314 -153.604 268.503 -154.301 267.668 C-160.312 260.69 -167.126 254.916 -174.25 249.125 C-174.91 249.785 -175.57 250.445 -176.25 251.125 C-171.846 262.575 -166.84 273.108 -160.2 283.448 C-157.517 287.687 -155.573 290.979 -155.25 296.125 C-158.008 296.029 -158.008 296.029 -161.25 295.125 C-162.892 292.915 -163.973 291.11 -165.125 288.66 C-165.456 287.999 -165.786 287.338 -166.127 286.658 C-167.191 284.511 -168.221 282.351 -169.25 280.188 C-169.971 278.717 -170.693 277.246 -171.416 275.776 C-175.414 267.546 -179.187 259.31 -181.227 250.342 C-182.249 246.36 -183.646 244.504 -186.992 242.312 C-205.318 232.251 -227.863 234.759 -247.25 240.125 Z M-137.25 246.125 C-136.25 248.125 -136.25 248.125 -136.25 248.125 Z M-374.25 298.125 C-374.879 298.674 -375.508 299.223 -376.156 299.789 C-387.068 309.964 -402.479 329.791 -403.438 345.125 C-403.376 345.785 -403.314 346.445 -403.25 347.125 C-401.25 348.125 -401.25 348.125 -399.148 347.488 C-398.316 347.142 -397.483 346.795 -396.625 346.438 C-395.733 346.066 -394.841 345.695 -393.922 345.312 C-390.899 343.969 -387.957 342.515 -385.039 340.957 C-380.826 338.998 -376.86 338.679 -372.25 339.125 C-367.5 341.007 -363.231 343.432 -359.062 346.375 C-355.613 348.521 -353.31 349.054 -349.25 349.125 C-345.5 348.125 -345.5 348.125 -342.25 346.125 C-339.041 340.017 -337.635 333.339 -335.938 326.688 C-332.319 312.92 -328.245 300.018 -321.156 287.578 C-320.25 285.125 -320.25 285.125 -321.094 282.797 C-321.475 282.245 -321.857 281.693 -322.25 281.125 C-339.269 279.404 -361.595 286.747 -374.25 298.125 Z M-312.25 283.125 C-324.566 299.08 -331.618 321.336 -334.25 341.125 C-322.466 337.297 -312.192 323.536 -306.621 313.062 C-302.731 304.728 -300.165 296.135 -303.312 287.062 C-305.984 284.391 -308.608 283.881 -312.25 283.125 Z M-116.25 291.125 C-115.25 293.125 -115.25 293.125 -115.25 293.125 Z M-115.25 293.125 C-114.25 297.125 -114.25 297.125 -114.25 297.125 Z M-193.25 362.125 C-194.857 365.34 -194.653 367.555 -194.25 371.125 C-188.512 382.294 -175.728 389.299 -164.25 393.125 C-160.244 393.82 -156.777 393.946 -153.129 391.984 C-145.905 386.183 -139.165 375.937 -137.914 366.625 C-137.85 362.549 -137.871 359.838 -139.812 356.188 C-153.611 344.512 -181.601 349.304 -193.25 362.125 Z M-261.25 389.125 C-261.86 396.691 -260.563 401.822 -256.25 408.125 C-250.661 414.357 -244.52 417.775 -236.25 419.125 C-234.313 419.19 -232.375 419.211 -230.438 419.188 C-229.462 419.178 -228.486 419.169 -227.48 419.16 C-226.744 419.149 -226.008 419.137 -225.25 419.125 C-229.116 415.13 -233.212 411.435 -237.359 407.734 C-239.452 405.846 -241.522 403.944 -243.578 402.016 C-244.146 401.485 -244.714 400.954 -245.299 400.406 C-246.405 399.37 -247.508 398.33 -248.607 397.287 C-257.337 389.125 -257.337 389.125 -261.25 389.125 Z " fill="#000000" transform="translate(456.25,13.875)"/>
<path d="M0 0 C0.892 0.49 1.784 0.98 2.703 1.484 C19.1 10.899 43.704 27.112 50 46 C51.994 46.683 53.996 47.347 56 48 C88.164 68.594 107.034 108.952 123.112 142.166 C123.987 143.974 124.874 145.776 125.762 147.578 C144.543 186.265 144.543 186.265 143 202 C142 203 142 203 139.562 203.188 C137 203 137 203 135 201 C134.583 199.033 134.245 197.049 133.938 195.062 C126.885 156.963 105.54 117.15 83 86 C82.799 85.722 82.799 85.722 81.784 84.317 C77.186 78.022 72.288 72.035 67.062 66.25 C66.602 65.736 66.141 65.222 65.666 64.693 C63.454 62.298 62.15 61.05 59 60 C59.436 60.874 59.871 61.748 60.32 62.648 C67.849 78.06 72.426 94.029 76.605 110.625 C77.51 114.203 78.515 117.727 79.613 121.25 C83.683 134.634 82.27 148.41 80 162 C79.856 163.111 79.711 164.222 79.562 165.367 C78.164 175.584 78.164 175.584 74 179 C72.485 179.579 70.964 180.14 69.438 180.688 C66.497 181.863 65.302 182.364 63.926 185.262 C63.474 187.01 63.049 188.766 62.652 190.527 C61.603 194.505 60.051 196.22 57 199 C51.07 202.357 45.69 202.075 39.057 201.873 C34.713 201.805 31.475 202.274 27.5 204 C20.213 207.076 10.982 207.698 3.41 205.117 C1.336 203.915 -0.272 202.657 -2 201 C-2.549 200.504 -3.098 200.007 -3.664 199.496 C-12.24 190.73 -13.08 178.642 -13 167 C-11.867 146.754 -1.665 128.35 7.214 110.576 C8.463 108.076 9.701 105.574 10.93 103.064 C11.559 101.788 12.188 100.511 12.816 99.234 C13.379 98.087 13.942 96.939 14.522 95.757 C16 93 16 93 18 91 C20.625 91.375 20.625 91.375 23 92 C23.946 95.069 24.173 96.571 22.955 99.593 C22.414 100.506 21.874 101.419 21.316 102.359 C20.722 103.384 20.128 104.409 19.515 105.465 C18.871 106.549 18.226 107.633 17.562 108.75 C16.259 111.011 14.959 113.274 13.664 115.539 C13.031 116.644 12.399 117.749 11.747 118.888 C0.934 138.15 -9.538 162.002 -3.938 184.438 C-1.838 190.398 2.041 195.131 7.375 198.5 C13.636 199.693 18.452 199.342 24.438 197.062 C30.595 194.798 36.365 194.457 42.857 194.328 C50.054 194.152 50.054 194.152 53 192 C54.945 189.083 55.304 187.879 55.812 184.562 C56.505 181.278 56.846 180.167 59.188 177.625 C62 176 62 176 65.625 174.562 C69.529 172.755 70.215 171.823 72 168 C72.477 164.59 72.477 164.59 72.625 160.938 C72.922 154.311 72.922 154.311 73.494 152.029 C76.92 138.296 72.671 124.039 68.82 110.931 C68.019 108.069 67.335 105.205 66.688 102.305 C60.463 74.903 46.626 51.721 28 31 C27.359 30.276 26.719 29.551 26.059 28.805 C10.196 11.88 -12.694 -0.169 -34.688 -6.812 C-35.007 -6.91 -35.007 -6.91 -36.626 -7.403 C-60.778 -14.269 -91.515 -14.346 -114 -2 C-141.703 15.565 -154.068 40.39 -164.582 70.535 C-165.073 71.92 -165.566 73.304 -166.062 74.688 C-166.295 75.337 -166.527 75.987 -166.767 76.656 C-168.68 81.73 -171.459 85.62 -174.715 89.898 C-176 92 -176 92 -176 95.688 C-175.67 96.781 -175.34 97.874 -175 99 C-173.923 104.385 -173.683 108.961 -176 114 C-177.585 116.086 -179.271 118.027 -181 120 C-178.272 121.772 -175.542 123.543 -172.812 125.312 C-172.044 125.812 -171.275 126.312 -170.482 126.826 C-166.691 129.283 -162.897 131.712 -159 134 C-158.853 133.261 -158.706 132.523 -158.555 131.762 C-154.907 115.265 -146.91 105.215 -132.958 96.222 C-128.677 93.55 -124.309 91.017 -119.913 88.538 C-113.526 84.893 -107.481 81.298 -105 74 C-105.312 70.125 -105.312 70.125 -106 67 C-110.529 65.233 -114.144 64.498 -119 65 C-121.101 65.994 -123.103 67.113 -125.133 68.242 C-127 69 -127 69 -130 68.25 C-130.66 67.837 -131.32 67.425 -132 67 C-132.375 64.75 -132.375 64.75 -132 62 C-124.935 56.219 -117.812 56.421 -109 57 C-104.777 57.842 -101.768 59.291 -98.562 62.25 C-95.83 67.059 -95.538 71.157 -96.938 76.438 C-101.412 88.139 -114.376 94.013 -124.547 100.137 C-136.307 107.25 -145.609 114.365 -150 128 C-151.415 136.515 -151.482 143.403 -147.312 151.125 C-142.721 156.833 -137.797 161.476 -130.246 162.301 C-129.319 162.305 -128.392 162.309 -127.438 162.312 C-126.973 162.321 -126.973 162.321 -124.621 162.363 C-121.504 161.931 -120.139 161.31 -118 159 C-117.516 156.574 -117.516 156.574 -118 154 C-119.609 151.895 -119.609 151.895 -121.75 149.812 C-127.605 143.564 -130.468 136.523 -131.102 127.973 C-130.902 124.097 -129.025 121.991 -126.344 119.398 C-120.799 116.09 -112.164 117.18 -105.933 118.407 C-95.912 120.943 -85.907 125.139 -80 134 C-78.567 136.866 -78.694 138.813 -79 142 C-82.394 148.929 -87.835 151.919 -94.855 154.422 C-98.55 155.684 -102.267 156.858 -106 158 C-105.155 165.532 -102.874 169.91 -97 174.688 C-85.846 181.916 -72.404 182.458 -59.648 180.48 C-48.41 177.705 -37.947 172.137 -27.549 167.173 C-22.543 164.869 -22.543 164.869 -20 164 C-17.688 164.875 -17.688 164.875 -16 166 C-16.137 168.293 -16.137 168.293 -17 171 C-21.254 174.009 -26.23 175.922 -31 178 C-31.382 178.17 -31.382 178.17 -33.315 179.03 C-45.32 184.321 -57.078 187.778 -70 190 C-60.001 195.355 -49.812 199.501 -39.161 203.367 C-34.725 204.981 -30.302 206.63 -25.879 208.281 C-25.015 208.604 -24.151 208.926 -23.261 209.258 C-1.462 217.428 18.446 226.281 35 243 C35.873 243.851 36.745 244.702 37.645 245.578 C46.797 254.97 57.319 270.13 58.25 283.625 C58.168 284.409 58.085 285.192 58 286 C56.35 286.33 54.7 286.66 53 287 C50.836 283.573 49.209 280.214 47.75 276.438 C35.77 247.393 12.872 231.965 -15 220 C-19.765 218.095 -24.6 216.383 -29.433 214.66 C-57.921 204.46 -87.1 193.287 -110.125 173.141 C-115.175 168.971 -115.175 168.971 -119.5 169.125 C-120.077 169.269 -120.077 169.269 -123 170 C-132.371 170.781 -140.922 167.68 -148.227 161.762 C-151.858 158.154 -154.614 153.771 -156.899 149.203 C-160.497 142.561 -165.81 139.2 -172.062 135.188 C-174.033 133.89 -176.003 132.592 -177.973 131.293 C-178.842 130.731 -179.71 130.169 -180.606 129.591 C-183 128 -183 128 -185.139 126.34 C-187.604 124.565 -189.766 124.274 -192.75 123.812 C-193.735 123.654 -194.72 123.495 -195.734 123.332 C-196.482 123.222 -197.23 123.113 -198 123 C-196.274 178.398 -196.274 178.398 -180.84 193.051 C-179.437 194.246 -178.005 195.41 -176.539 196.527 C-176.031 197.013 -175.523 197.499 -175 198 C-175 198.99 -175 199.98 -175 201 C-177.362 201.84 -178.554 202.173 -180.93 201.25 C-192.943 193.531 -197.712 182.573 -201 169 C-204.236 153.029 -204.866 136.689 -205.775 120.461 C-206.041 116.375 -206.437 112.312 -206.891 108.243 C-207.025 105.474 -206.424 103.074 -205.605 100.438 C-204.571 96.273 -204.223 91.985 -203.786 87.722 C-203.356 83.84 -202.652 80.546 -201 77 C-200.34 77 -199.68 77 -199 77 C-198.039 79.883 -197.883 81.677 -197.902 84.668 C-197.906 85.561 -197.909 86.453 -197.912 87.373 C-197.92 88.302 -197.929 89.231 -197.938 90.188 C-197.942 91.128 -197.947 92.068 -197.951 93.037 C-197.963 95.358 -197.979 97.679 -198 100 C-197.031 100.268 -196.061 100.536 -195.062 100.812 C-194.052 101.204 -193.041 101.596 -192 102 C-191 105 -191 105 -190.688 107.5 C-189.84 110.583 -188.672 111.362 -186 113 C-183.409 110.827 -182.121 109.372 -181.062 106.125 C-180.986 102.296 -182.249 100.362 -184 97 C-184.416 93.369 -184.333 91.551 -182.426 88.395 C-181.728 87.542 -181.031 86.69 -180.312 85.812 C-173.522 77.487 -170.429 67.625 -167.312 57.5 C-158.555 30.255 -142.459 6.448 -118 -9 C-134.789 -9.894 -148.492 -4.868 -161.344 5.996 C-161.89 6.327 -162.437 6.659 -163 7 C-163.99 6.67 -164.98 6.34 -166 6 C-161.457 -4.145 -149.727 -8.961 -140 -13 C-130.665 -16.299 -121.314 -17.75 -112 -14 C-106.173 -14.307 -100.744 -15.754 -95.125 -17.281 C-62.949 -24.682 -28.211 -15.761 0 0 Z M-200 110 C-199.312 112.375 -199.312 112.375 -198 115 C-195.375 116.312 -195.375 116.312 -193 117 C-194.285 114.133 -195.571 112.024 -198 110 C-198.66 110 -199.32 110 -200 110 Z M-122.773 125.262 C-124.751 128.065 -124.195 130.18 -123.703 133.457 C-122.066 139.379 -118.522 144.793 -114.25 149.188 C-109.54 151.814 -106.13 151.243 -101 150 C-94.98 148.209 -89.707 146.24 -86 141 C-85.688 138.562 -85.688 138.562 -87 136 C-93.62 129.086 -104.785 124.65 -114.254 123.797 C-115.016 123.781 -115.778 123.766 -116.562 123.75 C-117.327 123.724 -118.091 123.698 -118.879 123.672 C-121 124 -121 124 -122.773 125.262 Z " fill="#000000" transform="translate(754,268)"/>
<path d="M0 0 C4.213 0 5.737 0.759 8.875 3.625 C11.37 7.588 11.835 9.407 11 14 C8.646 17.047 6.706 18.683 3.195 20.262 C-0.642 22.349 -3.057 24.892 -6 28.062 C-20.278 42.821 -38.674 54.698 -59.693 55.35 C-78.501 55.551 -93.096 48.332 -106.844 35.867 C-107.37 35.39 -107.897 34.912 -108.44 34.42 C-109.48 33.473 -110.514 32.52 -111.543 31.56 C-114.827 28.62 -117.193 27.36 -121.562 26.875 C-129.049 25.755 -129.049 25.755 -132 23 C-132.938 19.938 -132.938 19.938 -133 17 C-131 15 -131 15 -128.5 14.5 C-124.773 15.032 -123.278 15.962 -120.188 18 C-113.33 22.333 -108.39 21.478 -100.699 19.961 C-92.538 18.58 -84.382 18.922 -76.144 19.192 C-66.979 19.471 -59.185 18.673 -50.396 15.968 C-41.032 13.298 -30.496 13.064 -20.875 14.5 C-17.275 14.964 -13.814 15.17 -10.188 15.25 C-9.088 15.276 -7.988 15.302 -6.855 15.328 C-4 15 -4 15 -2.086 13.801 C-0.574 11.293 -0.962 9.792 -1.438 6.938 C-1.871 4.277 -1.871 4.277 -2 2 C-1.34 1.34 -0.68 0.68 0 0 Z M-46.12 21.792 C-61.701 25.39 -76.527 25.384 -92.404 25.032 C-97.368 24.946 -102.095 25.271 -107 26 C-102.11 36.5 -88.459 42.443 -78.125 46.312 C-64.505 51.13 -50.911 49.421 -37.944 43.334 C-27.451 38.155 -17.079 31.565 -9 23 C-9 22.34 -9 21.68 -9 21 C-13.323 20.661 -17.646 20.366 -21.975 20.12 C-23.729 20.016 -25.482 19.889 -27.234 19.758 C-33.919 19.475 -39.631 20.289 -46.12 21.792 Z " fill="#000000" transform="translate(513,285)"/>
<path d="M0 0 C6.572 5.232 10.253 11.628 12.113 19.746 C11.453 20.406 10.793 21.066 10.113 21.746 C7.676 21.672 7.676 21.672 5.113 20.746 C3.488 18.602 3.488 18.602 2.113 15.934 C-1.142 10.157 -3.845 7.14 -10.324 5.309 C-14.752 4.441 -16.979 5.474 -20.887 7.746 C-23.132 7.503 -24.292 7.341 -25.887 5.746 C-26.262 3.434 -26.262 3.434 -25.887 0.746 C-18.501 -6.639 -8.268 -5.495 0 0 Z " fill="#000000" transform="translate(732.88671875,364.25390625)"/>
<path d="M0 0 C3 1 3 1 4 2.75 C4 5 4 5 1.855 7.348 C-0.912 9.918 -3.756 12.308 -6.688 14.688 C-19.281 25.156 -31.073 36.965 -41 50 C-41.793 50.999 -42.586 51.998 -43.402 53.027 C-49.742 61.045 -55.519 69.375 -61 78 C-61.472 78.741 -61.944 79.482 -62.43 80.246 C-73.706 98.106 -83.009 116.578 -89.452 136.728 C-89.599 137.183 -89.599 137.183 -90.344 139.484 C-90.593 140.286 -90.843 141.087 -91.1 141.913 C-92.091 144.211 -93.016 145.48 -95 147 C-97.688 146.688 -97.688 146.688 -100 146 C-101.652 141.985 -100.193 138.872 -98.688 135.062 C-98.418 134.368 -98.149 133.673 -97.872 132.958 C-80.86 90.138 -43.498 21.749 0 0 Z " fill="#000000" transform="translate(101,371)"/>
<path d="M0 0 C6.78 3.758 9.423 9.249 11.992 16.328 C14.447 25.272 15.362 33.863 15.312 43.125 C15.31 43.671 15.31 43.671 15.298 46.433 C14.964 69.672 8.551 91.322 -7 109 C-7.666 109.762 -8.333 110.524 -9.02 111.309 C-21.519 124.689 -41.583 135.055 -60.109 136.121 C-61.74 136.124 -63.371 136.069 -65 136 C-65 134.68 -65 133.36 -65 132 C-64.461 131.872 -64.461 131.872 -61.73 131.223 C-45.799 127.234 -30.129 121.438 -18 110 C-17.698 109.742 -17.698 109.742 -16.168 108.438 C0.302 93.566 6.447 70.002 7.812 48.688 C8.47 34.936 8.316 19.421 -0.25 8 C-2.866 6.098 -4.2 5.561 -7.25 4.875 C-8.487 4.586 -9.725 4.298 -11 4 C-11.165 3.505 -11.165 3.505 -12 1 C-8.179 -1.707 -4.274 -1.404 0 0 Z " fill="#000000" transform="translate(577,431)"/>
<path d="M0 0 C0.99 0 1.98 0 3 0 C3.482 2.979 3.961 5.958 4.438 8.938 C4.572 9.768 4.707 10.599 4.846 11.455 C4.978 12.283 5.11 13.112 5.246 13.965 C5.306 14.339 5.306 14.339 5.611 16.234 C6.614 23.367 7.174 30.378 7.238 37.582 C7.246 38.476 7.254 39.371 7.263 40.292 C7.276 42.179 7.287 44.065 7.295 45.952 C7.307 47.839 7.327 49.727 7.357 51.614 C7.623 68.591 6.231 85.358 -0.75 101.062 C-1.09 101.875 -1.43 102.688 -1.78 103.525 C-3.178 106.849 -4.625 110.151 -6.082 113.45 C-16.746 137.598 -20.278 159.936 -14 186 C-13.85 186.646 -13.699 187.292 -13.544 187.958 C-10.276 201.556 -4.427 214.196 1.123 226.98 C40.413 317.499 40.413 317.499 32.785 347.102 C31.475 350.27 30.085 351.561 27 353 C22.096 353.377 19.233 351.764 15.5 348.812 C-5.442 328.798 -4.562 288.307 -7.25 261.551 C-9.364 240.574 -12.008 228.348 -26 212 C-26.306 211.633 -26.306 211.633 -27.852 209.773 C-53.091 179.924 -91.702 165.524 -129.109 159.273 C-130.013 159.122 -130.917 158.971 -131.848 158.815 C-136.431 158.051 -141.017 157.306 -145.607 156.586 C-166.976 153.168 -166.976 153.168 -174 147 C-175.03 143.291 -175.338 140.968 -174.062 137.312 C-168.927 131.554 -161.15 130.037 -153.875 128.5 C-152.914 128.288 -151.953 128.077 -150.963 127.859 C-144.46 126.452 -137.931 125.258 -131.375 124.125 C-109.134 120.236 -87.451 113.963 -66 107 C-64.925 106.657 -63.85 106.315 -62.743 105.962 C-46.902 100.886 -32.052 94.609 -17.223 87.072 C-15 86 -15 86 -12 85 C-11.34 85.33 -10.68 85.66 -10 86 C-10.262 89.148 -10.626 90.635 -12.918 92.871 C-17.091 95.754 -21.501 97.753 -26.125 99.812 C-27.111 100.254 -28.098 100.696 -29.114 101.151 C-38.278 105.203 -47.519 108.767 -57 112 C-58.164 112.403 -59.328 112.807 -60.528 113.222 C-88.248 122.794 -116.49 130.336 -145.509 134.751 C-162.357 137.357 -162.357 137.357 -167 142 C-160.418 145.332 -154.18 146.984 -146.922 148.148 C-145.875 148.328 -144.827 148.508 -143.748 148.694 C-139.319 149.454 -134.886 150.187 -130.452 150.922 C-109.77 154.378 -89.912 158.72 -71 168 C-70.385 168.296 -69.77 168.592 -69.136 168.897 C-50.364 178.024 -33.46 191.025 -19 206 C-17.669 207.336 -16.336 208.67 -15 210 C-15.196 209.423 -15.393 208.845 -15.595 208.25 C-26.952 174.552 -28.901 144.926 -14 112 C-6.19 94.643 0.181 78.313 0.133 58.973 C0.133 58.543 0.133 58.543 0.137 56.371 C0.138 53.602 0.132 50.832 0.125 48.062 C0.124 47.124 0.124 46.185 0.123 45.217 C0.115 32.988 -0.024 20.791 -0.732 8.578 C-1.092 2.184 -1.092 2.184 0 0 Z M-2 247 C5.2 325.019 5.2 325.019 19.965 343.453 C20.301 343.708 20.301 343.708 22 345 C24.127 344.597 24.127 344.597 26 344 C27.559 310.112 15.213 276.922 0 247 C-0.66 247 -1.32 247 -2 247 Z " fill="#000000" transform="translate(361,355)"/>
</svg>
